$MeshFormat
2.2 0 8
$EndMeshFormat
$PhysicalNames
5
1 1 "bottom"
1 2 "outer"
1 3 "left"
1 4 "inner"
2 1 "domain"
$EndPhysicalNames
$Nodes
153
1 1 0 0
2 2 0 0
3 0 2 0
4 0 1 0
5 1.25 0 0
6 1.5 0 0
7 1.75 0 0
8 1.125 0 0
9 1.375 0 0
10 1.625000000000034 0 0
11 1.874999999999878 0 0
12 1.961570560608123 0.3901806450293668 0
13 1.847759064165428 0.7653668667995112 0
14 1.662939222739966 1.111140468830561 0
15 1.414213559153526 1.414213565592664 0
16 1.111140463259168 1.662939226462651 0
17 0.7653668624591459 1.847759065963267 0
18 0.390180642826767 1.961570561046248 0
19 1.990369453300755 0.1960342811021902 0
20 1.91388067100416 0.5805693560261924 0
21 1.763842527358157 0.9427934761562512 0
22 1.546020904211018 1.268786571391165 0
23 1.268786565284981 1.546020909222233 0
24 0.9427934712479195 1.763842529981715 0
25 0.5805693525888537 1.913880672046865 0
26 0.1960342801150342 1.990369453397982 0
27 0 1.75 0
28 0 1.5 0
29 0 1.25 0
30 0 1.875 0
31 0 1.625 0
32 0 1.374999999999966 0
33 0 1.125000000000122 0
34 0.1950903225146834 0.9807852803040616 0
35 0.3826834333997556 0.9238795320827141 0
36 0.5555702344152804 0.8314696113699829 0
37 0.707106782796332 0.707106779576763 0
38 0.8314696132313257 0.555570231629584 0
39 0.9238795329816333 0.3826834312295729 0
40 0.9807852805231239 0.1950903214133835 0
41 0.09801714055109509 0.9951847266503776 0
42 0.2902846780130962 0.9569403355020798 0
43 0.4713967380781256 0.8819212636790787 0
44 0.6343932856955824 0.7730104521055088 0
45 0.7730104546111167 0.6343932826424904 0
46 0.8819212649908577 0.4713967356239597 0
47 0.9569403360234324 0.2902846762944268 0
48 0.9951847266989908 0.09801714005751708 0
49 1.225981600544374 0.2438629023173794 0
50 1.154849415777582 0.4783542901220574 0
51 1.039337015608486 0.6944627909298283 0
52 0.8838834768856305 0.8838834760807384 0
53 0.6944627916262521 1.03933701514315 0
54 0.4783542906646032 1.154849415552853 0
55 0.2438629025927043 1.225981600489608 0
56 1.471177920565624 0.2926354832213752 0
57 1.38581929857353 0.574025149014542 0
58 1.247204417985646 0.8333553502300722 0
59 1.060660170974929 1.060660172584714 0
60 0.8333553488372243 1.247204418916317 0
61 0.5740251479294507 1.385819299022991 0
62 0.2926354826707252 1.471177920675155 0
63 1.716374240586874 0.3414080641253711 0
64 1.616789181369479 0.6696960079070265 0
65 1.455071820362806 0.9722479095303166 0
66 1.237436865064228 1.237436869088689 0
67 0.972247906048196 1.455071822689484 0
68 0.6696960051942982 1.616789182493128 0
69 0.3414080627487461 1.716374240860701 0
70 1.237990800272187 0.1219314511586897 0
71 1.103383440533749 0.2194766118653814 0
72 1.116587763485589 0.1099742956081034 0
73 1.190415508160978 0.3611085962197184 0
74 1.039364474379608 0.4305188606758152 0
75 1.073677922092205 0.3256966362570726 0
76 1.097093215693034 0.5864085405259429 0
77 0.9354033144199058 0.6250165112797061 0
78 0.9895072403419457 0.5289026380749513 0
79 0.9616102462470582 0.7891731335052834 0
80 0.7954951298409813 0.7954951278287508 0
81 0.8673103504290874 0.7117832080738868 0
82 0.7891731342559414 0.9616102456119442 0
83 0.6250165130207663 0.9354033132565664 0
84 0.7117832099757619 0.8673103488587265 0
85 0.5864085411454276 1.097093215348001 0
86 0.4305188620321794 1.039364473817783 0
87 0.5289026396117766 0.98950723951354 0
88 0.3611085966286537 1.19041550802123 0
89 0.2194766125536939 1.103383440396835 0
90 0.3256966373208749 1.073677921761655 0
91 0.1219314512963521 1.237990800244804 0
92 0.1099742959237236 1.116587763447652 0
93 1.485588960282812 0.1463177416106876 0
94 1.348579760554999 0.2682491927693773 0
95 1.361789880277499 0.1341245963846887 0
96 1.428498609569577 0.4333303161179586 0
97 1.270334357175556 0.5261897195682997 0
98 1.309457058865277 0.3972194561688385 0
99 1.316511858279588 0.7036902496223072 0
100 1.143270716797066 0.7639090705799503 0
101 1.206802536986311 0.645049395074125 0
102 1.153932294480287 0.9470077614073928 0
103 0.9722718239302799 0.972271824332726 0
104 1.057771270363673 0.8680904474563381 0
105 0.9470077599060768 1.153932295750515 0
106 0.7639090702317382 1.143270717029734 0
107 0.8680904470810089 1.05777127068123 0
108 0.7036902483833375 1.316511858969654 0
109 0.526189719297027 1.270334357287922 0
110 0.6450493947643826 1.206802537158828 0
111 0.4333303153000879 1.428498609849073 0
112 0.2682491926317148 1.348579760582381 0
113 0.3972194559643708 1.309457058935152 0
114 0.1463177413353626 1.485588960337577 0
115 0.1341245963158574 1.361789880291174 0
116 1.733187120293437 0.1707040320626855 0
117 1.593776080576249 0.3170217736733731 0
118 1.609388040288142 0.1585108868366866 0
119 1.666581710978176 0.5055520360161988 0
120 1.501304239971505 0.6218605784607842 0
121 1.547540160273877 0.4694411760670786 0
122 1.535930500866142 0.8209719587186716 0
123 1.351138119174226 0.9028016298801944 0
124 1.426221179572865 0.7623311041704894 0
125 1.346254342713517 1.104842389309503 0
126 1.149048518019578 1.149048520836701 0
127 1.250093318596902 1.025925075358447 0
128 1.104842385556212 1.346254345889086 0
129 0.9028016274427102 1.351138120802901 0
130 1.025925072731144 1.250093320819801 0
131 0.8209719556212471 1.535930502591306 0
132 0.6218605765618744 1.501304240758059 0
133 0.7623311020022924 1.42622118078048 0
134 0.5055520339715222 1.666581711676915 0
135 0.3170217727097356 1.593776080767928 0
136 0.469441174635805 1.547540160762994 0
137 0.1707040313743731 1.733187120430351 0
138 0.1585108863548678 1.609388040383964 0
139 1.838972400597498 0.365794354577369 0
140 1.861778286797035 0.1833691565824379 0
141 1.732274122767454 0.7175314373532689 0
142 1.790231190991168 0.5430606960211957 0
143 1.559005521551386 1.041694189180439 0
144 1.64988651411215 0.8818827174374614 0
145 1.325825212108877 1.325825217340676 0
146 1.446137623462267 1.186814480350334 0
147 1.041694184653682 1.559005524576068 0
148 1.186814475420596 1.44613762755566 0
149 0.717531433826722 1.732274124228197 0
150 0.8818827134345832 1.649886516286511 0
151 0.3657943527877566 1.838972400953474 0
152 0.543060693280188 1.79023119186189 0
153 0.1833691557447036 1.861778286914166 0
$EndNodes
$Elements
56
1 8 2 1 1 1 5 8
2 8 2 1 1 5 6 9
3 8 2 1 1 6 7 10
4 8 2 1 1 7 2 11
5 8 2 2 2 2 12 19
6 8 2 2 2 12 13 20
7 8 2 2 2 13 14 21
8 8 2 2 2 14 15 22
9 8 2 2 2 15 16 23
10 8 2 2 2 16 17 24
11 8 2 2 2 17 18 25
12 8 2 2 2 18 3 26
13 8 2 3 3 3 27 30
14 8 2 3 3 27 28 31
15 8 2 3 3 28 29 32
16 8 2 3 3 29 4 33
17 8 2 4 4 4 34 41
18 8 2 4 4 34 35 42
19 8 2 4 4 35 36 43
20 8 2 4 4 36 37 44
21 8 2 4 4 37 38 45
22 8 2 4 4 38 39 46
23 8 2 4 4 39 40 47
24 8 2 4 4 40 1 48
25 10 2 1 1 1 5 49 40 8 70 71 48 72
26 10 2 1 1 40 49 50 39 71 73 74 47 75
27 10 2 1 1 39 50 51 38 74 76 77 46 78
28 10 2 1 1 38 51 52 37 77 79 80 45 81
29 10 2 1 1 37 52 53 36 80 82 83 44 84
30 10 2 1 1 36 53 54 35 83 85 86 43 87
31 10 2 1 1 35 54 55 34 86 88 89 42 90
32 10 2 1 1 34 55 29 4 89 91 33 41 92
33 10 2 1 1 5 6 56 49 9 93 94 70 95
34 10 2 1 1 49 56 57 50 94 96 97 73 98
35 10 2 1 1 50 57 58 51 97 99 100 76 101
36 10 2 1 1 51 58 59 52 100 102 103 79 104
37 10 2 1 1 52 59 60 53 103 105 106 82 107
38 10 2 1 1 53 60 61 54 106 108 109 85 110
39 10 2 1 1 54 61 62 55 109 111 112 88 113
40 10 2 1 1 55 62 28 29 112 114 32 91 115
41 10 2 1 1 6 7 63 56 10 116 117 93 118
42 10 2 1 1 56 63 64 57 117 119 120 96 121
43 10 2 1 1 57 64 65 58 120 122 123 99 124
44 10 2 1 1 58 65 66 59 123 125 126 102 127
45 10 2 1 1 59 66 67 60 126 128 129 105 130
46 10 2 1 1 60 67 68 61 129 131 132 108 133
47 10 2 1 1 61 68 69 62 132 134 135 111 136
48 10 2 1 1 62 69 27 28 135 137 31 114 138
49 10 2 1 1 7 2 12 63 11 19 139 116 140
50 10 2 1 1 63 12 13 64 139 20 141 119 142
51 10 2 1 1 64 13 14 65 141 21 143 122 144
52 10 2 1 1 65 14 15 66 143 22 145 125 146
53 10 2 1 1 66 15 16 67 145 23 147 128 148
54 10 2 1 1 67 16 17 68 147 24 149 131 150
55 10 2 1 1 68 17 18 69 149 25 151 134 152
56 10 2 1 1 69 18 3 27 151 26 30 137 153
$EndElements
