$MeshFormat
2.2 0 8
$EndMeshFormat
$PhysicalNames
7
2 1 "bottom"
2 2 "front"
2 3 "right"
2 4 "back"
2 5 "left"
2 6 "top"
3 1 "domain"
$EndPhysicalNames
$Nodes
404
1 0 0 0
2 10 0 0
3 10 1 0
4 0 1 0
5 0 0 1
6 10 0 1
7 10 1 1
8 0 1 1
9 0.09999999999992584 0 0
10 0.199999999999856 0 0
11 0.2999999999997771 0 0
12 0.3999999999996677 0 0
13 0.499999999999551 0 0
14 0.5999999999994682 0 0
15 0.6999999999993983 0 0
16 0.7999999999993285 0 0
17 0.8999999999992586 0 0
18 0.9999999999991888 0 0
19 1.099999999999119 0 0
20 1.199999999999033 0 0
21 1.299999999998853 0 0
22 1.399999999998577 0 0
23 1.499999999998284 0 0
24 1.599999999997992 0 0
25 1.6999999999977 0 0
26 1.799999999997408 0 0
27 1.899999999997116 0 0
28 1.999999999996824 0 0
29 2.099999999996532 0 0
30 2.19999999999624 0 0
31 2.299999999995948 0 0
32 2.399999999995655 0 0
33 2.499999999995364 0 0
34 2.599999999995072 0 0
35 2.699999999994779 0 0
36 2.799999999994487 0 0
37 2.899999999994196 0 0
38 2.999999999993903 0 0
39 3.099999999993611 0 0
40 3.199999999993319 0 0
41 3.299999999993027 0 0
42 3.399999999992735 0 0
43 3.499999999992442 0 0
44 3.599999999992151 0 0
45 3.699999999991859 0 0
46 3.799999999991566 0 0
47 3.899999999991274 0 0
48 3.999999999991017 0 0
49 4.099999999991031 0 0
50 4.199999999991183 0 0
51 4.299999999991335 0 0
52 4.399999999991486 0 0
53 4.499999999991639 0 0
54 4.59999999999179 0 0
55 4.699999999991943 0 0
56 4.799999999992094 0 0
57 4.899999999992247 0 0
58 4.999999999992399 0 0
59 5.099999999992551 0 0
60 5.199999999992704 0 0
61 5.299999999992854 0 0
62 5.399999999993007 0 0
63 5.499999999993159 0 0
64 5.599999999993312 0 0
65 5.699999999993464 0 0
66 5.799999999993616 0 0
67 5.899999999993768 0 0
68 5.99999999999392 0 0
69 6.099999999994071 0 0
70 6.199999999994223 0 0
71 6.299999999994375 0 0
72 6.399999999994527 0 0
73 6.499999999994679 0 0
74 6.599999999994831 0 0
75 6.699999999994983 0 0
76 6.799999999995135 0 0
77 6.899999999995287 0 0
78 6.999999999995438 0 0
79 7.099999999995591 0 0
80 7.199999999995743 0 0
81 7.299999999995896 0 0
82 7.399999999996048 0 0
83 7.499999999996199 0 0
84 7.599999999996351 0 0
85 7.699999999996503 0 0
86 7.799999999996655 0 0
87 7.899999999996807 0 0
88 7.99999999999696 0 0
89 8.099999999997111 0 0
90 8.199999999997264 0 0
91 8.299999999997416 0 0
92 8.399999999997569 0 0
93 8.499999999997719 0 0
94 8.599999999997872 0 0
95 8.699999999998024 0 0
96 8.799999999998175 0 0
97 8.899999999998327 0 0
98 8.999999999998479 0 0
99 9.099999999998632 0 0
100 9.199999999998782 0 0
101 9.299999999998935 0 0
102 9.399999999999087 0 0
103 9.49999999999924 0 0
104 9.59999999999939 0 0
105 9.699999999999543 0 0
106 9.799999999999695 0 0
107 9.899999999999848 0 0
108 9.9 1 0
109 9.799999999999999 1 0
110 9.699999999999999 1 0
111 9.6 1 0
112 9.5 1 0
113 9.399999999999999 1 0
114 9.299999999999999 1 0
115 9.199999999999999 1 0
116 9.1 1 0
117 8.999999999999998 1 0
118 8.899999999999999 1 0
119 8.799999999999999 1 0
120 8.699999999999999 1 0
121 8.599999999999998 1 0
122 8.499999999999998 1 0
123 8.399999999999999 1 0
124 8.299999999999997 1 0
125 8.199999999999998 1 0
126 8.099999999999998 1 0
127 7.999999999999996 1 0
128 7.899999999999997 1 0
129 7.799999999999995 1 0
130 7.699999999999996 1 0
131 7.599999999999995 1 0
132 7.499999999999995 1 0
133 7.399999999999995 1 0
134 7.299999999999995 1 0
135 7.199999999999996 1 0
136 7.099999999999995 1 0
137 6.999999999999995 1 0
138 6.899999999999995 1 0
139 6.799999999999995 1 0
140 6.699999999999996 1 0
141 6.599999999999996 1 0
142 6.499999999999996 1 0
143 6.399999999999996 1 0
144 6.299999999999995 1 0
145 6.199999999999996 1 0
146 6.099999999999996 1 0
147 5.999999999999996 1 0
148 5.899999999999997 1 0
149 5.799999999999996 1 0
150 5.699999999999996 1 0
151 5.599999999999996 1 0
152 5.499999999999996 1 0
153 5.399999999999997 1 0
154 5.299999999999996 1 0
155 5.199999999999997 1 0
156 5.099999999999997 1 0
157 4.999999999999996 1 0
158 4.899999999999997 1 0
159 4.799999999999996 1 0
160 4.699999999999997 1 0
161 4.599999999999998 1 0
162 4.499999999999997 1 0
163 4.399999999999997 1 0
164 4.299999999999997 1 0
165 4.199999999999998 1 0
166 4.099999999999997 1 0
167 3.999999999999996 1 0
168 3.899999999999998 1 0
169 3.799999999999998 1 0
170 3.699999999999998 1 0
171 3.599999999999998 1 0
172 3.499999999999997 1 0
173 3.399999999999998 1 0
174 3.299999999999997 1 0
175 3.199999999999998 1 0
176 3.099999999999998 1 0
177 2.999999999999998 1 0
178 2.899999999999999 1 0
179 2.799999999999998 1 0
180 2.699999999999998 1 0
181 2.599999999999998 1 0
182 2.499999999999999 1 0
183 2.399999999999999 1 0
184 2.299999999999999 1 0
185 2.199999999999998 1 0
186 2.099999999999999 1 0
187 1.999999999999998 1 0
188 1.899999999999999 1 0
189 1.799999999999999 1 0
190 1.699999999999999 1 0
191 1.6 1 0
192 1.5 1 0
193 1.399999999999999 1 0
194 1.299999999999999 1 0
195 1.199999999999999 1 0
196 1.1 1 0
197 1 1 0
198 0.9000000000000004 1 0
199 0.7999999999999989 1 0
200 0.6999999999999993 1 0
201 0.5999999999999996 1 0
202 0.5 1 0
203 0.4000000000000004 1 0
204 0.3000000000000007 1 0
205 0.1999999999999993 1 0
206 0.09999999999999964 1 0
207 0.09999999999992584 0 1
208 0.199999999999856 0 1
209 0.2999999999997771 0 1
210 0.3999999999996677 0 1
211 0.499999999999551 0 1
212 0.5999999999994682 0 1
213 0.6999999999993983 0 1
214 0.7999999999993285 0 1
215 0.8999999999992586 0 1
216 0.9999999999991888 0 1
217 1.099999999999119 0 1
218 1.199999999999033 0 1
219 1.299999999998853 0 1
220 1.399999999998577 0 1
221 1.499999999998284 0 1
222 1.599999999997992 0 1
223 1.6999999999977 0 1
224 1.799999999997408 0 1
225 1.899999999997116 0 1
226 1.999999999996824 0 1
227 2.099999999996532 0 1
228 2.19999999999624 0 1
229 2.299999999995948 0 1
230 2.399999999995655 0 1
231 2.499999999995364 0 1
232 2.599999999995072 0 1
233 2.699999999994779 0 1
234 2.799999999994487 0 1
235 2.899999999994196 0 1
236 2.999999999993903 0 1
237 3.099999999993611 0 1
238 3.199999999993319 0 1
239 3.299999999993027 0 1
240 3.399999999992735 0 1
241 3.499999999992442 0 1
242 3.599999999992151 0 1
243 3.699999999991859 0 1
244 3.799999999991566 0 1
245 3.899999999991274 0 1
246 3.999999999991017 0 1
247 4.099999999991031 0 1
248 4.199999999991183 0 1
249 4.299999999991335 0 1
250 4.399999999991486 0 1
251 4.499999999991639 0 1
252 4.59999999999179 0 1
253 4.699999999991943 0 1
254 4.799999999992094 0 1
255 4.899999999992247 0 1
256 4.999999999992399 0 1
257 5.099999999992551 0 1
258 5.199999999992704 0 1
259 5.299999999992854 0 1
260 5.399999999993007 0 1
261 5.499999999993159 0 1
262 5.599999999993312 0 1
263 5.699999999993464 0 1
264 5.799999999993616 0 1
265 5.899999999993768 0 1
266 5.99999999999392 0 1
267 6.099999999994071 0 1
268 6.199999999994223 0 1
269 6.299999999994375 0 1
270 6.399999999994527 0 1
271 6.499999999994679 0 1
272 6.599999999994831 0 1
273 6.699999999994983 0 1
274 6.799999999995135 0 1
275 6.899999999995287 0 1
276 6.999999999995438 0 1
277 7.099999999995591 0 1
278 7.199999999995743 0 1
279 7.299999999995896 0 1
280 7.399999999996048 0 1
281 7.499999999996199 0 1
282 7.599999999996351 0 1
283 7.699999999996503 0 1
284 7.799999999996655 0 1
285 7.899999999996807 0 1
286 7.99999999999696 0 1
287 8.099999999997111 0 1
288 8.199999999997264 0 1
289 8.299999999997416 0 1
290 8.399999999997569 0 1
291 8.499999999997719 0 1
292 8.599999999997872 0 1
293 8.699999999998024 0 1
294 8.799999999998175 0 1
295 8.899999999998327 0 1
296 8.999999999998479 0 1
297 9.099999999998632 0 1
298 9.199999999998782 0 1
299 9.299999999998935 0 1
300 9.399999999999087 0 1
301 9.49999999999924 0 1
302 9.59999999999939 0 1
303 9.699999999999543 0 1
304 9.799999999999695 0 1
305 9.899999999999848 0 1
306 9.9 1 1
307 9.799999999999999 1 1
308 9.699999999999999 1 1
309 9.6 1 1
310 9.5 1 1
311 9.399999999999999 1 1
312 9.299999999999999 1 1
313 9.199999999999999 1 1
314 9.1 1 1
315 8.999999999999998 1 1
316 8.899999999999999 1 1
317 8.799999999999999 1 1
318 8.699999999999999 1 1
319 8.599999999999998 1 1
320 8.499999999999998 1 1
321 8.399999999999999 1 1
322 8.299999999999997 1 1
323 8.199999999999998 1 1
324 8.099999999999998 1 1
325 7.999999999999996 1 1
326 7.899999999999997 1 1
327 7.799999999999995 1 1
328 7.699999999999996 1 1
329 7.599999999999995 1 1
330 7.499999999999995 1 1
331 7.399999999999995 1 1
332 7.299999999999995 1 1
333 7.199999999999996 1 1
334 7.099999999999995 1 1
335 6.999999999999995 1 1
336 6.899999999999995 1 1
337 6.799999999999995 1 1
338 6.699999999999996 1 1
339 6.599999999999996 1 1
340 6.499999999999996 1 1
341 6.399999999999996 1 1
342 6.299999999999995 1 1
343 6.199999999999996 1 1
344 6.099999999999996 1 1
345 5.999999999999996 1 1
346 5.899999999999997 1 1
347 5.799999999999996 1 1
348 5.699999999999996 1 1
349 5.599999999999996 1 1
350 5.499999999999996 1 1
351 5.399999999999997 1 1
352 5.299999999999996 1 1
353 5.199999999999997 1 1
354 5.099999999999997 1 1
355 4.999999999999996 1 1
356 4.899999999999997 1 1
357 4.799999999999996 1 1
358 4.699999999999997 1 1
359 4.599999999999998 1 1
360 4.499999999999997 1 1
361 4.399999999999997 1 1
362 4.299999999999997 1 1
363 4.199999999999998 1 1
364 4.099999999999997 1 1
365 3.999999999999996 1 1
366 3.899999999999998 1 1
367 3.799999999999998 1 1
368 3.699999999999998 1 1
369 3.599999999999998 1 1
370 3.499999999999997 1 1
371 3.399999999999998 1 1
372 3.299999999999997 1 1
373 3.199999999999998 1 1
374 3.099999999999998 1 1
375 2.999999999999998 1 1
376 2.899999999999999 1 1
377 2.799999999999998 1 1
378 2.699999999999998 1 1
379 2.599999999999998 1 1
380 2.499999999999999 1 1
381 2.399999999999999 1 1
382 2.299999999999999 1 1
383 2.199999999999998 1 1
384 2.099999999999999 1 1
385 1.999999999999998 1 1
386 1.899999999999999 1 1
387 1.799999999999999 1 1
388 1.699999999999999 1 1
389 1.6 1 1
390 1.5 1 1
391 1.399999999999999 1 1
392 1.299999999999999 1 1
393 1.199999999999999 1 1
394 1.1 1 1
395 1 1 1
396 0.9000000000000004 1 1
397 0.7999999999999989 1 1
398 0.6999999999999993 1 1
399 0.5999999999999996 1 1
400 0.5 1 1
401 0.4000000000000004 1 1
402 0.3000000000000007 1 1
403 0.1999999999999993 1 1
404 0.09999999999999964 1 1
$EndNodes
$Elements
502
1 3 2 1 1 1 9 206 4
2 3 2 1 1 9 10 205 206
3 3 2 1 1 10 11 204 205
4 3 2 1 1 11 12 203 204
5 3 2 1 1 12 13 202 203
6 3 2 1 1 13 14 201 202
7 3 2 1 1 14 15 200 201
8 3 2 1 1 15 16 199 200
9 3 2 1 1 16 17 198 199
10 3 2 1 1 17 18 197 198
11 3 2 1 1 18 19 196 197
12 3 2 1 1 19 20 195 196
13 3 2 1 1 20 21 194 195
14 3 2 1 1 21 22 193 194
15 3 2 1 1 22 23 192 193
16 3 2 1 1 23 24 191 192
17 3 2 1 1 24 25 190 191
18 3 2 1 1 25 26 189 190
19 3 2 1 1 26 27 188 189
20 3 2 1 1 27 28 187 188
21 3 2 1 1 28 29 186 187
22 3 2 1 1 29 30 185 186
23 3 2 1 1 30 31 184 185
24 3 2 1 1 31 32 183 184
25 3 2 1 1 32 33 182 183
26 3 2 1 1 33 34 181 182
27 3 2 1 1 34 35 180 181
28 3 2 1 1 35 36 179 180
29 3 2 1 1 36 37 178 179
30 3 2 1 1 37 38 177 178
31 3 2 1 1 38 39 176 177
32 3 2 1 1 39 40 175 176
33 3 2 1 1 40 41 174 175
34 3 2 1 1 41 42 173 174
35 3 2 1 1 42 43 172 173
36 3 2 1 1 43 44 171 172
37 3 2 1 1 44 45 170 171
38 3 2 1 1 45 46 169 170
39 3 2 1 1 46 47 168 169
40 3 2 1 1 47 48 167 168
41 3 2 1 1 48 49 166 167
42 3 2 1 1 49 50 165 166
43 3 2 1 1 50 51 164 165
44 3 2 1 1 51 52 163 164
45 3 2 1 1 52 53 162 163
46 3 2 1 1 53 54 161 162
47 3 2 1 1 54 55 160 161
48 3 2 1 1 55 56 159 160
49 3 2 1 1 56 57 158 159
50 3 2 1 1 57 58 157 158
51 3 2 1 1 58 59 156 157
52 3 2 1 1 59 60 155 156
53 3 2 1 1 60 61 154 155
54 3 2 1 1 61 62 153 154
55 3 2 1 1 62 63 152 153
56 3 2 1 1 63 64 151 152
57 3 2 1 1 64 65 150 151
58 3 2 1 1 65 66 149 150
59 3 2 1 1 66 67 148 149
60 3 2 1 1 67 68 147 148
61 3 2 1 1 68 69 146 147
62 3 2 1 1 69 70 145 146
63 3 2 1 1 70 71 144 145
64 3 2 1 1 71 72 143 144
65 3 2 1 1 72 73 142 143
66 3 2 1 1 73 74 141 142
67 3 2 1 1 74 75 140 141
68 3 2 1 1 75 76 139 140
69 3 2 1 1 76 77 138 139
70 3 2 1 1 77 78 137 138
71 3 2 1 1 78 79 136 137
72 3 2 1 1 79 80 135 136
73 3 2 1 1 80 81 134 135
74 3 2 1 1 81 82 133 134
75 3 2 1 1 82 83 132 133
76 3 2 1 1 83 84 131 132
77 3 2 1 1 84 85 130 131
78 3 2 1 1 85 86 129 130
79 3 2 1 1 86 87 128 129
80 3 2 1 1 87 88 127 128
81 3 2 1 1 88 89 126 127
82 3 2 1 1 89 90 125 126
83 3 2 1 1 90 91 124 125
84 3 2 1 1 91 92 123 124
85 3 2 1 1 92 93 122 123
86 3 2 1 1 93 94 121 122
87 3 2 1 1 94 95 120 121
88 3 2 1 1 95 96 119 120
89 3 2 1 1 96 97 118 119
90 3 2 1 1 97 98 117 118
91 3 2 1 1 98 99 116 117
92 3 2 1 1 99 100 115 116
93 3 2 1 1 100 101 114 115
94 3 2 1 1 101 102 113 114
95 3 2 1 1 102 103 112 113
96 3 2 1 1 103 104 111 112
97 3 2 1 1 104 105 110 111
98 3 2 1 1 105 106 109 110
99 3 2 1 1 106 107 108 109
100 3 2 1 1 107 2 3 108
101 3 2 2 13 1 9 207 5
102 3 2 2 13 9 10 208 207
103 3 2 2 13 10 11 209 208
104 3 2 2 13 11 12 210 209
105 3 2 2 13 12 13 211 210
106 3 2 2 13 13 14 212 211
107 3 2 2 13 14 15 213 212
108 3 2 2 13 15 16 214 213
109 3 2 2 13 16 17 215 214
110 3 2 2 13 17 18 216 215
111 3 2 2 13 18 19 217 216
112 3 2 2 13 19 20 218 217
113 3 2 2 13 20 21 219 218
114 3 2 2 13 21 22 220 219
115 3 2 2 13 22 23 221 220
116 3 2 2 13 23 24 222 221
117 3 2 2 13 24 25 223 222
118 3 2 2 13 25 26 224 223
119 3 2 2 13 26 27 225 224
120 3 2 2 13 27 28 226 225
121 3 2 2 13 28 29 227 226
122 3 2 2 13 29 30 228 227
123 3 2 2 13 30 31 229 228
124 3 2 2 13 31 32 230 229
125 3 2 2 13 32 33 231 230
126 3 2 2 13 33 34 232 231
127 3 2 2 13 34 35 233 232
128 3 2 2 13 35 36 234 233
129 3 2 2 13 36 37 235 234
130 3 2 2 13 37 38 236 235
131 3 2 2 13 38 39 237 236
132 3 2 2 13 39 40 238 237
133 3 2 2 13 40 41 239 238
134 3 2 2 13 41 42 240 239
135 3 2 2 13 42 43 241 240
136 3 2 2 13 43 44 242 241
137 3 2 2 13 44 45 243 242
138 3 2 2 13 45 46 244 243
139 3 2 2 13 46 47 245 244
140 3 2 2 13 47 48 246 245
141 3 2 2 13 48 49 247 246
142 3 2 2 13 49 50 248 247
143 3 2 2 13 50 51 249 248
144 3 2 2 13 51 52 250 249
145 3 2 2 13 52 53 251 250
146 3 2 2 13 53 54 252 251
147 3 2 2 13 54 55 253 252
148 3 2 2 13 55 56 254 253
149 3 2 2 13 56 57 255 254
150 3 2 2 13 57 58 256 255
151 3 2 2 13 58 59 257 256
152 3 2 2 13 59 60 258 257
153 3 2 2 13 60 61 259 258
154 3 2 2 13 61 62 260 259
155 3 2 2 13 62 63 261 260
156 3 2 2 13 63 64 262 261
157 3 2 2 13 64 65 263 262
158 3 2 2 13 65 66 264 263
159 3 2 2 13 66 67 265 264
160 3 2 2 13 67 68 266 265
161 3 2 2 13 68 69 267 266
162 3 2 2 13 69 70 268 267
163 3 2 2 13 70 71 269 268
164 3 2 2 13 71 72 270 269
165 3 2 2 13 72 73 271 270
166 3 2 2 13 73 74 272 271
167 3 2 2 13 74 75 273 272
168 3 2 2 13 75 76 274 273
169 3 2 2 13 76 77 275 274
170 3 2 2 13 77 78 276 275
171 3 2 2 13 78 79 277 276
172 3 2 2 13 79 80 278 277
173 3 2 2 13 80 81 279 278
174 3 2 2 13 81 82 280 279
175 3 2 2 13 82 83 281 280
176 3 2 2 13 83 84 282 281
177 3 2 2 13 84 85 283 282
178 3 2 2 13 85 86 284 283
179 3 2 2 13 86 87 285 284
180 3 2 2 13 87 88 286 285
181 3 2 2 13 88 89 287 286
182 3 2 2 13 89 90 288 287
183 3 2 2 13 90 91 289 288
184 3 2 2 13 91 92 290 289
185 3 2 2 13 92 93 291 290
186 3 2 2 13 93 94 292 291
187 3 2 2 13 94 95 293 292
188 3 2 2 13 95 96 294 293
189 3 2 2 13 96 97 295 294
190 3 2 2 13 97 98 296 295
191 3 2 2 13 98 99 297 296
192 3 2 2 13 99 100 298 297
193 3 2 2 13 100 101 299 298
194 3 2 2 13 101 102 300 299
195 3 2 2 13 102 103 301 300
196 3 2 2 13 103 104 302 301
197 3 2 2 13 104 105 303 302
198 3 2 2 13 105 106 304 303
199 3 2 2 13 106 107 305 304
200 3 2 2 13 107 2 6 305
201 3 2 3 17 2 3 7 6
202 3 2 4 21 3 108 306 7
203 3 2 4 21 108 109 307 306
204 3 2 4 21 109 110 308 307
205 3 2 4 21 110 111 309 308
206 3 2 4 21 111 112 310 309
207 3 2 4 21 112 113 311 310
208 3 2 4 21 113 114 312 311
209 3 2 4 21 114 115 313 312
210 3 2 4 21 115 116 314 313
211 3 2 4 21 116 117 315 314
212 3 2 4 21 117 118 316 315
213 3 2 4 21 118 119 317 316
214 3 2 4 21 119 120 318 317
215 3 2 4 21 120 121 319 318
216 3 2 4 21 121 122 320 319
217 3 2 4 21 122 123 321 320
218 3 2 4 21 123 124 322 321
219 3 2 4 21 124 125 323 322
220 3 2 4 21 125 126 324 323
221 3 2 4 21 126 127 325 324
222 3 2 4 21 127 128 326 325
223 3 2 4 21 128 129 327 326
224 3 2 4 21 129 130 328 327
225 3 2 4 21 130 131 329 328
226 3 2 4 21 131 132 330 329
227 3 2 4 21 132 133 331 330
228 3 2 4 21 133 134 332 331
229 3 2 4 21 134 135 333 332
230 3 2 4 21 135 136 334 333
231 3 2 4 21 136 137 335 334
232 3 2 4 21 137 138 336 335
233 3 2 4 21 138 139 337 336
234 3 2 4 21 139 140 338 337
235 3 2 4 21 140 141 339 338
236 3 2 4 21 141 142 340 339
237 3 2 4 21 142 143 341 340
238 3 2 4 21 143 144 342 341
239 3 2 4 21 144 145 343 342
240 3 2 4 21 145 146 344 343
241 3 2 4 21 146 147 345 344
242 3 2 4 21 147 148 346 345
243 3 2 4 21 148 149 347 346
244 3 2 4 21 149 150 348 347
245 3 2 4 21 150 151 349 348
246 3 2 4 21 151 152 350 349
247 3 2 4 21 152 153 351 350
248 3 2 4 21 153 154 352 351
249 3 2 4 21 154 155 353 352
250 3 2 4 21 155 156 354 353
251 3 2 4 21 156 157 355 354
252 3 2 4 21 157 158 356 355
253 3 2 4 21 158 159 357 356
254 3 2 4 21 159 160 358 357
255 3 2 4 21 160 161 359 358
256 3 2 4 21 161 162 360 359
257 3 2 4 21 162 163 361 360
258 3 2 4 21 163 164 362 361
259 3 2 4 21 164 165 363 362
260 3 2 4 21 165 166 364 363
261 3 2 4 21 166 167 365 364
262 3 2 4 21 167 168 366 365
263 3 2 4 21 168 169 367 366
264 3 2 4 21 169 170 368 367
265 3 2 4 21 170 171 369 368
266 3 2 4 21 171 172 370 369
267 3 2 4 21 172 173 371 370
268 3 2 4 21 173 174 372 371
269 3 2 4 21 174 175 373 372
270 3 2 4 21 175 176 374 373
271 3 2 4 21 176 177 375 374
272 3 2 4 21 177 178 376 375
273 3 2 4 21 178 179 377 376
274 3 2 4 21 179 180 378 377
275 3 2 4 21 180 181 379 378
276 3 2 4 21 181 182 380 379
277 3 2 4 21 182 183 381 380
278 3 2 4 21 183 184 382 381
279 3 2 4 21 184 185 383 382
280 3 2 4 21 185 186 384 383
281 3 2 4 21 186 187 385 384
282 3 2 4 21 187 188 386 385
283 3 2 4 21 188 189 387 386
284 3 2 4 21 189 190 388 387
285 3 2 4 21 190 191 389 388
286 3 2 4 21 191 192 390 389
287 3 2 4 21 192 193 391 390
288 3 2 4 21 193 194 392 391
289 3 2 4 21 194 195 393 392
290 3 2 4 21 195 196 394 393
291 3 2 4 21 196 197 395 394
292 3 2 4 21 197 198 396 395
293 3 2 4 21 198 199 397 396
294 3 2 4 21 199 200 398 397
295 3 2 4 21 200 201 399 398
296 3 2 4 21 201 202 400 399
297 3 2 4 21 202 203 401 400
298 3 2 4 21 203 204 402 401
299 3 2 4 21 204 205 403 402
300 3 2 4 21 205 206 404 403
301 3 2 4 21 206 4 8 404
302 3 2 5 25 4 1 5 8
303 3 2 6 26 5 207 404 8
304 3 2 6 26 207 208 403 404
305 3 2 6 26 208 209 402 403
306 3 2 6 26 209 210 401 402
307 3 2 6 26 210 211 400 401
308 3 2 6 26 211 212 399 400
309 3 2 6 26 212 213 398 399
310 3 2 6 26 213 214 397 398
311 3 2 6 26 214 215 396 397
312 3 2 6 26 215 216 395 396
313 3 2 6 26 216 217 394 395
314 3 2 6 26 217 218 393 394
315 3 2 6 26 218 219 392 393
316 3 2 6 26 219 220 391 392
317 3 2 6 26 220 221 390 391
318 3 2 6 26 221 222 389 390
319 3 2 6 26 222 223 388 389
320 3 2 6 26 223 224 387 388
321 3 2 6 26 224 225 386 387
322 3 2 6 26 225 226 385 386
323 3 2 6 26 226 227 384 385
324 3 2 6 26 227 228 383 384
325 3 2 6 26 228 229 382 383
326 3 2 6 26 229 230 381 382
327 3 2 6 26 230 231 380 381
328 3 2 6 26 231 232 379 380
329 3 2 6 26 232 233 378 379
330 3 2 6 26 233 234 377 378
331 3 2 6 26 234 235 376 377
332 3 2 6 26 235 236 375 376
333 3 2 6 26 236 237 374 375
334 3 2 6 26 237 238 373 374
335 3 2 6 26 238 239 372 373
336 3 2 6 26 239 240 371 372
337 3 2 6 26 240 241 370 371
338 3 2 6 26 241 242 369 370
339 3 2 6 26 242 243 368 369
340 3 2 6 26 243 244 367 368
341 3 2 6 26 244 245 366 367
342 3 2 6 26 245 246 365 366
343 3 2 6 26 246 247 364 365
344 3 2 6 26 247 248 363 364
345 3 2 6 26 248 249 362 363
346 3 2 6 26 249 250 361 362
347 3 2 6 26 250 251 360 361
348 3 2 6 26 251 252 359 360
349 3 2 6 26 252 253 358 359
350 3 2 6 26 253 254 357 358
351 3 2 6 26 254 255 356 357
352 3 2 6 26 255 256 355 356
353 3 2 6 26 256 257 354 355
354 3 2 6 26 257 258 353 354
355 3 2 6 26 258 259 352 353
356 3 2 6 26 259 260 351 352
357 3 2 6 26 260 261 350 351
358 3 2 6 26 261 262 349 350
359 3 2 6 26 262 263 348 349
360 3 2 6 26 263 264 347 348
361 3 2 6 26 264 265 346 347
362 3 2 6 26 265 266 345 346
363 3 2 6 26 266 267 344 345
364 3 2 6 26 267 268 343 344
365 3 2 6 26 268 269 342 343
366 3 2 6 26 269 270 341 342
367 3 2 6 26 270 271 340 341
368 3 2 6 26 271 272 339 340
369 3 2 6 26 272 273 338 339
370 3 2 6 26 273 274 337 338
371 3 2 6 26 274 275 336 337
372 3 2 6 26 275 276 335 336
373 3 2 6 26 276 277 334 335
374 3 2 6 26 277 278 333 334
375 3 2 6 26 278 279 332 333
376 3 2 6 26 279 280 331 332
377 3 2 6 26 280 281 330 331
378 3 2 6 26 281 282 329 330
379 3 2 6 26 282 283 328 329
380 3 2 6 26 283 284 327 328
381 3 2 6 26 284 285 326 327
382 3 2 6 26 285 286 325 326
383 3 2 6 26 286 287 324 325
384 3 2 6 26 287 288 323 324
385 3 2 6 26 288 289 322 323
386 3 2 6 26 289 290 321 322
387 3 2 6 26 290 291 320 321
388 3 2 6 26 291 292 319 320
389 3 2 6 26 292 293 318 319
390 3 2 6 26 293 294 317 318
391 3 2 6 26 294 295 316 317
392 3 2 6 26 295 296 315 316
393 3 2 6 26 296 297 314 315
394 3 2 6 26 297 298 313 314
395 3 2 6 26 298 299 312 313
396 3 2 6 26 299 300 311 312
397 3 2 6 26 300 301 310 311
398 3 2 6 26 301 302 309 310
399 3 2 6 26 302 303 308 309
400 3 2 6 26 303 304 307 308
401 3 2 6 26 304 305 306 307
402 3 2 6 26 305 6 7 306
403 5 2 1 1 1 9 206 4 5 207 404 8
404 5 2 1 1 9 10 205 206 207 208 403 404
405 5 2 1 1 10 11 204 205 208 209 402 403
406 5 2 1 1 11 12 203 204 209 210 401 402
407 5 2 1 1 12 13 202 203 210 211 400 401
408 5 2 1 1 13 14 201 202 211 212 399 400
409 5 2 1 1 14 15 200 201 212 213 398 399
410 5 2 1 1 15 16 199 200 213 214 397 398
411 5 2 1 1 16 17 198 199 214 215 396 397
412 5 2 1 1 17 18 197 198 215 216 395 396
413 5 2 1 1 18 19 196 197 216 217 394 395
414 5 2 1 1 19 20 195 196 217 218 393 394
415 5 2 1 1 20 21 194 195 218 219 392 393
416 5 2 1 1 21 22 193 194 219 220 391 392
417 5 2 1 1 22 23 192 193 220 221 390 391
418 5 2 1 1 23 24 191 192 221 222 389 390
419 5 2 1 1 24 25 190 191 222 223 388 389
420 5 2 1 1 25 26 189 190 223 224 387 388
421 5 2 1 1 26 27 188 189 224 225 386 387
422 5 2 1 1 27 28 187 188 225 226 385 386
423 5 2 1 1 28 29 186 187 226 227 384 385
424 5 2 1 1 29 30 185 186 227 228 383 384
425 5 2 1 1 30 31 184 185 228 229 382 383
426 5 2 1 1 31 32 183 184 229 230 381 382
427 5 2 1 1 32 33 182 183 230 231 380 381
428 5 2 1 1 33 34 181 182 231 232 379 380
429 5 2 1 1 34 35 180 181 232 233 378 379
430 5 2 1 1 35 36 179 180 233 234 377 378
431 5 2 1 1 36 37 178 179 234 235 376 377
432 5 2 1 1 37 38 177 178 235 236 375 376
433 5 2 1 1 38 39 176 177 236 237 374 375
434 5 2 1 1 39 40 175 176 237 238 373 374
435 5 2 1 1 40 41 174 175 238 239 372 373
436 5 2 1 1 41 42 173 174 239 240 371 372
437 5 2 1 1 42 43 172 173 240 241 370 371
438 5 2 1 1 43 44 171 172 241 242 369 370
439 5 2 1 1 44 45 170 171 242 243 368 369
440 5 2 1 1 45 46 169 170 243 244 367 368
441 5 2 1 1 46 47 168 169 244 245 366 367
442 5 2 1 1 47 48 167 168 245 246 365 366
443 5 2 1 1 48 49 166 167 246 247 364 365
444 5 2 1 1 49 50 165 166 247 248 363 364
445 5 2 1 1 50 51 164 165 248 249 362 363
446 5 2 1 1 51 52 163 164 249 250 361 362
447 5 2 1 1 52 53 162 163 250 251 360 361
448 5 2 1 1 53 54 161 162 251 252 359 360
449 5 2 1 1 54 55 160 161 252 253 358 359
450 5 2 1 1 55 56 159 160 253 254 357 358
451 5 2 1 1 56 57 158 159 254 255 356 357
452 5 2 1 1 57 58 157 158 255 256 355 356
453 5 2 1 1 58 59 156 157 256 257 354 355
454 5 2 1 1 59 60 155 156 257 258 353 354
455 5 2 1 1 60 61 154 155 258 259 352 353
456 5 2 1 1 61 62 153 154 259 260 351 352
457 5 2 1 1 62 63 152 153 260 261 350 351
458 5 2 1 1 63 64 151 152 261 262 349 350
459 5 2 1 1 64 65 150 151 262 263 348 349
460 5 2 1 1 65 66 149 150 263 264 347 348
461 5 2 1 1 66 67 148 149 264 265 346 347
462 5 2 1 1 67 68 147 148 265 266 345 346
463 5 2 1 1 68 69 146 147 266 267 344 345
464 5 2 1 1 69 70 145 146 267 268 343 344
465 5 2 1 1 70 71 144 145 268 269 342 343
466 5 2 1 1 71 72 143 144 269 270 341 342
467 5 2 1 1 72 73 142 143 270 271 340 341
468 5 2 1 1 73 74 141 142 271 272 339 340
469 5 2 1 1 74 75 140 141 272 273 338 339
470 5 2 1 1 75 76 139 140 273 274 337 338
471 5 2 1 1 76 77 138 139 274 275 336 337
472 5 2 1 1 77 78 137 138 275 276 335 336
473 5 2 1 1 78 79 136 137 276 277 334 335
474 5 2 1 1 79 80 135 136 277 278 333 334
475 5 2 1 1 80 81 134 135 278 279 332 333
476 5 2 1 1 81 82 133 134 279 280 331 332
477 5 2 1 1 82 83 132 133 280 281 330 331
478 5 2 1 1 83 84 131 132 281 282 329 330
479 5 2 1 1 84 85 130 131 282 283 328 329
480 5 2 1 1 85 86 129 130 283 284 327 328
481 5 2 1 1 86 87 128 129 284 285 326 327
482 5 2 1 1 87 88 127 128 285 286 325 326
483 5 2 1 1 88 89 126 127 286 287 324 325
484 5 2 1 1 89 90 125 126 287 288 323 324
485 5 2 1 1 90 91 124 125 288 289 322 323
486 5 2 1 1 91 92 123 124 289 290 321 322
487 5 2 1 1 92 93 122 123 290 291 320 321
488 5 2 1 1 93 94 121 122 291 292 319 320
489 5 2 1 1 94 95 120 121 292 293 318 319
490 5 2 1 1 95 96 119 120 293 294 317 318
491 5 2 1 1 96 97 118 119 294 295 316 317
492 5 2 1 1 97 98 117 118 295 296 315 316
493 5 2 1 1 98 99 116 117 296 297 314 315
494 5 2 1 1 99 100 115 116 297 298 313 314
495 5 2 1 1 100 101 114 115 298 299 312 313
496 5 2 1 1 101 102 113 114 299 300 311 312
497 5 2 1 1 102 103 112 113 300 301 310 311
498 5 2 1 1 103 104 111 112 301 302 309 310
499 5 2 1 1 104 105 110 111 302 303 308 309
500 5 2 1 1 105 106 109 110 303 304 307 308
501 5 2 1 1 106 107 108 109 304 305 306 307
502 5 2 1 1 107 2 3 108 305 6 7 306
$EndElements
