$MeshFormat
2.2 0 8
$EndMeshFormat
$PhysicalNames
7
2 1 "bottom"
2 2 "front"
2 3 "right"
2 4 "back"
2 5 "left"
2 6 "top"
3 1 "domain"
$EndPhysicalNames
$Nodes
315
1 0 0 0
2 20 0 0
3 20 2 0
4 0 2 0
5 0 0 2
6 20 0 2
7 20 2 2
8 0 2 2
9 0.9999999999991021 0 0
10 1.999999999998378 0 0
11 2.999999999996569 0 0
12 3.999999999993648 0 0
13 4.999999999990727 0 0
14 5.999999999987806 0 0
15 6.999999999984885 0 0
16 7.999999999982034 0 0
17 8.999999999983277 0 0
18 9.999999999984798 0 0
19 10.99999999998632 0 0
20 11.99999999998784 0 0
21 12.99999999998936 0 0
22 13.99999999999088 0 0
23 14.9999999999924 0 0
24 15.99999999999392 0 0
25 16.99999999999544 0 0
26 17.99999999999696 0 0
27 18.99999999999848 0 0
28 20 0.4999999999988219 0
29 20 0.9999999999973842 0
30 20 1.499999999998681 0
31 19 2 0
32 18 2 0
33 17 2 0
34 15.99999999999999 2 0
35 14.99999999999999 2 0
36 13.99999999999999 2 0
37 12.99999999999999 2 0
38 11.99999999999999 2 0
39 10.99999999999999 2 0
40 9.999999999999993 2 0
41 8.999999999999995 2 0
42 7.999999999999993 2 0
43 6.999999999999995 2 0
44 5.999999999999996 2 0
45 4.999999999999996 2 0
46 3.999999999999996 2 0
47 3 2 0
48 1.999999999999996 2 0
49 1 2 0
50 0 1.500000000000694 0
51 0 1.000000000004119 0
52 0 0.500000000002081 0
53 0.9999999999991021 0 2
54 1.999999999998378 0 2
55 2.999999999996569 0 2
56 3.999999999993648 0 2
57 4.999999999990727 0 2
58 5.999999999987806 0 2
59 6.999999999984885 0 2
60 7.999999999982034 0 2
61 8.999999999983277 0 2
62 9.999999999984798 0 2
63 10.99999999998632 0 2
64 11.99999999998784 0 2
65 12.99999999998936 0 2
66 13.99999999999088 0 2
67 14.9999999999924 0 2
68 15.99999999999392 0 2
69 16.99999999999544 0 2
70 17.99999999999696 0 2
71 18.99999999999848 0 2
72 20 0.4999999999988219 2
73 20 0.9999999999973842 2
74 20 1.499999999998681 2
75 19 2 2
76 18 2 2
77 17 2 2
78 15.99999999999999 2 2
79 14.99999999999999 2 2
80 13.99999999999999 2 2
81 12.99999999999999 2 2
82 11.99999999999999 2 2
83 10.99999999999999 2 2
84 9.999999999999993 2 2
85 8.999999999999995 2 2
86 7.999999999999993 2 2
87 6.999999999999995 2 2
88 5.999999999999996 2 2
89 4.999999999999996 2 2
90 3.999999999999996 2 2
91 3 2 2
92 1.999999999999996 2 2
93 1 2 2
94 0 1.500000000000694 2
95 0 1.000000000004119 2
96 0 0.500000000002081 2
97 0 0 1
98 20 0 1
99 20 2 1
100 0 2 1
101 0.9999999999993265 0.5000000000019182 0
102 0.9999999999995509 1.000000000003782 0
103 0.9999999999997757 1.500000000000593 0
104 1.999999999998782 0.500000000001755 0
105 1.999999999999187 1.000000000003445 0
106 1.999999999999592 1.500000000000493 0
107 2.999999999997427 0.5000000000015923 0
108 2.999999999998285 1.000000000003109 0
109 2.999999999999142 1.500000000000392 0
110 3.999999999995236 0.5000000000014293 0
111 3.999999999996822 1.000000000002772 0
112 3.99999999999841 1.500000000000291 0
113 4.999999999993045 0.5000000000012663 0
114 4.999999999995362 1.000000000002435 0
115 4.999999999997678 1.500000000000191 0
116 5.999999999990855 0.5000000000011033 0
117 5.999999999993901 1.000000000002099 0
118 5.999999999996949 1.50000000000009 0
119 6.999999999988664 0.5000000000009404 0
120 6.99999999999244 1.000000000001762 0
121 6.999999999996216 1.49999999999999 0
122 7.999999999986525 0.5000000000007774 0
123 7.999999999991012 1.000000000001425 0
124 7.999999999995503 1.499999999999889 0
125 8.999999999987455 0.5000000000006144 0
126 8.999999999991637 1.000000000001088 0
127 8.999999999995815 1.499999999999788 0
128 9.999999999988596 0.5000000000004514 0
129 9.999999999992394 1.000000000000751 0
130 9.999999999996195 1.499999999999688 0
131 10.99999999998974 0.5000000000002884 0
132 10.99999999999315 1.000000000000415 0
133 10.99999999999658 1.499999999999587 0
134 11.99999999999088 0.5000000000001255 0
135 11.99999999999391 1.000000000000078 0
136 11.99999999999696 1.499999999999486 0
137 12.99999999999202 0.4999999999999625 0
138 12.99999999999467 0.9999999999997415 0
139 12.99999999999733 1.499999999999386 0
140 13.99999999999315 0.4999999999997995 0
141 13.99999999999543 0.9999999999994045 0
142 13.99999999999771 1.499999999999285 0
143 14.9999999999943 0.4999999999996367 0
144 14.9999999999962 0.9999999999990679 0
145 14.99999999999809 1.499999999999184 0
146 15.99999999999544 0.4999999999994738 0
147 15.99999999999696 0.9999999999987312 0
148 15.99999999999847 1.499999999999084 0
149 16.99999999999658 0.4999999999993108 0
150 16.99999999999772 0.9999999999983944 0
151 16.99999999999886 1.499999999998983 0
152 17.99999999999772 0.4999999999991478 0
153 17.99999999999848 0.9999999999980576 0
154 17.99999999999924 1.499999999998882 0
155 18.99999999999886 0.4999999999989848 0
156 18.99999999999924 0.9999999999977209 0
157 18.99999999999962 1.499999999998782 0
158 0.9999999999991021 0 1
159 1.999999999998378 0 1
160 2.999999999996569 0 1
161 3.999999999993648 0 1
162 4.999999999990727 0 1
163 5.999999999987806 0 1
164 6.999999999984885 0 1
165 7.999999999982034 0 1
166 8.999999999983277 0 1
167 9.999999999984798 0 1
168 10.99999999998632 0 1
169 11.99999999998784 0 1
170 12.99999999998936 0 1
171 13.99999999999088 0 1
172 14.9999999999924 0 1
173 15.99999999999392 0 1
174 16.99999999999544 0 1
175 17.99999999999696 0 1
176 18.99999999999848 0 1
177 20 0.4999999999988219 1
178 20 0.9999999999973842 1
179 20 1.499999999998681 1
180 19 2 1
181 18 2 1
182 17 2 1
183 15.99999999999999 2 1
184 14.99999999999999 2 1
185 13.99999999999999 2 1
186 12.99999999999999 2 1
187 11.99999999999999 2 1
188 10.99999999999999 2 1
189 9.999999999999993 2 1
190 8.999999999999995 2 1
191 7.999999999999993 2 1
192 6.999999999999995 2 1
193 5.999999999999996 2 1
194 4.999999999999996 2 1
195 3.999999999999996 2 1
196 3 2 1
197 1.999999999999996 2 1
198 1 2 1
199 0 1.500000000000694 1
200 0 1.000000000004119 1
201 0 0.500000000002081 1
202 0.9999999999993265 0.5000000000019182 2
203 0.9999999999995509 1.000000000003782 2
204 0.9999999999997757 1.500000000000593 2
205 1.999999999998782 0.500000000001755 2
206 1.999999999999187 1.000000000003445 2
207 1.999999999999592 1.500000000000493 2
208 2.999999999997427 0.5000000000015923 2
209 2.999999999998285 1.000000000003109 2
210 2.999999999999142 1.500000000000392 2
211 3.999999999995236 0.5000000000014293 2
212 3.999999999996822 1.000000000002772 2
213 3.99999999999841 1.500000000000291 2
214 4.999999999993045 0.5000000000012663 2
215 4.999999999995362 1.000000000002435 2
216 4.999999999997678 1.500000000000191 2
217 5.999999999990855 0.5000000000011033 2
218 5.999999999993901 1.000000000002099 2
219 5.999999999996949 1.50000000000009 2
220 6.999999999988664 0.5000000000009404 2
221 6.99999999999244 1.000000000001762 2
222 6.999999999996216 1.49999999999999 2
223 7.999999999986525 0.5000000000007774 2
224 7.999999999991012 1.000000000001425 2
225 7.999999999995503 1.499999999999889 2
226 8.999999999987455 0.5000000000006144 2
227 8.999999999991637 1.000000000001088 2
228 8.999999999995815 1.499999999999788 2
229 9.999999999988596 0.5000000000004514 2
230 9.999999999992394 1.000000000000751 2
231 9.999999999996195 1.499999999999688 2
232 10.99999999998974 0.5000000000002884 2
233 10.99999999999315 1.000000000000415 2
234 10.99999999999658 1.499999999999587 2
235 11.99999999999088 0.5000000000001255 2
236 11.99999999999391 1.000000000000078 2
237 11.99999999999696 1.499999999999486 2
238 12.99999999999202 0.4999999999999625 2
239 12.99999999999467 0.9999999999997415 2
240 12.99999999999733 1.499999999999386 2
241 13.99999999999315 0.4999999999997995 2
242 13.99999999999543 0.9999999999994045 2
243 13.99999999999771 1.499999999999285 2
244 14.9999999999943 0.4999999999996367 2
245 14.9999999999962 0.9999999999990679 2
246 14.99999999999809 1.499999999999184 2
247 15.99999999999544 0.4999999999994738 2
248 15.99999999999696 0.9999999999987312 2
249 15.99999999999847 1.499999999999084 2
250 16.99999999999658 0.4999999999993108 2
251 16.99999999999772 0.9999999999983944 2
252 16.99999999999886 1.499999999998983 2
253 17.99999999999772 0.4999999999991478 2
254 17.99999999999848 0.9999999999980576 2
255 17.99999999999924 1.499999999998882 2
256 18.99999999999886 0.4999999999989848 2
257 18.99999999999924 0.9999999999977209 2
258 18.99999999999962 1.499999999998782 2
259 0.9999999999993265 0.5000000000019182 1
260 0.9999999999995509 1.000000000003782 1
261 0.9999999999997757 1.500000000000593 1
262 1.999999999998782 0.500000000001755 1
263 1.999999999999187 1.000000000003445 1
264 1.999999999999592 1.500000000000493 1
265 2.999999999997427 0.5000000000015923 1
266 2.999999999998285 1.000000000003109 1
267 2.999999999999142 1.500000000000392 1
268 3.999999999995236 0.5000000000014293 1
269 3.999999999996822 1.000000000002772 1
270 3.99999999999841 1.500000000000291 1
271 4.999999999993045 0.5000000000012663 1
272 4.999999999995362 1.000000000002435 1
273 4.999999999997678 1.500000000000191 1
274 5.999999999990855 0.5000000000011033 1
275 5.999999999993901 1.000000000002099 1
276 5.999999999996949 1.50000000000009 1
277 6.999999999988664 0.5000000000009404 1
278 6.99999999999244 1.000000000001762 1
279 6.999999999996216 1.49999999999999 1
280 7.999999999986525 0.5000000000007774 1
281 7.999999999991012 1.000000000001425 1
282 7.999999999995503 1.499999999999889 1
283 8.999999999987455 0.5000000000006144 1
284 8.999999999991637 1.000000000001088 1
285 8.999999999995815 1.499999999999788 1
286 9.999999999988596 0.5000000000004514 1
287 9.999999999992394 1.000000000000751 1
288 9.999999999996195 1.499999999999688 1
289 10.99999999998974 0.5000000000002884 1
290 10.99999999999315 1.000000000000415 1
291 10.99999999999658 1.499999999999587 1
292 11.99999999999088 0.5000000000001255 1
293 11.99999999999391 1.000000000000078 1
294 11.99999999999696 1.499999999999486 1
295 12.99999999999202 0.4999999999999625 1
296 12.99999999999467 0.9999999999997415 1
297 12.99999999999733 1.499999999999386 1
298 13.99999999999315 0.4999999999997995 1
299 13.99999999999543 0.9999999999994045 1
300 13.99999999999771 1.499999999999285 1
301 14.9999999999943 0.4999999999996367 1
302 14.9999999999962 0.9999999999990679 1
303 14.99999999999809 1.499999999999184 1
304 15.99999999999544 0.4999999999994738 1
305 15.99999999999696 0.9999999999987312 1
306 15.99999999999847 1.499999999999084 1
307 16.99999999999658 0.4999999999993108 1
308 16.99999999999772 0.9999999999983944 1
309 16.99999999999886 1.499999999998983 1
310 17.99999999999772 0.4999999999991478 1
311 17.99999999999848 0.9999999999980576 1
312 17.99999999999924 1.499999999998882 1
313 18.99999999999886 0.4999999999989848 1
314 18.99999999999924 0.9999999999977209 1
315 18.99999999999962 1.499999999998782 1
$EndNodes
$Elements
416
1 3 2 1 1 1 9 101 52
2 3 2 1 1 52 101 102 51
3 3 2 1 1 51 102 103 50
4 3 2 1 1 50 103 49 4
5 3 2 1 1 9 10 104 101
6 3 2 1 1 101 104 105 102
7 3 2 1 1 102 105 106 103
8 3 2 1 1 103 106 48 49
9 3 2 1 1 10 11 107 104
10 3 2 1 1 104 107 108 105
11 3 2 1 1 105 108 109 106
12 3 2 1 1 106 109 47 48
13 3 2 1 1 11 12 110 107
14 3 2 1 1 107 110 111 108
15 3 2 1 1 108 111 112 109
16 3 2 1 1 109 112 46 47
17 3 2 1 1 12 13 113 110
18 3 2 1 1 110 113 114 111
19 3 2 1 1 111 114 115 112
20 3 2 1 1 112 115 45 46
21 3 2 1 1 13 14 116 113
22 3 2 1 1 113 116 117 114
23 3 2 1 1 114 117 118 115
24 3 2 1 1 115 118 44 45
25 3 2 1 1 14 15 119 116
26 3 2 1 1 116 119 120 117
27 3 2 1 1 117 120 121 118
28 3 2 1 1 118 121 43 44
29 3 2 1 1 15 16 122 119
30 3 2 1 1 119 122 123 120
31 3 2 1 1 120 123 124 121
32 3 2 1 1 121 124 42 43
33 3 2 1 1 16 17 125 122
34 3 2 1 1 122 125 126 123
35 3 2 1 1 123 126 127 124
36 3 2 1 1 124 127 41 42
37 3 2 1 1 17 18 128 125
38 3 2 1 1 125 128 129 126
39 3 2 1 1 126 129 130 127
40 3 2 1 1 127 130 40 41
41 3 2 1 1 18 19 131 128
42 3 2 1 1 128 131 132 129
43 3 2 1 1 129 132 133 130
44 3 2 1 1 130 133 39 40
45 3 2 1 1 19 20 134 131
46 3 2 1 1 131 134 135 132
47 3 2 1 1 132 135 136 133
48 3 2 1 1 133 136 38 39
49 3 2 1 1 20 21 137 134
50 3 2 1 1 134 137 138 135
51 3 2 1 1 135 138 139 136
52 3 2 1 1 136 139 37 38
53 3 2 1 1 21 22 140 137
54 3 2 1 1 137 140 141 138
55 3 2 1 1 138 141 142 139
56 3 2 1 1 139 142 36 37
57 3 2 1 1 22 23 143 140
58 3 2 1 1 140 143 144 141
59 3 2 1 1 141 144 145 142
60 3 2 1 1 142 145 35 36
61 3 2 1 1 23 24 146 143
62 3 2 1 1 143 146 147 144
63 3 2 1 1 144 147 148 145
64 3 2 1 1 145 148 34 35
65 3 2 1 1 24 25 149 146
66 3 2 1 1 146 149 150 147
67 3 2 1 1 147 150 151 148
68 3 2 1 1 148 151 33 34
69 3 2 1 1 25 26 152 149
70 3 2 1 1 149 152 153 150
71 3 2 1 1 150 153 154 151
72 3 2 1 1 151 154 32 33
73 3 2 1 1 26 27 155 152
74 3 2 1 1 152 155 156 153
75 3 2 1 1 153 156 157 154
76 3 2 1 1 154 157 31 32
77 3 2 1 1 27 2 28 155
78 3 2 1 1 155 28 29 156
79 3 2 1 1 156 29 30 157
80 3 2 1 1 157 30 3 31
81 3 2 2 13 1 9 158 97
82 3 2 2 13 97 158 53 5
83 3 2 2 13 9 10 159 158
84 3 2 2 13 158 159 54 53
85 3 2 2 13 10 11 160 159
86 3 2 2 13 159 160 55 54
87 3 2 2 13 11 12 161 160
88 3 2 2 13 160 161 56 55
89 3 2 2 13 12 13 162 161
90 3 2 2 13 161 162 57 56
91 3 2 2 13 13 14 163 162
92 3 2 2 13 162 163 58 57
93 3 2 2 13 14 15 164 163
94 3 2 2 13 163 164 59 58
95 3 2 2 13 15 16 165 164
96 3 2 2 13 164 165 60 59
97 3 2 2 13 16 17 166 165
98 3 2 2 13 165 166 61 60
99 3 2 2 13 17 18 167 166
100 3 2 2 13 166 167 62 61
101 3 2 2 13 18 19 168 167
102 3 2 2 13 167 168 63 62
103 3 2 2 13 19 20 169 168
104 3 2 2 13 168 169 64 63
105 3 2 2 13 20 21 170 169
106 3 2 2 13 169 170 65 64
107 3 2 2 13 21 22 171 170
108 3 2 2 13 170 171 66 65
109 3 2 2 13 22 23 172 171
110 3 2 2 13 171 172 67 66
111 3 2 2 13 23 24 173 172
112 3 2 2 13 172 173 68 67
113 3 2 2 13 24 25 174 173
114 3 2 2 13 173 174 69 68
115 3 2 2 13 25 26 175 174
116 3 2 2 13 174 175 70 69
117 3 2 2 13 26 27 176 175
118 3 2 2 13 175 176 71 70
119 3 2 2 13 27 2 98 176
120 3 2 2 13 176 98 6 71
121 3 2 3 17 2 28 177 98
122 3 2 3 17 98 177 72 6
123 3 2 3 17 28 29 178 177
124 3 2 3 17 177 178 73 72
125 3 2 3 17 29 30 179 178
126 3 2 3 17 178 179 74 73
127 3 2 3 17 30 3 99 179
128 3 2 3 17 179 99 7 74
129 3 2 4 21 3 31 180 99
130 3 2 4 21 99 180 75 7
131 3 2 4 21 31 32 181 180
132 3 2 4 21 180 181 76 75
133 3 2 4 21 32 33 182 181
134 3 2 4 21 181 182 77 76
135 3 2 4 21 33 34 183 182
136 3 2 4 21 182 183 78 77
137 3 2 4 21 34 35 184 183
138 3 2 4 21 183 184 79 78
139 3 2 4 21 35 36 185 184
140 3 2 4 21 184 185 80 79
141 3 2 4 21 36 37 186 185
142 3 2 4 21 185 186 81 80
143 3 2 4 21 37 38 187 186
144 3 2 4 21 186 187 82 81
145 3 2 4 21 38 39 188 187
146 3 2 4 21 187 188 83 82
147 3 2 4 21 39 40 189 188
148 3 2 4 21 188 189 84 83
149 3 2 4 21 40 41 190 189
150 3 2 4 21 189 190 85 84
151 3 2 4 21 41 42 191 190
152 3 2 4 21 190 191 86 85
153 3 2 4 21 42 43 192 191
154 3 2 4 21 191 192 87 86
155 3 2 4 21 43 44 193 192
156 3 2 4 21 192 193 88 87
157 3 2 4 21 44 45 194 193
158 3 2 4 21 193 194 89 88
159 3 2 4 21 45 46 195 194
160 3 2 4 21 194 195 90 89
161 3 2 4 21 46 47 196 195
162 3 2 4 21 195 196 91 90
163 3 2 4 21 47 48 197 196
164 3 2 4 21 196 197 92 91
165 3 2 4 21 48 49 198 197
166 3 2 4 21 197 198 93 92
167 3 2 4 21 49 4 100 198
168 3 2 4 21 198 100 8 93
169 3 2 5 25 4 50 199 100
170 3 2 5 25 100 199 94 8
171 3 2 5 25 50 51 200 199
172 3 2 5 25 199 200 95 94
173 3 2 5 25 51 52 201 200
174 3 2 5 25 200 201 96 95
175 3 2 5 25 52 1 97 201
176 3 2 5 25 201 97 5 96
177 3 2 6 26 5 53 202 96
178 3 2 6 26 96 202 203 95
179 3 2 6 26 95 203 204 94
180 3 2 6 26 94 204 93 8
181 3 2 6 26 53 54 205 202
182 3 2 6 26 202 205 206 203
183 3 2 6 26 203 206 207 204
184 3 2 6 26 204 207 92 93
185 3 2 6 26 54 55 208 205
186 3 2 6 26 205 208 209 206
187 3 2 6 26 206 209 210 207
188 3 2 6 26 207 210 91 92
189 3 2 6 26 55 56 211 208
190 3 2 6 26 208 211 212 209
191 3 2 6 26 209 212 213 210
192 3 2 6 26 210 213 90 91
193 3 2 6 26 56 57 214 211
194 3 2 6 26 211 214 215 212
195 3 2 6 26 212 215 216 213
196 3 2 6 26 213 216 89 90
197 3 2 6 26 57 58 217 214
198 3 2 6 26 214 217 218 215
199 3 2 6 26 215 218 219 216
200 3 2 6 26 216 219 88 89
201 3 2 6 26 58 59 220 217
202 3 2 6 26 217 220 221 218
203 3 2 6 26 218 221 222 219
204 3 2 6 26 219 222 87 88
205 3 2 6 26 59 60 223 220
206 3 2 6 26 220 223 224 221
207 3 2 6 26 221 224 225 222
208 3 2 6 26 222 225 86 87
209 3 2 6 26 60 61 226 223
210 3 2 6 26 223 226 227 224
211 3 2 6 26 224 227 228 225
212 3 2 6 26 225 228 85 86
213 3 2 6 26 61 62 229 226
214 3 2 6 26 226 229 230 227
215 3 2 6 26 227 230 231 228
216 3 2 6 26 228 231 84 85
217 3 2 6 26 62 63 232 229
218 3 2 6 26 229 232 233 230
219 3 2 6 26 230 233 234 231
220 3 2 6 26 231 234 83 84
221 3 2 6 26 63 64 235 232
222 3 2 6 26 232 235 236 233
223 3 2 6 26 233 236 237 234
224 3 2 6 26 234 237 82 83
225 3 2 6 26 64 65 238 235
226 3 2 6 26 235 238 239 236
227 3 2 6 26 236 239 240 237
228 3 2 6 26 237 240 81 82
229 3 2 6 26 65 66 241 238
230 3 2 6 26 238 241 242 239
231 3 2 6 26 239 242 243 240
232 3 2 6 26 240 243 80 81
233 3 2 6 26 66 67 244 241
234 3 2 6 26 241 244 245 242
235 3 2 6 26 242 245 246 243
236 3 2 6 26 243 246 79 80
237 3 2 6 26 67 68 247 244
238 3 2 6 26 244 247 248 245
239 3 2 6 26 245 248 249 246
240 3 2 6 26 246 249 78 79
241 3 2 6 26 68 69 250 247
242 3 2 6 26 247 250 251 248
243 3 2 6 26 248 251 252 249
244 3 2 6 26 249 252 77 78
245 3 2 6 26 69 70 253 250
246 3 2 6 26 250 253 254 251
247 3 2 6 26 251 254 255 252
248 3 2 6 26 252 255 76 77
249 3 2 6 26 70 71 256 253
250 3 2 6 26 253 256 257 254
251 3 2 6 26 254 257 258 255
252 3 2 6 26 255 258 75 76
253 3 2 6 26 71 6 72 256
254 3 2 6 26 256 72 73 257
255 3 2 6 26 257 73 74 258
256 3 2 6 26 258 74 7 75
257 5 2 1 1 1 9 101 52 97 158 259 201
258 5 2 1 1 97 158 259 201 5 53 202 96
259 5 2 1 1 52 101 102 51 201 259 260 200
260 5 2 1 1 201 259 260 200 96 202 203 95
261 5 2 1 1 51 102 103 50 200 260 261 199
262 5 2 1 1 200 260 261 199 95 203 204 94
263 5 2 1 1 50 103 49 4 199 261 198 100
264 5 2 1 1 199 261 198 100 94 204 93 8
265 5 2 1 1 9 10 104 101 158 159 262 259
266 5 2 1 1 158 159 262 259 53 54 205 202
267 5 2 1 1 101 104 105 102 259 262 263 260
268 5 2 1 1 259 262 263 260 202 205 206 203
269 5 2 1 1 102 105 106 103 260 263 264 261
270 5 2 1 1 260 263 264 261 203 206 207 204
271 5 2 1 1 103 106 48 49 261 264 197 198
272 5 2 1 1 261 264 197 198 204 207 92 93
273 5 2 1 1 10 11 107 104 159 160 265 262
274 5 2 1 1 159 160 265 262 54 55 208 205
275 5 2 1 1 104 107 108 105 262 265 266 263
276 5 2 1 1 262 265 266 263 205 208 209 206
277 5 2 1 1 105 108 109 106 263 266 267 264
278 5 2 1 1 263 266 267 264 206 209 210 207
279 5 2 1 1 106 109 47 48 264 267 196 197
280 5 2 1 1 264 267 196 197 207 210 91 92
281 5 2 1 1 11 12 110 107 160 161 268 265
282 5 2 1 1 160 161 268 265 55 56 211 208
283 5 2 1 1 107 110 111 108 265 268 269 266
284 5 2 1 1 265 268 269 266 208 211 212 209
285 5 2 1 1 108 111 112 109 266 269 270 267
286 5 2 1 1 266 269 270 267 209 212 213 210
287 5 2 1 1 109 112 46 47 267 270 195 196
288 5 2 1 1 267 270 195 196 210 213 90 91
289 5 2 1 1 12 13 113 110 161 162 271 268
290 5 2 1 1 161 162 271 268 56 57 214 211
291 5 2 1 1 110 113 114 111 268 271 272 269
292 5 2 1 1 268 271 272 269 211 214 215 212
293 5 2 1 1 111 114 115 112 269 272 273 270
294 5 2 1 1 269 272 273 270 212 215 216 213
295 5 2 1 1 112 115 45 46 270 273 194 195
296 5 2 1 1 270 273 194 195 213 216 89 90
297 5 2 1 1 13 14 116 113 162 163 274 271
298 5 2 1 1 162 163 274 271 57 58 217 214
299 5 2 1 1 113 116 117 114 271 274 275 272
300 5 2 1 1 271 274 275 272 214 217 218 215
301 5 2 1 1 114 117 118 115 272 275 276 273
302 5 2 1 1 272 275 276 273 215 218 219 216
303 5 2 1 1 115 118 44 45 273 276 193 194
304 5 2 1 1 273 276 193 194 216 219 88 89
305 5 2 1 1 14 15 119 116 163 164 277 274
306 5 2 1 1 163 164 277 274 58 59 220 217
307 5 2 1 1 116 119 120 117 274 277 278 275
308 5 2 1 1 274 277 278 275 217 220 221 218
309 5 2 1 1 117 120 121 118 275 278 279 276
310 5 2 1 1 275 278 279 276 218 221 222 219
311 5 2 1 1 118 121 43 44 276 279 192 193
312 5 2 1 1 276 279 192 193 219 222 87 88
313 5 2 1 1 15 16 122 119 164 165 280 277
314 5 2 1 1 164 165 280 277 59 60 223 220
315 5 2 1 1 119 122 123 120 277 280 281 278
316 5 2 1 1 277 280 281 278 220 223 224 221
317 5 2 1 1 120 123 124 121 278 281 282 279
318 5 2 1 1 278 281 282 279 221 224 225 222
319 5 2 1 1 121 124 42 43 279 282 191 192
320 5 2 1 1 279 282 191 192 222 225 86 87
321 5 2 1 1 16 17 125 122 165 166 283 280
322 5 2 1 1 165 166 283 280 60 61 226 223
323 5 2 1 1 122 125 126 123 280 283 284 281
324 5 2 1 1 280 283 284 281 223 226 227 224
325 5 2 1 1 123 126 127 124 281 284 285 282
326 5 2 1 1 281 284 285 282 224 227 228 225
327 5 2 1 1 124 127 41 42 282 285 190 191
328 5 2 1 1 282 285 190 191 225 228 85 86
329 5 2 1 1 17 18 128 125 166 167 286 283
330 5 2 1 1 166 167 286 283 61 62 229 226
331 5 2 1 1 125 128 129 126 283 286 287 284
332 5 2 1 1 283 286 287 284 226 229 230 227
333 5 2 1 1 126 129 130 127 284 287 288 285
334 5 2 1 1 284 287 288 285 227 230 231 228
335 5 2 1 1 127 130 40 41 285 288 189 190
336 5 2 1 1 285 288 189 190 228 231 84 85
337 5 2 1 1 18 19 131 128 167 168 289 286
338 5 2 1 1 167 168 289 286 62 63 232 229
339 5 2 1 1 128 131 132 129 286 289 290 287
340 5 2 1 1 286 289 290 287 229 232 233 230
341 5 2 1 1 129 132 133 130 287 290 291 288
342 5 2 1 1 287 290 291 288 230 233 234 231
343 5 2 1 1 130 133 39 40 288 291 188 189
344 5 2 1 1 288 291 188 189 231 234 83 84
345 5 2 1 1 19 20 134 131 168 169 292 289
346 5 2 1 1 168 169 292 289 63 64 235 232
347 5 2 1 1 131 134 135 132 289 292 293 290
348 5 2 1 1 289 292 293 290 232 235 236 233
349 5 2 1 1 132 135 136 133 290 293 294 291
350 5 2 1 1 290 293 294 291 233 236 237 234
351 5 2 1 1 133 136 38 39 291 294 187 188
352 5 2 1 1 291 294 187 188 234 237 82 83
353 5 2 1 1 20 21 137 134 169 170 295 292
354 5 2 1 1 169 170 295 292 64 65 238 235
355 5 2 1 1 134 137 138 135 292 295 296 293
356 5 2 1 1 292 295 296 293 235 238 239 236
357 5 2 1 1 135 138 139 136 293 296 297 294
358 5 2 1 1 293 296 297 294 236 239 240 237
359 5 2 1 1 136 139 37 38 294 297 186 187
360 5 2 1 1 294 297 186 187 237 240 81 82
361 5 2 1 1 21 22 140 137 170 171 298 295
362 5 2 1 1 170 171 298 295 65 66 241 238
363 5 2 1 1 137 140 141 138 295 298 299 296
364 5 2 1 1 295 298 299 296 238 241 242 239
365 5 2 1 1 138 141 142 139 296 299 300 297
366 5 2 1 1 296 299 300 297 239 242 243 240
367 5 2 1 1 139 142 36 37 297 300 185 186
368 5 2 1 1 297 300 185 186 240 243 80 81
369 5 2 1 1 22 23 143 140 171 172 301 298
370 5 2 1 1 171 172 301 298 66 67 244 241
371 5 2 1 1 140 143 144 141 298 301 302 299
372 5 2 1 1 298 301 302 299 241 244 245 242
373 5 2 1 1 141 144 145 142 299 302 303 300
374 5 2 1 1 299 302 303 300 242 245 246 243
375 5 2 1 1 142 145 35 36 300 303 184 185
376 5 2 1 1 300 303 184 185 243 246 79 80
377 5 2 1 1 23 24 146 143 172 173 304 301
378 5 2 1 1 172 173 304 301 67 68 247 244
379 5 2 1 1 143 146 147 144 301 304 305 302
380 5 2 1 1 301 304 305 302 244 247 248 245
381 5 2 1 1 144 147 148 145 302 305 306 303
382 5 2 1 1 302 305 306 303 245 248 249 246
383 5 2 1 1 145 148 34 35 303 306 183 184
384 5 2 1 1 303 306 183 184 246 249 78 79
385 5 2 1 1 24 25 149 146 173 174 307 304
386 5 2 1 1 173 174 307 304 68 69 250 247
387 5 2 1 1 146 149 150 147 304 307 308 305
388 5 2 1 1 304 307 308 305 247 250 251 248
389 5 2 1 1 147 150 151 148 305 308 309 306
390 5 2 1 1 305 308 309 306 248 251 252 249
391 5 2 1 1 148 151 33 34 306 309 182 183
392 5 2 1 1 306 309 182 183 249 252 77 78
393 5 2 1 1 25 26 152 149 174 175 310 307
394 5 2 1 1 174 175 310 307 69 70 253 250
395 5 2 1 1 149 152 153 150 307 310 311 308
396 5 2 1 1 307 310 311 308 250 253 254 251
397 5 2 1 1 150 153 154 151 308 311 312 309
398 5 2 1 1 308 311 312 309 251 254 255 252
399 5 2 1 1 151 154 32 33 309 312 181 182
400 5 2 1 1 309 312 181 182 252 255 76 77
401 5 2 1 1 26 27 155 152 175 176 313 310
402 5 2 1 1 175 176 313 310 70 71 256 253
403 5 2 1 1 152 155 156 153 310 313 314 311
404 5 2 1 1 310 313 314 311 253 256 257 254
405 5 2 1 1 153 156 157 154 311 314 315 312
406 5 2 1 1 311 314 315 312 254 257 258 255
407 5 2 1 1 154 157 31 32 312 315 180 181
408 5 2 1 1 312 315 180 181 255 258 75 76
409 5 2 1 1 27 2 28 155 176 98 177 313
410 5 2 1 1 176 98 177 313 71 6 72 256
411 5 2 1 1 155 28 29 156 313 177 178 314
412 5 2 1 1 313 177 178 314 256 72 73 257
413 5 2 1 1 156 29 30 157 314 178 179 315
414 5 2 1 1 314 178 179 315 257 73 74 258
415 5 2 1 1 157 30 3 31 315 179 99 180
416 5 2 1 1 315 179 99 180 258 74 7 75
$EndElements
