$MeshFormat
2.2 0 8
$EndMeshFormat
$PhysicalNames
7
2 1 "bottom"
2 2 "front"
2 3 "right"
2 4 "back"
2 5 "left"
2 6 "top"
3 1 "domain"
$EndPhysicalNames
$Nodes
189
1 0 0 0
2 10 0 0
3 10 1 0
4 0 1 0
5 0 0 1
6 10 0 1
7 10 1 1
8 0 1 1
9 0.499999999999551 0 0
10 0.9999999999991888 0 0
11 1.499999999998284 0 0
12 1.999999999996824 0 0
13 2.499999999995364 0 0
14 2.999999999993903 0 0
15 3.499999999992442 0 0
16 3.999999999991017 0 0
17 4.499999999991639 0 0
18 4.999999999992399 0 0
19 5.499999999993159 0 0
20 5.99999999999392 0 0
21 6.499999999994679 0 0
22 6.999999999995438 0 0
23 7.499999999996199 0 0
24 7.99999999999696 0 0
25 8.499999999997719 0 0
26 8.999999999998479 0 0
27 9.49999999999924 0 0
28 10 0.4999999999986921 0
29 9.5 1 0
30 8.999999999999998 1 0
31 8.499999999999998 1 0
32 7.999999999999996 1 0
33 7.499999999999995 1 0
34 6.999999999999995 1 0
35 6.499999999999996 1 0
36 5.999999999999996 1 0
37 5.499999999999996 1 0
38 4.999999999999996 1 0
39 4.499999999999997 1 0
40 3.999999999999996 1 0
41 3.499999999999997 1 0
42 2.999999999999998 1 0
43 2.499999999999998 1 0
44 1.999999999999998 1 0
45 1.5 1 0
46 0.9999999999999982 1 0
47 0.5 1 0
48 0 0.5000000000020595 0
49 0.499999999999551 0 1
50 0.9999999999991888 0 1
51 1.499999999998284 0 1
52 1.999999999996824 0 1
53 2.499999999995364 0 1
54 2.999999999993903 0 1
55 3.499999999992442 0 1
56 3.999999999991017 0 1
57 4.499999999991639 0 1
58 4.999999999992399 0 1
59 5.499999999993159 0 1
60 5.99999999999392 0 1
61 6.499999999994679 0 1
62 6.999999999995438 0 1
63 7.499999999996199 0 1
64 7.99999999999696 0 1
65 8.499999999997719 0 1
66 8.999999999998479 0 1
67 9.49999999999924 0 1
68 10 0.4999999999986921 1
69 9.5 1 1
70 8.999999999999998 1 1
71 8.499999999999998 1 1
72 7.999999999999996 1 1
73 7.499999999999995 1 1
74 6.999999999999995 1 1
75 6.499999999999996 1 1
76 5.999999999999996 1 1
77 5.499999999999996 1 1
78 4.999999999999996 1 1
79 4.499999999999997 1 1
80 3.999999999999996 1 1
81 3.499999999999997 1 1
82 2.999999999999998 1 1
83 2.499999999999998 1 1
84 1.999999999999998 1 1
85 1.5 1 1
86 0.9999999999999982 1 1
87 0.5 1 1
88 0 0.5000000000020595 1
89 0 0 0.5
90 10 0 0.5
91 10 1 0.5
92 0 1 0.5
93 0.4999999999997754 0.5000000000018913 0
94 0.9999999999995934 0.5000000000017227 0
95 1.499999999999142 0.5000000000015542 0
96 1.999999999998411 0.5000000000013859 0
97 2.499999999997681 0.5000000000012175 0
98 2.99999999999695 0.5000000000010493 0
99 3.499999999996221 0.500000000000881 0
100 3.999999999995506 0.5000000000007127 0
101 4.499999999995818 0.5000000000005442 0
102 4.999999999996199 0.5000000000003758 0
103 5.499999999996577 0.5000000000002073 0
104 5.999999999996957 0.500000000000039 0
105 6.499999999997337 0.4999999999998707 0
106 6.999999999997716 0.4999999999997023 0
107 7.499999999998096 0.4999999999995339 0
108 7.999999999998478 0.4999999999993655 0
109 8.499999999998856 0.4999999999991972 0
110 8.999999999999236 0.4999999999990289 0
111 9.49999999999962 0.4999999999988605 0
112 0.499999999999551 0 0.5
113 0.9999999999991888 0 0.5
114 1.499999999998284 0 0.5
115 1.999999999996824 0 0.5
116 2.499999999995364 0 0.5
117 2.999999999993903 0 0.5
118 3.499999999992442 0 0.5
119 3.999999999991017 0 0.5
120 4.499999999991639 0 0.5
121 4.999999999992399 0 0.5
122 5.499999999993159 0 0.5
123 5.99999999999392 0 0.5
124 6.499999999994679 0 0.5
125 6.999999999995438 0 0.5
126 7.499999999996199 0 0.5
127 7.99999999999696 0 0.5
128 8.499999999997719 0 0.5
129 8.999999999998479 0 0.5
130 9.49999999999924 0 0.5
131 10 0.4999999999986921 0.5
132 9.5 1 0.5
133 8.999999999999998 1 0.5
134 8.499999999999998 1 0.5
135 7.999999999999996 1 0.5
136 7.499999999999995 1 0.5
137 6.999999999999995 1 0.5
138 6.499999999999996 1 0.5
139 5.999999999999996 1 0.5
140 5.499999999999996 1 0.5
141 4.999999999999996 1 0.5
142 4.499999999999997 1 0.5
143 3.999999999999996 1 0.5
144 3.499999999999997 1 0.5
145 2.999999999999998 1 0.5
146 2.499999999999998 1 0.5
147 1.999999999999998 1 0.5
148 1.5 1 0.5
149 0.9999999999999982 1 0.5
150 0.5 1 0.5
151 0 0.5000000000020595 0.5
152 0.4999999999997754 0.5000000000018913 1
153 0.9999999999995934 0.5000000000017227 1
154 1.499999999999142 0.5000000000015542 1
155 1.999999999998411 0.5000000000013859 1
156 2.499999999997681 0.5000000000012175 1
157 2.99999999999695 0.5000000000010493 1
158 3.499999999996221 0.500000000000881 1
159 3.999999999995506 0.5000000000007127 1
160 4.499999999995818 0.5000000000005442 1
161 4.999999999996199 0.5000000000003758 1
162 5.499999999996577 0.5000000000002073 1
163 5.999999999996957 0.500000000000039 1
164 6.499999999997337 0.4999999999998707 1
165 6.999999999997716 0.4999999999997023 1
166 7.499999999998096 0.4999999999995339 1
167 7.999999999998478 0.4999999999993655 1
168 8.499999999998856 0.4999999999991972 1
169 8.999999999999236 0.4999999999990289 1
170 9.49999999999962 0.4999999999988605 1
171 0.4999999999997754 0.5000000000018913 0.5
172 0.9999999999995934 0.5000000000017227 0.5
173 1.499999999999142 0.5000000000015542 0.5
174 1.999999999998411 0.5000000000013859 0.5
175 2.499999999997681 0.5000000000012175 0.5
176 2.99999999999695 0.5000000000010493 0.5
177 3.499999999996221 0.500000000000881 0.5
178 3.999999999995506 0.5000000000007127 0.5
179 4.499999999995818 0.5000000000005442 0.5
180 4.999999999996199 0.5000000000003758 0.5
181 5.499999999996577 0.5000000000002073 0.5
182 5.999999999996957 0.500000000000039 0.5
183 6.499999999997337 0.4999999999998707 0.5
184 6.999999999997716 0.4999999999997023 0.5
185 7.499999999998096 0.4999999999995339 0.5
186 7.999999999998478 0.4999999999993655 0.5
187 8.499999999998856 0.4999999999991972 0.5
188 8.999999999999236 0.4999999999990289 0.5
189 9.49999999999962 0.4999999999988605 0.5
$EndNodes
$Elements
248
1 3 2 1 1 1 9 93 48
2 3 2 1 1 48 93 47 4
3 3 2 1 1 9 10 94 93
4 3 2 1 1 93 94 46 47
5 3 2 1 1 10 11 95 94
6 3 2 1 1 94 95 45 46
7 3 2 1 1 11 12 96 95
8 3 2 1 1 95 96 44 45
9 3 2 1 1 12 13 97 96
10 3 2 1 1 96 97 43 44
11 3 2 1 1 13 14 98 97
12 3 2 1 1 97 98 42 43
13 3 2 1 1 14 15 99 98
14 3 2 1 1 98 99 41 42
15 3 2 1 1 15 16 100 99
16 3 2 1 1 99 100 40 41
17 3 2 1 1 16 17 101 100
18 3 2 1 1 100 101 39 40
19 3 2 1 1 17 18 102 101
20 3 2 1 1 101 102 38 39
21 3 2 1 1 18 19 103 102
22 3 2 1 1 102 103 37 38
23 3 2 1 1 19 20 104 103
24 3 2 1 1 103 104 36 37
25 3 2 1 1 20 21 105 104
26 3 2 1 1 104 105 35 36
27 3 2 1 1 21 22 106 105
28 3 2 1 1 105 106 34 35
29 3 2 1 1 22 23 107 106
30 3 2 1 1 106 107 33 34
31 3 2 1 1 23 24 108 107
32 3 2 1 1 107 108 32 33
33 3 2 1 1 24 25 109 108
34 3 2 1 1 108 109 31 32
35 3 2 1 1 25 26 110 109
36 3 2 1 1 109 110 30 31
37 3 2 1 1 26 27 111 110
38 3 2 1 1 110 111 29 30
39 3 2 1 1 27 2 28 111
40 3 2 1 1 111 28 3 29
41 3 2 2 13 1 9 112 89
42 3 2 2 13 89 112 49 5
43 3 2 2 13 9 10 113 112
44 3 2 2 13 112 113 50 49
45 3 2 2 13 10 11 114 113
46 3 2 2 13 113 114 51 50
47 3 2 2 13 11 12 115 114
48 3 2 2 13 114 115 52 51
49 3 2 2 13 12 13 116 115
50 3 2 2 13 115 116 53 52
51 3 2 2 13 13 14 117 116
52 3 2 2 13 116 117 54 53
53 3 2 2 13 14 15 118 117
54 3 2 2 13 117 118 55 54
55 3 2 2 13 15 16 119 118
56 3 2 2 13 118 119 56 55
57 3 2 2 13 16 17 120 119
58 3 2 2 13 119 120 57 56
59 3 2 2 13 17 18 121 120
60 3 2 2 13 120 121 58 57
61 3 2 2 13 18 19 122 121
62 3 2 2 13 121 122 59 58
63 3 2 2 13 19 20 123 122
64 3 2 2 13 122 123 60 59
65 3 2 2 13 20 21 124 123
66 3 2 2 13 123 124 61 60
67 3 2 2 13 21 22 125 124
68 3 2 2 13 124 125 62 61
69 3 2 2 13 22 23 126 125
70 3 2 2 13 125 126 63 62
71 3 2 2 13 23 24 127 126
72 3 2 2 13 126 127 64 63
73 3 2 2 13 24 25 128 127
74 3 2 2 13 127 128 65 64
75 3 2 2 13 25 26 129 128
76 3 2 2 13 128 129 66 65
77 3 2 2 13 26 27 130 129
78 3 2 2 13 129 130 67 66
79 3 2 2 13 27 2 90 130
80 3 2 2 13 130 90 6 67
81 3 2 3 17 2 28 131 90
82 3 2 3 17 90 131 68 6
83 3 2 3 17 28 3 91 131
84 3 2 3 17 131 91 7 68
85 3 2 4 21 3 29 132 91
86 3 2 4 21 91 132 69 7
87 3 2 4 21 29 30 133 132
88 3 2 4 21 132 133 70 69
89 3 2 4 21 30 31 134 133
90 3 2 4 21 133 134 71 70
91 3 2 4 21 31 32 135 134
92 3 2 4 21 134 135 72 71
93 3 2 4 21 32 33 136 135
94 3 2 4 21 135 136 73 72
95 3 2 4 21 33 34 137 136
96 3 2 4 21 136 137 74 73
97 3 2 4 21 34 35 138 137
98 3 2 4 21 137 138 75 74
99 3 2 4 21 35 36 139 138
100 3 2 4 21 138 139 76 75
101 3 2 4 21 36 37 140 139
102 3 2 4 21 139 140 77 76
103 3 2 4 21 37 38 141 140
104 3 2 4 21 140 141 78 77
105 3 2 4 21 38 39 142 141
106 3 2 4 21 141 142 79 78
107 3 2 4 21 39 40 143 142
108 3 2 4 21 142 143 80 79
109 3 2 4 21 40 41 144 143
110 3 2 4 21 143 144 81 80
111 3 2 4 21 41 42 145 144
112 3 2 4 21 144 145 82 81
113 3 2 4 21 42 43 146 145
114 3 2 4 21 145 146 83 82
115 3 2 4 21 43 44 147 146
116 3 2 4 21 146 147 84 83
117 3 2 4 21 44 45 148 147
118 3 2 4 21 147 148 85 84
119 3 2 4 21 45 46 149 148
120 3 2 4 21 148 149 86 85
121 3 2 4 21 46 47 150 149
122 3 2 4 21 149 150 87 86
123 3 2 4 21 47 4 92 150
124 3 2 4 21 150 92 8 87
125 3 2 5 25 4 48 151 92
126 3 2 5 25 92 151 88 8
127 3 2 5 25 48 1 89 151
128 3 2 5 25 151 89 5 88
129 3 2 6 26 5 49 152 88
130 3 2 6 26 88 152 87 8
131 3 2 6 26 49 50 153 152
132 3 2 6 26 152 153 86 87
133 3 2 6 26 50 51 154 153
134 3 2 6 26 153 154 85 86
135 3 2 6 26 51 52 155 154
136 3 2 6 26 154 155 84 85
137 3 2 6 26 52 53 156 155
138 3 2 6 26 155 156 83 84
139 3 2 6 26 53 54 157 156
140 3 2 6 26 156 157 82 83
141 3 2 6 26 54 55 158 157
142 3 2 6 26 157 158 81 82
143 3 2 6 26 55 56 159 158
144 3 2 6 26 158 159 80 81
145 3 2 6 26 56 57 160 159
146 3 2 6 26 159 160 79 80
147 3 2 6 26 57 58 161 160
148 3 2 6 26 160 161 78 79
149 3 2 6 26 58 59 162 161
150 3 2 6 26 161 162 77 78
151 3 2 6 26 59 60 163 162
152 3 2 6 26 162 163 76 77
153 3 2 6 26 60 61 164 163
154 3 2 6 26 163 164 75 76
155 3 2 6 26 61 62 165 164
156 3 2 6 26 164 165 74 75
157 3 2 6 26 62 63 166 165
158 3 2 6 26 165 166 73 74
159 3 2 6 26 63 64 167 166
160 3 2 6 26 166 167 72 73
161 3 2 6 26 64 65 168 167
162 3 2 6 26 167 168 71 72
163 3 2 6 26 65 66 169 168
164 3 2 6 26 168 169 70 71
165 3 2 6 26 66 67 170 169
166 3 2 6 26 169 170 69 70
167 3 2 6 26 67 6 68 170
168 3 2 6 26 170 68 7 69
169 5 2 1 1 1 9 93 48 89 112 171 151
170 5 2 1 1 89 112 171 151 5 49 152 88
171 5 2 1 1 48 93 47 4 151 171 150 92
172 5 2 1 1 151 171 150 92 88 152 87 8
173 5 2 1 1 9 10 94 93 112 113 172 171
174 5 2 1 1 112 113 172 171 49 50 153 152
175 5 2 1 1 93 94 46 47 171 172 149 150
176 5 2 1 1 171 172 149 150 152 153 86 87
177 5 2 1 1 10 11 95 94 113 114 173 172
178 5 2 1 1 113 114 173 172 50 51 154 153
179 5 2 1 1 94 95 45 46 172 173 148 149
180 5 2 1 1 172 173 148 149 153 154 85 86
181 5 2 1 1 11 12 96 95 114 115 174 173
182 5 2 1 1 114 115 174 173 51 52 155 154
183 5 2 1 1 95 96 44 45 173 174 147 148
184 5 2 1 1 173 174 147 148 154 155 84 85
185 5 2 1 1 12 13 97 96 115 116 175 174
186 5 2 1 1 115 116 175 174 52 53 156 155
187 5 2 1 1 96 97 43 44 174 175 146 147
188 5 2 1 1 174 175 146 147 155 156 83 84
189 5 2 1 1 13 14 98 97 116 117 176 175
190 5 2 1 1 116 117 176 175 53 54 157 156
191 5 2 1 1 97 98 42 43 175 176 145 146
192 5 2 1 1 175 176 145 146 156 157 82 83
193 5 2 1 1 14 15 99 98 117 118 177 176
194 5 2 1 1 117 118 177 176 54 55 158 157
195 5 2 1 1 98 99 41 42 176 177 144 145
196 5 2 1 1 176 177 144 145 157 158 81 82
197 5 2 1 1 15 16 100 99 118 119 178 177
198 5 2 1 1 118 119 178 177 55 56 159 158
199 5 2 1 1 99 100 40 41 177 178 143 144
200 5 2 1 1 177 178 143 144 158 159 80 81
201 5 2 1 1 16 17 101 100 119 120 179 178
202 5 2 1 1 119 120 179 178 56 57 160 159
203 5 2 1 1 100 101 39 40 178 179 142 143
204 5 2 1 1 178 179 142 143 159 160 79 80
205 5 2 1 1 17 18 102 101 120 121 180 179
206 5 2 1 1 120 121 180 179 57 58 161 160
207 5 2 1 1 101 102 38 39 179 180 141 142
208 5 2 1 1 179 180 141 142 160 161 78 79
209 5 2 1 1 18 19 103 102 121 122 181 180
210 5 2 1 1 121 122 181 180 58 59 162 161
211 5 2 1 1 102 103 37 38 180 181 140 141
212 5 2 1 1 180 181 140 141 161 162 77 78
213 5 2 1 1 19 20 104 103 122 123 182 181
214 5 2 1 1 122 123 182 181 59 60 163 162
215 5 2 1 1 103 104 36 37 181 182 139 140
216 5 2 1 1 181 182 139 140 162 163 76 77
217 5 2 1 1 20 21 105 104 123 124 183 182
218 5 2 1 1 123 124 183 182 60 61 164 163
219 5 2 1 1 104 105 35 36 182 183 138 139
220 5 2 1 1 182 183 138 139 163 164 75 76
221 5 2 1 1 21 22 106 105 124 125 184 183
222 5 2 1 1 124 125 184 183 61 62 165 164
223 5 2 1 1 105 106 34 35 183 184 137 138
224 5 2 1 1 183 184 137 138 164 165 74 75
225 5 2 1 1 22 23 107 106 125 126 185 184
226 5 2 1 1 125 126 185 184 62 63 166 165
227 5 2 1 1 106 107 33 34 184 185 136 137
228 5 2 1 1 184 185 136 137 165 166 73 74
229 5 2 1 1 23 24 108 107 126 127 186 185
230 5 2 1 1 126 127 186 185 63 64 167 166
231 5 2 1 1 107 108 32 33 185 186 135 136
232 5 2 1 1 185 186 135 136 166 167 72 73
233 5 2 1 1 24 25 109 108 127 128 187 186
234 5 2 1 1 127 128 187 186 64 65 168 167
235 5 2 1 1 108 109 31 32 186 187 134 135
236 5 2 1 1 186 187 134 135 167 168 71 72
237 5 2 1 1 25 26 110 109 128 129 188 187
238 5 2 1 1 128 129 188 187 65 66 169 168
239 5 2 1 1 109 110 30 31 187 188 133 134
240 5 2 1 1 187 188 133 134 168 169 70 71
241 5 2 1 1 26 27 111 110 129 130 189 188
242 5 2 1 1 129 130 189 188 66 67 170 169
243 5 2 1 1 110 111 29 30 188 189 132 133
244 5 2 1 1 188 189 132 133 169 170 69 70
245 5 2 1 1 27 2 28 111 130 90 131 189
246 5 2 1 1 130 90 131 189 67 6 68 170
247 5 2 1 1 111 28 3 29 189 131 91 132
248 5 2 1 1 189 131 91 132 170 68 7 69
$EndElements
