$MeshFormat
2.2 0 8
$EndMeshFormat
$PhysicalNames
7
2 1 "bottom"
2 2 "top"
2 3 "front"
2 4 "back"
2 5 "left"
2 6 "right"
3 7 "domain"
$EndPhysicalNames
$Nodes
273
1 0 1.6666666666666665 1
2 0 2 1
3 0 2 2
4 1.6666666666666667 2 2
5 0 1.6666666666666665 2
6 1.6666666666666667 2 1
7 1.6666666666666667 1.6666666666666665 2
8 0 1.6666666666666665 0
9 1.6666666666666667 1.6666666666666665 1
10 0 1.3333333333333333 1
11 0 2 0
12 3.3333333333333335 2 2
13 0 1.3333333333333333 2
14 1.6666666666666667 2 0
15 0 1.3333333333333333 0
16 1.6666666666666667 1.6666666666666665 0
17 3.3333333333333335 2 1
18 1.6666666666666667 1.3333333333333333 2
19 1.6666666666666667 1.3333333333333333 1
20 3.3333333333333335 1.6666666666666665 2
21 3.3333333333333335 1.6666666666666665 1
22 0 1 1
23 1.6666666666666667 1.3333333333333333 0
24 5 2 2
25 0 1 2
26 0 1 0
27 3.3333333333333335 2 0
28 3.3333333333333335 1.6666666666666665 0
29 5 2 1
30 1.6666666666666667 1 2
31 1.6666666666666667 1 1
32 3.3333333333333335 1.3333333333333333 2
33 3.3333333333333335 1.3333333333333333 1
34 5 1.6666666666666665 2
35 5 1.6666666666666665 1
36 0 0.66666666666666663 1
37 1.6666666666666667 1 0
38 3.3333333333333335 1.3333333333333333 0
39 6.666666666666667 2 2
40 0 0.66666666666666663 2
41 0 0.66666666666666663 0
42 5 2 0
43 5 1.6666666666666665 0
44 6.666666666666667 2 1
45 1.6666666666666667 0.66666666666666663 2
46 1.6666666666666667 0.66666666666666663 1
47 3.3333333333333335 1 2
48 3.3333333333333335 1 1
49 5 1.3333333333333333 2
50 5 1.3333333333333333 1
51 6.666666666666667 1.6666666666666665 2
52 6.666666666666667 1.6666666666666665 1
53 0 0.33333333333333331 1
54 1.6666666666666667 0.66666666666666663 0
55 3.3333333333333335 1 0
56 5 1.3333333333333333 0
57 8.3333333333333339 2 2
58 0 0.33333333333333331 2
59 0 0.33333333333333331 0
60 6.666666666666667 2 0
61 6.666666666666667 1.6666666666666665 0
62 8.3333333333333339 2 1
63 1.6666666666666667 0.33333333333333331 2
64 1.6666666666666667 0.33333333333333331 1
65 3.3333333333333335 0.66666666666666663 2
66 3.3333333333333335 0.66666666666666663 1
67 5 1 2
68 5 1 1
69 6.666666666666667 1.3333333333333333 2
70 6.666666666666667 1.3333333333333333 1
71 8.3333333333333339 1.6666666666666665 2
72 8.3333333333333339 1.6666666666666665 1
73 0 0 1
74 1.6666666666666667 0.33333333333333331 0
75 3.3333333333333335 0.66666666666666663 0
76 5 1 0
77 6.666666666666667 1.3333333333333333 0
78 10 2 2
79 0 0 2
80 0 0 0
81 8.3333333333333339 2 0
82 8.3333333333333339 1.6666666666666665 0
83 10 2 1
84 1.6666666666666667 0 2
85 1.6666666666666667 0 1
86 3.3333333333333335 0.33333333333333331 2
87 3.3333333333333335 0.33333333333333331 1
88 5 0.66666666666666663 2
89 5 0.66666666666666663 1
90 6.666666666666667 1 2
91 6.666666666666667 1 1
92 8.3333333333333339 1.3333333333333333 2
93 8.3333333333333339 1.3333333333333333 1
94 10 1.6666666666666665 2
95 10 1.6666666666666665 1
96 1.6666666666666667 0 0
97 3.3333333333333335 0.33333333333333331 0
98 5 0.66666666666666663 0
99 6.666666666666667 1 0
100 8.3333333333333339 1.3333333333333333 0
101 11.666666666666668 2 2
102 10 2 0
103 10 1.6666666666666665 0
104 11.666666666666668 2 1
105 3.3333333333333335 0 2
106 3.3333333333333335 0 1
107 5 0.33333333333333331 2
108 5 0.33333333333333331 1
109 6.666666666666667 0.66666666666666663 2
110 6.666666666666667 0.66666666666666663 1
111 8.3333333333333339 1 2
112 8.3333333333333339 1 1
113 10 1.3333333333333333 2
114 10 1.3333333333333333 1
115 11.666666666666668 1.6666666666666665 2
116 11.666666666666668 1.6666666666666665 1
117 3.3333333333333335 0 0
118 5 0.33333333333333331 0
119 6.666666666666667 0.66666666666666663 0
120 8.3333333333333339 1 0
121 10 1.3333333333333333 0
122 13.333333333333334 2 2
123 11.666666666666668 2 0
124 11.666666666666668 1.6666666666666665 0
125 13.333333333333334 2 1
126 5 0 2
127 5 0 1
128 6.666666666666667 0.33333333333333331 2
129 6.666666666666667 0.33333333333333331 1
130 8.3333333333333339 0.66666666666666663 2
131 8.3333333333333339 0.66666666666666663 1
132 10 1 2
133 10 1 1
134 11.666666666666668 1.3333333333333333 2
135 11.666666666666668 1.3333333333333333 1
136 13.333333333333334 1.6666666666666665 2
137 13.333333333333334 1.6666666666666665 1
138 5 0 0
139 6.666666666666667 0.33333333333333331 0
140 8.3333333333333339 0.66666666666666663 0
141 10 1 0
142 11.666666666666668 1.3333333333333333 0
143 15 2 2
144 13.333333333333334 2 0
145 13.333333333333334 1.6666666666666665 0
146 15 2 1
147 6.666666666666667 0 2
148 6.666666666666667 0 1
149 8.3333333333333339 0.33333333333333331 2
150 8.3333333333333339 0.33333333333333331 1
151 10 0.66666666666666663 2
152 10 0.66666666666666663 1
153 11.666666666666668 1 2
154 11.666666666666668 1 1
155 13.333333333333334 1.3333333333333333 2
156 13.333333333333334 1.3333333333333333 1
157 15 1.6666666666666665 2
158 15 1.6666666666666665 1
159 6.666666666666667 0 0
160 8.3333333333333339 0.33333333333333331 0
161 10 0.66666666666666663 0
162 11.666666666666668 1 0
163 13.333333333333334 1.3333333333333333 0
164 16.666666666666668 2 2
165 15 2 0
166 15 1.6666666666666665 0
167 16.666666666666668 2 1
168 8.3333333333333339 0 2
169 8.3333333333333339 0 1
170 10 0.33333333333333331 2
171 10 0.33333333333333331 1
172 11.666666666666668 0.66666666666666663 2
173 11.666666666666668 0.66666666666666663 1
174 13.333333333333334 1 2
175 13.333333333333334 1 1
176 15 1.3333333333333333 2
177 15 1.3333333333333333 1
178 16.666666666666668 1.6666666666666665 2
179 16.666666666666668 1.6666666666666665 1
180 8.3333333333333339 0 0
181 10 0.33333333333333331 0
182 11.666666666666668 0.66666666666666663 0
183 13.333333333333334 1 0
184 15 1.3333333333333333 0
185 18.333333333333336 2 2
186 16.666666666666668 2 0
187 16.666666666666668 1.6666666666666665 0
188 18.333333333333336 2 1
189 10 0 2
190 10 0 1
191 11.666666666666668 0.33333333333333331 2
192 11.666666666666668 0.33333333333333331 1
193 13.333333333333334 0.66666666666666663 2
194 13.333333333333334 0.66666666666666663 1
195 15 1 2
196 15 1 1
197 16.666666666666668 1.3333333333333333 2
198 16.666666666666668 1.3333333333333333 1
199 18.333333333333336 1.6666666666666665 2
200 18.333333333333336 1.6666666666666665 1
201 10 0 0
202 11.666666666666668 0.33333333333333331 0
203 13.333333333333334 0.66666666666666663 0
204 15 1 0
205 16.666666666666668 1.3333333333333333 0
206 20 2 2
207 18.333333333333336 2 0
208 18.333333333333336 1.6666666666666665 0
209 20 2 1
210 11.666666666666668 0 2
211 11.666666666666668 0 1
212 13.333333333333334 0.33333333333333331 2
213 13.333333333333334 0.33333333333333331 1
214 15 0.66666666666666663 2
215 15 0.66666666666666663 1
216 16.666666666666668 1 2
217 16.666666666666668 1 1
218 18.333333333333336 1.3333333333333333 2
219 18.333333333333336 1.3333333333333333 1
220 20 1.6666666666666665 2
221 20 1.6666666666666665 1
222 11.666666666666668 0 0
223 13.333333333333334 0.33333333333333331 0
224 15 0.66666666666666663 0
225 16.666666666666668 1 0
226 18.333333333333336 1.3333333333333333 0
227 20 2 0
228 20 1.6666666666666665 0
229 13.333333333333334 0 2
230 13.333333333333334 0 1
231 15 0.33333333333333331 2
232 15 0.33333333333333331 1
233 16.666666666666668 0.66666666666666663 2
234 16.666666666666668 0.66666666666666663 1
235 18.333333333333336 1 2
236 18.333333333333336 1 1
237 20 1.3333333333333333 2
238 20 1.3333333333333333 1
239 13.333333333333334 0 0
240 15 0.33333333333333331 0
241 16.666666666666668 0.66666666666666663 0
242 18.333333333333336 1 0
243 20 1.3333333333333333 0
244 15 0 2
245 15 0 1
246 16.666666666666668 0.33333333333333331 2
247 16.666666666666668 0.33333333333333331 1
248 18.333333333333336 0.66666666666666663 2
249 18.333333333333336 0.66666666666666663 1
250 20 1 2
251 20 1 1
252 15 0 0
253 16.666666666666668 0.33333333333333331 0
254 18.333333333333336 0.66666666666666663 0
255 20 1 0
256 16.666666666666668 0 2
257 16.666666666666668 0 1
258 18.333333333333336 0.33333333333333331 2
259 18.333333333333336 0.33333333333333331 1
260 20 0.66666666666666663 2
261 20 0.66666666666666663 1
262 16.666666666666668 0 0
263 18.333333333333336 0.33333333333333331 0
264 20 0.66666666666666663 0
265 18.333333333333336 0 2
266 18.333333333333336 0 1
267 20 0.33333333333333331 2
268 20 0.33333333333333331 1
269 18.333333333333336 0 0
270 20 0.33333333333333331 0
271 20 0 2
272 20 0 1
273 20 0 0
$EndNodes
$Elements
1296
1 2 2 1 1 8 14 11
2 2 2 1 1 8 16 14
3 2 2 1 1 15 16 8
4 2 2 1 1 15 23 16
5 2 2 1 1 16 27 14
6 2 2 1 1 26 23 15
7 2 2 1 1 16 28 27
8 2 2 1 1 23 28 16
9 2 2 1 1 26 37 23
10 2 2 1 1 23 38 28
11 2 2 1 1 28 42 27
12 2 2 1 1 41 37 26
13 2 2 1 1 37 38 23
14 2 2 1 1 28 43 42
15 2 2 1 1 38 43 28
16 2 2 1 1 41 54 37
17 2 2 1 1 37 55 38
18 2 2 1 1 38 56 43
19 2 2 1 1 43 60 42
20 2 2 1 1 59 54 41
21 2 2 1 1 54 55 37
22 2 2 1 1 55 56 38
23 2 2 1 1 43 61 60
24 2 2 1 1 56 61 43
25 2 2 1 1 59 74 54
26 2 2 1 1 54 75 55
27 2 2 1 1 55 76 56
28 2 2 1 1 56 77 61
29 2 2 1 1 61 81 60
30 2 2 1 1 80 74 59
31 2 2 1 1 74 75 54
32 2 2 1 1 75 76 55
33 2 2 1 1 76 77 56
34 2 2 1 1 61 82 81
35 2 2 1 1 77 82 61
36 2 2 1 1 80 96 74
37 2 2 1 1 74 97 75
38 2 2 1 1 75 98 76
39 2 2 1 1 76 99 77
40 2 2 1 1 77 100 82
41 2 2 1 1 82 102 81
42 2 2 1 1 96 97 74
43 2 2 1 1 97 98 75
44 2 2 1 1 98 99 76
45 2 2 1 1 99 100 77
46 2 2 1 1 82 103 102
47 2 2 1 1 100 103 82
48 2 2 1 1 96 117 97
49 2 2 1 1 97 118 98
50 2 2 1 1 98 119 99
51 2 2 1 1 99 120 100
52 2 2 1 1 100 121 103
53 2 2 1 1 103 123 102
54 2 2 1 1 117 118 97
55 2 2 1 1 118 119 98
56 2 2 1 1 119 120 99
57 2 2 1 1 120 121 100
58 2 2 1 1 103 124 123
59 2 2 1 1 121 124 103
60 2 2 1 1 117 138 118
61 2 2 1 1 118 139 119
62 2 2 1 1 119 140 120
63 2 2 1 1 120 141 121
64 2 2 1 1 121 142 124
65 2 2 1 1 124 144 123
66 2 2 1 1 138 139 118
67 2 2 1 1 139 140 119
68 2 2 1 1 140 141 120
69 2 2 1 1 141 142 121
70 2 2 1 1 124 145 144
71 2 2 1 1 142 145 124
72 2 2 1 1 138 159 139
73 2 2 1 1 139 160 140
74 2 2 1 1 140 161 141
75 2 2 1 1 141 162 142
76 2 2 1 1 142 163 145
77 2 2 1 1 145 165 144
78 2 2 1 1 159 160 139
79 2 2 1 1 160 161 140
80 2 2 1 1 161 162 141
81 2 2 1 1 162 163 142
82 2 2 1 1 145 166 165
83 2 2 1 1 163 166 145
84 2 2 1 1 159 180 160
85 2 2 1 1 160 181 161
86 2 2 1 1 161 182 162
87 2 2 1 1 162 183 163
88 2 2 1 1 163 184 166
89 2 2 1 1 166 186 165
90 2 2 1 1 180 181 160
91 2 2 1 1 181 182 161
92 2 2 1 1 182 183 162
93 2 2 1 1 183 184 163
94 2 2 1 1 166 187 186
95 2 2 1 1 184 187 166
96 2 2 1 1 180 201 181
97 2 2 1 1 181 202 182
98 2 2 1 1 182 203 183
99 2 2 1 1 183 204 184
100 2 2 1 1 184 205 187
101 2 2 1 1 187 207 186
102 2 2 1 1 201 202 181
103 2 2 1 1 202 203 182
104 2 2 1 1 203 204 183
105 2 2 1 1 204 205 184
106 2 2 1 1 187 208 207
107 2 2 1 1 205 208 187
108 2 2 1 1 201 222 202
109 2 2 1 1 202 223 203
110 2 2 1 1 203 224 204
111 2 2 1 1 204 225 205
112 2 2 1 1 205 226 208
113 2 2 1 1 208 227 207
114 2 2 1 1 222 223 202
115 2 2 1 1 223 224 203
116 2 2 1 1 224 225 204
117 2 2 1 1 225 226 205
118 2 2 1 1 208 228 227
119 2 2 1 1 226 228 208
120 2 2 1 1 222 239 223
121 2 2 1 1 223 240 224
122 2 2 1 1 224 241 225
123 2 2 1 1 225 242 226
124 2 2 1 1 226 243 228
125 2 2 1 1 239 240 223
126 2 2 1 1 240 241 224
127 2 2 1 1 241 242 225
128 2 2 1 1 242 243 226
129 2 2 1 1 239 252 240
130 2 2 1 1 240 253 241
131 2 2 1 1 241 254 242
132 2 2 1 1 242 255 243
133 2 2 1 1 252 253 240
134 2 2 1 1 253 254 241
135 2 2 1 1 254 255 242
136 2 2 1 1 252 262 253
137 2 2 1 1 253 263 254
138 2 2 1 1 254 264 255
139 2 2 1 1 262 263 253
140 2 2 1 1 263 264 254
141 2 2 1 1 262 269 263
142 2 2 1 1 263 270 264
143 2 2 1 1 269 270 263
144 2 2 1 1 269 273 270
145 2 2 2 2 3 5 4
146 2 2 2 2 7 4 5
147 2 2 2 2 5 13 7
148 2 2 2 2 4 7 12
149 2 2 2 2 18 7 13
150 2 2 2 2 20 12 7
151 2 2 2 2 13 25 18
152 2 2 2 2 7 18 20
153 2 2 2 2 12 20 24
154 2 2 2 2 30 18 25
155 2 2 2 2 32 20 18
156 2 2 2 2 34 24 20
157 2 2 2 2 25 40 30
158 2 2 2 2 18 30 32
159 2 2 2 2 20 32 34
160 2 2 2 2 24 34 39
161 2 2 2 2 45 30 40
162 2 2 2 2 47 32 30
163 2 2 2 2 49 34 32
164 2 2 2 2 51 39 34
165 2 2 2 2 40 58 45
166 2 2 2 2 30 45 47
167 2 2 2 2 32 47 49
168 2 2 2 2 34 49 51
169 2 2 2 2 39 51 57
170 2 2 2 2 63 45 58
171 2 2 2 2 65 47 45
172 2 2 2 2 67 49 47
173 2 2 2 2 69 51 49
174 2 2 2 2 71 57 51
175 2 2 2 2 58 79 63
176 2 2 2 2 45 63 65
177 2 2 2 2 47 65 67
178 2 2 2 2 49 67 69
179 2 2 2 2 51 69 71
180 2 2 2 2 57 71 78
181 2 2 2 2 84 63 79
182 2 2 2 2 86 65 63
183 2 2 2 2 88 67 65
184 2 2 2 2 90 69 67
185 2 2 2 2 92 71 69
186 2 2 2 2 94 78 71
187 2 2 2 2 63 84 86
188 2 2 2 2 65 86 88
189 2 2 2 2 67 88 90
190 2 2 2 2 69 90 92
191 2 2 2 2 71 92 94
192 2 2 2 2 78 94 101
193 2 2 2 2 105 86 84
194 2 2 2 2 107 88 86
195 2 2 2 2 109 90 88
196 2 2 2 2 111 92 90
197 2 2 2 2 113 94 92
198 2 2 2 2 115 101 94
199 2 2 2 2 86 105 107
200 2 2 2 2 88 107 109
201 2 2 2 2 90 109 111
202 2 2 2 2 92 111 113
203 2 2 2 2 94 113 115
204 2 2 2 2 101 115 122
205 2 2 2 2 126 107 105
206 2 2 2 2 128 109 107
207 2 2 2 2 130 111 109
208 2 2 2 2 132 113 111
209 2 2 2 2 134 115 113
210 2 2 2 2 136 122 115
211 2 2 2 2 107 126 128
212 2 2 2 2 109 128 130
213 2 2 2 2 111 130 132
214 2 2 2 2 113 132 134
215 2 2 2 2 115 134 136
216 2 2 2 2 122 136 143
217 2 2 2 2 147 128 126
218 2 2 2 2 149 130 128
219 2 2 2 2 151 132 130
220 2 2 2 2 153 134 132
221 2 2 2 2 155 136 134
222 2 2 2 2 157 143 136
223 2 2 2 2 128 147 149
224 2 2 2 2 130 149 151
225 2 2 2 2 132 151 153
226 2 2 2 2 134 153 155
227 2 2 2 2 136 155 157
228 2 2 2 2 143 157 164
229 2 2 2 2 168 149 147
230 2 2 2 2 170 151 149
231 2 2 2 2 172 153 151
232 2 2 2 2 174 155 153
233 2 2 2 2 176 157 155
234 2 2 2 2 178 164 157
235 2 2 2 2 149 168 170
236 2 2 2 2 151 170 172
237 2 2 2 2 153 172 174
238 2 2 2 2 155 174 176
239 2 2 2 2 157 176 178
240 2 2 2 2 164 178 185
241 2 2 2 2 189 170 168
242 2 2 2 2 191 172 170
243 2 2 2 2 193 174 172
244 2 2 2 2 195 176 174
245 2 2 2 2 197 178 176
246 2 2 2 2 199 185 178
247 2 2 2 2 170 189 191
248 2 2 2 2 172 191 193
249 2 2 2 2 174 193 195
250 2 2 2 2 176 195 197
251 2 2 2 2 178 197 199
252 2 2 2 2 185 199 206
253 2 2 2 2 210 191 189
254 2 2 2 2 212 193 191
255 2 2 2 2 214 195 193
256 2 2 2 2 216 197 195
257 2 2 2 2 218 199 197
258 2 2 2 2 220 206 199
259 2 2 2 2 191 210 212
260 2 2 2 2 193 212 214
261 2 2 2 2 195 214 216
262 2 2 2 2 197 216 218
263 2 2 2 2 199 218 220
264 2 2 2 2 229 212 210
265 2 2 2 2 231 214 212
266 2 2 2 2 233 216 214
267 2 2 2 2 235 218 216
268 2 2 2 2 237 220 218
269 2 2 2 2 212 229 231
270 2 2 2 2 214 231 233
271 2 2 2 2 216 233 235
272 2 2 2 2 218 235 237
273 2 2 2 2 244 231 229
274 2 2 2 2 246 233 231
275 2 2 2 2 248 235 233
276 2 2 2 2 250 237 235
277 2 2 2 2 231 244 246
278 2 2 2 2 233 246 248
279 2 2 2 2 235 248 250
280 2 2 2 2 256 246 244
281 2 2 2 2 258 248 246
282 2 2 2 2 260 250 248
283 2 2 2 2 246 256 258
284 2 2 2 2 248 258 260
285 2 2 2 2 265 258 256
286 2 2 2 2 267 260 258
287 2 2 2 2 258 265 267
288 2 2 2 2 271 267 265
289 2 2 3 3 73 84 79
290 2 2 3 3 73 85 84
291 2 2 3 3 80 85 73
292 2 2 3 3 80 96 85
293 2 2 3 3 85 105 84
294 2 2 3 3 85 106 105
295 2 2 3 3 96 106 85
296 2 2 3 3 96 117 106
297 2 2 3 3 106 126 105
298 2 2 3 3 106 127 126
299 2 2 3 3 117 127 106
300 2 2 3 3 117 138 127
301 2 2 3 3 127 147 126
302 2 2 3 3 127 148 147
303 2 2 3 3 138 148 127
304 2 2 3 3 138 159 148
305 2 2 3 3 148 168 147
306 2 2 3 3 148 169 168
307 2 2 3 3 159 169 148
308 2 2 3 3 159 180 169
309 2 2 3 3 169 189 168
310 2 2 3 3 169 190 189
311 2 2 3 3 180 190 169
312 2 2 3 3 180 201 190
313 2 2 3 3 190 210 189
314 2 2 3 3 190 211 210
315 2 2 3 3 201 211 190
316 2 2 3 3 201 222 211
317 2 2 3 3 211 229 210
318 2 2 3 3 211 230 229
319 2 2 3 3 222 230 211
320 2 2 3 3 222 239 230
321 2 2 3 3 230 244 229
322 2 2 3 3 230 245 244
323 2 2 3 3 239 245 230
324 2 2 3 3 239 252 245
325 2 2 3 3 245 256 244
326 2 2 3 3 245 257 256
327 2 2 3 3 252 257 245
328 2 2 3 3 252 262 257
329 2 2 3 3 257 265 256
330 2 2 3 3 257 266 265
331 2 2 3 3 262 266 257
332 2 2 3 3 262 269 266
333 2 2 3 3 266 271 265
334 2 2 3 3 266 272 271
335 2 2 3 3 269 272 266
336 2 2 3 3 269 273 272
337 2 2 4 4 2 3 4
338 2 2 4 4 6 2 4
339 2 2 4 4 11 2 6
340 2 2 4 4 6 4 12
341 2 2 4 4 14 11 6
342 2 2 4 4 17 6 12
343 2 2 4 4 14 6 17
344 2 2 4 4 17 12 24
345 2 2 4 4 27 14 17
346 2 2 4 4 29 17 24
347 2 2 4 4 27 17 29
348 2 2 4 4 29 24 39
349 2 2 4 4 42 27 29
350 2 2 4 4 44 29 39
351 2 2 4 4 42 29 44
352 2 2 4 4 44 39 57
353 2 2 4 4 60 42 44
354 2 2 4 4 62 44 57
355 2 2 4 4 60 44 62
356 2 2 4 4 62 57 78
357 2 2 4 4 81 60 62
358 2 2 4 4 83 62 78
359 2 2 4 4 81 62 83
360 2 2 4 4 83 78 101
361 2 2 4 4 102 81 83
362 2 2 4 4 104 83 101
363 2 2 4 4 102 83 104
364 2 2 4 4 104 101 122
365 2 2 4 4 123 102 104
366 2 2 4 4 125 104 122
367 2 2 4 4 123 104 125
368 2 2 4 4 125 122 143
369 2 2 4 4 144 123 125
370 2 2 4 4 146 125 143
371 2 2 4 4 144 125 146
372 2 2 4 4 146 143 164
373 2 2 4 4 165 144 146
374 2 2 4 4 167 146 164
375 2 2 4 4 165 146 167
376 2 2 4 4 167 164 185
377 2 2 4 4 186 165 167
378 2 2 4 4 188 167 185
379 2 2 4 4 186 167 188
380 2 2 4 4 188 185 206
381 2 2 4 4 207 186 188
382 2 2 4 4 209 188 206
383 2 2 4 4 207 188 209
384 2 2 4 4 227 207 209
385 2 2 5 5 1 2 3
386 2 2 5 5 1 3 5
387 2 2 5 5 8 2 1
388 2 2 5 5 10 1 5
389 2 2 5 5 8 11 2
390 2 2 5 5 10 5 13
391 2 2 5 5 15 8 1
392 2 2 5 5 15 1 10
393 2 2 5 5 22 10 13
394 2 2 5 5 22 13 25
395 2 2 5 5 26 15 10
396 2 2 5 5 26 10 22
397 2 2 5 5 36 22 25
398 2 2 5 5 36 25 40
399 2 2 5 5 41 26 22
400 2 2 5 5 41 22 36
401 2 2 5 5 53 36 40
402 2 2 5 5 53 40 58
403 2 2 5 5 59 41 36
404 2 2 5 5 59 36 53
405 2 2 5 5 73 53 58
406 2 2 5 5 73 58 79
407 2 2 5 5 80 59 53
408 2 2 5 5 80 53 73
409 2 2 6 6 221 209 206
410 2 2 6 6 221 206 220
411 2 2 6 6 228 209 221
412 2 2 6 6 238 221 220
413 2 2 6 6 228 227 209
414 2 2 6 6 238 220 237
415 2 2 6 6 243 228 221
416 2 2 6 6 243 221 238
417 2 2 6 6 251 238 237
418 2 2 6 6 251 237 250
419 2 2 6 6 255 243 238
420 2 2 6 6 255 238 251
421 2 2 6 6 261 251 250
422 2 2 6 6 261 250 260
423 2 2 6 6 264 255 251
424 2 2 6 6 264 251 261
425 2 2 6 6 268 261 260
426 2 2 6 6 268 260 267
427 2 2 6 6 270 264 261
428 2 2 6 6 270 261 268
429 2 2 6 6 272 268 267
430 2 2 6 6 272 267 271
431 2 2 6 6 273 270 268
432 2 2 6 6 273 268 272
433 4 2 7 7 1 2 3 4
434 4 2 7 7 1 3 5 4
435 4 2 7 7 1 6 2 4
436 4 2 7 7 1 7 4 5
437 4 2 7 7 8 2 1 6
438 4 2 7 7 1 9 6 4
439 4 2 7 7 10 1 5 7
440 4 2 7 7 1 9 4 7
441 4 2 7 7 8 11 2 6
442 4 2 7 7 8 9 6 1
443 4 2 7 7 9 6 4 12
444 4 2 7 7 10 5 13 7
445 4 2 7 7 10 9 1 7
446 4 2 7 7 9 4 7 12
447 4 2 7 7 8 14 11 6
448 4 2 7 7 15 8 1 9
449 4 2 7 7 8 16 6 9
450 4 2 7 7 9 17 6 12
451 4 2 7 7 10 18 7 13
452 4 2 7 7 15 1 10 9
453 4 2 7 7 10 19 9 7
454 4 2 7 7 9 20 12 7
455 4 2 7 7 8 16 14 6
456 4 2 7 7 15 16 8 9
457 4 2 7 7 16 6 9 17
458 4 2 7 7 9 21 17 12
459 4 2 7 7 22 10 13 18
460 4 2 7 7 10 19 7 18
461 4 2 7 7 15 19 9 10
462 4 2 7 7 19 9 7 20
463 4 2 7 7 9 21 12 20
464 4 2 7 7 16 14 6 17
465 4 2 7 7 15 23 16 9
466 4 2 7 7 16 21 17 9
467 4 2 7 7 21 17 12 24
468 4 2 7 7 22 13 25 18
469 4 2 7 7 22 19 10 18
470 4 2 7 7 19 7 18 20
471 4 2 7 7 26 15 10 19
472 4 2 7 7 15 23 9 19
473 4 2 7 7 19 21 9 20
474 4 2 7 7 21 12 20 24
475 4 2 7 7 16 27 14 17
476 4 2 7 7 23 16 9 21
477 4 2 7 7 16 28 17 21
478 4 2 7 7 21 29 17 24
479 4 2 7 7 22 30 18 25
480 4 2 7 7 26 10 22 19
481 4 2 7 7 22 31 19 18
482 4 2 7 7 19 32 20 18
483 4 2 7 7 26 23 15 19
484 4 2 7 7 23 9 19 21
485 4 2 7 7 19 33 21 20
486 4 2 7 7 21 34 24 20
487 4 2 7 7 16 28 27 17
488 4 2 7 7 23 28 16 21
489 4 2 7 7 28 17 21 29
490 4 2 7 7 21 35 29 24
491 4 2 7 7 36 22 25 30
492 4 2 7 7 22 31 18 30
493 4 2 7 7 26 31 19 22
494 4 2 7 7 31 19 18 32
495 4 2 7 7 19 33 20 32
496 4 2 7 7 26 37 23 19
497 4 2 7 7 23 33 21 19
498 4 2 7 7 33 21 20 34
499 4 2 7 7 21 35 24 34
500 4 2 7 7 28 27 17 29
501 4 2 7 7 23 38 28 21
502 4 2 7 7 28 35 29 21
503 4 2 7 7 35 29 24 39
504 4 2 7 7 36 25 40 30
505 4 2 7 7 36 31 22 30
506 4 2 7 7 31 18 30 32
507 4 2 7 7 41 26 22 31
508 4 2 7 7 26 37 19 31
509 4 2 7 7 31 33 19 32
510 4 2 7 7 33 20 32 34
511 4 2 7 7 37 23 19 33
512 4 2 7 7 23 38 21 33
513 4 2 7 7 33 35 21 34
514 4 2 7 7 35 24 34 39
515 4 2 7 7 28 42 27 29
516 4 2 7 7 38 28 21 35
517 4 2 7 7 28 43 29 35
518 4 2 7 7 35 44 29 39
519 4 2 7 7 36 45 30 40
520 4 2 7 7 41 22 36 31
521 4 2 7 7 36 46 31 30
522 4 2 7 7 31 47 32 30
523 4 2 7 7 41 37 26 31
524 4 2 7 7 37 19 31 33
525 4 2 7 7 31 48 33 32
526 4 2 7 7 33 49 34 32
527 4 2 7 7 37 38 23 33
528 4 2 7 7 38 21 33 35
529 4 2 7 7 33 50 35 34
530 4 2 7 7 35 51 39 34
531 4 2 7 7 28 43 42 29
532 4 2 7 7 38 43 28 35
533 4 2 7 7 43 29 35 44
534 4 2 7 7 35 52 44 39
535 4 2 7 7 53 36 40 45
536 4 2 7 7 36 46 30 45
537 4 2 7 7 41 46 31 36
538 4 2 7 7 46 31 30 47
539 4 2 7 7 31 48 32 47
540 4 2 7 7 41 54 37 31
541 4 2 7 7 37 48 33 31
542 4 2 7 7 48 33 32 49
543 4 2 7 7 33 50 34 49
544 4 2 7 7 37 55 38 33
545 4 2 7 7 38 50 35 33
546 4 2 7 7 50 35 34 51
547 4 2 7 7 35 52 39 51
548 4 2 7 7 43 42 29 44
549 4 2 7 7 38 56 43 35
550 4 2 7 7 43 52 44 35
551 4 2 7 7 52 44 39 57
552 4 2 7 7 53 40 58 45
553 4 2 7 7 53 46 36 45
554 4 2 7 7 46 30 45 47
555 4 2 7 7 59 41 36 46
556 4 2 7 7 41 54 31 46
557 4 2 7 7 46 48 31 47
558 4 2 7 7 48 32 47 49
559 4 2 7 7 54 37 31 48
560 4 2 7 7 37 55 33 48
561 4 2 7 7 48 50 33 49
562 4 2 7 7 50 34 49 51
563 4 2 7 7 55 38 33 50
564 4 2 7 7 38 56 35 50
565 4 2 7 7 50 52 35 51
566 4 2 7 7 52 39 51 57
567 4 2 7 7 43 60 42 44
568 4 2 7 7 56 43 35 52
569 4 2 7 7 43 61 44 52
570 4 2 7 7 52 62 44 57
571 4 2 7 7 53 63 45 58
572 4 2 7 7 59 36 53 46
573 4 2 7 7 53 64 46 45
574 4 2 7 7 46 65 47 45
575 4 2 7 7 59 54 41 46
576 4 2 7 7 54 31 46 48
577 4 2 7 7 46 66 48 47
578 4 2 7 7 48 67 49 47
579 4 2 7 7 54 55 37 48
580 4 2 7 7 55 33 48 50
581 4 2 7 7 48 68 50 49
582 4 2 7 7 50 69 51 49
583 4 2 7 7 55 56 38 50
584 4 2 7 7 56 35 50 52
585 4 2 7 7 50 70 52 51
586 4 2 7 7 52 71 57 51
587 4 2 7 7 43 61 60 44
588 4 2 7 7 56 61 43 52
589 4 2 7 7 61 44 52 62
590 4 2 7 7 52 72 62 57
591 4 2 7 7 73 53 58 63
592 4 2 7 7 53 64 45 63
593 4 2 7 7 59 64 46 53
594 4 2 7 7 64 46 45 65
595 4 2 7 7 46 66 47 65
596 4 2 7 7 59 74 54 46
597 4 2 7 7 54 66 48 46
598 4 2 7 7 66 48 47 67
599 4 2 7 7 48 68 49 67
600 4 2 7 7 54 75 55 48
601 4 2 7 7 55 68 50 48
602 4 2 7 7 68 50 49 69
603 4 2 7 7 50 70 51 69
604 4 2 7 7 55 76 56 50
605 4 2 7 7 56 70 52 50
606 4 2 7 7 70 52 51 71
607 4 2 7 7 52 72 57 71
608 4 2 7 7 61 60 44 62
609 4 2 7 7 56 77 61 52
610 4 2 7 7 61 72 62 52
611 4 2 7 7 72 62 57 78
612 4 2 7 7 73 58 79 63
613 4 2 7 7 73 64 53 63
614 4 2 7 7 64 45 63 65
615 4 2 7 7 80 59 53 64
616 4 2 7 7 59 74 46 64
617 4 2 7 7 64 66 46 65
618 4 2 7 7 66 47 65 67
619 4 2 7 7 74 54 46 66
620 4 2 7 7 54 75 48 66
621 4 2 7 7 66 68 48 67
622 4 2 7 7 68 49 67 69
623 4 2 7 7 75 55 48 68
624 4 2 7 7 55 76 50 68
625 4 2 7 7 68 70 50 69
626 4 2 7 7 70 51 69 71
627 4 2 7 7 76 56 50 70
628 4 2 7 7 56 77 52 70
629 4 2 7 7 70 72 52 71
630 4 2 7 7 72 57 71 78
631 4 2 7 7 61 81 60 62
632 4 2 7 7 77 61 52 72
633 4 2 7 7 61 82 62 72
634 4 2 7 7 72 83 62 78
635 4 2 7 7 73 84 63 79
636 4 2 7 7 80 53 73 64
637 4 2 7 7 73 85 64 63
638 4 2 7 7 64 86 65 63
639 4 2 7 7 80 74 59 64
640 4 2 7 7 74 46 64 66
641 4 2 7 7 64 87 66 65
642 4 2 7 7 66 88 67 65
643 4 2 7 7 74 75 54 66
644 4 2 7 7 75 48 66 68
645 4 2 7 7 66 89 68 67
646 4 2 7 7 68 90 69 67
647 4 2 7 7 75 76 55 68
648 4 2 7 7 76 50 68 70
649 4 2 7 7 68 91 70 69
650 4 2 7 7 70 92 71 69
651 4 2 7 7 76 77 56 70
652 4 2 7 7 77 52 70 72
653 4 2 7 7 70 93 72 71
654 4 2 7 7 72 94 78 71
655 4 2 7 7 61 82 81 62
656 4 2 7 7 77 82 61 72
657 4 2 7 7 82 62 72 83
658 4 2 7 7 72 95 83 78
659 4 2 7 7 73 85 63 84
660 4 2 7 7 80 85 64 73
661 4 2 7 7 85 64 63 86
662 4 2 7 7 64 87 65 86
663 4 2 7 7 80 96 74 64
664 4 2 7 7 74 87 66 64
665 4 2 7 7 87 66 65 88
666 4 2 7 7 66 89 67 88
667 4 2 7 7 74 97 75 66
668 4 2 7 7 75 89 68 66
669 4 2 7 7 89 68 67 90
670 4 2 7 7 68 91 69 90
671 4 2 7 7 75 98 76 68
672 4 2 7 7 76 91 70 68
673 4 2 7 7 91 70 69 92
674 4 2 7 7 70 93 71 92
675 4 2 7 7 76 99 77 70
676 4 2 7 7 77 93 72 70
677 4 2 7 7 93 72 71 94
678 4 2 7 7 72 95 78 94
679 4 2 7 7 82 81 62 83
680 4 2 7 7 77 100 82 72
681 4 2 7 7 82 95 83 72
682 4 2 7 7 95 83 78 101
683 4 2 7 7 85 63 84 86
684 4 2 7 7 80 96 64 85
685 4 2 7 7 85 87 64 86
686 4 2 7 7 87 65 86 88
687 4 2 7 7 96 74 64 87
688 4 2 7 7 74 97 66 87
689 4 2 7 7 87 89 66 88
690 4 2 7 7 89 67 88 90
691 4 2 7 7 97 75 66 89
692 4 2 7 7 75 98 68 89
693 4 2 7 7 89 91 68 90
694 4 2 7 7 91 69 90 92
695 4 2 7 7 98 76 68 91
696 4 2 7 7 76 99 70 91
697 4 2 7 7 91 93 70 92
698 4 2 7 7 93 71 92 94
699 4 2 7 7 99 77 70 93
700 4 2 7 7 77 100 72 93
701 4 2 7 7 93 95 72 94
702 4 2 7 7 95 78 94 101
703 4 2 7 7 82 102 81 83
704 4 2 7 7 100 82 72 95
705 4 2 7 7 82 103 83 95
706 4 2 7 7 95 104 83 101
707 4 2 7 7 85 105 86 84
708 4 2 7 7 96 64 85 87
709 4 2 7 7 85 106 87 86
710 4 2 7 7 87 107 88 86
711 4 2 7 7 96 97 74 87
712 4 2 7 7 97 66 87 89
713 4 2 7 7 87 108 89 88
714 4 2 7 7 89 109 90 88
715 4 2 7 7 97 98 75 89
716 4 2 7 7 98 68 89 91
717 4 2 7 7 89 110 91 90
718 4 2 7 7 91 111 92 90
719 4 2 7 7 98 99 76 91
720 4 2 7 7 99 70 91 93
721 4 2 7 7 91 112 93 92
722 4 2 7 7 93 113 94 92
723 4 2 7 7 99 100 77 93
724 4 2 7 7 100 72 93 95
725 4 2 7 7 93 114 95 94
726 4 2 7 7 95 115 101 94
727 4 2 7 7 82 103 102 83
728 4 2 7 7 100 103 82 95
729 4 2 7 7 103 83 95 104
730 4 2 7 7 95 116 104 101
731 4 2 7 7 85 106 86 105
732 4 2 7 7 96 106 87 85
733 4 2 7 7 106 87 86 107
734 4 2 7 7 87 108 88 107
735 4 2 7 7 96 117 97 87
736 4 2 7 7 97 108 89 87
737 4 2 7 7 108 89 88 109
738 4 2 7 7 89 110 90 109
739 4 2 7 7 97 118 98 89
740 4 2 7 7 98 110 91 89
741 4 2 7 7 110 91 90 111
742 4 2 7 7 91 112 92 111
743 4 2 7 7 98 119 99 91
744 4 2 7 7 99 112 93 91
745 4 2 7 7 112 93 92 113
746 4 2 7 7 93 114 94 113
747 4 2 7 7 99 120 100 93
748 4 2 7 7 100 114 95 93
749 4 2 7 7 114 95 94 115
750 4 2 7 7 95 116 101 115
751 4 2 7 7 103 102 83 104
752 4 2 7 7 100 121 103 95
753 4 2 7 7 103 116 104 95
754 4 2 7 7 116 104 101 122
755 4 2 7 7 106 86 105 107
756 4 2 7 7 96 117 87 106
757 4 2 7 7 106 108 87 107
758 4 2 7 7 108 88 107 109
759 4 2 7 7 117 97 87 108
760 4 2 7 7 97 118 89 108
761 4 2 7 7 108 110 89 109
762 4 2 7 7 110 90 109 111
763 4 2 7 7 118 98 89 110
764 4 2 7 7 98 119 91 110
765 4 2 7 7 110 112 91 111
766 4 2 7 7 112 92 111 113
767 4 2 7 7 119 99 91 112
768 4 2 7 7 99 120 93 112
769 4 2 7 7 112 114 93 113
770 4 2 7 7 114 94 113 115
771 4 2 7 7 120 100 93 114
772 4 2 7 7 100 121 95 114
773 4 2 7 7 114 116 95 115
774 4 2 7 7 116 101 115 122
775 4 2 7 7 103 123 102 104
776 4 2 7 7 121 103 95 116
777 4 2 7 7 103 124 104 116
778 4 2 7 7 116 125 104 122
779 4 2 7 7 106 126 107 105
780 4 2 7 7 117 87 106 108
781 4 2 7 7 106 127 108 107
782 4 2 7 7 108 128 109 107
783 4 2 7 7 117 118 97 108
784 4 2 7 7 118 89 108 110
785 4 2 7 7 108 129 110 109
786 4 2 7 7 110 130 111 109
787 4 2 7 7 118 119 98 110
788 4 2 7 7 119 91 110 112
789 4 2 7 7 110 131 112 111
790 4 2 7 7 112 132 113 111
791 4 2 7 7 119 120 99 112
792 4 2 7 7 120 93 112 114
793 4 2 7 7 112 133 114 113
794 4 2 7 7 114 134 115 113
795 4 2 7 7 120 121 100 114
796 4 2 7 7 121 95 114 116
797 4 2 7 7 114 135 116 115
798 4 2 7 7 116 136 122 115
799 4 2 7 7 103 124 123 104
800 4 2 7 7 121 124 103 116
801 4 2 7 7 124 104 116 125
802 4 2 7 7 116 137 125 122
803 4 2 7 7 106 127 107 126
804 4 2 7 7 117 127 108 106
805 4 2 7 7 127 108 107 128
806 4 2 7 7 108 129 109 128
807 4 2 7 7 117 138 118 108
808 4 2 7 7 118 129 110 108
809 4 2 7 7 129 110 109 130
810 4 2 7 7 110 131 111 130
811 4 2 7 7 118 139 119 110
812 4 2 7 7 119 131 112 110
813 4 2 7 7 131 112 111 132
814 4 2 7 7 112 133 113 132
815 4 2 7 7 119 140 120 112
816 4 2 7 7 120 133 114 112
817 4 2 7 7 133 114 113 134
818 4 2 7 7 114 135 115 134
819 4 2 7 7 120 141 121 114
820 4 2 7 7 121 135 116 114
821 4 2 7 7 135 116 115 136
822 4 2 7 7 116 137 122 136
823 4 2 7 7 124 123 104 125
824 4 2 7 7 121 142 124 116
825 4 2 7 7 124 137 125 116
826 4 2 7 7 137 125 122 143
827 4 2 7 7 127 107 126 128
828 4 2 7 7 117 138 108 127
829 4 2 7 7 127 129 108 128
830 4 2 7 7 129 109 128 130
831 4 2 7 7 138 118 108 129
832 4 2 7 7 118 139 110 129
833 4 2 7 7 129 131 110 130
834 4 2 7 7 131 111 130 132
835 4 2 7 7 139 119 110 131
836 4 2 7 7 119 140 112 131
837 4 2 7 7 131 133 112 132
838 4 2 7 7 133 113 132 134
839 4 2 7 7 140 120 112 133
840 4 2 7 7 120 141 114 133
841 4 2 7 7 133 135 114 134
842 4 2 7 7 135 115 134 136
843 4 2 7 7 141 121 114 135
844 4 2 7 7 121 142 116 135
845 4 2 7 7 135 137 116 136
846 4 2 7 7 137 122 136 143
847 4 2 7 7 124 144 123 125
848 4 2 7 7 142 124 116 137
849 4 2 7 7 124 145 125 137
850 4 2 7 7 137 146 125 143
851 4 2 7 7 127 147 128 126
852 4 2 7 7 138 108 127 129
853 4 2 7 7 127 148 129 128
854 4 2 7 7 129 149 130 128
855 4 2 7 7 138 139 118 129
856 4 2 7 7 139 110 129 131
857 4 2 7 7 129 150 131 130
858 4 2 7 7 131 151 132 130
859 4 2 7 7 139 140 119 131
860 4 2 7 7 140 112 131 133
861 4 2 7 7 131 152 133 132
862 4 2 7 7 133 153 134 132
863 4 2 7 7 140 141 120 133
864 4 2 7 7 141 114 133 135
865 4 2 7 7 133 154 135 134
866 4 2 7 7 135 155 136 134
867 4 2 7 7 141 142 121 135
868 4 2 7 7 142 116 135 137
869 4 2 7 7 135 156 137 136
870 4 2 7 7 137 157 143 136
871 4 2 7 7 124 145 144 125
872 4 2 7 7 142 145 124 137
873 4 2 7 7 145 125 137 146
874 4 2 7 7 137 158 146 143
875 4 2 7 7 127 148 128 147
876 4 2 7 7 138 148 129 127
877 4 2 7 7 148 129 128 149
878 4 2 7 7 129 150 130 149
879 4 2 7 7 138 159 139 129
880 4 2 7 7 139 150 131 129
881 4 2 7 7 150 131 130 151
882 4 2 7 7 131 152 132 151
883 4 2 7 7 139 160 140 131
884 4 2 7 7 140 152 133 131
885 4 2 7 7 152 133 132 153
886 4 2 7 7 133 154 134 153
887 4 2 7 7 140 161 141 133
888 4 2 7 7 141 154 135 133
889 4 2 7 7 154 135 134 155
890 4 2 7 7 135 156 136 155
891 4 2 7 7 141 162 142 135
892 4 2 7 7 142 156 137 135
893 4 2 7 7 156 137 136 157
894 4 2 7 7 137 158 143 157
895 4 2 7 7 145 144 125 146
896 4 2 7 7 142 163 145 137
897 4 2 7 7 145 158 146 137
898 4 2 7 7 158 146 143 164
899 4 2 7 7 148 128 147 149
900 4 2 7 7 138 159 129 148
901 4 2 7 7 148 150 129 149
902 4 2 7 7 150 130 149 151
903 4 2 7 7 159 139 129 150
904 4 2 7 7 139 160 131 150
905 4 2 7 7 150 152 131 151
906 4 2 7 7 152 132 151 153
907 4 2 7 7 160 140 131 152
908 4 2 7 7 140 161 133 152
909 4 2 7 7 152 154 133 153
910 4 2 7 7 154 134 153 155
911 4 2 7 7 161 141 133 154
912 4 2 7 7 141 162 135 154
913 4 2 7 7 154 156 135 155
914 4 2 7 7 156 136 155 157
915 4 2 7 7 162 142 135 156
916 4 2 7 7 142 163 137 156
917 4 2 7 7 156 158 137 157
918 4 2 7 7 158 143 157 164
919 4 2 7 7 145 165 144 146
920 4 2 7 7 163 145 137 158
921 4 2 7 7 145 166 146 158
922 4 2 7 7 158 167 146 164
923 4 2 7 7 148 168 149 147
924 4 2 7 7 159 129 148 150
925 4 2 7 7 148 169 150 149
926 4 2 7 7 150 170 151 149
927 4 2 7 7 159 160 139 150
928 4 2 7 7 160 131 150 152
929 4 2 7 7 150 171 152 151
930 4 2 7 7 152 172 153 151
931 4 2 7 7 160 161 140 152
932 4 2 7 7 161 133 152 154
933 4 2 7 7 152 173 154 153
934 4 2 7 7 154 174 155 153
935 4 2 7 7 161 162 141 154
936 4 2 7 7 162 135 154 156
937 4 2 7 7 154 175 156 155
938 4 2 7 7 156 176 157 155
939 4 2 7 7 162 163 142 156
940 4 2 7 7 163 137 156 158
941 4 2 7 7 156 177 158 157
942 4 2 7 7 158 178 164 157
943 4 2 7 7 145 166 165 146
944 4 2 7 7 163 166 145 158
945 4 2 7 7 166 146 158 167
946 4 2 7 7 158 179 167 164
947 4 2 7 7 148 169 149 168
948 4 2 7 7 159 169 150 148
949 4 2 7 7 169 150 149 170
950 4 2 7 7 150 171 151 170
951 4 2 7 7 159 180 160 150
952 4 2 7 7 160 171 152 150
953 4 2 7 7 171 152 151 172
954 4 2 7 7 152 173 153 172
955 4 2 7 7 160 181 161 152
956 4 2 7 7 161 173 154 152
957 4 2 7 7 173 154 153 174
958 4 2 7 7 154 175 155 174
959 4 2 7 7 161 182 162 154
960 4 2 7 7 162 175 156 154
961 4 2 7 7 175 156 155 176
962 4 2 7 7 156 177 157 176
963 4 2 7 7 162 183 163 156
964 4 2 7 7 163 177 158 156
965 4 2 7 7 177 158 157 178
966 4 2 7 7 158 179 164 178
967 4 2 7 7 166 165 146 167
968 4 2 7 7 163 184 166 158
969 4 2 7 7 166 179 167 158
970 4 2 7 7 179 167 164 185
971 4 2 7 7 169 149 168 170
972 4 2 7 7 159 180 150 169
973 4 2 7 7 169 171 150 170
974 4 2 7 7 171 151 170 172
975 4 2 7 7 180 160 150 171
976 4 2 7 7 160 181 152 171
977 4 2 7 7 171 173 152 172
978 4 2 7 7 173 153 172 174
979 4 2 7 7 181 161 152 173
980 4 2 7 7 161 182 154 173
981 4 2 7 7 173 175 154 174
982 4 2 7 7 175 155 174 176
983 4 2 7 7 182 162 154 175
984 4 2 7 7 162 183 156 175
985 4 2 7 7 175 177 156 176
986 4 2 7 7 177 157 176 178
987 4 2 7 7 183 163 156 177
988 4 2 7 7 163 184 158 177
989 4 2 7 7 177 179 158 178
990 4 2 7 7 179 164 178 185
991 4 2 7 7 166 186 165 167
992 4 2 7 7 184 166 158 179
993 4 2 7 7 166 187 167 179
994 4 2 7 7 179 188 167 185
995 4 2 7 7 169 189 170 168
996 4 2 7 7 180 150 169 171
997 4 2 7 7 169 190 171 170
998 4 2 7 7 171 191 172 170
999 4 2 7 7 180 181 160 171
1000 4 2 7 7 181 152 171 173
1001 4 2 7 7 171 192 173 172
1002 4 2 7 7 173 193 174 172
1003 4 2 7 7 181 182 161 173
1004 4 2 7 7 182 154 173 175
1005 4 2 7 7 173 194 175 174
1006 4 2 7 7 175 195 176 174
1007 4 2 7 7 182 183 162 175
1008 4 2 7 7 183 156 175 177
1009 4 2 7 7 175 196 177 176
1010 4 2 7 7 177 197 178 176
1011 4 2 7 7 183 184 163 177
1012 4 2 7 7 184 158 177 179
1013 4 2 7 7 177 198 179 178
1014 4 2 7 7 179 199 185 178
1015 4 2 7 7 166 187 186 167
1016 4 2 7 7 184 187 166 179
1017 4 2 7 7 187 167 179 188
1018 4 2 7 7 179 200 188 185
1019 4 2 7 7 169 190 170 189
1020 4 2 7 7 180 190 171 169
1021 4 2 7 7 190 171 170 191
1022 4 2 7 7 171 192 172 191
1023 4 2 7 7 180 201 181 171
1024 4 2 7 7 181 192 173 171
1025 4 2 7 7 192 173 172 193
1026 4 2 7 7 173 194 174 193
1027 4 2 7 7 181 202 182 173
1028 4 2 7 7 182 194 175 173
1029 4 2 7 7 194 175 174 195
1030 4 2 7 7 175 196 176 195
1031 4 2 7 7 182 203 183 175
1032 4 2 7 7 183 196 177 175
1033 4 2 7 7 196 177 176 197
1034 4 2 7 7 177 198 178 197
1035 4 2 7 7 183 204 184 177
1036 4 2 7 7 184 198 179 177
1037 4 2 7 7 198 179 178 199
1038 4 2 7 7 179 200 185 199
1039 4 2 7 7 187 186 167 188
1040 4 2 7 7 184 205 187 179
1041 4 2 7 7 187 200 188 179
1042 4 2 7 7 200 188 185 206
1043 4 2 7 7 190 170 189 191
1044 4 2 7 7 180 201 171 190
1045 4 2 7 7 190 192 171 191
1046 4 2 7 7 192 172 191 193
1047 4 2 7 7 201 181 171 192
1048 4 2 7 7 181 202 173 192
1049 4 2 7 7 192 194 173 193
1050 4 2 7 7 194 174 193 195
1051 4 2 7 7 202 182 173 194
1052 4 2 7 7 182 203 175 194
1053 4 2 7 7 194 196 175 195
1054 4 2 7 7 196 176 195 197
1055 4 2 7 7 203 183 175 196
1056 4 2 7 7 183 204 177 196
1057 4 2 7 7 196 198 177 197
1058 4 2 7 7 198 178 197 199
1059 4 2 7 7 204 184 177 198
1060 4 2 7 7 184 205 179 198
1061 4 2 7 7 198 200 179 199
1062 4 2 7 7 200 185 199 206
1063 4 2 7 7 187 207 186 188
1064 4 2 7 7 205 187 179 200
1065 4 2 7 7 187 208 188 200
1066 4 2 7 7 200 209 188 206
1067 4 2 7 7 190 210 191 189
1068 4 2 7 7 201 171 190 192
1069 4 2 7 7 190 211 192 191
1070 4 2 7 7 192 212 193 191
1071 4 2 7 7 201 202 181 192
1072 4 2 7 7 202 173 192 194
1073 4 2 7 7 192 213 194 193
1074 4 2 7 7 194 214 195 193
1075 4 2 7 7 202 203 182 194
1076 4 2 7 7 203 175 194 196
1077 4 2 7 7 194 215 196 195
1078 4 2 7 7 196 216 197 195
1079 4 2 7 7 203 204 183 196
1080 4 2 7 7 204 177 196 198
1081 4 2 7 7 196 217 198 197
1082 4 2 7 7 198 218 199 197
1083 4 2 7 7 204 205 184 198
1084 4 2 7 7 205 179 198 200
1085 4 2 7 7 198 219 200 199
1086 4 2 7 7 200 220 206 199
1087 4 2 7 7 187 208 207 188
1088 4 2 7 7 205 208 187 200
1089 4 2 7 7 208 188 200 209
1090 4 2 7 7 200 221 209 206
1091 4 2 7 7 190 211 191 210
1092 4 2 7 7 201 211 192 190
1093 4 2 7 7 211 192 191 212
1094 4 2 7 7 192 213 193 212
1095 4 2 7 7 201 222 202 192
1096 4 2 7 7 202 213 194 192
1097 4 2 7 7 213 194 193 214
1098 4 2 7 7 194 215 195 214
1099 4 2 7 7 202 223 203 194
1100 4 2 7 7 203 215 196 194
1101 4 2 7 7 215 196 195 216
1102 4 2 7 7 196 217 197 216
1103 4 2 7 7 203 224 204 196
1104 4 2 7 7 204 217 198 196
1105 4 2 7 7 217 198 197 218
1106 4 2 7 7 198 219 199 218
1107 4 2 7 7 204 225 205 198
1108 4 2 7 7 205 219 200 198
1109 4 2 7 7 219 200 199 220
1110 4 2 7 7 200 221 206 220
1111 4 2 7 7 208 207 188 209
1112 4 2 7 7 205 226 208 200
1113 4 2 7 7 208 221 209 200
1114 4 2 7 7 211 191 210 212
1115 4 2 7 7 201 222 192 211
1116 4 2 7 7 211 213 192 212
1117 4 2 7 7 213 193 212 214
1118 4 2 7 7 222 202 192 213
1119 4 2 7 7 202 223 194 213
1120 4 2 7 7 213 215 194 214
1121 4 2 7 7 215 195 214 216
1122 4 2 7 7 223 203 194 215
1123 4 2 7 7 203 224 196 215
1124 4 2 7 7 215 217 196 216
1125 4 2 7 7 217 197 216 218
1126 4 2 7 7 224 204 196 217
1127 4 2 7 7 204 225 198 217
1128 4 2 7 7 217 219 198 218
1129 4 2 7 7 219 199 218 220
1130 4 2 7 7 225 205 198 219
1131 4 2 7 7 205 226 200 219
1132 4 2 7 7 219 221 200 220
1133 4 2 7 7 208 227 207 209
1134 4 2 7 7 226 208 200 221
1135 4 2 7 7 208 228 209 221
1136 4 2 7 7 211 229 212 210
1137 4 2 7 7 222 192 211 213
1138 4 2 7 7 211 230 213 212
1139 4 2 7 7 213 231 214 212
1140 4 2 7 7 222 223 202 213
1141 4 2 7 7 223 194 213 215
1142 4 2 7 7 213 232 215 214
1143 4 2 7 7 215 233 216 214
1144 4 2 7 7 223 224 203 215
1145 4 2 7 7 224 196 215 217
1146 4 2 7 7 215 234 217 216
1147 4 2 7 7 217 235 218 216
1148 4 2 7 7 224 225 204 217
1149 4 2 7 7 225 198 217 219
1150 4 2 7 7 217 236 219 218
1151 4 2 7 7 219 237 220 218
1152 4 2 7 7 225 226 205 219
1153 4 2 7 7 226 200 219 221
1154 4 2 7 7 219 238 221 220
1155 4 2 7 7 208 228 227 209
1156 4 2 7 7 226 228 208 221
1157 4 2 7 7 211 230 212 229
1158 4 2 7 7 222 230 213 211
1159 4 2 7 7 230 213 212 231
1160 4 2 7 7 213 232 214 231
1161 4 2 7 7 222 239 223 213
1162 4 2 7 7 223 232 215 213
1163 4 2 7 7 232 215 214 233
1164 4 2 7 7 215 234 216 233
1165 4 2 7 7 223 240 224 215
1166 4 2 7 7 224 234 217 215
1167 4 2 7 7 234 217 216 235
1168 4 2 7 7 217 236 218 235
1169 4 2 7 7 224 241 225 217
1170 4 2 7 7 225 236 219 217
1171 4 2 7 7 236 219 218 237
1172 4 2 7 7 219 238 220 237
1173 4 2 7 7 225 242 226 219
1174 4 2 7 7 226 238 221 219
1175 4 2 7 7 226 243 228 221
1176 4 2 7 7 230 212 229 231
1177 4 2 7 7 222 239 213 230
1178 4 2 7 7 230 232 213 231
1179 4 2 7 7 232 214 231 233
1180 4 2 7 7 239 223 213 232
1181 4 2 7 7 223 240 215 232
1182 4 2 7 7 232 234 215 233
1183 4 2 7 7 234 216 233 235
1184 4 2 7 7 240 224 215 234
1185 4 2 7 7 224 241 217 234
1186 4 2 7 7 234 236 217 235
1187 4 2 7 7 236 218 235 237
1188 4 2 7 7 241 225 217 236
1189 4 2 7 7 225 242 219 236
1190 4 2 7 7 236 238 219 237
1191 4 2 7 7 242 226 219 238
1192 4 2 7 7 226 243 221 238
1193 4 2 7 7 230 244 231 229
1194 4 2 7 7 239 213 230 232
1195 4 2 7 7 230 245 232 231
1196 4 2 7 7 232 246 233 231
1197 4 2 7 7 239 240 223 232
1198 4 2 7 7 240 215 232 234
1199 4 2 7 7 232 247 234 233
1200 4 2 7 7 234 248 235 233
1201 4 2 7 7 240 241 224 234
1202 4 2 7 7 241 217 234 236
1203 4 2 7 7 234 249 236 235
1204 4 2 7 7 236 250 237 235
1205 4 2 7 7 241 242 225 236
1206 4 2 7 7 242 219 236 238
1207 4 2 7 7 236 251 238 237
1208 4 2 7 7 242 243 226 238
1209 4 2 7 7 230 245 231 244
1210 4 2 7 7 239 245 232 230
1211 4 2 7 7 245 232 231 246
1212 4 2 7 7 232 247 233 246
1213 4 2 7 7 239 252 240 232
1214 4 2 7 7 240 247 234 232
1215 4 2 7 7 247 234 233 248
1216 4 2 7 7 234 249 235 248
1217 4 2 7 7 240 253 241 234
1218 4 2 7 7 241 249 236 234
1219 4 2 7 7 249 236 235 250
1220 4 2 7 7 236 251 237 250
1221 4 2 7 7 241 254 242 236
1222 4 2 7 7 242 251 238 236
1223 4 2 7 7 242 255 243 238
1224 4 2 7 7 245 231 244 246
1225 4 2 7 7 239 252 232 245
1226 4 2 7 7 245 247 232 246
1227 4 2 7 7 247 233 246 248
1228 4 2 7 7 252 240 232 247
1229 4 2 7 7 240 253 234 247
1230 4 2 7 7 247 249 234 248
1231 4 2 7 7 249 235 248 250
1232 4 2 7 7 253 241 234 249
1233 4 2 7 7 241 254 236 249
1234 4 2 7 7 249 251 236 250
1235 4 2 7 7 254 242 236 251
1236 4 2 7 7 242 255 238 251
1237 4 2 7 7 245 256 246 244
1238 4 2 7 7 252 232 245 247
1239 4 2 7 7 245 257 247 246
1240 4 2 7 7 247 258 248 246
1241 4 2 7 7 252 253 240 247
1242 4 2 7 7 253 234 247 249
1243 4 2 7 7 247 259 249 248
1244 4 2 7 7 249 260 250 248
1245 4 2 7 7 253 254 241 249
1246 4 2 7 7 254 236 249 251
1247 4 2 7 7 249 261 251 250
1248 4 2 7 7 254 255 242 251
1249 4 2 7 7 245 257 246 256
1250 4 2 7 7 252 257 247 245
1251 4 2 7 7 257 247 246 258
1252 4 2 7 7 247 259 248 258
1253 4 2 7 7 252 262 253 247
1254 4 2 7 7 253 259 249 247
1255 4 2 7 7 259 249 248 260
1256 4 2 7 7 249 261 250 260
1257 4 2 7 7 253 263 254 249
1258 4 2 7 7 254 261 251 249
1259 4 2 7 7 254 264 255 251
1260 4 2 7 7 257 246 256 258
1261 4 2 7 7 252 262 247 257
1262 4 2 7 7 257 259 247 258
1263 4 2 7 7 259 248 258 260
1264 4 2 7 7 262 253 247 259
1265 4 2 7 7 253 263 249 259
1266 4 2 7 7 259 261 249 260
1267 4 2 7 7 263 254 249 261
1268 4 2 7 7 254 264 251 261
1269 4 2 7 7 257 265 258 256
1270 4 2 7 7 262 247 257 259
1271 4 2 7 7 257 266 259 258
1272 4 2 7 7 259 267 260 258
1273 4 2 7 7 262 263 253 259
1274 4 2 7 7 263 249 259 261
1275 4 2 7 7 259 268 261 260
1276 4 2 7 7 263 264 254 261
1277 4 2 7 7 257 266 258 265
1278 4 2 7 7 262 266 259 257
1279 4 2 7 7 266 259 258 267
1280 4 2 7 7 259 268 260 267
1281 4 2 7 7 262 269 263 259
1282 4 2 7 7 263 268 261 259
1283 4 2 7 7 263 270 264 261
1284 4 2 7 7 266 258 265 267
1285 4 2 7 7 262 269 259 266
1286 4 2 7 7 266 268 259 267
1287 4 2 7 7 269 263 259 268
1288 4 2 7 7 263 270 261 268
1289 4 2 7 7 266 271 267 265
1290 4 2 7 7 269 259 266 268
1291 4 2 7 7 266 272 268 267
1292 4 2 7 7 269 270 263 268
1293 4 2 7 7 266 272 267 271
1294 4 2 7 7 269 272 268 266
1295 4 2 7 7 269 273 270 268
1296 4 2 7 7 269 273 268 272
$EndElements
