$MeshFormat
2.2 0 8
$EndMeshFormat
$PhysicalNames
6
1 1 "bottom"
1 2 "right"
1 3 "top"
1 4 "left"
2 1 "bottom_layer"
2 2 "top_layer"
$EndPhysicalNames
$Nodes
1005
1 0 0 0
2 100 0 0
3 100 0.5 0
4 100 1 0
5 0 0.5 0
6 0 1 0
7 0.4999999999980153 0 0
8 0.9999999999960427 0 0
9 1.499999999994086 0 0
10 1.999999999992153 0 0
11 2.499999999990207 0 0
12 2.999999999988222 0 0
13 3.499999999986154 0 0
14 3.999999999984047 0 0
15 4.499999999981895 0 0
16 4.999999999979745 0 0
17 5.4999999999776 0 0
18 5.999999999975561 0 0
19 6.499999999973631 0 0
20 6.999999999971815 0 0
21 7.4999999999701 0 0
22 7.999999999968392 0 0
23 8.499999999966684 0 0
24 8.999999999964976 0 0
25 9.499999999963268 0 0
26 9.99999999996156 0 0
27 10.49999999995985 0 0
28 10.99999999995815 0 0
29 11.49999999995644 0 0
30 11.99999999995461 0 0
31 12.49999999995268 0 0
32 12.9999999999503 0 0
33 13.49999999994783 0 0
34 13.99999999994524 0 0
35 14.49999999994264 0 0
36 14.99999999994004 0 0
37 15.49999999993745 0 0
38 15.99999999993485 0 0
39 16.49999999993226 0 0
40 16.99999999992966 0 0
41 17.49999999992707 0 0
42 17.99999999992447 0 0
43 18.49999999992187 0 0
44 18.99999999991928 0 0
45 19.49999999991668 0 0
46 19.99999999991408 0 0
47 20.49999999991149 0 0
48 20.99999999990889 0 0
49 21.4999999999063 0 0
50 21.9999999999037 0 0
51 22.4999999999011 0 0
52 22.99999999989851 0 0
53 23.49999999989591 0 0
54 23.99999999989332 0 0
55 24.49999999989072 0 0
56 24.99999999988813 0 0
57 25.49999999988553 0 0
58 25.99999999988294 0 0
59 26.49999999988034 0 0
60 26.99999999987775 0 0
61 27.49999999987516 0 0
62 27.99999999987256 0 0
63 28.49999999986997 0 0
64 28.99999999986737 0 0
65 29.49999999986478 0 0
66 29.99999999986219 0 0
67 30.4999999998596 0 0
68 30.999999999857 0 0
69 31.49999999985484 0 0
70 31.99999999985314 0 0
71 32.49999999985227 0 0
72 32.99999999985145 0 0
73 33.49999999985063 0 0
74 33.99999999984981 0 0
75 34.499999999849 0 0
76 34.99999999984818 0 0
77 35.49999999984736 0 0
78 35.99999999984654 0 0
79 36.49999999984572 0 0
80 36.99999999984491 0 0
81 37.49999999984409 0 0
82 37.99999999984328 0 0
83 38.49999999984246 0 0
84 38.99999999984163 0 0
85 39.49999999984082 0 0
86 39.99999999984 0 0
87 40.49999999983919 0 0
88 40.99999999983837 0 0
89 41.49999999983754 0 0
90 41.99999999983673 0 0
91 42.49999999983591 0 0
92 42.9999999998351 0 0
93 43.49999999983428 0 0
94 43.99999999983346 0 0
95 44.49999999983264 0 0
96 44.99999999983182 0 0
97 45.49999999983101 0 0
98 45.99999999983019 0 0
99 46.49999999982937 0 0
100 46.99999999982855 0 0
101 47.49999999982774 0 0
102 47.99999999982692 0 0
103 48.4999999998261 0 0
104 48.99999999982528 0 0
105 49.49999999982446 0 0
106 49.99999999982364 0 0
107 50.49999999982283 0 0
108 50.99999999982201 0 0
109 51.49999999982119 0 0
110 51.99999999982038 0 0
111 52.49999999981956 0 0
112 52.99999999981873 0 0
113 53.49999999981792 0 0
114 53.99999999981711 0 0
115 54.4999999998163 0 0
116 54.99999999981547 0 0
117 55.49999999981465 0 0
118 55.99999999981384 0 0
119 56.49999999981301 0 0
120 56.9999999998122 0 0
121 57.49999999981138 0 0
122 57.99999999981056 0 0
123 58.49999999980975 0 0
124 58.99999999980893 0 0
125 59.49999999980812 0 0
126 59.99999999980729 0 0
127 60.49999999980648 0 0
128 60.99999999980567 0 0
129 61.49999999980484 0 0
130 61.99999999980403 0 0
131 62.4999999998032 0 0
132 62.99999999980238 0 0
133 63.49999999980235 0 0
134 63.9999999998033 0 0
135 64.49999999980582 0 0
136 64.99999999980855 0 0
137 65.49999999981128 0 0
138 65.99999999981404 0 0
139 66.49999999981677 0 0
140 66.99999999981949 0 0
141 67.49999999982222 0 0
142 67.99999999982495 0 0
143 68.49999999982769 0 0
144 68.99999999983044 0 0
145 69.49999999983318 0 0
146 69.99999999983591 0 0
147 70.49999999983864 0 0
148 70.99999999984138 0 0
149 71.49999999984411 0 0
150 71.99999999984684 0 0
151 72.49999999984958 0 0
152 72.99999999985231 0 0
153 73.49999999985505 0 0
154 73.99999999985778 0 0
155 74.49999999986052 0 0
156 74.99999999986325 0 0
157 75.49999999986599 0 0
158 75.99999999986873 0 0
159 76.49999999987146 0 0
160 76.99999999987421 0 0
161 77.49999999987692 0 0
162 77.99999999987965 0 0
163 78.49999999988239 0 0
164 78.99999999988513 0 0
165 79.49999999988788 0 0
166 79.9999999998906 0 0
167 80.49999999989333 0 0
168 80.99999999989608 0 0
169 81.4999999998988 0 0
170 81.99999999990155 0 0
171 82.49999999990429 0 0
172 82.999999999907 0 0
173 83.49999999990975 0 0
174 83.99999999991248 0 0
175 84.49999999991522 0 0
176 84.99999999991795 0 0
177 85.49999999992069 0 0
178 85.99999999992343 0 0
179 86.49999999992616 0 0
180 86.9999999999289 0 0
181 87.49999999993163 0 0
182 87.99999999993436 0 0
183 88.4999999999371 0 0
184 88.99999999993983 0 0
185 89.49999999994257 0 0
186 89.9999999999453 0 0
187 90.49999999994803 0 0
188 90.99999999995077 0 0
189 91.4999999999535 0 0
190 91.99999999995624 0 0
191 92.49999999995899 0 0
192 92.99999999996172 0 0
193 93.49999999996444 0 0
194 93.99999999996717 0 0
195 94.49999999996992 0 0
196 94.99999999997264 0 0
197 95.49999999997539 0 0
198 95.99999999997813 0 0
199 96.49999999998086 0 0
200 96.9999999999836 0 0
201 97.49999999998633 0 0
202 97.99999999998906 0 0
203 98.4999999999918 0 0
204 98.99999999999453 0 0
205 99.49999999999727 0 0
206 100 0.2499999999993461 0
207 99.50000000000355 0.5 0
208 99.00000000000711 0.5 0
209 98.50000000001066 0.5 0
210 98.00000000001421 0.5 0
211 97.50000000001776 0.5 0
212 97.00000000002132 0.5 0
213 96.50000000002487 0.5 0
214 96.00000000002842 0.5 0
215 95.50000000003197 0.5 0
216 95.00000000003553 0.5 0
217 94.50000000003908 0.5 0
218 94.00000000004263 0.5 0
219 93.50000000004619 0.5 0
220 93.00000000004974 0.5 0
221 92.50000000005329 0.5 0
222 92.00000000005684 0.5 0
223 91.5000000000604 0.5 0
224 91.00000000006395 0.5 0
225 90.5000000000675 0.5 0
226 90.00000000007105 0.5 0
227 89.50000000007461 0.5 0
228 89.00000000007816 0.5 0
229 88.50000000008171 0.5 0
230 88.00000000008527 0.5 0
231 87.50000000008882 0.5 0
232 87.00000000009237 0.5 0
233 86.50000000009592 0.5 0
234 86.00000000009948 0.5 0
235 85.50000000010303 0.5 0
236 85.00000000010658 0.5 0
237 84.50000000011013 0.5 0
238 84.00000000011369 0.5 0
239 83.50000000011724 0.5 0
240 83.00000000012079 0.5 0
241 82.50000000012434 0.5 0
242 82.0000000001279 0.5 0
243 81.50000000013145 0.5 0
244 81.000000000135 0.5 0
245 80.50000000013856 0.5 0
246 80.00000000014211 0.5 0
247 79.50000000014566 0.5 0
248 79.00000000014921 0.5 0
249 78.50000000015277 0.5 0
250 78.00000000015632 0.5 0
251 77.50000000015987 0.5 0
252 77.00000000016342 0.5 0
253 76.50000000016698 0.5 0
254 76.00000000017053 0.5 0
255 75.50000000017408 0.5 0
256 75.00000000017764 0.5 0
257 74.50000000018119 0.5 0
258 74.00000000018474 0.5 0
259 73.50000000018829 0.5 0
260 73.00000000019185 0.5 0
261 72.5000000001954 0.5 0
262 72.00000000019895 0.5 0
263 71.5000000002025 0.5 0
264 71.00000000020606 0.5 0
265 70.50000000020961 0.5 0
266 70.00000000021316 0.5 0
267 69.50000000021672 0.5 0
268 69.00000000022027 0.5 0
269 68.50000000022382 0.5 0
270 68.00000000022737 0.5 0
271 67.50000000023093 0.5 0
272 67.00000000023448 0.5 0
273 66.50000000023803 0.5 0
274 66.00000000024158 0.5 0
275 65.50000000024514 0.5 0
276 65.00000000024869 0.5 0
277 64.50000000025224 0.5 0
278 64.00000000025557 0.5 0
279 63.50000000025735 0.5 0
280 63.00000000025813 0.5 0
281 62.50000000025813 0.5 0
282 62.00000000025813 0.5 0
283 61.50000000025813 0.5 0
284 61.00000000025813 0.5 0
285 60.50000000025813 0.5 0
286 60.00000000025813 0.5 0
287 59.50000000025813 0.5 0
288 59.00000000025813 0.5 0
289 58.50000000025813 0.5 0
290 58.00000000025813 0.5 0
291 57.50000000025813 0.5 0
292 57.00000000025812 0.5 0
293 56.50000000025812 0.5 0
294 56.00000000025813 0.5 0
295 55.50000000025813 0.5 0
296 55.00000000025813 0.5 0
297 54.50000000025813 0.5 0
298 54.00000000025813 0.5 0
299 53.50000000025813 0.5 0
300 53.00000000025813 0.5 0
301 52.50000000025813 0.5 0
302 52.00000000025813 0.5 0
303 51.50000000025813 0.5 0
304 51.00000000025812 0.5 0
305 50.50000000025812 0.5 0
306 50.00000000025813 0.5 0
307 49.50000000025813 0.5 0
308 49.00000000025813 0.5 0
309 48.50000000025813 0.5 0
310 48.00000000025813 0.5 0
311 47.50000000025813 0.5 0
312 47.00000000025813 0.5 0
313 46.50000000025813 0.5 0
314 46.00000000025813 0.5 0
315 45.50000000025813 0.5 0
316 45.00000000025813 0.5 0
317 44.50000000025812 0.5 0
318 44.00000000025813 0.5 0
319 43.50000000025813 0.5 0
320 43.00000000025813 0.5 0
321 42.50000000025813 0.5 0
322 42.00000000025813 0.5 0
323 41.50000000025813 0.5 0
324 41.00000000025813 0.5 0
325 40.50000000025813 0.5 0
326 40.00000000025813 0.5 0
327 39.50000000025813 0.5 0
328 39.00000000025813 0.5 0
329 38.50000000025813 0.5 0
330 38.00000000025813 0.5 0
331 37.50000000025813 0.5 0
332 37.00000000025813 0.5 0
333 36.50000000025735 0.5 0
334 36.00000000025558 0.5 0
335 35.50000000025224 0.5 0
336 35.00000000024869 0.5 0
337 34.50000000024514 0.5 0
338 34.00000000024158 0.5 0
339 33.50000000023803 0.5 0
340 33.00000000023448 0.5 0
341 32.50000000023093 0.5 0
342 32.00000000022737 0.5 0
343 31.50000000022382 0.5 0
344 31.00000000022027 0.5 0
345 30.50000000021672 0.5 0
346 30.00000000021316 0.5 0
347 29.50000000020961 0.5 0
348 29.00000000020604 0.5 0
349 28.50000000020249 0.5 0
350 28.00000000019894 0.5 0
351 27.5000000001954 0.5 0
352 27.00000000019185 0.5 0
353 26.50000000018829 0.5 0
354 26.00000000018474 0.5 0
355 25.50000000018119 0.5 0
356 25.00000000017764 0.5 0
357 24.50000000017408 0.5 0
358 24.00000000017053 0.5 0
359 23.50000000016698 0.5 0
360 23.00000000016342 0.5 0
361 22.50000000015987 0.5 0
362 22.00000000015632 0.5 0
363 21.50000000015277 0.5 0
364 21.00000000014921 0.5 0
365 20.50000000014566 0.5 0
366 20.00000000014211 0.5 0
367 19.50000000013856 0.5 0
368 19.000000000135 0.5 0
369 18.50000000013145 0.5 0
370 18.0000000001279 0.5 0
371 17.50000000012434 0.5 0
372 17.00000000012079 0.5 0
373 16.50000000011723 0.5 0
374 16.00000000011367 0.5 0
375 15.50000000011012 0.5 0
376 15.00000000010657 0.5 0
377 14.50000000010301 0.5 0
378 14.00000000009946 0.5 0
379 13.50000000009591 0.5 0
380 13.00000000009236 0.5 0
381 12.5000000000888 0.5 0
382 12.00000000008527 0.5 0
383 11.50000000008171 0.5 0
384 11.00000000007816 0.5 0
385 10.50000000007461 0.5 0
386 10.00000000007105 0.5 0
387 9.500000000067502 0.5 0
388 9.000000000063949 0.5 0
389 8.500000000060396 0.5 0
390 8.000000000056843 0.5 0
391 7.500000000053291 0.5 0
392 7.000000000049738 0.5 0
393 6.500000000046185 0.5 0
394 6.000000000042633 0.5 0
395 5.50000000003908 0.5 0
396 5.000000000035527 0.5 0
397 4.500000000031974 0.5 0
398 4.000000000028407 0.5 0
399 3.500000000024855 0.5 0
400 3.000000000021302 0.5 0
401 2.500000000017749 0.5 0
402 2.000000000014197 0.5 0
403 1.500000000010644 0.5 0
404 1.000000000007091 0.5 0
405 0.5000000000035385 0.5 0
406 0 0.2500000000010297 0
407 100 0.75 0
408 99.50000000000355 1 0
409 99.00000000000711 1 0
410 98.50000000001066 1 0
411 98.00000000001421 1 0
412 97.50000000001776 1 0
413 97.00000000002132 1 0
414 96.50000000002487 1 0
415 96.00000000002842 1 0
416 95.50000000003197 1 0
417 95.00000000003553 1 0
418 94.50000000003908 1 0
419 94.00000000004263 1 0
420 93.50000000004619 1 0
421 93.00000000004974 1 0
422 92.50000000005329 1 0
423 92.00000000005684 1 0
424 91.5000000000604 1 0
425 91.00000000006395 1 0
426 90.5000000000675 1 0
427 90.00000000007105 1 0
428 89.50000000007461 1 0
429 89.00000000007816 1 0
430 88.50000000008171 1 0
431 88.00000000008527 1 0
432 87.50000000008882 1 0
433 87.00000000009237 1 0
434 86.50000000009592 1 0
435 86.00000000009948 1 0
436 85.50000000010303 1 0
437 85.00000000010658 1 0
438 84.50000000011013 1 0
439 84.00000000011369 1 0
440 83.50000000011724 1 0
441 83.00000000012079 1 0
442 82.50000000012434 1 0
443 82.0000000001279 1 0
444 81.50000000013145 1 0
445 81.000000000135 1 0
446 80.50000000013856 1 0
447 80.00000000014211 1 0
448 79.50000000014566 1 0
449 79.00000000014921 1 0
450 78.50000000015277 1 0
451 78.00000000015632 1 0
452 77.50000000015987 1 0
453 77.00000000016342 1 0
454 76.50000000016698 1 0
455 76.00000000017053 1 0
456 75.50000000017408 1 0
457 75.00000000017764 1 0
458 74.50000000018119 1 0
459 74.00000000018474 1 0
460 73.50000000018829 1 0
461 73.00000000019185 1 0
462 72.5000000001954 1 0
463 72.00000000019895 1 0
464 71.5000000002025 1 0
465 71.00000000020606 1 0
466 70.50000000020961 1 0
467 70.00000000021316 1 0
468 69.50000000021672 1 0
469 69.00000000022027 1 0
470 68.50000000022382 1 0
471 68.00000000022737 1 0
472 67.50000000023093 1 0
473 67.00000000023448 1 0
474 66.50000000023803 1 0
475 66.00000000024158 1 0
476 65.50000000024514 1 0
477 65.00000000024869 1 0
478 64.50000000025224 1 0
479 64.00000000025557 1 0
480 63.50000000025735 1 0
481 63.00000000025813 1 0
482 62.50000000025813 1 0
483 62.00000000025813 1 0
484 61.50000000025813 1 0
485 61.00000000025813 1 0
486 60.50000000025813 1 0
487 60.00000000025813 1 0
488 59.50000000025813 1 0
489 59.00000000025813 1 0
490 58.50000000025813 1 0
491 58.00000000025813 1 0
492 57.50000000025813 1 0
493 57.00000000025812 1 0
494 56.50000000025812 1 0
495 56.00000000025813 1 0
496 55.50000000025813 1 0
497 55.00000000025813 1 0
498 54.50000000025813 1 0
499 54.00000000025813 1 0
500 53.50000000025813 1 0
501 53.00000000025813 1 0
502 52.50000000025813 1 0
503 52.00000000025813 1 0
504 51.50000000025813 1 0
505 51.00000000025812 1 0
506 50.50000000025812 1 0
507 50.00000000025813 1 0
508 49.50000000025813 1 0
509 49.00000000025813 1 0
510 48.50000000025813 1 0
511 48.00000000025813 1 0
512 47.50000000025813 1 0
513 47.00000000025813 1 0
514 46.50000000025813 1 0
515 46.00000000025813 1 0
516 45.50000000025813 1 0
517 45.00000000025813 1 0
518 44.50000000025812 1 0
519 44.00000000025813 1 0
520 43.50000000025813 1 0
521 43.00000000025813 1 0
522 42.50000000025813 1 0
523 42.00000000025813 1 0
524 41.50000000025813 1 0
525 41.00000000025813 1 0
526 40.50000000025813 1 0
527 40.00000000025813 1 0
528 39.50000000025813 1 0
529 39.00000000025813 1 0
530 38.50000000025813 1 0
531 38.00000000025813 1 0
532 37.50000000025813 1 0
533 37.00000000025813 1 0
534 36.50000000025735 1 0
535 36.00000000025558 1 0
536 35.50000000025224 1 0
537 35.00000000024869 1 0
538 34.50000000024514 1 0
539 34.00000000024158 1 0
540 33.50000000023803 1 0
541 33.00000000023448 1 0
542 32.50000000023093 1 0
543 32.00000000022737 1 0
544 31.50000000022382 1 0
545 31.00000000022027 1 0
546 30.50000000021672 1 0
547 30.00000000021316 1 0
548 29.50000000020961 1 0
549 29.00000000020604 1 0
550 28.50000000020249 1 0
551 28.00000000019894 1 0
552 27.5000000001954 1 0
553 27.00000000019185 1 0
554 26.50000000018829 1 0
555 26.00000000018474 1 0
556 25.50000000018119 1 0
557 25.00000000017764 1 0
558 24.50000000017408 1 0
559 24.00000000017053 1 0
560 23.50000000016698 1 0
561 23.00000000016342 1 0
562 22.50000000015987 1 0
563 22.00000000015632 1 0
564 21.50000000015277 1 0
565 21.00000000014921 1 0
566 20.50000000014566 1 0
567 20.00000000014211 1 0
568 19.50000000013856 1 0
569 19.000000000135 1 0
570 18.50000000013145 1 0
571 18.0000000001279 1 0
572 17.50000000012434 1 0
573 17.00000000012079 1 0
574 16.50000000011723 1 0
575 16.00000000011367 1 0
576 15.50000000011012 1 0
577 15.00000000010657 1 0
578 14.50000000010301 1 0
579 14.00000000009946 1 0
580 13.50000000009591 1 0
581 13.00000000009236 1 0
582 12.5000000000888 1 0
583 12.00000000008527 1 0
584 11.50000000008171 1 0
585 11.00000000007816 1 0
586 10.50000000007461 1 0
587 10.00000000007105 1 0
588 9.500000000067502 1 0
589 9.000000000063949 1 0
590 8.500000000060396 1 0
591 8.000000000056843 1 0
592 7.500000000053291 1 0
593 7.000000000049738 1 0
594 6.500000000046185 1 0
595 6.000000000042633 1 0
596 5.50000000003908 1 0
597 5.000000000035527 1 0
598 4.500000000031974 1 0
599 4.000000000028407 1 0
600 3.500000000024855 1 0
601 3.000000000021302 1 0
602 2.500000000017749 1 0
603 2.000000000014197 1 0
604 1.500000000010644 1 0
605 1.000000000007091 1 0
606 0.5000000000035385 1 0
607 0 0.75 0
608 0.5000000000007769 0.2500000000010213 0
609 1.000000000001567 0.2500000000010129 0
610 1.500000000002365 0.2500000000010045 0
611 2.000000000003175 0.250000000000996 0
612 2.500000000003978 0.2500000000009876 0
613 3.000000000004762 0.2500000000009792 0
614 3.500000000005504 0.2500000000009707 0
615 4.000000000006228 0.2500000000009624 0
616 4.500000000006935 0.250000000000954 0
617 5.000000000007637 0.2500000000009455 0
618 5.500000000008341 0.2500000000009372 0
619 6.000000000009098 0.2500000000009288 0
620 6.500000000009907 0.2500000000009203 0
621 7.000000000010777 0.2500000000009119 0
622 7.500000000011696 0.2500000000009034 0
623 8.000000000012619 0.250000000000895 0
624 8.500000000013541 0.2500000000008866 0
625 9.000000000014463 0.2500000000008781 0
626 9.500000000015383 0.2500000000008698 0
627 10.00000000001631 0.2500000000008614 0
628 10.50000000001723 0.2500000000008529 0
629 11.00000000001816 0.2500000000008446 0
630 11.50000000001907 0.2500000000008362 0
631 12.00000000001994 0.2500000000008277 0
632 12.50000000002074 0.2500000000008193 0
633 13.00000000002133 0.2500000000008109 0
634 13.50000000002187 0.2500000000008024 0
635 14.00000000002235 0.250000000000794 0
636 14.50000000002283 0.2500000000007855 0
637 15.00000000002331 0.2500000000007772 0
638 15.50000000002378 0.2500000000007688 0
639 16.00000000002427 0.2500000000007603 0
640 16.50000000002474 0.2500000000007519 0
641 17.00000000002522 0.2500000000007436 0
642 17.5000000000257 0.2500000000007351 0
643 18.00000000002618 0.2500000000007267 0
644 18.50000000002667 0.2500000000007183 0
645 19.00000000002714 0.2500000000007098 0
646 19.50000000002762 0.2500000000007014 0
647 20.00000000002809 0.2500000000006929 0
648 20.50000000002857 0.2500000000006845 0
649 21.00000000002905 0.2500000000006761 0
650 21.50000000002953 0.2500000000006677 0
651 22.00000000003001 0.2500000000006593 0
652 22.50000000003049 0.2500000000006509 0
653 23.00000000003096 0.2500000000006425 0
654 23.50000000003145 0.2500000000006341 0
655 24.00000000003193 0.2500000000006257 0
656 24.5000000000324 0.2500000000006172 0
657 25.00000000003288 0.2500000000006088 0
658 25.50000000003336 0.2500000000006003 0
659 26.00000000003384 0.2500000000005919 0
660 26.50000000003431 0.2500000000005835 0
661 27.0000000000348 0.2500000000005752 0
662 27.50000000003527 0.2500000000005667 0
663 28.00000000003575 0.2500000000005584 0
664 28.50000000003622 0.2500000000005499 0
665 29.00000000003671 0.2500000000005415 0
666 29.50000000003719 0.2500000000005331 0
667 30.00000000003767 0.2500000000005246 0
668 30.50000000003816 0.2500000000005162 0
669 31.00000000003864 0.2500000000005078 0
670 31.50000000003933 0.2500000000004993 0
671 32.00000000004025 0.2500000000004908 0
672 32.50000000004161 0.2500000000004824 0
673 33.00000000004297 0.2500000000004741 0
674 33.50000000004434 0.2500000000004657 0
675 34.0000000000457 0.2500000000004574 0
676 34.50000000004707 0.250000000000449 0
677 35.00000000004843 0.2500000000004405 0
678 35.50000000004981 0.250000000000432 0
679 36.00000000005105 0.2500000000004236 0
680 36.50000000005153 0.2500000000004152 0
681 37.00000000005151 0.2500000000004067 0
682 37.50000000005112 0.2500000000003983 0
683 38.0000000000507 0.2500000000003899 0
684 38.50000000005029 0.2500000000003814 0
685 39.00000000004988 0.250000000000373 0
686 39.50000000004948 0.2500000000003648 0
687 40.00000000004907 0.2500000000003563 0
688 40.50000000004866 0.2500000000003479 0
689 41.00000000004826 0.2500000000003395 0
690 41.50000000004783 0.250000000000331 0
691 42.00000000004743 0.2500000000003226 0
692 42.50000000004702 0.2500000000003141 0
693 43.00000000004663 0.2500000000003057 0
694 43.50000000004621 0.2500000000002973 0
695 44.00000000004579 0.2500000000002888 0
696 44.50000000004539 0.2500000000002805 0
697 45.00000000004497 0.2500000000002721 0
698 45.50000000004457 0.2500000000002636 0
699 46.00000000004417 0.2500000000002553 0
700 46.50000000004375 0.2500000000002469 0
701 47.00000000004334 0.2500000000002384 0
702 47.50000000004292 0.25000000000023 0
703 48.00000000004254 0.2500000000002215 0
704 48.50000000004209 0.2500000000002131 0
705 49.00000000004172 0.2500000000002047 0
706 49.50000000004129 0.2500000000001962 0
707 50.00000000004088 0.2500000000001879 0
708 50.50000000004047 0.2500000000001795 0
709 51.00000000004007 0.2500000000001711 0
710 51.50000000003966 0.2500000000001627 0
711 52.00000000003924 0.2500000000001543 0
712 52.50000000003885 0.2500000000001458 0
713 53.00000000003843 0.2500000000001374 0
714 53.50000000003803 0.250000000000129 0
715 54.00000000003762 0.2500000000001205 0
716 54.5000000000372 0.2500000000001121 0
717 55.00000000003679 0.2500000000001036 0
718 55.50000000003639 0.2500000000000953 0
719 56.00000000003598 0.2500000000000869 0
720 56.50000000003557 0.2500000000000784 0
721 57.00000000003517 0.2500000000000701 0
722 57.50000000003474 0.2500000000000617 0
723 58.00000000003434 0.2500000000000532 0
724 58.50000000003395 0.2500000000000448 0
725 59.00000000003351 0.2500000000000364 0
726 59.50000000003312 0.2500000000000279 0
727 60.00000000003272 0.2500000000000195 0
728 60.5000000000323 0.250000000000011 0
729 61.0000000000319 0.2500000000000026 0
730 61.50000000003149 0.2499999999999943 0
731 62.00000000003108 0.2499999999999858 0
732 62.50000000003067 0.2499999999999774 0
733 63.00000000003025 0.2499999999999691 0
734 63.50000000002986 0.2499999999999606 0
735 64.00000000002944 0.2499999999999522 0
736 64.50000000002902 0.2499999999999438 0
737 65.00000000002865 0.2499999999999353 0
738 65.50000000002819 0.2499999999999269 0
739 66.00000000002782 0.2499999999999185 0
740 66.50000000002741 0.24999999999991 0
741 67.00000000002697 0.2499999999999017 0
742 67.50000000002659 0.2499999999998933 0
743 68.00000000002615 0.2499999999998848 0
744 68.50000000002575 0.2499999999998765 0
745 69.00000000002535 0.249999999999868 0
746 69.50000000002495 0.2499999999998596 0
747 70.00000000002451 0.2499999999998512 0
748 70.50000000002413 0.2499999999998427 0
749 71.00000000002373 0.2499999999998343 0
750 71.50000000002329 0.2499999999998259 0
751 72.00000000002291 0.2499999999998174 0
752 72.50000000002248 0.249999999999809 0
753 73.00000000002207 0.2499999999998007 0
754 73.50000000002166 0.2499999999997922 0
755 74.00000000002126 0.2499999999997838 0
756 74.50000000002086 0.2499999999997754 0
757 75.00000000002045 0.249999999999767 0
758 75.50000000002004 0.2499999999997585 0
759 76.00000000001964 0.2499999999997501 0
760 76.50000000001923 0.2499999999997417 0
761 77.00000000001882 0.2499999999997333 0
762 77.50000000001842 0.2499999999997249 0
763 78.00000000001798 0.2499999999997164 0
764 78.50000000001756 0.2499999999997081 0
765 79.00000000001717 0.2499999999996996 0
766 79.5000000000168 0.2499999999996912 0
767 80.00000000001636 0.2499999999996828 0
768 80.50000000001594 0.2499999999996744 0
769 81.00000000001555 0.249999999999666 0
770 81.50000000001513 0.2499999999996576 0
771 82.00000000001472 0.2499999999996491 0
772 82.50000000001432 0.2499999999996407 0
773 83.0000000000139 0.2499999999996322 0
774 83.5000000000135 0.2499999999996239 0
775 84.00000000001307 0.2499999999996155 0
776 84.5000000000127 0.249999999999607 0
777 85.00000000001228 0.2499999999995986 0
778 85.50000000001185 0.2499999999995902 0
779 86.00000000001145 0.2499999999995818 0
780 86.50000000001104 0.2499999999995733 0
781 87.00000000001063 0.249999999999565 0
782 87.50000000001023 0.2499999999995565 0
783 88.00000000000981 0.2499999999995481 0
784 88.50000000000944 0.2499999999995397 0
785 89.00000000000901 0.2499999999995313 0
786 89.50000000000861 0.2499999999995228 0
787 90.00000000000819 0.2499999999995144 0
788 90.50000000000774 0.249999999999506 0
789 91.00000000000735 0.2499999999994976 0
790 91.50000000000693 0.2499999999994892 0
791 92.00000000000654 0.2499999999994807 0
792 92.50000000000612 0.2499999999994723 0
793 93.00000000000571 0.2499999999994639 0
794 93.50000000000534 0.2499999999994555 0
795 94.00000000000489 0.2499999999994471 0
796 94.50000000000452 0.2499999999994387 0
797 95.00000000000406 0.2499999999994302 0
798 95.50000000000368 0.2499999999994218 0
799 96.00000000000331 0.2499999999994134 0
800 96.50000000000287 0.249999999999405 0
801 97.00000000000247 0.2499999999993965 0
802 97.50000000000205 0.2499999999993882 0
803 98.00000000000165 0.2499999999993797 0
804 98.50000000000125 0.2499999999993713 0
805 99.00000000000082 0.2499999999993629 0
806 99.50000000000043 0.2499999999993545 0
807 99.50000000000355 0.75 0
808 99.00000000000711 0.75 0
809 98.50000000001066 0.75 0
810 98.00000000001421 0.75 0
811 97.50000000001776 0.75 0
812 97.00000000002132 0.75 0
813 96.50000000002487 0.75 0
814 96.00000000002842 0.75 0
815 95.50000000003197 0.75 0
816 95.00000000003553 0.75 0
817 94.50000000003908 0.75 0
818 94.00000000004263 0.75 0
819 93.50000000004619 0.75 0
820 93.00000000004974 0.75 0
821 92.50000000005329 0.75 0
822 92.00000000005684 0.75 0
823 91.5000000000604 0.75 0
824 91.00000000006395 0.75 0
825 90.5000000000675 0.75 0
826 90.00000000007105 0.75 0
827 89.50000000007461 0.75 0
828 89.00000000007816 0.75 0
829 88.50000000008171 0.75 0
830 88.00000000008527 0.75 0
831 87.50000000008882 0.75 0
832 87.00000000009237 0.75 0
833 86.50000000009592 0.75 0
834 86.00000000009948 0.75 0
835 85.50000000010303 0.75 0
836 85.00000000010658 0.75 0
837 84.50000000011013 0.75 0
838 84.00000000011369 0.75 0
839 83.50000000011724 0.75 0
840 83.00000000012079 0.75 0
841 82.50000000012434 0.75 0
842 82.0000000001279 0.75 0
843 81.50000000013145 0.75 0
844 81.000000000135 0.75 0
845 80.50000000013856 0.75 0
846 80.00000000014211 0.75 0
847 79.50000000014566 0.75 0
848 79.00000000014921 0.75 0
849 78.50000000015277 0.75 0
850 78.00000000015632 0.75 0
851 77.50000000015987 0.75 0
852 77.00000000016342 0.75 0
853 76.50000000016698 0.75 0
854 76.00000000017053 0.75 0
855 75.50000000017408 0.75 0
856 75.00000000017764 0.75 0
857 74.50000000018119 0.75 0
858 74.00000000018474 0.75 0
859 73.50000000018829 0.75 0
860 73.00000000019185 0.75 0
861 72.5000000001954 0.75 0
862 72.00000000019895 0.75 0
863 71.50000000020249 0.75 0
864 71.00000000020606 0.75 0
865 70.50000000020961 0.75 0
866 70.00000000021316 0.75 0
867 69.50000000021672 0.75 0
868 69.00000000022027 0.75 0
869 68.50000000022382 0.75 0
870 68.00000000022737 0.75 0
871 67.50000000023093 0.75 0
872 67.00000000023448 0.75 0
873 66.50000000023803 0.75 0
874 66.0000000002416 0.75 0
875 65.50000000024514 0.75 0
876 65.00000000024869 0.75 0
877 64.50000000025224 0.75 0
878 64.00000000025557 0.75 0
879 63.50000000025735 0.75 0
880 63.00000000025813 0.75 0
881 62.50000000025813 0.75 0
882 62.00000000025813 0.75 0
883 61.50000000025813 0.75 0
884 61.00000000025813 0.75 0
885 60.50000000025813 0.75 0
886 60.00000000025813 0.75 0
887 59.50000000025813 0.75 0
888 59.00000000025813 0.75 0
889 58.50000000025813 0.75 0
890 58.00000000025812 0.75 0
891 57.50000000025813 0.75 0
892 57.00000000025813 0.75 0
893 56.50000000025812 0.75 0
894 56.00000000025812 0.75 0
895 55.50000000025813 0.75 0
896 55.00000000025812 0.75 0
897 54.50000000025813 0.75 0
898 54.00000000025812 0.75 0
899 53.50000000025813 0.75 0
900 53.00000000025813 0.75 0
901 52.50000000025813 0.75 0
902 52.00000000025813 0.75 0
903 51.50000000025813 0.75 0
904 51.00000000025812 0.75 0
905 50.50000000025812 0.75 0
906 50.00000000025813 0.75 0
907 49.50000000025813 0.75 0
908 49.00000000025813 0.75 0
909 48.50000000025813 0.75 0
910 48.00000000025813 0.75 0
911 47.50000000025813 0.75 0
912 47.00000000025813 0.75 0
913 46.50000000025813 0.75 0
914 46.00000000025813 0.75 0
915 45.50000000025813 0.75 0
916 45.00000000025813 0.75 0
917 44.50000000025812 0.75 0
918 44.00000000025813 0.75 0
919 43.50000000025813 0.75 0
920 43.00000000025813 0.75 0
921 42.50000000025813 0.75 0
922 42.00000000025813 0.75 0
923 41.50000000025813 0.75 0
924 41.00000000025813 0.75 0
925 40.50000000025813 0.75 0
926 40.00000000025813 0.75 0
927 39.50000000025813 0.75 0
928 39.00000000025813 0.75 0
929 38.50000000025813 0.75 0
930 38.00000000025813 0.75 0
931 37.50000000025813 0.75 0
932 37.00000000025813 0.75 0
933 36.50000000025735 0.75 0
934 36.00000000025558 0.75 0
935 35.50000000025224 0.75 0
936 35.00000000024869 0.75 0
937 34.50000000024514 0.75 0
938 34.00000000024158 0.75 0
939 33.50000000023803 0.75 0
940 33.00000000023449 0.75 0
941 32.50000000023093 0.75 0
942 32.00000000022738 0.75 0
943 31.50000000022382 0.75 0
944 31.00000000022027 0.75 0
945 30.50000000021671 0.75 0
946 30.00000000021316 0.75 0
947 29.50000000020961 0.75 0
948 29.00000000020604 0.75 0
949 28.50000000020249 0.75 0
950 28.00000000019894 0.75 0
951 27.5000000001954 0.75 0
952 27.00000000019185 0.75 0
953 26.50000000018829 0.75 0
954 26.00000000018474 0.75 0
955 25.50000000018119 0.75 0
956 25.00000000017764 0.75 0
957 24.50000000017408 0.75 0
958 24.00000000017053 0.75 0
959 23.50000000016698 0.75 0
960 23.00000000016342 0.75 0
961 22.50000000015988 0.75 0
962 22.00000000015632 0.75 0
963 21.50000000015277 0.75 0
964 21.00000000014922 0.75 0
965 20.50000000014566 0.75 0
966 20.00000000014211 0.75 0
967 19.50000000013856 0.75 0
968 19.000000000135 0.75 0
969 18.50000000013145 0.75 0
970 18.00000000012789 0.75 0
971 17.50000000012434 0.75 0
972 17.00000000012079 0.75 0
973 16.50000000011723 0.75 0
974 16.00000000011368 0.75 0
975 15.50000000011012 0.75 0
976 15.00000000010657 0.75 0
977 14.50000000010302 0.75 0
978 14.00000000009946 0.75 0
979 13.50000000009591 0.75 0
980 13.00000000009236 0.75 0
981 12.5000000000888 0.75 0
982 12.00000000008527 0.75 0
983 11.50000000008171 0.75 0
984 11.00000000007816 0.75 0
985 10.50000000007461 0.75 0
986 10.00000000007106 0.75 0
987 9.500000000067502 0.75 0
988 9.000000000063949 0.75 0
989 8.500000000060396 0.75 0
990 8.000000000056843 0.75 0
991 7.500000000053292 0.75 0
992 7.000000000049738 0.75 0
993 6.500000000046185 0.75 0
994 6.000000000042633 0.75 0
995 5.50000000003908 0.75 0
996 5.000000000035526 0.75 0
997 4.500000000031974 0.75 0
998 4.000000000028408 0.75 0
999 3.500000000024854 0.75 0
1000 3.000000000021302 0.75 0
1001 2.500000000017749 0.75 0
1002 2.000000000014197 0.75 0
1003 1.500000000010644 0.75 0
1004 1.000000000007091 0.75 0
1005 0.5000000000035385 0.75 0
$EndNodes
$Elements
1208
1 1 2 1 1 1 7
2 1 2 1 1 7 8
3 1 2 1 1 8 9
4 1 2 1 1 9 10
5 1 2 1 1 10 11
6 1 2 1 1 11 12
7 1 2 1 1 12 13
8 1 2 1 1 13 14
9 1 2 1 1 14 15
10 1 2 1 1 15 16
11 1 2 1 1 16 17
12 1 2 1 1 17 18
13 1 2 1 1 18 19
14 1 2 1 1 19 20
15 1 2 1 1 20 21
16 1 2 1 1 21 22
17 1 2 1 1 22 23
18 1 2 1 1 23 24
19 1 2 1 1 24 25
20 1 2 1 1 25 26
21 1 2 1 1 26 27
22 1 2 1 1 27 28
23 1 2 1 1 28 29
24 1 2 1 1 29 30
25 1 2 1 1 30 31
26 1 2 1 1 31 32
27 1 2 1 1 32 33
28 1 2 1 1 33 34
29 1 2 1 1 34 35
30 1 2 1 1 35 36
31 1 2 1 1 36 37
32 1 2 1 1 37 38
33 1 2 1 1 38 39
34 1 2 1 1 39 40
35 1 2 1 1 40 41
36 1 2 1 1 41 42
37 1 2 1 1 42 43
38 1 2 1 1 43 44
39 1 2 1 1 44 45
40 1 2 1 1 45 46
41 1 2 1 1 46 47
42 1 2 1 1 47 48
43 1 2 1 1 48 49
44 1 2 1 1 49 50
45 1 2 1 1 50 51
46 1 2 1 1 51 52
47 1 2 1 1 52 53
48 1 2 1 1 53 54
49 1 2 1 1 54 55
50 1 2 1 1 55 56
51 1 2 1 1 56 57
52 1 2 1 1 57 58
53 1 2 1 1 58 59
54 1 2 1 1 59 60
55 1 2 1 1 60 61
56 1 2 1 1 61 62
57 1 2 1 1 62 63
58 1 2 1 1 63 64
59 1 2 1 1 64 65
60 1 2 1 1 65 66
61 1 2 1 1 66 67
62 1 2 1 1 67 68
63 1 2 1 1 68 69
64 1 2 1 1 69 70
65 1 2 1 1 70 71
66 1 2 1 1 71 72
67 1 2 1 1 72 73
68 1 2 1 1 73 74
69 1 2 1 1 74 75
70 1 2 1 1 75 76
71 1 2 1 1 76 77
72 1 2 1 1 77 78
73 1 2 1 1 78 79
74 1 2 1 1 79 80
75 1 2 1 1 80 81
76 1 2 1 1 81 82
77 1 2 1 1 82 83
78 1 2 1 1 83 84
79 1 2 1 1 84 85
80 1 2 1 1 85 86
81 1 2 1 1 86 87
82 1 2 1 1 87 88
83 1 2 1 1 88 89
84 1 2 1 1 89 90
85 1 2 1 1 90 91
86 1 2 1 1 91 92
87 1 2 1 1 92 93
88 1 2 1 1 93 94
89 1 2 1 1 94 95
90 1 2 1 1 95 96
91 1 2 1 1 96 97
92 1 2 1 1 97 98
93 1 2 1 1 98 99
94 1 2 1 1 99 100
95 1 2 1 1 100 101
96 1 2 1 1 101 102
97 1 2 1 1 102 103
98 1 2 1 1 103 104
99 1 2 1 1 104 105
100 1 2 1 1 105 106
101 1 2 1 1 106 107
102 1 2 1 1 107 108
103 1 2 1 1 108 109
104 1 2 1 1 109 110
105 1 2 1 1 110 111
106 1 2 1 1 111 112
107 1 2 1 1 112 113
108 1 2 1 1 113 114
109 1 2 1 1 114 115
110 1 2 1 1 115 116
111 1 2 1 1 116 117
112 1 2 1 1 117 118
113 1 2 1 1 118 119
114 1 2 1 1 119 120
115 1 2 1 1 120 121
116 1 2 1 1 121 122
117 1 2 1 1 122 123
118 1 2 1 1 123 124
119 1 2 1 1 124 125
120 1 2 1 1 125 126
121 1 2 1 1 126 127
122 1 2 1 1 127 128
123 1 2 1 1 128 129
124 1 2 1 1 129 130
125 1 2 1 1 130 131
126 1 2 1 1 131 132
127 1 2 1 1 132 133
128 1 2 1 1 133 134
129 1 2 1 1 134 135
130 1 2 1 1 135 136
131 1 2 1 1 136 137
132 1 2 1 1 137 138
133 1 2 1 1 138 139
134 1 2 1 1 139 140
135 1 2 1 1 140 141
136 1 2 1 1 141 142
137 1 2 1 1 142 143
138 1 2 1 1 143 144
139 1 2 1 1 144 145
140 1 2 1 1 145 146
141 1 2 1 1 146 147
142 1 2 1 1 147 148
143 1 2 1 1 148 149
144 1 2 1 1 149 150
145 1 2 1 1 150 151
146 1 2 1 1 151 152
147 1 2 1 1 152 153
148 1 2 1 1 153 154
149 1 2 1 1 154 155
150 1 2 1 1 155 156
151 1 2 1 1 156 157
152 1 2 1 1 157 158
153 1 2 1 1 158 159
154 1 2 1 1 159 160
155 1 2 1 1 160 161
156 1 2 1 1 161 162
157 1 2 1 1 162 163
158 1 2 1 1 163 164
159 1 2 1 1 164 165
160 1 2 1 1 165 166
161 1 2 1 1 166 167
162 1 2 1 1 167 168
163 1 2 1 1 168 169
164 1 2 1 1 169 170
165 1 2 1 1 170 171
166 1 2 1 1 171 172
167 1 2 1 1 172 173
168 1 2 1 1 173 174
169 1 2 1 1 174 175
170 1 2 1 1 175 176
171 1 2 1 1 176 177
172 1 2 1 1 177 178
173 1 2 1 1 178 179
174 1 2 1 1 179 180
175 1 2 1 1 180 181
176 1 2 1 1 181 182
177 1 2 1 1 182 183
178 1 2 1 1 183 184
179 1 2 1 1 184 185
180 1 2 1 1 185 186
181 1 2 1 1 186 187
182 1 2 1 1 187 188
183 1 2 1 1 188 189
184 1 2 1 1 189 190
185 1 2 1 1 190 191
186 1 2 1 1 191 192
187 1 2 1 1 192 193
188 1 2 1 1 193 194
189 1 2 1 1 194 195
190 1 2 1 1 195 196
191 1 2 1 1 196 197
192 1 2 1 1 197 198
193 1 2 1 1 198 199
194 1 2 1 1 199 200
195 1 2 1 1 200 201
196 1 2 1 1 201 202
197 1 2 1 1 202 203
198 1 2 1 1 203 204
199 1 2 1 1 204 205
200 1 2 1 1 205 2
201 1 2 2 2 2 206
202 1 2 2 2 206 3
203 1 2 4 4 5 406
204 1 2 4 4 406 1
205 1 2 2 5 3 407
206 1 2 2 5 407 4
207 1 2 3 6 4 408
208 1 2 3 6 408 409
209 1 2 3 6 409 410
210 1 2 3 6 410 411
211 1 2 3 6 411 412
212 1 2 3 6 412 413
213 1 2 3 6 413 414
214 1 2 3 6 414 415
215 1 2 3 6 415 416
216 1 2 3 6 416 417
217 1 2 3 6 417 418
218 1 2 3 6 418 419
219 1 2 3 6 419 420
220 1 2 3 6 420 421
221 1 2 3 6 421 422
222 1 2 3 6 422 423
223 1 2 3 6 423 424
224 1 2 3 6 424 425
225 1 2 3 6 425 426
226 1 2 3 6 426 427
227 1 2 3 6 427 428
228 1 2 3 6 428 429
229 1 2 3 6 429 430
230 1 2 3 6 430 431
231 1 2 3 6 431 432
232 1 2 3 6 432 433
233 1 2 3 6 433 434
234 1 2 3 6 434 435
235 1 2 3 6 435 436
236 1 2 3 6 436 437
237 1 2 3 6 437 438
238 1 2 3 6 438 439
239 1 2 3 6 439 440
240 1 2 3 6 440 441
241 1 2 3 6 441 442
242 1 2 3 6 442 443
243 1 2 3 6 443 444
244 1 2 3 6 444 445
245 1 2 3 6 445 446
246 1 2 3 6 446 447
247 1 2 3 6 447 448
248 1 2 3 6 448 449
249 1 2 3 6 449 450
250 1 2 3 6 450 451
251 1 2 3 6 451 452
252 1 2 3 6 452 453
253 1 2 3 6 453 454
254 1 2 3 6 454 455
255 1 2 3 6 455 456
256 1 2 3 6 456 457
257 1 2 3 6 457 458
258 1 2 3 6 458 459
259 1 2 3 6 459 460
260 1 2 3 6 460 461
261 1 2 3 6 461 462
262 1 2 3 6 462 463
263 1 2 3 6 463 464
264 1 2 3 6 464 465
265 1 2 3 6 465 466
266 1 2 3 6 466 467
267 1 2 3 6 467 468
268 1 2 3 6 468 469
269 1 2 3 6 469 470
270 1 2 3 6 470 471
271 1 2 3 6 471 472
272 1 2 3 6 472 473
273 1 2 3 6 473 474
274 1 2 3 6 474 475
275 1 2 3 6 475 476
276 1 2 3 6 476 477
277 1 2 3 6 477 478
278 1 2 3 6 478 479
279 1 2 3 6 479 480
280 1 2 3 6 480 481
281 1 2 3 6 481 482
282 1 2 3 6 482 483
283 1 2 3 6 483 484
284 1 2 3 6 484 485
285 1 2 3 6 485 486
286 1 2 3 6 486 487
287 1 2 3 6 487 488
288 1 2 3 6 488 489
289 1 2 3 6 489 490
290 1 2 3 6 490 491
291 1 2 3 6 491 492
292 1 2 3 6 492 493
293 1 2 3 6 493 494
294 1 2 3 6 494 495
295 1 2 3 6 495 496
296 1 2 3 6 496 497
297 1 2 3 6 497 498
298 1 2 3 6 498 499
299 1 2 3 6 499 500
300 1 2 3 6 500 501
301 1 2 3 6 501 502
302 1 2 3 6 502 503
303 1 2 3 6 503 504
304 1 2 3 6 504 505
305 1 2 3 6 505 506
306 1 2 3 6 506 507
307 1 2 3 6 507 508
308 1 2 3 6 508 509
309 1 2 3 6 509 510
310 1 2 3 6 510 511
311 1 2 3 6 511 512
312 1 2 3 6 512 513
313 1 2 3 6 513 514
314 1 2 3 6 514 515
315 1 2 3 6 515 516
316 1 2 3 6 516 517
317 1 2 3 6 517 518
318 1 2 3 6 518 519
319 1 2 3 6 519 520
320 1 2 3 6 520 521
321 1 2 3 6 521 522
322 1 2 3 6 522 523
323 1 2 3 6 523 524
324 1 2 3 6 524 525
325 1 2 3 6 525 526
326 1 2 3 6 526 527
327 1 2 3 6 527 528
328 1 2 3 6 528 529
329 1 2 3 6 529 530
330 1 2 3 6 530 531
331 1 2 3 6 531 532
332 1 2 3 6 532 533
333 1 2 3 6 533 534
334 1 2 3 6 534 535
335 1 2 3 6 535 536
336 1 2 3 6 536 537
337 1 2 3 6 537 538
338 1 2 3 6 538 539
339 1 2 3 6 539 540
340 1 2 3 6 540 541
341 1 2 3 6 541 542
342 1 2 3 6 542 543
343 1 2 3 6 543 544
344 1 2 3 6 544 545
345 1 2 3 6 545 546
346 1 2 3 6 546 547
347 1 2 3 6 547 548
348 1 2 3 6 548 549
349 1 2 3 6 549 550
350 1 2 3 6 550 551
351 1 2 3 6 551 552
352 1 2 3 6 552 553
353 1 2 3 6 553 554
354 1 2 3 6 554 555
355 1 2 3 6 555 556
356 1 2 3 6 556 557
357 1 2 3 6 557 558
358 1 2 3 6 558 559
359 1 2 3 6 559 560
360 1 2 3 6 560 561
361 1 2 3 6 561 562
362 1 2 3 6 562 563
363 1 2 3 6 563 564
364 1 2 3 6 564 565
365 1 2 3 6 565 566
366 1 2 3 6 566 567
367 1 2 3 6 567 568
368 1 2 3 6 568 569
369 1 2 3 6 569 570
370 1 2 3 6 570 571
371 1 2 3 6 571 572
372 1 2 3 6 572 573
373 1 2 3 6 573 574
374 1 2 3 6 574 575
375 1 2 3 6 575 576
376 1 2 3 6 576 577
377 1 2 3 6 577 578
378 1 2 3 6 578 579
379 1 2 3 6 579 580
380 1 2 3 6 580 581
381 1 2 3 6 581 582
382 1 2 3 6 582 583
383 1 2 3 6 583 584
384 1 2 3 6 584 585
385 1 2 3 6 585 586
386 1 2 3 6 586 587
387 1 2 3 6 587 588
388 1 2 3 6 588 589
389 1 2 3 6 589 590
390 1 2 3 6 590 591
391 1 2 3 6 591 592
392 1 2 3 6 592 593
393 1 2 3 6 593 594
394 1 2 3 6 594 595
395 1 2 3 6 595 596
396 1 2 3 6 596 597
397 1 2 3 6 597 598
398 1 2 3 6 598 599
399 1 2 3 6 599 600
400 1 2 3 6 600 601
401 1 2 3 6 601 602
402 1 2 3 6 602 603
403 1 2 3 6 603 604
404 1 2 3 6 604 605
405 1 2 3 6 605 606
406 1 2 3 6 606 6
407 1 2 4 7 6 607
408 1 2 4 7 607 5
409 3 2 1 1 1 7 608 406
410 3 2 1 1 406 608 405 5
411 3 2 1 1 7 8 609 608
412 3 2 1 1 608 609 404 405
413 3 2 1 1 8 9 610 609
414 3 2 1 1 609 610 403 404
415 3 2 1 1 9 10 611 610
416 3 2 1 1 610 611 402 403
417 3 2 1 1 10 11 612 611
418 3 2 1 1 611 612 401 402
419 3 2 1 1 11 12 613 612
420 3 2 1 1 612 613 400 401
421 3 2 1 1 12 13 614 613
422 3 2 1 1 613 614 399 400
423 3 2 1 1 13 14 615 614
424 3 2 1 1 614 615 398 399
425 3 2 1 1 14 15 616 615
426 3 2 1 1 615 616 397 398
427 3 2 1 1 15 16 617 616
428 3 2 1 1 616 617 396 397
429 3 2 1 1 16 17 618 617
430 3 2 1 1 617 618 395 396
431 3 2 1 1 17 18 619 618
432 3 2 1 1 618 619 394 395
433 3 2 1 1 18 19 620 619
434 3 2 1 1 619 620 393 394
435 3 2 1 1 19 20 621 620
436 3 2 1 1 620 621 392 393
437 3 2 1 1 20 21 622 621
438 3 2 1 1 621 622 391 392
439 3 2 1 1 21 22 623 622
440 3 2 1 1 622 623 390 391
441 3 2 1 1 22 23 624 623
442 3 2 1 1 623 624 389 390
443 3 2 1 1 23 24 625 624
444 3 2 1 1 624 625 388 389
445 3 2 1 1 24 25 626 625
446 3 2 1 1 625 626 387 388
447 3 2 1 1 25 26 627 626
448 3 2 1 1 626 627 386 387
449 3 2 1 1 26 27 628 627
450 3 2 1 1 627 628 385 386
451 3 2 1 1 27 28 629 628
452 3 2 1 1 628 629 384 385
453 3 2 1 1 28 29 630 629
454 3 2 1 1 629 630 383 384
455 3 2 1 1 29 30 631 630
456 3 2 1 1 630 631 382 383
457 3 2 1 1 30 31 632 631
458 3 2 1 1 631 632 381 382
459 3 2 1 1 31 32 633 632
460 3 2 1 1 632 633 380 381
461 3 2 1 1 32 33 634 633
462 3 2 1 1 633 634 379 380
463 3 2 1 1 33 34 635 634
464 3 2 1 1 634 635 378 379
465 3 2 1 1 34 35 636 635
466 3 2 1 1 635 636 377 378
467 3 2 1 1 35 36 637 636
468 3 2 1 1 636 637 376 377
469 3 2 1 1 36 37 638 637
470 3 2 1 1 637 638 375 376
471 3 2 1 1 37 38 639 638
472 3 2 1 1 638 639 374 375
473 3 2 1 1 38 39 640 639
474 3 2 1 1 639 640 373 374
475 3 2 1 1 39 40 641 640
476 3 2 1 1 640 641 372 373
477 3 2 1 1 40 41 642 641
478 3 2 1 1 641 642 371 372
479 3 2 1 1 41 42 643 642
480 3 2 1 1 642 643 370 371
481 3 2 1 1 42 43 644 643
482 3 2 1 1 643 644 369 370
483 3 2 1 1 43 44 645 644
484 3 2 1 1 644 645 368 369
485 3 2 1 1 44 45 646 645
486 3 2 1 1 645 646 367 368
487 3 2 1 1 45 46 647 646
488 3 2 1 1 646 647 366 367
489 3 2 1 1 46 47 648 647
490 3 2 1 1 647 648 365 366
491 3 2 1 1 47 48 649 648
492 3 2 1 1 648 649 364 365
493 3 2 1 1 48 49 650 649
494 3 2 1 1 649 650 363 364
495 3 2 1 1 49 50 651 650
496 3 2 1 1 650 651 362 363
497 3 2 1 1 50 51 652 651
498 3 2 1 1 651 652 361 362
499 3 2 1 1 51 52 653 652
500 3 2 1 1 652 653 360 361
501 3 2 1 1 52 53 654 653
502 3 2 1 1 653 654 359 360
503 3 2 1 1 53 54 655 654
504 3 2 1 1 654 655 358 359
505 3 2 1 1 54 55 656 655
506 3 2 1 1 655 656 357 358
507 3 2 1 1 55 56 657 656
508 3 2 1 1 656 657 356 357
509 3 2 1 1 56 57 658 657
510 3 2 1 1 657 658 355 356
511 3 2 1 1 57 58 659 658
512 3 2 1 1 658 659 354 355
513 3 2 1 1 58 59 660 659
514 3 2 1 1 659 660 353 354
515 3 2 1 1 59 60 661 660
516 3 2 1 1 660 661 352 353
517 3 2 1 1 60 61 662 661
518 3 2 1 1 661 662 351 352
519 3 2 1 1 61 62 663 662
520 3 2 1 1 662 663 350 351
521 3 2 1 1 62 63 664 663
522 3 2 1 1 663 664 349 350
523 3 2 1 1 63 64 665 664
524 3 2 1 1 664 665 348 349
525 3 2 1 1 64 65 666 665
526 3 2 1 1 665 666 347 348
527 3 2 1 1 65 66 667 666
528 3 2 1 1 666 667 346 347
529 3 2 1 1 66 67 668 667
530 3 2 1 1 667 668 345 346
531 3 2 1 1 67 68 669 668
532 3 2 1 1 668 669 344 345
533 3 2 1 1 68 69 670 669
534 3 2 1 1 669 670 343 344
535 3 2 1 1 69 70 671 670
536 3 2 1 1 670 671 342 343
537 3 2 1 1 70 71 672 671
538 3 2 1 1 671 672 341 342
539 3 2 1 1 71 72 673 672
540 3 2 1 1 672 673 340 341
541 3 2 1 1 72 73 674 673
542 3 2 1 1 673 674 339 340
543 3 2 1 1 73 74 675 674
544 3 2 1 1 674 675 338 339
545 3 2 1 1 74 75 676 675
546 3 2 1 1 675 676 337 338
547 3 2 1 1 75 76 677 676
548 3 2 1 1 676 677 336 337
549 3 2 1 1 76 77 678 677
550 3 2 1 1 677 678 335 336
551 3 2 1 1 77 78 679 678
552 3 2 1 1 678 679 334 335
553 3 2 1 1 78 79 680 679
554 3 2 1 1 679 680 333 334
555 3 2 1 1 79 80 681 680
556 3 2 1 1 680 681 332 333
557 3 2 1 1 80 81 682 681
558 3 2 1 1 681 682 331 332
559 3 2 1 1 81 82 683 682
560 3 2 1 1 682 683 330 331
561 3 2 1 1 82 83 684 683
562 3 2 1 1 683 684 329 330
563 3 2 1 1 83 84 685 684
564 3 2 1 1 684 685 328 329
565 3 2 1 1 84 85 686 685
566 3 2 1 1 685 686 327 328
567 3 2 1 1 85 86 687 686
568 3 2 1 1 686 687 326 327
569 3 2 1 1 86 87 688 687
570 3 2 1 1 687 688 325 326
571 3 2 1 1 87 88 689 688
572 3 2 1 1 688 689 324 325
573 3 2 1 1 88 89 690 689
574 3 2 1 1 689 690 323 324
575 3 2 1 1 89 90 691 690
576 3 2 1 1 690 691 322 323
577 3 2 1 1 90 91 692 691
578 3 2 1 1 691 692 321 322
579 3 2 1 1 91 92 693 692
580 3 2 1 1 692 693 320 321
581 3 2 1 1 92 93 694 693
582 3 2 1 1 693 694 319 320
583 3 2 1 1 93 94 695 694
584 3 2 1 1 694 695 318 319
585 3 2 1 1 94 95 696 695
586 3 2 1 1 695 696 317 318
587 3 2 1 1 95 96 697 696
588 3 2 1 1 696 697 316 317
589 3 2 1 1 96 97 698 697
590 3 2 1 1 697 698 315 316
591 3 2 1 1 97 98 699 698
592 3 2 1 1 698 699 314 315
593 3 2 1 1 98 99 700 699
594 3 2 1 1 699 700 313 314
595 3 2 1 1 99 100 701 700
596 3 2 1 1 700 701 312 313
597 3 2 1 1 100 101 702 701
598 3 2 1 1 701 702 311 312
599 3 2 1 1 101 102 703 702
600 3 2 1 1 702 703 310 311
601 3 2 1 1 102 103 704 703
602 3 2 1 1 703 704 309 310
603 3 2 1 1 103 104 705 704
604 3 2 1 1 704 705 308 309
605 3 2 1 1 104 105 706 705
606 3 2 1 1 705 706 307 308
607 3 2 1 1 105 106 707 706
608 3 2 1 1 706 707 306 307
609 3 2 1 1 106 107 708 707
610 3 2 1 1 707 708 305 306
611 3 2 1 1 107 108 709 708
612 3 2 1 1 708 709 304 305
613 3 2 1 1 108 109 710 709
614 3 2 1 1 709 710 303 304
615 3 2 1 1 109 110 711 710
616 3 2 1 1 710 711 302 303
617 3 2 1 1 110 111 712 711
618 3 2 1 1 711 712 301 302
619 3 2 1 1 111 112 713 712
620 3 2 1 1 712 713 300 301
621 3 2 1 1 112 113 714 713
622 3 2 1 1 713 714 299 300
623 3 2 1 1 113 114 715 714
624 3 2 1 1 714 715 298 299
625 3 2 1 1 114 115 716 715
626 3 2 1 1 715 716 297 298
627 3 2 1 1 115 116 717 716
628 3 2 1 1 716 717 296 297
629 3 2 1 1 116 117 718 717
630 3 2 1 1 717 718 295 296
631 3 2 1 1 117 118 719 718
632 3 2 1 1 718 719 294 295
633 3 2 1 1 118 119 720 719
634 3 2 1 1 719 720 293 294
635 3 2 1 1 119 120 721 720
636 3 2 1 1 720 721 292 293
637 3 2 1 1 120 121 722 721
638 3 2 1 1 721 722 291 292
639 3 2 1 1 121 122 723 722
640 3 2 1 1 722 723 290 291
641 3 2 1 1 122 123 724 723
642 3 2 1 1 723 724 289 290
643 3 2 1 1 123 124 725 724
644 3 2 1 1 724 725 288 289
645 3 2 1 1 124 125 726 725
646 3 2 1 1 725 726 287 288
647 3 2 1 1 125 126 727 726
648 3 2 1 1 726 727 286 287
649 3 2 1 1 126 127 728 727
650 3 2 1 1 727 728 285 286
651 3 2 1 1 127 128 729 728
652 3 2 1 1 728 729 284 285
653 3 2 1 1 128 129 730 729
654 3 2 1 1 729 730 283 284
655 3 2 1 1 129 130 731 730
656 3 2 1 1 730 731 282 283
657 3 2 1 1 130 131 732 731
658 3 2 1 1 731 732 281 282
659 3 2 1 1 131 132 733 732
660 3 2 1 1 732 733 280 281
661 3 2 1 1 132 133 734 733
662 3 2 1 1 733 734 279 280
663 3 2 1 1 133 134 735 734
664 3 2 1 1 734 735 278 279
665 3 2 1 1 134 135 736 735
666 3 2 1 1 735 736 277 278
667 3 2 1 1 135 136 737 736
668 3 2 1 1 736 737 276 277
669 3 2 1 1 136 137 738 737
670 3 2 1 1 737 738 275 276
671 3 2 1 1 137 138 739 738
672 3 2 1 1 738 739 274 275
673 3 2 1 1 138 139 740 739
674 3 2 1 1 739 740 273 274
675 3 2 1 1 139 140 741 740
676 3 2 1 1 740 741 272 273
677 3 2 1 1 140 141 742 741
678 3 2 1 1 741 742 271 272
679 3 2 1 1 141 142 743 742
680 3 2 1 1 742 743 270 271
681 3 2 1 1 142 143 744 743
682 3 2 1 1 743 744 269 270
683 3 2 1 1 143 144 745 744
684 3 2 1 1 744 745 268 269
685 3 2 1 1 144 145 746 745
686 3 2 1 1 745 746 267 268
687 3 2 1 1 145 146 747 746
688 3 2 1 1 746 747 266 267
689 3 2 1 1 146 147 748 747
690 3 2 1 1 747 748 265 266
691 3 2 1 1 147 148 749 748
692 3 2 1 1 748 749 264 265
693 3 2 1 1 148 149 750 749
694 3 2 1 1 749 750 263 264
695 3 2 1 1 149 150 751 750
696 3 2 1 1 750 751 262 263
697 3 2 1 1 150 151 752 751
698 3 2 1 1 751 752 261 262
699 3 2 1 1 151 152 753 752
700 3 2 1 1 752 753 260 261
701 3 2 1 1 152 153 754 753
702 3 2 1 1 753 754 259 260
703 3 2 1 1 153 154 755 754
704 3 2 1 1 754 755 258 259
705 3 2 1 1 154 155 756 755
706 3 2 1 1 755 756 257 258
707 3 2 1 1 155 156 757 756
708 3 2 1 1 756 757 256 257
709 3 2 1 1 156 157 758 757
710 3 2 1 1 757 758 255 256
711 3 2 1 1 157 158 759 758
712 3 2 1 1 758 759 254 255
713 3 2 1 1 158 159 760 759
714 3 2 1 1 759 760 253 254
715 3 2 1 1 159 160 761 760
716 3 2 1 1 760 761 252 253
717 3 2 1 1 160 161 762 761
718 3 2 1 1 761 762 251 252
719 3 2 1 1 161 162 763 762
720 3 2 1 1 762 763 250 251
721 3 2 1 1 162 163 764 763
722 3 2 1 1 763 764 249 250
723 3 2 1 1 163 164 765 764
724 3 2 1 1 764 765 248 249
725 3 2 1 1 164 165 766 765
726 3 2 1 1 765 766 247 248
727 3 2 1 1 165 166 767 766
728 3 2 1 1 766 767 246 247
729 3 2 1 1 166 167 768 767
730 3 2 1 1 767 768 245 246
731 3 2 1 1 167 168 769 768
732 3 2 1 1 768 769 244 245
733 3 2 1 1 168 169 770 769
734 3 2 1 1 769 770 243 244
735 3 2 1 1 169 170 771 770
736 3 2 1 1 770 771 242 243
737 3 2 1 1 170 171 772 771
738 3 2 1 1 771 772 241 242
739 3 2 1 1 171 172 773 772
740 3 2 1 1 772 773 240 241
741 3 2 1 1 172 173 774 773
742 3 2 1 1 773 774 239 240
743 3 2 1 1 173 174 775 774
744 3 2 1 1 774 775 238 239
745 3 2 1 1 174 175 776 775
746 3 2 1 1 775 776 237 238
747 3 2 1 1 175 176 777 776
748 3 2 1 1 776 777 236 237
749 3 2 1 1 176 177 778 777
750 3 2 1 1 777 778 235 236
751 3 2 1 1 177 178 779 778
752 3 2 1 1 778 779 234 235
753 3 2 1 1 178 179 780 779
754 3 2 1 1 779 780 233 234
755 3 2 1 1 179 180 781 780
756 3 2 1 1 780 781 232 233
757 3 2 1 1 180 181 782 781
758 3 2 1 1 781 782 231 232
759 3 2 1 1 181 182 783 782
760 3 2 1 1 782 783 230 231
761 3 2 1 1 182 183 784 783
762 3 2 1 1 783 784 229 230
763 3 2 1 1 183 184 785 784
764 3 2 1 1 784 785 228 229
765 3 2 1 1 184 185 786 785
766 3 2 1 1 785 786 227 228
767 3 2 1 1 185 186 787 786
768 3 2 1 1 786 787 226 227
769 3 2 1 1 186 187 788 787
770 3 2 1 1 787 788 225 226
771 3 2 1 1 187 188 789 788
772 3 2 1 1 788 789 224 225
773 3 2 1 1 188 189 790 789
774 3 2 1 1 789 790 223 224
775 3 2 1 1 189 190 791 790
776 3 2 1 1 790 791 222 223
777 3 2 1 1 190 191 792 791
778 3 2 1 1 791 792 221 222
779 3 2 1 1 191 192 793 792
780 3 2 1 1 792 793 220 221
781 3 2 1 1 192 193 794 793
782 3 2 1 1 793 794 219 220
783 3 2 1 1 193 194 795 794
784 3 2 1 1 794 795 218 219
785 3 2 1 1 194 195 796 795
786 3 2 1 1 795 796 217 218
787 3 2 1 1 195 196 797 796
788 3 2 1 1 796 797 216 217
789 3 2 1 1 196 197 798 797
790 3 2 1 1 797 798 215 216
791 3 2 1 1 197 198 799 798
792 3 2 1 1 798 799 214 215
793 3 2 1 1 198 199 800 799
794 3 2 1 1 799 800 213 214
795 3 2 1 1 199 200 801 800
796 3 2 1 1 800 801 212 213
797 3 2 1 1 200 201 802 801
798 3 2 1 1 801 802 211 212
799 3 2 1 1 201 202 803 802
800 3 2 1 1 802 803 210 211
801 3 2 1 1 202 203 804 803
802 3 2 1 1 803 804 209 210
803 3 2 1 1 203 204 805 804
804 3 2 1 1 804 805 208 209
805 3 2 1 1 204 205 806 805
806 3 2 1 1 805 806 207 208
807 3 2 1 1 205 2 206 806
808 3 2 1 1 806 206 3 207
809 3 2 2 2 3 407 807 207
810 3 2 2 2 407 4 408 807
811 3 2 2 2 207 807 808 208
812 3 2 2 2 807 408 409 808
813 3 2 2 2 208 808 809 209
814 3 2 2 2 808 409 410 809
815 3 2 2 2 209 809 810 210
816 3 2 2 2 809 410 411 810
817 3 2 2 2 210 810 811 211
818 3 2 2 2 810 411 412 811
819 3 2 2 2 211 811 812 212
820 3 2 2 2 811 412 413 812
821 3 2 2 2 212 812 813 213
822 3 2 2 2 812 413 414 813
823 3 2 2 2 213 813 814 214
824 3 2 2 2 813 414 415 814
825 3 2 2 2 214 814 815 215
826 3 2 2 2 814 415 416 815
827 3 2 2 2 215 815 816 216
828 3 2 2 2 815 416 417 816
829 3 2 2 2 216 816 817 217
830 3 2 2 2 816 417 418 817
831 3 2 2 2 217 817 818 218
832 3 2 2 2 817 418 419 818
833 3 2 2 2 218 818 819 219
834 3 2 2 2 818 419 420 819
835 3 2 2 2 219 819 820 220
836 3 2 2 2 819 420 421 820
837 3 2 2 2 220 820 821 221
838 3 2 2 2 820 421 422 821
839 3 2 2 2 221 821 822 222
840 3 2 2 2 821 422 423 822
841 3 2 2 2 222 822 823 223
842 3 2 2 2 822 423 424 823
843 3 2 2 2 223 823 824 224
844 3 2 2 2 823 424 425 824
845 3 2 2 2 224 824 825 225
846 3 2 2 2 824 425 426 825
847 3 2 2 2 225 825 826 226
848 3 2 2 2 825 426 427 826
849 3 2 2 2 226 826 827 227
850 3 2 2 2 826 427 428 827
851 3 2 2 2 227 827 828 228
852 3 2 2 2 827 428 429 828
853 3 2 2 2 228 828 829 229
854 3 2 2 2 828 429 430 829
855 3 2 2 2 229 829 830 230
856 3 2 2 2 829 430 431 830
857 3 2 2 2 230 830 831 231
858 3 2 2 2 830 431 432 831
859 3 2 2 2 231 831 832 232
860 3 2 2 2 831 432 433 832
861 3 2 2 2 232 832 833 233
862 3 2 2 2 832 433 434 833
863 3 2 2 2 233 833 834 234
864 3 2 2 2 833 434 435 834
865 3 2 2 2 234 834 835 235
866 3 2 2 2 834 435 436 835
867 3 2 2 2 235 835 836 236
868 3 2 2 2 835 436 437 836
869 3 2 2 2 236 836 837 237
870 3 2 2 2 836 437 438 837
871 3 2 2 2 237 837 838 238
872 3 2 2 2 837 438 439 838
873 3 2 2 2 238 838 839 239
874 3 2 2 2 838 439 440 839
875 3 2 2 2 239 839 840 240
876 3 2 2 2 839 440 441 840
877 3 2 2 2 240 840 841 241
878 3 2 2 2 840 441 442 841
879 3 2 2 2 241 841 842 242
880 3 2 2 2 841 442 443 842
881 3 2 2 2 242 842 843 243
882 3 2 2 2 842 443 444 843
883 3 2 2 2 243 843 844 244
884 3 2 2 2 843 444 445 844
885 3 2 2 2 244 844 845 245
886 3 2 2 2 844 445 446 845
887 3 2 2 2 245 845 846 246
888 3 2 2 2 845 446 447 846
889 3 2 2 2 246 846 847 247
890 3 2 2 2 846 447 448 847
891 3 2 2 2 247 847 848 248
892 3 2 2 2 847 448 449 848
893 3 2 2 2 248 848 849 249
894 3 2 2 2 848 449 450 849
895 3 2 2 2 249 849 850 250
896 3 2 2 2 849 450 451 850
897 3 2 2 2 250 850 851 251
898 3 2 2 2 850 451 452 851
899 3 2 2 2 251 851 852 252
900 3 2 2 2 851 452 453 852
901 3 2 2 2 252 852 853 253
902 3 2 2 2 852 453 454 853
903 3 2 2 2 253 853 854 254
904 3 2 2 2 853 454 455 854
905 3 2 2 2 254 854 855 255
906 3 2 2 2 854 455 456 855
907 3 2 2 2 255 855 856 256
908 3 2 2 2 855 456 457 856
909 3 2 2 2 256 856 857 257
910 3 2 2 2 856 457 458 857
911 3 2 2 2 257 857 858 258
912 3 2 2 2 857 458 459 858
913 3 2 2 2 258 858 859 259
914 3 2 2 2 858 459 460 859
915 3 2 2 2 259 859 860 260
916 3 2 2 2 859 460 461 860
917 3 2 2 2 260 860 861 261
918 3 2 2 2 860 461 462 861
919 3 2 2 2 261 861 862 262
920 3 2 2 2 861 462 463 862
921 3 2 2 2 262 862 863 263
922 3 2 2 2 862 463 464 863
923 3 2 2 2 263 863 864 264
924 3 2 2 2 863 464 465 864
925 3 2 2 2 264 864 865 265
926 3 2 2 2 864 465 466 865
927 3 2 2 2 265 865 866 266
928 3 2 2 2 865 466 467 866
929 3 2 2 2 266 866 867 267
930 3 2 2 2 866 467 468 867
931 3 2 2 2 267 867 868 268
932 3 2 2 2 867 468 469 868
933 3 2 2 2 268 868 869 269
934 3 2 2 2 868 469 470 869
935 3 2 2 2 269 869 870 270
936 3 2 2 2 869 470 471 870
937 3 2 2 2 270 870 871 271
938 3 2 2 2 870 471 472 871
939 3 2 2 2 271 871 872 272
940 3 2 2 2 871 472 473 872
941 3 2 2 2 272 872 873 273
942 3 2 2 2 872 473 474 873
943 3 2 2 2 273 873 874 274
944 3 2 2 2 873 474 475 874
945 3 2 2 2 274 874 875 275
946 3 2 2 2 874 475 476 875
947 3 2 2 2 275 875 876 276
948 3 2 2 2 875 476 477 876
949 3 2 2 2 276 876 877 277
950 3 2 2 2 876 477 478 877
951 3 2 2 2 277 877 878 278
952 3 2 2 2 877 478 479 878
953 3 2 2 2 278 878 879 279
954 3 2 2 2 878 479 480 879
955 3 2 2 2 279 879 880 280
956 3 2 2 2 879 480 481 880
957 3 2 2 2 280 880 881 281
958 3 2 2 2 880 481 482 881
959 3 2 2 2 281 881 882 282
960 3 2 2 2 881 482 483 882
961 3 2 2 2 282 882 883 283
962 3 2 2 2 882 483 484 883
963 3 2 2 2 283 883 884 284
964 3 2 2 2 883 484 485 884
965 3 2 2 2 284 884 885 285
966 3 2 2 2 884 485 486 885
967 3 2 2 2 285 885 886 286
968 3 2 2 2 885 486 487 886
969 3 2 2 2 286 886 887 287
970 3 2 2 2 886 487 488 887
971 3 2 2 2 287 887 888 288
972 3 2 2 2 887 488 489 888
973 3 2 2 2 288 888 889 289
974 3 2 2 2 888 489 490 889
975 3 2 2 2 289 889 890 290
976 3 2 2 2 889 490 491 890
977 3 2 2 2 290 890 891 291
978 3 2 2 2 890 491 492 891
979 3 2 2 2 291 891 892 292
980 3 2 2 2 891 492 493 892
981 3 2 2 2 292 892 893 293
982 3 2 2 2 892 493 494 893
983 3 2 2 2 293 893 894 294
984 3 2 2 2 893 494 495 894
985 3 2 2 2 294 894 895 295
986 3 2 2 2 894 495 496 895
987 3 2 2 2 295 895 896 296
988 3 2 2 2 895 496 497 896
989 3 2 2 2 296 896 897 297
990 3 2 2 2 896 497 498 897
991 3 2 2 2 297 897 898 298
992 3 2 2 2 897 498 499 898
993 3 2 2 2 298 898 899 299
994 3 2 2 2 898 499 500 899
995 3 2 2 2 299 899 900 300
996 3 2 2 2 899 500 501 900
997 3 2 2 2 300 900 901 301
998 3 2 2 2 900 501 502 901
999 3 2 2 2 301 901 902 302
1000 3 2 2 2 901 502 503 902
1001 3 2 2 2 302 902 903 303
1002 3 2 2 2 902 503 504 903
1003 3 2 2 2 303 903 904 304
1004 3 2 2 2 903 504 505 904
1005 3 2 2 2 304 904 905 305
1006 3 2 2 2 904 505 506 905
1007 3 2 2 2 305 905 906 306
1008 3 2 2 2 905 506 507 906
1009 3 2 2 2 306 906 907 307
1010 3 2 2 2 906 507 508 907
1011 3 2 2 2 307 907 908 308
1012 3 2 2 2 907 508 509 908
1013 3 2 2 2 308 908 909 309
1014 3 2 2 2 908 509 510 909
1015 3 2 2 2 309 909 910 310
1016 3 2 2 2 909 510 511 910
1017 3 2 2 2 310 910 911 311
1018 3 2 2 2 910 511 512 911
1019 3 2 2 2 311 911 912 312
1020 3 2 2 2 911 512 513 912
1021 3 2 2 2 312 912 913 313
1022 3 2 2 2 912 513 514 913
1023 3 2 2 2 313 913 914 314
1024 3 2 2 2 913 514 515 914
1025 3 2 2 2 314 914 915 315
1026 3 2 2 2 914 515 516 915
1027 3 2 2 2 315 915 916 316
1028 3 2 2 2 915 516 517 916
1029 3 2 2 2 316 916 917 317
1030 3 2 2 2 916 517 518 917
1031 3 2 2 2 317 917 918 318
1032 3 2 2 2 917 518 519 918
1033 3 2 2 2 318 918 919 319
1034 3 2 2 2 918 519 520 919
1035 3 2 2 2 319 919 920 320
1036 3 2 2 2 919 520 521 920
1037 3 2 2 2 320 920 921 321
1038 3 2 2 2 920 521 522 921
1039 3 2 2 2 321 921 922 322
1040 3 2 2 2 921 522 523 922
1041 3 2 2 2 322 922 923 323
1042 3 2 2 2 922 523 524 923
1043 3 2 2 2 323 923 924 324
1044 3 2 2 2 923 524 525 924
1045 3 2 2 2 324 924 925 325
1046 3 2 2 2 924 525 526 925
1047 3 2 2 2 325 925 926 326
1048 3 2 2 2 925 526 527 926
1049 3 2 2 2 326 926 927 327
1050 3 2 2 2 926 527 528 927
1051 3 2 2 2 327 927 928 328
1052 3 2 2 2 927 528 529 928
1053 3 2 2 2 328 928 929 329
1054 3 2 2 2 928 529 530 929
1055 3 2 2 2 329 929 930 330
1056 3 2 2 2 929 530 531 930
1057 3 2 2 2 330 930 931 331
1058 3 2 2 2 930 531 532 931
1059 3 2 2 2 331 931 932 332
1060 3 2 2 2 931 532 533 932
1061 3 2 2 2 332 932 933 333
1062 3 2 2 2 932 533 534 933
1063 3 2 2 2 333 933 934 334
1064 3 2 2 2 933 534 535 934
1065 3 2 2 2 334 934 935 335
1066 3 2 2 2 934 535 536 935
1067 3 2 2 2 335 935 936 336
1068 3 2 2 2 935 536 537 936
1069 3 2 2 2 336 936 937 337
1070 3 2 2 2 936 537 538 937
1071 3 2 2 2 337 937 938 338
1072 3 2 2 2 937 538 539 938
1073 3 2 2 2 338 938 939 339
1074 3 2 2 2 938 539 540 939
1075 3 2 2 2 339 939 940 340
1076 3 2 2 2 939 540 541 940
1077 3 2 2 2 340 940 941 341
1078 3 2 2 2 940 541 542 941
1079 3 2 2 2 341 941 942 342
1080 3 2 2 2 941 542 543 942
1081 3 2 2 2 342 942 943 343
1082 3 2 2 2 942 543 544 943
1083 3 2 2 2 343 943 944 344
1084 3 2 2 2 943 544 545 944
1085 3 2 2 2 344 944 945 345
1086 3 2 2 2 944 545 546 945
1087 3 2 2 2 345 945 946 346
1088 3 2 2 2 945 546 547 946
1089 3 2 2 2 346 946 947 347
1090 3 2 2 2 946 547 548 947
1091 3 2 2 2 347 947 948 348
1092 3 2 2 2 947 548 549 948
1093 3 2 2 2 348 948 949 349
1094 3 2 2 2 948 549 550 949
1095 3 2 2 2 349 949 950 350
1096 3 2 2 2 949 550 551 950
1097 3 2 2 2 350 950 951 351
1098 3 2 2 2 950 551 552 951
1099 3 2 2 2 351 951 952 352
1100 3 2 2 2 951 552 553 952
1101 3 2 2 2 352 952 953 353
1102 3 2 2 2 952 553 554 953
1103 3 2 2 2 353 953 954 354
1104 3 2 2 2 953 554 555 954
1105 3 2 2 2 354 954 955 355
1106 3 2 2 2 954 555 556 955
1107 3 2 2 2 355 955 956 356
1108 3 2 2 2 955 556 557 956
1109 3 2 2 2 356 956 957 357
1110 3 2 2 2 956 557 558 957
1111 3 2 2 2 357 957 958 358
1112 3 2 2 2 957 558 559 958
1113 3 2 2 2 358 958 959 359
1114 3 2 2 2 958 559 560 959
1115 3 2 2 2 359 959 960 360
1116 3 2 2 2 959 560 561 960
1117 3 2 2 2 360 960 961 361
1118 3 2 2 2 960 561 562 961
1119 3 2 2 2 361 961 962 362
1120 3 2 2 2 961 562 563 962
1121 3 2 2 2 362 962 963 363
1122 3 2 2 2 962 563 564 963
1123 3 2 2 2 363 963 964 364
1124 3 2 2 2 963 564 565 964
1125 3 2 2 2 364 964 965 365
1126 3 2 2 2 964 565 566 965
1127 3 2 2 2 365 965 966 366
1128 3 2 2 2 965 566 567 966
1129 3 2 2 2 366 966 967 367
1130 3 2 2 2 966 567 568 967
1131 3 2 2 2 367 967 968 368
1132 3 2 2 2 967 568 569 968
1133 3 2 2 2 368 968 969 369
1134 3 2 2 2 968 569 570 969
1135 3 2 2 2 369 969 970 370
1136 3 2 2 2 969 570 571 970
1137 3 2 2 2 370 970 971 371
1138 3 2 2 2 970 571 572 971
1139 3 2 2 2 371 971 972 372
1140 3 2 2 2 971 572 573 972
1141 3 2 2 2 372 972 973 373
1142 3 2 2 2 972 573 574 973
1143 3 2 2 2 373 973 974 374
1144 3 2 2 2 973 574 575 974
1145 3 2 2 2 374 974 975 375
1146 3 2 2 2 974 575 576 975
1147 3 2 2 2 375 975 976 376
1148 3 2 2 2 975 576 577 976
1149 3 2 2 2 376 976 977 377
1150 3 2 2 2 976 577 578 977
1151 3 2 2 2 377 977 978 378
1152 3 2 2 2 977 578 579 978
1153 3 2 2 2 378 978 979 379
1154 3 2 2 2 978 579 580 979
1155 3 2 2 2 379 979 980 380
1156 3 2 2 2 979 580 581 980
1157 3 2 2 2 380 980 981 381
1158 3 2 2 2 980 581 582 981
1159 3 2 2 2 381 981 982 382
1160 3 2 2 2 981 582 583 982
1161 3 2 2 2 382 982 983 383
1162 3 2 2 2 982 583 584 983
1163 3 2 2 2 383 983 984 384
1164 3 2 2 2 983 584 585 984
1165 3 2 2 2 384 984 985 385
1166 3 2 2 2 984 585 586 985
1167 3 2 2 2 385 985 986 386
1168 3 2 2 2 985 586 587 986
1169 3 2 2 2 386 986 987 387
1170 3 2 2 2 986 587 588 987
1171 3 2 2 2 387 987 988 388
1172 3 2 2 2 987 588 589 988
1173 3 2 2 2 388 988 989 389
1174 3 2 2 2 988 589 590 989
1175 3 2 2 2 389 989 990 390
1176 3 2 2 2 989 590 591 990
1177 3 2 2 2 390 990 991 391
1178 3 2 2 2 990 591 592 991
1179 3 2 2 2 391 991 992 392
1180 3 2 2 2 991 592 593 992
1181 3 2 2 2 392 992 993 393
1182 3 2 2 2 992 593 594 993
1183 3 2 2 2 393 993 994 394
1184 3 2 2 2 993 594 595 994
1185 3 2 2 2 394 994 995 395
1186 3 2 2 2 994 595 596 995
1187 3 2 2 2 395 995 996 396
1188 3 2 2 2 995 596 597 996
1189 3 2 2 2 396 996 997 397
1190 3 2 2 2 996 597 598 997
1191 3 2 2 2 397 997 998 398
1192 3 2 2 2 997 598 599 998
1193 3 2 2 2 398 998 999 399
1194 3 2 2 2 998 599 600 999
1195 3 2 2 2 399 999 1000 400
1196 3 2 2 2 999 600 601 1000
1197 3 2 2 2 400 1000 1001 401
1198 3 2 2 2 1000 601 602 1001
1199 3 2 2 2 401 1001 1002 402
1200 3 2 2 2 1001 602 603 1002
1201 3 2 2 2 402 1002 1003 403
1202 3 2 2 2 1002 603 604 1003
1203 3 2 2 2 403 1003 1004 404
1204 3 2 2 2 1003 604 605 1004
1205 3 2 2 2 404 1004 1005 405
1206 3 2 2 2 1004 605 606 1005
1207 3 2 2 2 405 1005 607 5
1208 3 2 2 2 1005 606 6 607
$EndElements
