$MeshFormat
2.2 0 8
$EndMeshFormat
$PhysicalNames
7
2 1 "bottom"
2 2 "front"
2 3 "right"
2 4 "back"
2 5 "left"
2 6 "top"
3 1 "domain"
$EndPhysicalNames
$Nodes
369
1 0 0 0
2 1 0 0
3 1 1 0
4 0 1 0
5 0 0 20
6 1 0 20
7 1 1 20
8 0 1 20
9 0.4999999999986921 0 0
10 1 0.4999999999986921 0
11 0.5000000000020595 1 0
12 0 0.5000000000020595 0
13 0.4999999999986921 0 20
14 1 0.4999999999986921 20
15 0.5000000000020595 1 20
16 0 0.5000000000020595 20
17 -3.077914851215557e-05 -3.077914851215557e-05 0.5
18 -0.0001223587092621162 -0.0001223587092621162 1
19 -0.0002724836895290803 -0.0002724836895290803 1.5
20 -0.0004774575140626314 -0.0004774575140626314 2
21 -0.0007322330470336311 -0.0007322330470336311 2.5
22 -0.001030536869268817 -0.001030536869268817 3
23 -0.001365023750651133 -0.001365023750651133 3.5
24 -0.001727457514062631 -0.001727457514062631 4
25 -0.002108913837399423 -0.002108913837399423 4.5
26 -0.0025 -0.0025 5
27 -0.002891086162600576 -0.002891086162600576 5.5
28 -0.003272542485937369 -0.003272542485937369 6
29 -0.003634976249348867 -0.003634976249348867 6.5
30 -0.003969463130731182 -0.003969463130731182 7
31 -0.004267766952966369 -0.004267766952966369 7.5
32 -0.004522542485937369 -0.004522542485937369 8
33 -0.00472751631047092 -0.00472751631047092 8.5
34 -0.004877641290737885 -0.004877641290737885 9
35 -0.004969220851487845 -0.004969220851487845 9.5
36 -0.005 -0.005 10
37 -0.004969220851487845 -0.004969220851487845 10.5
38 -0.004877641290737885 -0.004877641290737885 11
39 -0.00472751631047092 -0.00472751631047092 11.5
40 -0.004522542485937369 -0.004522542485937369 12
41 -0.004267766952966369 -0.004267766952966369 12.5
42 -0.003969463130731183 -0.003969463130731183 13
43 -0.003634976249348867 -0.003634976249348867 13.5
44 -0.003272542485937369 -0.003272542485937369 14
45 -0.002891086162600577 -0.002891086162600577 14.5
46 -0.0025 -0.0025 15
47 -0.002108913837399423 -0.002108913837399423 15.5
48 -0.001727457514062632 -0.001727457514062632 16
49 -0.001365023750651133 -0.001365023750651133 16.5
50 -0.001030536869268818 -0.001030536869268818 17
51 -0.0007322330470336316 -0.0007322330470336316 17.5
52 -0.0004774575140626316 -0.0004774575140626316 18
53 -0.0002724836895290805 -0.0002724836895290805 18.5
54 -0.0001223587092621162 -0.0001223587092621162 19
55 -3.077914851215585e-05 -3.077914851215585e-05 19.5
56 0.9999692208514879 -3.077914851215557e-05 0.5
57 0.9998776412907379 -0.0001223587092621162 1
58 0.999727516310471 -0.0002724836895290803 1.5
59 0.9995225424859374 -0.0004774575140626314 2
60 0.9992677669529664 -0.0007322330470336311 2.5
61 0.9989694631307312 -0.001030536869268817 3
62 0.9986349762493488 -0.001365023750651133 3.5
63 0.9982725424859373 -0.001727457514062631 4
64 0.9978910861626006 -0.002108913837399423 4.5
65 0.9975000000000001 -0.0025 5
66 0.9971089138373994 -0.002891086162600576 5.5
67 0.9967274575140627 -0.003272542485937369 6
68 0.9963650237506512 -0.003634976249348867 6.5
69 0.9960305368692688 -0.003969463130731182 7
70 0.9957322330470336 -0.004267766952966369 7.5
71 0.9954774575140626 -0.004522542485937369 8
72 0.995272483689529 -0.00472751631047092 8.5
73 0.9951223587092621 -0.004877641290737885 9
74 0.9950307791485121 -0.004969220851487845 9.5
75 0.995 -0.005 10
76 0.9950307791485121 -0.004969220851487845 10.5
77 0.9951223587092621 -0.004877641290737885 11
78 0.995272483689529 -0.00472751631047092 11.5
79 0.9954774575140626 -0.004522542485937369 12
80 0.9957322330470336 -0.004267766952966369 12.5
81 0.9960305368692688 -0.003969463130731183 13
82 0.9963650237506512 -0.003634976249348867 13.5
83 0.9967274575140627 -0.003272542485937369 14
84 0.9971089138373994 -0.002891086162600577 14.5
85 0.9975000000000001 -0.0025 15
86 0.9978910861626006 -0.002108913837399423 15.5
87 0.9982725424859373 -0.001727457514062632 16
88 0.9986349762493488 -0.001365023750651133 16.5
89 0.9989694631307312 -0.001030536869268818 17
90 0.9992677669529664 -0.0007322330470336316 17.5
91 0.9995225424859374 -0.0004774575140626316 18
92 0.999727516310471 -0.0002724836895290805 18.5
93 0.9998776412907379 -0.0001223587092621162 19
94 0.9999692208514879 -3.077914851215585e-05 19.5
95 0.9999692208514879 0.9999692208514879 0.5
96 0.9998776412907379 0.9998776412907379 1
97 0.999727516310471 0.999727516310471 1.5
98 0.9995225424859374 0.9995225424859374 2
99 0.9992677669529664 0.9992677669529664 2.5
100 0.9989694631307312 0.9989694631307312 3
101 0.9986349762493488 0.9986349762493488 3.5
102 0.9982725424859373 0.9982725424859373 4
103 0.9978910861626006 0.9978910861626006 4.5
104 0.9975000000000001 0.9975000000000001 5
105 0.9971089138373994 0.9971089138373994 5.5
106 0.9967274575140627 0.9967274575140627 6
107 0.9963650237506512 0.9963650237506512 6.5
108 0.9960305368692688 0.9960305368692688 7
109 0.9957322330470336 0.9957322330470336 7.5
110 0.9954774575140626 0.9954774575140626 8
111 0.995272483689529 0.995272483689529 8.5
112 0.9951223587092621 0.9951223587092621 9
113 0.9950307791485121 0.9950307791485121 9.5
114 0.995 0.995 10
115 0.9950307791485121 0.9950307791485121 10.5
116 0.9951223587092621 0.9951223587092621 11
117 0.995272483689529 0.995272483689529 11.5
118 0.9954774575140626 0.9954774575140626 12
119 0.9957322330470336 0.9957322330470336 12.5
120 0.9960305368692688 0.9960305368692688 13
121 0.9963650237506512 0.9963650237506512 13.5
122 0.9967274575140627 0.9967274575140627 14
123 0.9971089138373994 0.9971089138373994 14.5
124 0.9975000000000001 0.9975000000000001 15
125 0.9978910861626006 0.9978910861626006 15.5
126 0.9982725424859373 0.9982725424859373 16
127 0.9986349762493488 0.9986349762493488 16.5
128 0.9989694631307312 0.9989694631307312 17
129 0.9992677669529664 0.9992677669529664 17.5
130 0.9995225424859374 0.9995225424859374 18
131 0.999727516310471 0.999727516310471 18.5
132 0.9998776412907379 0.9998776412907379 19
133 0.9999692208514879 0.9999692208514879 19.5
134 -3.077914851215557e-05 0.9999692208514879 0.5
135 -0.0001223587092621162 0.9998776412907379 1
136 -0.0002724836895290803 0.999727516310471 1.5
137 -0.0004774575140626314 0.9995225424859374 2
138 -0.0007322330470336311 0.9992677669529664 2.5
139 -0.001030536869268817 0.9989694631307312 3
140 -0.001365023750651133 0.9986349762493488 3.5
141 -0.001727457514062631 0.9982725424859373 4
142 -0.002108913837399423 0.9978910861626006 4.5
143 -0.0025 0.9975000000000001 5
144 -0.002891086162600576 0.9971089138373994 5.5
145 -0.003272542485937369 0.9967274575140627 6
146 -0.003634976249348867 0.9963650237506512 6.5
147 -0.003969463130731182 0.9960305368692688 7
148 -0.004267766952966369 0.9957322330470336 7.5
149 -0.004522542485937369 0.9954774575140626 8
150 -0.00472751631047092 0.995272483689529 8.5
151 -0.004877641290737885 0.9951223587092621 9
152 -0.004969220851487845 0.9950307791485121 9.5
153 -0.005 0.995 10
154 -0.004969220851487845 0.9950307791485121 10.5
155 -0.004877641290737885 0.9951223587092621 11
156 -0.00472751631047092 0.995272483689529 11.5
157 -0.004522542485937369 0.9954774575140626 12
158 -0.004267766952966369 0.9957322330470336 12.5
159 -0.003969463130731183 0.9960305368692688 13
160 -0.003634976249348867 0.9963650237506512 13.5
161 -0.003272542485937369 0.9967274575140627 14
162 -0.002891086162600577 0.9971089138373994 14.5
163 -0.0025 0.9975000000000001 15
164 -0.002108913837399423 0.9978910861626006 15.5
165 -0.001727457514062632 0.9982725424859373 16
166 -0.001365023750651133 0.9986349762493488 16.5
167 -0.001030536869268818 0.9989694631307312 17
168 -0.0007322330470336316 0.9992677669529664 17.5
169 -0.0004774575140626316 0.9995225424859374 18
170 -0.0002724836895290805 0.999727516310471 18.5
171 -0.0001223587092621162 0.9998776412907379 19
172 -3.077914851215585e-05 0.9999692208514879 19.5
173 0.5000000000003758 0.5000000000003758 0
174 0.4999692208501799 -3.077914851215557e-05 0.5
175 0.49987764128943 -0.0001223587092621162 1
176 0.499727516309163 -0.0002724836895290803 1.5
177 0.4995225424846295 -0.0004774575140626314 2
178 0.4992677669516585 -0.0007322330470336311 2.5
179 0.4989694631294233 -0.001030536869268817 3
180 0.498634976248041 -0.001365023750651133 3.5
181 0.4982725424846295 -0.001727457514062631 4
182 0.4978910861612927 -0.002108913837399423 4.5
183 0.4974999999986921 -0.0025 5
184 0.4971089138360915 -0.002891086162600576 5.5
185 0.4967274575127547 -0.003272542485937369 6
186 0.4963650237493432 -0.003634976249348867 6.5
187 0.4960305368679609 -0.003969463130731182 7
188 0.4957322330457257 -0.004267766952966369 7.5
189 0.4954774575127547 -0.004522542485937369 8
190 0.4952724836882212 -0.00472751631047092 8.5
191 0.4951223587079542 -0.004877641290737885 9
192 0.4950307791472043 -0.004969220851487845 9.5
193 0.4949999999986921 -0.005 10
194 0.4950307791472043 -0.004969220851487845 10.5
195 0.4951223587079542 -0.004877641290737885 11
196 0.4952724836882212 -0.00472751631047092 11.5
197 0.4954774575127547 -0.004522542485937369 12
198 0.4957322330457257 -0.004267766952966369 12.5
199 0.4960305368679609 -0.003969463130731183 13
200 0.4963650237493432 -0.003634976249348867 13.5
201 0.4967274575127547 -0.003272542485937369 14
202 0.4971089138360915 -0.002891086162600577 14.5
203 0.4974999999986921 -0.0025 15
204 0.4978910861612927 -0.002108913837399423 15.5
205 0.4982725424846295 -0.001727457514062632 16
206 0.498634976248041 -0.001365023750651133 16.5
207 0.4989694631294233 -0.001030536869268818 17
208 0.4992677669516585 -0.0007322330470336316 17.5
209 0.4995225424846295 -0.0004774575140626316 18
210 0.499727516309163 -0.0002724836895290805 18.5
211 0.49987764128943 -0.0001223587092621162 19
212 0.4999692208501799 -3.077914851215585e-05 19.5
213 0.9999692208514879 0.4999692208501799 0.5
214 0.9998776412907379 0.49987764128943 1
215 0.999727516310471 0.499727516309163 1.5
216 0.9995225424859374 0.4995225424846295 2
217 0.9992677669529664 0.4992677669516585 2.5
218 0.9989694631307312 0.4989694631294233 3
219 0.9986349762493488 0.498634976248041 3.5
220 0.9982725424859373 0.4982725424846295 4
221 0.9978910861626006 0.4978910861612927 4.5
222 0.9975000000000001 0.4974999999986921 5
223 0.9971089138373994 0.4971089138360915 5.5
224 0.9967274575140627 0.4967274575127547 6
225 0.9963650237506512 0.4963650237493432 6.5
226 0.9960305368692688 0.4960305368679609 7
227 0.9957322330470336 0.4957322330457257 7.5
228 0.9954774575140626 0.4954774575127547 8
229 0.995272483689529 0.4952724836882212 8.5
230 0.9951223587092621 0.4951223587079542 9
231 0.9950307791485121 0.4950307791472043 9.5
232 0.995 0.4949999999986921 10
233 0.9950307791485121 0.4950307791472043 10.5
234 0.9951223587092621 0.4951223587079542 11
235 0.995272483689529 0.4952724836882212 11.5
236 0.9954774575140626 0.4954774575127547 12
237 0.9957322330470336 0.4957322330457257 12.5
238 0.9960305368692688 0.4960305368679609 13
239 0.9963650237506512 0.4963650237493432 13.5
240 0.9967274575140627 0.4967274575127547 14
241 0.9971089138373994 0.4971089138360915 14.5
242 0.9975000000000001 0.4974999999986921 15
243 0.9978910861626006 0.4978910861612927 15.5
244 0.9982725424859373 0.4982725424846295 16
245 0.9986349762493488 0.498634976248041 16.5
246 0.9989694631307312 0.4989694631294233 17
247 0.9992677669529664 0.4992677669516585 17.5
248 0.9995225424859374 0.4995225424846295 18
249 0.999727516310471 0.499727516309163 18.5
250 0.9998776412907379 0.49987764128943 19
251 0.9999692208514879 0.4999692208501799 19.5
252 0.4999692208535473 0.9999692208514879 0.5
253 0.4998776412927973 0.9998776412907379 1
254 0.4997275163125304 0.999727516310471 1.5
255 0.4995225424879968 0.9995225424859374 2
256 0.4992677669550258 0.9992677669529664 2.5
257 0.4989694631327907 0.9989694631307312 3
258 0.4986349762514083 0.9986349762493488 3.5
259 0.4982725424879969 0.9982725424859373 4
260 0.49789108616466 0.9978910861626006 4.5
261 0.4975000000020595 0.9975000000000001 5
262 0.4971089138394589 0.9971089138373994 5.5
263 0.4967274575161221 0.9967274575140627 6
264 0.4963650237527106 0.9963650237506512 6.5
265 0.4960305368713283 0.9960305368692688 7
266 0.4957322330490931 0.9957322330470336 7.5
267 0.4954774575161221 0.9954774575140626 8
268 0.4952724836915885 0.995272483689529 8.5
269 0.4951223587113216 0.9951223587092621 9
270 0.4950307791505716 0.9950307791485121 9.5
271 0.4950000000020595 0.995 10
272 0.4950307791505716 0.9950307791485121 10.5
273 0.4951223587113216 0.9951223587092621 11
274 0.4952724836915885 0.995272483689529 11.5
275 0.4954774575161221 0.9954774575140626 12
276 0.4957322330490931 0.9957322330470336 12.5
277 0.4960305368713283 0.9960305368692688 13
278 0.4963650237527106 0.9963650237506512 13.5
279 0.4967274575161221 0.9967274575140627 14
280 0.4971089138394589 0.9971089138373994 14.5
281 0.4975000000020595 0.9975000000000001 15
282 0.49789108616466 0.9978910861626006 15.5
283 0.4982725424879969 0.9982725424859373 16
284 0.4986349762514083 0.9986349762493488 16.5
285 0.4989694631327907 0.9989694631307312 17
286 0.4992677669550258 0.9992677669529664 17.5
287 0.4995225424879968 0.9995225424859374 18
288 0.4997275163125304 0.999727516310471 18.5
289 0.4998776412927973 0.9998776412907379 19
290 0.4999692208535473 0.9999692208514879 19.5
291 -3.077914851215557e-05 0.4999692208535473 0.5
292 -0.0001223587092621162 0.4998776412927973 1
293 -0.0002724836895290803 0.4997275163125304 1.5
294 -0.0004774575140626314 0.4995225424879968 2
295 -0.0007322330470336311 0.4992677669550258 2.5
296 -0.001030536869268817 0.4989694631327907 3
297 -0.001365023750651133 0.4986349762514083 3.5
298 -0.001727457514062631 0.4982725424879969 4
299 -0.002108913837399423 0.49789108616466 4.5
300 -0.0025 0.4975000000020595 5
301 -0.002891086162600576 0.4971089138394589 5.5
302 -0.003272542485937369 0.4967274575161221 6
303 -0.003634976249348867 0.4963650237527106 6.5
304 -0.003969463130731182 0.4960305368713283 7
305 -0.004267766952966369 0.4957322330490931 7.5
306 -0.004522542485937369 0.4954774575161221 8
307 -0.00472751631047092 0.4952724836915885 8.5
308 -0.004877641290737885 0.4951223587113216 9
309 -0.004969220851487845 0.4950307791505716 9.5
310 -0.005 0.4950000000020595 10
311 -0.004969220851487845 0.4950307791505716 10.5
312 -0.004877641290737885 0.4951223587113216 11
313 -0.00472751631047092 0.4952724836915885 11.5
314 -0.004522542485937369 0.4954774575161221 12
315 -0.004267766952966369 0.4957322330490931 12.5
316 -0.003969463130731183 0.4960305368713283 13
317 -0.003634976249348867 0.4963650237527106 13.5
318 -0.003272542485937369 0.4967274575161221 14
319 -0.002891086162600577 0.4971089138394589 14.5
320 -0.0025 0.4975000000020595 15
321 -0.002108913837399423 0.49789108616466 15.5
322 -0.001727457514062632 0.4982725424879969 16
323 -0.001365023750651133 0.4986349762514083 16.5
324 -0.001030536869268818 0.4989694631327907 17
325 -0.0007322330470336316 0.4992677669550258 17.5
326 -0.0004774575140626316 0.4995225424879968 18
327 -0.0002724836895290805 0.4997275163125304 18.5
328 -0.0001223587092621162 0.4998776412927973 19
329 -3.077914851215585e-05 0.4999692208535473 19.5
330 0.5000000000003758 0.5000000000003758 20
331 0.4999692208518637 0.4999692208518637 0.5
332 0.4998776412911137 0.4998776412911137 1
333 0.4997275163108467 0.4997275163108467 1.5
334 0.4995225424863132 0.4995225424863132 2
335 0.4992677669533422 0.4992677669533422 2.5
336 0.498969463131107 0.498969463131107 3
337 0.4986349762497247 0.4986349762497247 3.5
338 0.4982725424863132 0.4982725424863132 4
339 0.4978910861629764 0.4978910861629764 4.5
340 0.4975000000003758 0.4975000000003758 5
341 0.4971089138377752 0.4971089138377752 5.5
342 0.4967274575144384 0.4967274575144384 6
343 0.4963650237510269 0.4963650237510269 6.5
344 0.4960305368696446 0.4960305368696446 7
345 0.4957322330474094 0.4957322330474094 7.5
346 0.4954774575144384 0.4954774575144384 8
347 0.4952724836899049 0.4952724836899049 8.5
348 0.4951223587096379 0.4951223587096379 9
349 0.495030779148888 0.495030779148888 9.5
350 0.4950000000003758 0.4950000000003758 10
351 0.495030779148888 0.495030779148888 10.5
352 0.4951223587096379 0.4951223587096379 11
353 0.4952724836899049 0.4952724836899049 11.5
354 0.4954774575144384 0.4954774575144384 12
355 0.4957322330474094 0.4957322330474094 12.5
356 0.4960305368696446 0.4960305368696446 13
357 0.4963650237510269 0.4963650237510269 13.5
358 0.4967274575144384 0.4967274575144384 14
359 0.4971089138377752 0.4971089138377752 14.5
360 0.4975000000003758 0.4975000000003758 15
361 0.4978910861629764 0.4978910861629764 15.5
362 0.4982725424863132 0.4982725424863132 16
363 0.4986349762497247 0.4986349762497247 16.5
364 0.498969463131107 0.498969463131107 17
365 0.4992677669533422 0.4992677669533422 17.5
366 0.4995225424863132 0.4995225424863132 18
367 0.4997275163108467 0.4997275163108467 18.5
368 0.4998776412911137 0.4998776412911137 19
369 0.4999692208518636 0.4999692208518636 19.5
$EndNodes
$Elements
488
1 3 2 1 1 1 9 173 12
2 3 2 1 1 12 173 11 4
3 3 2 1 1 9 2 10 173
4 3 2 1 1 173 10 3 11
5 3 2 2 13 1 9 174 17
6 3 2 2 13 17 174 175 18
7 3 2 2 13 18 175 176 19
8 3 2 2 13 19 176 177 20
9 3 2 2 13 20 177 178 21
10 3 2 2 13 21 178 179 22
11 3 2 2 13 22 179 180 23
12 3 2 2 13 23 180 181 24
13 3 2 2 13 24 181 182 25
14 3 2 2 13 25 182 183 26
15 3 2 2 13 26 183 184 27
16 3 2 2 13 27 184 185 28
17 3 2 2 13 28 185 186 29
18 3 2 2 13 29 186 187 30
19 3 2 2 13 30 187 188 31
20 3 2 2 13 31 188 189 32
21 3 2 2 13 32 189 190 33
22 3 2 2 13 33 190 191 34
23 3 2 2 13 34 191 192 35
24 3 2 2 13 35 192 193 36
25 3 2 2 13 36 193 194 37
26 3 2 2 13 37 194 195 38
27 3 2 2 13 38 195 196 39
28 3 2 2 13 39 196 197 40
29 3 2 2 13 40 197 198 41
30 3 2 2 13 41 198 199 42
31 3 2 2 13 42 199 200 43
32 3 2 2 13 43 200 201 44
33 3 2 2 13 44 201 202 45
34 3 2 2 13 45 202 203 46
35 3 2 2 13 46 203 204 47
36 3 2 2 13 47 204 205 48
37 3 2 2 13 48 205 206 49
38 3 2 2 13 49 206 207 50
39 3 2 2 13 50 207 208 51
40 3 2 2 13 51 208 209 52
41 3 2 2 13 52 209 210 53
42 3 2 2 13 53 210 211 54
43 3 2 2 13 54 211 212 55
44 3 2 2 13 55 212 13 5
45 3 2 2 13 9 2 56 174
46 3 2 2 13 174 56 57 175
47 3 2 2 13 175 57 58 176
48 3 2 2 13 176 58 59 177
49 3 2 2 13 177 59 60 178
50 3 2 2 13 178 60 61 179
51 3 2 2 13 179 61 62 180
52 3 2 2 13 180 62 63 181
53 3 2 2 13 181 63 64 182
54 3 2 2 13 182 64 65 183
55 3 2 2 13 183 65 66 184
56 3 2 2 13 184 66 67 185
57 3 2 2 13 185 67 68 186
58 3 2 2 13 186 68 69 187
59 3 2 2 13 187 69 70 188
60 3 2 2 13 188 70 71 189
61 3 2 2 13 189 71 72 190
62 3 2 2 13 190 72 73 191
63 3 2 2 13 191 73 74 192
64 3 2 2 13 192 74 75 193
65 3 2 2 13 193 75 76 194
66 3 2 2 13 194 76 77 195
67 3 2 2 13 195 77 78 196
68 3 2 2 13 196 78 79 197
69 3 2 2 13 197 79 80 198
70 3 2 2 13 198 80 81 199
71 3 2 2 13 199 81 82 200
72 3 2 2 13 200 82 83 201
73 3 2 2 13 201 83 84 202
74 3 2 2 13 202 84 85 203
75 3 2 2 13 203 85 86 204
76 3 2 2 13 204 86 87 205
77 3 2 2 13 205 87 88 206
78 3 2 2 13 206 88 89 207
79 3 2 2 13 207 89 90 208
80 3 2 2 13 208 90 91 209
81 3 2 2 13 209 91 92 210
82 3 2 2 13 210 92 93 211
83 3 2 2 13 211 93 94 212
84 3 2 2 13 212 94 6 13
85 3 2 3 17 2 10 213 56
86 3 2 3 17 56 213 214 57
87 3 2 3 17 57 214 215 58
88 3 2 3 17 58 215 216 59
89 3 2 3 17 59 216 217 60
90 3 2 3 17 60 217 218 61
91 3 2 3 17 61 218 219 62
92 3 2 3 17 62 219 220 63
93 3 2 3 17 63 220 221 64
94 3 2 3 17 64 221 222 65
95 3 2 3 17 65 222 223 66
96 3 2 3 17 66 223 224 67
97 3 2 3 17 67 224 225 68
98 3 2 3 17 68 225 226 69
99 3 2 3 17 69 226 227 70
100 3 2 3 17 70 227 228 71
101 3 2 3 17 71 228 229 72
102 3 2 3 17 72 229 230 73
103 3 2 3 17 73 230 231 74
104 3 2 3 17 74 231 232 75
105 3 2 3 17 75 232 233 76
106 3 2 3 17 76 233 234 77
107 3 2 3 17 77 234 235 78
108 3 2 3 17 78 235 236 79
109 3 2 3 17 79 236 237 80
110 3 2 3 17 80 237 238 81
111 3 2 3 17 81 238 239 82
112 3 2 3 17 82 239 240 83
113 3 2 3 17 83 240 241 84
114 3 2 3 17 84 241 242 85
115 3 2 3 17 85 242 243 86
116 3 2 3 17 86 243 244 87
117 3 2 3 17 87 244 245 88
118 3 2 3 17 88 245 246 89
119 3 2 3 17 89 246 247 90
120 3 2 3 17 90 247 248 91
121 3 2 3 17 91 248 249 92
122 3 2 3 17 92 249 250 93
123 3 2 3 17 93 250 251 94
124 3 2 3 17 94 251 14 6
125 3 2 3 17 10 3 95 213
126 3 2 3 17 213 95 96 214
127 3 2 3 17 214 96 97 215
128 3 2 3 17 215 97 98 216
129 3 2 3 17 216 98 99 217
130 3 2 3 17 217 99 100 218
131 3 2 3 17 218 100 101 219
132 3 2 3 17 219 101 102 220
133 3 2 3 17 220 102 103 221
134 3 2 3 17 221 103 104 222
135 3 2 3 17 222 104 105 223
136 3 2 3 17 223 105 106 224
137 3 2 3 17 224 106 107 225
138 3 2 3 17 225 107 108 226
139 3 2 3 17 226 108 109 227
140 3 2 3 17 227 109 110 228
141 3 2 3 17 228 110 111 229
142 3 2 3 17 229 111 112 230
143 3 2 3 17 230 112 113 231
144 3 2 3 17 231 113 114 232
145 3 2 3 17 232 114 115 233
146 3 2 3 17 233 115 116 234
147 3 2 3 17 234 116 117 235
148 3 2 3 17 235 117 118 236
149 3 2 3 17 236 118 119 237
150 3 2 3 17 237 119 120 238
151 3 2 3 17 238 120 121 239
152 3 2 3 17 239 121 122 240
153 3 2 3 17 240 122 123 241
154 3 2 3 17 241 123 124 242
155 3 2 3 17 242 124 125 243
156 3 2 3 17 243 125 126 244
157 3 2 3 17 244 126 127 245
158 3 2 3 17 245 127 128 246
159 3 2 3 17 246 128 129 247
160 3 2 3 17 247 129 130 248
161 3 2 3 17 248 130 131 249
162 3 2 3 17 249 131 132 250
163 3 2 3 17 250 132 133 251
164 3 2 3 17 251 133 7 14
165 3 2 4 21 3 11 252 95
166 3 2 4 21 95 252 253 96
167 3 2 4 21 96 253 254 97
168 3 2 4 21 97 254 255 98
169 3 2 4 21 98 255 256 99
170 3 2 4 21 99 256 257 100
171 3 2 4 21 100 257 258 101
172 3 2 4 21 101 258 259 102
173 3 2 4 21 102 259 260 103
174 3 2 4 21 103 260 261 104
175 3 2 4 21 104 261 262 105
176 3 2 4 21 105 262 263 106
177 3 2 4 21 106 263 264 107
178 3 2 4 21 107 264 265 108
179 3 2 4 21 108 265 266 109
180 3 2 4 21 109 266 267 110
181 3 2 4 21 110 267 268 111
182 3 2 4 21 111 268 269 112
183 3 2 4 21 112 269 270 113
184 3 2 4 21 113 270 271 114
185 3 2 4 21 114 271 272 115
186 3 2 4 21 115 272 273 116
187 3 2 4 21 116 273 274 117
188 3 2 4 21 117 274 275 118
189 3 2 4 21 118 275 276 119
190 3 2 4 21 119 276 277 120
191 3 2 4 21 120 277 278 121
192 3 2 4 21 121 278 279 122
193 3 2 4 21 122 279 280 123
194 3 2 4 21 123 280 281 124
195 3 2 4 21 124 281 282 125
196 3 2 4 21 125 282 283 126
197 3 2 4 21 126 283 284 127
198 3 2 4 21 127 284 285 128
199 3 2 4 21 128 285 286 129
200 3 2 4 21 129 286 287 130
201 3 2 4 21 130 287 288 131
202 3 2 4 21 131 288 289 132
203 3 2 4 21 132 289 290 133
204 3 2 4 21 133 290 15 7
205 3 2 4 21 11 4 134 252
206 3 2 4 21 252 134 135 253
207 3 2 4 21 253 135 136 254
208 3 2 4 21 254 136 137 255
209 3 2 4 21 255 137 138 256
210 3 2 4 21 256 138 139 257
211 3 2 4 21 257 139 140 258
212 3 2 4 21 258 140 141 259
213 3 2 4 21 259 141 142 260
214 3 2 4 21 260 142 143 261
215 3 2 4 21 261 143 144 262
216 3 2 4 21 262 144 145 263
217 3 2 4 21 263 145 146 264
218 3 2 4 21 264 146 147 265
219 3 2 4 21 265 147 148 266
220 3 2 4 21 266 148 149 267
221 3 2 4 21 267 149 150 268
222 3 2 4 21 268 150 151 269
223 3 2 4 21 269 151 152 270
224 3 2 4 21 270 152 153 271
225 3 2 4 21 271 153 154 272
226 3 2 4 21 272 154 155 273
227 3 2 4 21 273 155 156 274
228 3 2 4 21 274 156 157 275
229 3 2 4 21 275 157 158 276
230 3 2 4 21 276 158 159 277
231 3 2 4 21 277 159 160 278
232 3 2 4 21 278 160 161 279
233 3 2 4 21 279 161 162 280
234 3 2 4 21 280 162 163 281
235 3 2 4 21 281 163 164 282
236 3 2 4 21 282 164 165 283
237 3 2 4 21 283 165 166 284
238 3 2 4 21 284 166 167 285
239 3 2 4 21 285 167 168 286
240 3 2 4 21 286 168 169 287
241 3 2 4 21 287 169 170 288
242 3 2 4 21 288 170 171 289
243 3 2 4 21 289 171 172 290
244 3 2 4 21 290 172 8 15
245 3 2 5 25 4 12 291 134
246 3 2 5 25 134 291 292 135
247 3 2 5 25 135 292 293 136
248 3 2 5 25 136 293 294 137
249 3 2 5 25 137 294 295 138
250 3 2 5 25 138 295 296 139
251 3 2 5 25 139 296 297 140
252 3 2 5 25 140 297 298 141
253 3 2 5 25 141 298 299 142
254 3 2 5 25 142 299 300 143
255 3 2 5 25 143 300 301 144
256 3 2 5 25 144 301 302 145
257 3 2 5 25 145 302 303 146
258 3 2 5 25 146 303 304 147
259 3 2 5 25 147 304 305 148
260 3 2 5 25 148 305 306 149
261 3 2 5 25 149 306 307 150
262 3 2 5 25 150 307 308 151
263 3 2 5 25 151 308 309 152
264 3 2 5 25 152 309 310 153
265 3 2 5 25 153 310 311 154
266 3 2 5 25 154 311 312 155
267 3 2 5 25 155 312 313 156
268 3 2 5 25 156 313 314 157
269 3 2 5 25 157 314 315 158
270 3 2 5 25 158 315 316 159
271 3 2 5 25 159 316 317 160
272 3 2 5 25 160 317 318 161
273 3 2 5 25 161 318 319 162
274 3 2 5 25 162 319 320 163
275 3 2 5 25 163 320 321 164
276 3 2 5 25 164 321 322 165
277 3 2 5 25 165 322 323 166
278 3 2 5 25 166 323 324 167
279 3 2 5 25 167 324 325 168
280 3 2 5 25 168 325 326 169
281 3 2 5 25 169 326 327 170
282 3 2 5 25 170 327 328 171
283 3 2 5 25 171 328 329 172
284 3 2 5 25 172 329 16 8
285 3 2 5 25 12 1 17 291
286 3 2 5 25 291 17 18 292
287 3 2 5 25 292 18 19 293
288 3 2 5 25 293 19 20 294
289 3 2 5 25 294 20 21 295
290 3 2 5 25 295 21 22 296
291 3 2 5 25 296 22 23 297
292 3 2 5 25 297 23 24 298
293 3 2 5 25 298 24 25 299
294 3 2 5 25 299 25 26 300
295 3 2 5 25 300 26 27 301
296 3 2 5 25 301 27 28 302
297 3 2 5 25 302 28 29 303
298 3 2 5 25 303 29 30 304
299 3 2 5 25 304 30 31 305
300 3 2 5 25 305 31 32 306
301 3 2 5 25 306 32 33 307
302 3 2 5 25 307 33 34 308
303 3 2 5 25 308 34 35 309
304 3 2 5 25 309 35 36 310
305 3 2 5 25 310 36 37 311
306 3 2 5 25 311 37 38 312
307 3 2 5 25 312 38 39 313
308 3 2 5 25 313 39 40 314
309 3 2 5 25 314 40 41 315
310 3 2 5 25 315 41 42 316
311 3 2 5 25 316 42 43 317
312 3 2 5 25 317 43 44 318
313 3 2 5 25 318 44 45 319
314 3 2 5 25 319 45 46 320
315 3 2 5 25 320 46 47 321
316 3 2 5 25 321 47 48 322
317 3 2 5 25 322 48 49 323
318 3 2 5 25 323 49 50 324
319 3 2 5 25 324 50 51 325
320 3 2 5 25 325 51 52 326
321 3 2 5 25 326 52 53 327
322 3 2 5 25 327 53 54 328
323 3 2 5 25 328 54 55 329
324 3 2 5 25 329 55 5 16
325 3 2 6 26 5 13 330 16
326 3 2 6 26 16 330 15 8
327 3 2 6 26 13 6 14 330
328 3 2 6 26 330 14 7 15
329 5 2 1 1 1 9 173 12 17 174 331 291
330 5 2 1 1 17 174 331 291 18 175 332 292
331 5 2 1 1 18 175 332 292 19 176 333 293
332 5 2 1 1 19 176 333 293 20 177 334 294
333 5 2 1 1 20 177 334 294 21 178 335 295
334 5 2 1 1 21 178 335 295 22 179 336 296
335 5 2 1 1 22 179 336 296 23 180 337 297
336 5 2 1 1 23 180 337 297 24 181 338 298
337 5 2 1 1 24 181 338 298 25 182 339 299
338 5 2 1 1 25 182 339 299 26 183 340 300
339 5 2 1 1 26 183 340 300 27 184 341 301
340 5 2 1 1 27 184 341 301 28 185 342 302
341 5 2 1 1 28 185 342 302 29 186 343 303
342 5 2 1 1 29 186 343 303 30 187 344 304
343 5 2 1 1 30 187 344 304 31 188 345 305
344 5 2 1 1 31 188 345 305 32 189 346 306
345 5 2 1 1 32 189 346 306 33 190 347 307
346 5 2 1 1 33 190 347 307 34 191 348 308
347 5 2 1 1 34 191 348 308 35 192 349 309
348 5 2 1 1 35 192 349 309 36 193 350 310
349 5 2 1 1 36 193 350 310 37 194 351 311
350 5 2 1 1 37 194 351 311 38 195 352 312
351 5 2 1 1 38 195 352 312 39 196 353 313
352 5 2 1 1 39 196 353 313 40 197 354 314
353 5 2 1 1 40 197 354 314 41 198 355 315
354 5 2 1 1 41 198 355 315 42 199 356 316
355 5 2 1 1 42 199 356 316 43 200 357 317
356 5 2 1 1 43 200 357 317 44 201 358 318
357 5 2 1 1 44 201 358 318 45 202 359 319
358 5 2 1 1 45 202 359 319 46 203 360 320
359 5 2 1 1 46 203 360 320 47 204 361 321
360 5 2 1 1 47 204 361 321 48 205 362 322
361 5 2 1 1 48 205 362 322 49 206 363 323
362 5 2 1 1 49 206 363 323 50 207 364 324
363 5 2 1 1 50 207 364 324 51 208 365 325
364 5 2 1 1 51 208 365 325 52 209 366 326
365 5 2 1 1 52 209 366 326 53 210 367 327
366 5 2 1 1 53 210 367 327 54 211 368 328
367 5 2 1 1 54 211 368 328 55 212 369 329
368 5 2 1 1 55 212 369 329 5 13 330 16
369 5 2 1 1 12 173 11 4 291 331 252 134
370 5 2 1 1 291 331 252 134 292 332 253 135
371 5 2 1 1 292 332 253 135 293 333 254 136
372 5 2 1 1 293 333 254 136 294 334 255 137
373 5 2 1 1 294 334 255 137 295 335 256 138
374 5 2 1 1 295 335 256 138 296 336 257 139
375 5 2 1 1 296 336 257 139 297 337 258 140
376 5 2 1 1 297 337 258 140 298 338 259 141
377 5 2 1 1 298 338 259 141 299 339 260 142
378 5 2 1 1 299 339 260 142 300 340 261 143
379 5 2 1 1 300 340 261 143 301 341 262 144
380 5 2 1 1 301 341 262 144 302 342 263 145
381 5 2 1 1 302 342 263 145 303 343 264 146
382 5 2 1 1 303 343 264 146 304 344 265 147
383 5 2 1 1 304 344 265 147 305 345 266 148
384 5 2 1 1 305 345 266 148 306 346 267 149
385 5 2 1 1 306 346 267 149 307 347 268 150
386 5 2 1 1 307 347 268 150 308 348 269 151
387 5 2 1 1 308 348 269 151 309 349 270 152
388 5 2 1 1 309 349 270 152 310 350 271 153
389 5 2 1 1 310 350 271 153 311 351 272 154
390 5 2 1 1 311 351 272 154 312 352 273 155
391 5 2 1 1 312 352 273 155 313 353 274 156
392 5 2 1 1 313 353 274 156 314 354 275 157
393 5 2 1 1 314 354 275 157 315 355 276 158
394 5 2 1 1 315 355 276 158 316 356 277 159
395 5 2 1 1 316 356 277 159 317 357 278 160
396 5 2 1 1 317 357 278 160 318 358 279 161
397 5 2 1 1 318 358 279 161 319 359 280 162
398 5 2 1 1 319 359 280 162 320 360 281 163
399 5 2 1 1 320 360 281 163 321 361 282 164
400 5 2 1 1 321 361 282 164 322 362 283 165
401 5 2 1 1 322 362 283 165 323 363 284 166
402 5 2 1 1 323 363 284 166 324 364 285 167
403 5 2 1 1 324 364 285 167 325 365 286 168
404 5 2 1 1 325 365 286 168 326 366 287 169
405 5 2 1 1 326 366 287 169 327 367 288 170
406 5 2 1 1 327 367 288 170 328 368 289 171
407 5 2 1 1 328 368 289 171 329 369 290 172
408 5 2 1 1 329 369 290 172 16 330 15 8
409 5 2 1 1 9 2 10 173 174 56 213 331
410 5 2 1 1 174 56 213 331 175 57 214 332
411 5 2 1 1 175 57 214 332 176 58 215 333
412 5 2 1 1 176 58 215 333 177 59 216 334
413 5 2 1 1 177 59 216 334 178 60 217 335
414 5 2 1 1 178 60 217 335 179 61 218 336
415 5 2 1 1 179 61 218 336 180 62 219 337
416 5 2 1 1 180 62 219 337 181 63 220 338
417 5 2 1 1 181 63 220 338 182 64 221 339
418 5 2 1 1 182 64 221 339 183 65 222 340
419 5 2 1 1 183 65 222 340 184 66 223 341
420 5 2 1 1 184 66 223 341 185 67 224 342
421 5 2 1 1 185 67 224 342 186 68 225 343
422 5 2 1 1 186 68 225 343 187 69 226 344
423 5 2 1 1 187 69 226 344 188 70 227 345
424 5 2 1 1 188 70 227 345 189 71 228 346
425 5 2 1 1 189 71 228 346 190 72 229 347
426 5 2 1 1 190 72 229 347 191 73 230 348
427 5 2 1 1 191 73 230 348 192 74 231 349
428 5 2 1 1 192 74 231 349 193 75 232 350
429 5 2 1 1 193 75 232 350 194 76 233 351
430 5 2 1 1 194 76 233 351 195 77 234 352
431 5 2 1 1 195 77 234 352 196 78 235 353
432 5 2 1 1 196 78 235 353 197 79 236 354
433 5 2 1 1 197 79 236 354 198 80 237 355
434 5 2 1 1 198 80 237 355 199 81 238 356
435 5 2 1 1 199 81 238 356 200 82 239 357
436 5 2 1 1 200 82 239 357 201 83 240 358
437 5 2 1 1 201 83 240 358 202 84 241 359
438 5 2 1 1 202 84 241 359 203 85 242 360
439 5 2 1 1 203 85 242 360 204 86 243 361
440 5 2 1 1 204 86 243 361 205 87 244 362
441 5 2 1 1 205 87 244 362 206 88 245 363
442 5 2 1 1 206 88 245 363 207 89 246 364
443 5 2 1 1 207 89 246 364 208 90 247 365
444 5 2 1 1 208 90 247 365 209 91 248 366
445 5 2 1 1 209 91 248 366 210 92 249 367
446 5 2 1 1 210 92 249 367 211 93 250 368
447 5 2 1 1 211 93 250 368 212 94 251 369
448 5 2 1 1 212 94 251 369 13 6 14 330
449 5 2 1 1 173 10 3 11 331 213 95 252
450 5 2 1 1 331 213 95 252 332 214 96 253
451 5 2 1 1 332 214 96 253 333 215 97 254
452 5 2 1 1 333 215 97 254 334 216 98 255
453 5 2 1 1 334 216 98 255 335 217 99 256
454 5 2 1 1 335 217 99 256 336 218 100 257
455 5 2 1 1 336 218 100 257 337 219 101 258
456 5 2 1 1 337 219 101 258 338 220 102 259
457 5 2 1 1 338 220 102 259 339 221 103 260
458 5 2 1 1 339 221 103 260 340 222 104 261
459 5 2 1 1 340 222 104 261 341 223 105 262
460 5 2 1 1 341 223 105 262 342 224 106 263
461 5 2 1 1 342 224 106 263 343 225 107 264
462 5 2 1 1 343 225 107 264 344 226 108 265
463 5 2 1 1 344 226 108 265 345 227 109 266
464 5 2 1 1 345 227 109 266 346 228 110 267
465 5 2 1 1 346 228 110 267 347 229 111 268
466 5 2 1 1 347 229 111 268 348 230 112 269
467 5 2 1 1 348 230 112 269 349 231 113 270
468 5 2 1 1 349 231 113 270 350 232 114 271
469 5 2 1 1 350 232 114 271 351 233 115 272
470 5 2 1 1 351 233 115 272 352 234 116 273
471 5 2 1 1 352 234 116 273 353 235 117 274
472 5 2 1 1 353 235 117 274 354 236 118 275
473 5 2 1 1 354 236 118 275 355 237 119 276
474 5 2 1 1 355 237 119 276 356 238 120 277
475 5 2 1 1 356 238 120 277 357 239 121 278
476 5 2 1 1 357 239 121 278 358 240 122 279
477 5 2 1 1 358 240 122 279 359 241 123 280
478 5 2 1 1 359 241 123 280 360 242 124 281
479 5 2 1 1 360 242 124 281 361 243 125 282
480 5 2 1 1 361 243 125 282 362 244 126 283
481 5 2 1 1 362 244 126 283 363 245 127 284
482 5 2 1 1 363 245 127 284 364 246 128 285
483 5 2 1 1 364 246 128 285 365 247 129 286
484 5 2 1 1 365 247 129 286 366 248 130 287
485 5 2 1 1 366 248 130 287 367 249 131 288
486 5 2 1 1 367 249 131 288 368 250 132 289
487 5 2 1 1 368 250 132 289 369 251 133 290
488 5 2 1 1 369 251 133 290 330 14 7 15
$EndElements
