$MeshFormat
2.2 0 8
$EndMeshFormat
$PhysicalNames
5
1 1 "bottom"
1 2 "right"
1 3 "top"
1 4 "left"
2 1 "domain"
$EndPhysicalNames
$Nodes
25
1 0 0 0
2 48 44 0
3 48 60 0
4 0 44 0
5 11.99999999995788 10.99999999996139 0
6 23.99999999991097 21.99999999991839 0
7 35.99999999995512 32.99999999995887 0
8 48 48 0
9 48 52 0
10 48 56 0
11 36.00000000003718 56.00000000001239 0
12 24.00000000006001 52.00000000002 0
13 12.00000000003032 48.0000000000101 0
14 0 32.99999999997953 0
15 0 22.00000000004027 0
16 0 11.00000000002048 0
17 11.99999999997599 20.24999999998894 0
18 11.9999999999941 29.50000000001595 0
19 12.00000000001221 38.74999999998259 0
20 23.99999999994823 29.49999999995403 0
21 23.99999999998549 36.99999999998933 0
22 24.00000000002275 44.49999999998435 0
23 35.99999999997564 38.74999999997737 0
24 35.99999999999615 44.4999999999957 0
25 36.00000000001667 50.24999999999389 0
$EndNodes
$Elements
32
1 1 2 1 1 1 5
2 1 2 1 1 5 6
3 1 2 1 1 6 7
4 1 2 1 1 7 2
5 1 2 2 2 2 8
6 1 2 2 2 8 9
7 1 2 2 2 9 10
8 1 2 2 2 10 3
9 1 2 3 3 3 11
10 1 2 3 3 11 12
11 1 2 3 3 12 13
12 1 2 3 3 13 4
13 1 2 4 4 4 14
14 1 2 4 4 14 15
15 1 2 4 4 15 16
16 1 2 4 4 16 1
17 3 2 1 1 1 5 17 16
18 3 2 1 1 16 17 18 15
19 3 2 1 1 15 18 19 14
20 3 2 1 1 14 19 13 4
21 3 2 1 1 5 6 20 17
22 3 2 1 1 17 20 21 18
23 3 2 1 1 18 21 22 19
24 3 2 1 1 19 22 12 13
25 3 2 1 1 6 7 23 20
26 3 2 1 1 20 23 24 21
27 3 2 1 1 21 24 25 22
28 3 2 1 1 22 25 11 12
29 3 2 1 1 7 2 8 23
30 3 2 1 1 23 8 9 24
31 3 2 1 1 24 9 10 25
32 3 2 1 1 25 10 3 11
$EndElements
