$MeshFormat
2.2 0 8
$EndMeshFormat
$PhysicalNames
7
2 1 "bottom"
2 2 "front"
2 3 "right"
2 4 "back"
2 5 "left"
2 6 "top"
3 1 "domain"
$EndPhysicalNames
$Nodes
45
1 0 0 1
2 0 0 0
3 0 1 1
4 0 1 0
5 1 0 1
6 1 0 0
7 1 1 1
8 1 1 0
9 0 0 0.5
10 0 0.5 1
11 0 1 0.5
12 0 0.5 0
13 1 0 0.5
14 1 0.5 1
15 1 1 0.5
16 1 0.5 0
17 0.5 0 0
18 0.5 0 1
19 0.5 1 0
20 0.5 1 1
21 0 0.75 0.75
22 0 0.625 0.3749999999999999
23 0 0.28125 0.2812500000000001
24 0 0.3457031249999999 0.6542968750000001
25 1 0.75 0.75
26 1 0.625 0.3749999999999999
27 1 0.28125 0.2812500000000001
28 1 0.3457031249999999 0.6542968750000001
29 0.75 0 0.75
30 0.3749999999999999 0 0.625
31 0.2812500000000001 0 0.28125
32 0.6542968750000001 0 0.3457031249999999
33 0.75 1 0.75
34 0.3749999999999999 1 0.625
35 0.2812500000000001 1 0.28125
36 0.6542968750000001 1 0.3457031249999999
37 0.75 0.25 0
38 0.625 0.625 0
39 0.2812499999999999 0.71875 0
40 0.3457031250000001 0.3457031250000001 0
41 0.75 0.25 1
42 0.625 0.625 1
43 0.2812499999999999 0.71875 1
44 0.3457031250000001 0.3457031250000001 1
45 0.4755859374999999 0.4951171874999998 0.5244140625
$EndNodes
$Elements
184
1 2 2 5 1 9 1 24
2 2 2 5 1 1 10 24
3 2 2 5 1 2 9 23
4 2 2 5 1 12 2 23
5 2 2 5 1 10 3 21
6 2 2 5 1 3 11 21
7 2 2 5 1 11 4 22
8 2 2 5 1 4 12 22
9 2 2 5 1 23 9 24
10 2 2 5 1 10 21 24
11 2 2 5 1 21 11 22
12 2 2 5 1 22 12 23
13 2 2 5 1 21 22 24
14 2 2 5 1 22 23 24
15 2 2 3 2 13 28 5
16 2 2 3 2 5 28 14
17 2 2 3 2 6 27 13
18 2 2 3 2 16 27 6
19 2 2 3 2 14 25 7
20 2 2 3 2 7 25 15
21 2 2 3 2 15 26 8
22 2 2 3 2 8 26 16
23 2 2 3 2 27 28 13
24 2 2 3 2 14 28 25
25 2 2 3 2 25 26 15
26 2 2 3 2 26 27 16
27 2 2 3 2 25 28 26
28 2 2 3 2 26 28 27
29 2 2 2 3 1 9 30
30 2 2 2 3 18 1 30
31 2 2 2 3 9 2 31
32 2 2 2 3 2 17 31
33 2 2 2 3 13 5 29
34 2 2 2 3 5 18 29
35 2 2 2 3 6 13 32
36 2 2 2 3 17 6 32
37 2 2 2 3 30 9 31
38 2 2 2 3 13 29 32
39 2 2 2 3 31 17 32
40 2 2 2 3 29 18 30
41 2 2 2 3 29 30 32
42 2 2 2 3 30 31 32
43 2 2 4 4 3 34 11
44 2 2 4 4 20 34 3
45 2 2 4 4 11 35 4
46 2 2 4 4 4 35 19
47 2 2 4 4 15 33 7
48 2 2 4 4 7 33 20
49 2 2 4 4 8 36 15
50 2 2 4 4 19 36 8
51 2 2 4 4 34 35 11
52 2 2 4 4 15 36 33
53 2 2 4 4 35 36 19
54 2 2 4 4 33 34 20
55 2 2 4 4 33 36 34
56 2 2 4 4 34 36 35
57 2 2 1 5 2 12 40
58 2 2 1 5 17 2 40
59 2 2 1 5 12 4 39
60 2 2 1 5 4 19 39
61 2 2 1 5 16 6 37
62 2 2 1 5 6 17 37
63 2 2 1 5 8 16 38
64 2 2 1 5 19 8 38
65 2 2 1 5 12 39 40
66 2 2 1 5 16 37 38
67 2 2 1 5 37 17 40
68 2 2 1 5 19 38 39
69 2 2 1 5 38 37 40
70 2 2 1 5 39 38 40
71 2 2 6 6 1 44 10
72 2 2 6 6 18 44 1
73 2 2 6 6 10 43 3
74 2 2 6 6 3 43 20
75 2 2 6 6 14 41 5
76 2 2 6 6 5 41 18
77 2 2 6 6 7 42 14
78 2 2 6 6 20 42 7
79 2 2 6 6 10 44 43
80 2 2 6 6 14 42 41
81 2 2 6 6 41 44 18
82 2 2 6 6 20 43 42
83 2 2 6 6 42 44 41
84 2 2 6 6 43 44 42
85 4 2 1 1 37 32 27 45
86 4 2 1 1 37 27 38 45
87 4 2 1 1 39 38 35 45
88 4 2 1 1 33 26 25 45
89 4 2 1 1 31 40 23 45
90 4 2 1 1 21 43 24 45
91 4 2 1 1 41 28 29 45
92 4 2 1 1 30 41 29 45
93 4 2 1 1 31 23 30 45
94 4 2 1 1 33 36 26 45
95 4 2 1 1 39 35 22 45
96 4 2 1 1 37 40 32 45
97 4 2 1 1 28 27 32 45
98 4 2 1 1 42 33 25 45
99 4 2 1 1 36 35 38 45
100 4 2 1 1 31 32 40 45
101 4 2 1 1 28 32 29 45
102 4 2 1 1 26 38 27 45
103 4 2 1 1 43 44 24 45
104 4 2 1 1 30 44 41 45
105 4 2 1 1 21 34 43 45
106 4 2 1 1 25 28 42 45
107 4 2 1 1 33 25 26 15
108 4 2 1 1 41 18 30 29
109 4 2 1 1 21 43 10 24
110 4 2 1 1 22 40 39 45
111 4 2 1 1 23 24 30 45
112 4 2 1 1 37 38 40 45
113 4 2 1 1 35 39 19 38
114 4 2 1 1 9 31 23 30
115 4 2 1 1 22 23 40 45
116 4 2 1 1 41 42 28 45
117 4 2 1 1 25 26 28 45
118 4 2 1 1 38 16 27 37
119 4 2 1 1 28 26 27 45
120 4 2 1 1 33 34 36 45
121 4 2 1 1 24 43 10 44
122 4 2 1 1 44 18 30 41
123 4 2 1 1 36 33 26 15
124 4 2 1 1 33 42 34 45
125 4 2 1 1 40 38 39 45
126 4 2 1 1 34 22 35 45
127 4 2 1 1 29 32 30 45
128 4 2 1 1 36 38 26 45
129 4 2 1 1 34 42 43 45
130 4 2 1 1 34 21 22 45
131 4 2 1 1 34 35 36 45
132 4 2 1 1 24 9 23 30
133 4 2 1 1 19 36 35 38
134 4 2 1 1 32 27 28 13
135 4 2 1 1 31 17 40 32
136 4 2 1 1 44 42 41 45
137 4 2 1 1 28 29 32 13
138 4 2 1 1 37 40 17 32
139 4 2 1 1 30 32 31 45
140 4 2 1 1 26 38 16 27
141 4 2 1 1 39 12 40 22
142 4 2 1 1 42 14 28 25
143 4 2 1 1 21 24 22 45
144 4 2 1 1 30 24 44 45
145 4 2 1 1 12 23 40 22
146 4 2 1 1 26 36 8 38
147 4 2 1 1 23 22 24 45
148 4 2 1 1 14 28 41 42
149 4 2 1 1 35 4 39 22
150 4 2 1 1 30 24 1 44
151 4 2 1 1 34 20 43 42
152 4 2 1 1 34 35 22 11
153 4 2 1 1 22 21 34 11
154 4 2 1 1 34 20 42 33
155 4 2 1 1 44 43 42 45
156 4 2 1 1 40 2 31 23
157 4 2 1 1 21 34 3 43
158 4 2 1 1 38 8 26 16
159 4 2 1 1 32 37 27 6
160 4 2 1 1 18 30 1 44
161 4 2 1 1 24 1 9 30
162 4 2 1 1 26 36 15 8
163 4 2 1 1 19 8 36 38
164 4 2 1 1 33 7 42 25
165 4 2 1 1 12 39 4 22
166 4 2 1 1 22 35 4 11
167 4 2 1 1 20 3 34 43
168 4 2 1 1 2 31 17 40
169 4 2 1 1 23 40 2 12
170 4 2 1 1 13 32 27 6
171 4 2 1 1 10 1 24 44
172 4 2 1 1 21 34 11 3
173 4 2 1 1 14 42 7 25
174 4 2 1 1 7 42 20 33
175 4 2 1 1 2 9 31 23
176 4 2 1 1 41 29 28 5
177 4 2 1 1 5 28 41 14
178 4 2 1 1 17 37 32 6
179 4 2 1 1 29 28 5 13
180 4 2 1 1 39 4 35 19
181 4 2 1 1 16 27 37 6
182 4 2 1 1 43 3 21 10
183 4 2 1 1 29 41 18 5
184 4 2 1 1 25 33 7 15
$EndElements
