$MeshFormat
2.2 0 8
$EndMeshFormat
$PhysicalNames
7
2 1 "bottom"
2 2 "front"
2 3 "right"
2 4 "back"
2 5 "left"
2 6 "top"
3 1 "domain"
$EndPhysicalNames
$Nodes
125
1 0 0 0
2 10 0 0
3 10 10 0
4 0 10 0
5 0 0 10
6 10 0 10
7 10 10 10
8 0 10 10
9 2.499999999995364 0 0
10 4.999999999992399 0 0
11 7.499999999996199 0 0
12 10 2.499999999995364 0
13 10 4.999999999992399 0
14 10 7.499999999996199 0
15 7.499999999999995 10 0
16 4.999999999999996 10 0
17 2.499999999999998 10 0
18 0 7.499999999999995 0
19 0 4.999999999999996 0
20 0 2.499999999999998 0
21 2.499999999995364 0 10
22 4.999999999992399 0 10
23 7.499999999996199 0 10
24 10 2.499999999995364 10
25 10 4.999999999992399 10
26 10 7.499999999996199 10
27 7.499999999999995 10 10
28 4.999999999999996 10 10
29 2.499999999999998 10 10
30 0 7.499999999999995 10
31 0 4.999999999999996 10
32 0 2.499999999999998 10
33 0 0 2.5
34 0 0 5
35 0 0 7.5
36 10 0 2.5
37 10 0 5
38 10 0 7.5
39 10 10 2.5
40 10 10 5
41 10 10 7.5
42 0 10 2.5
43 0 10 5
44 0 10 7.5
45 2.499999999996523 2.499999999998839 0
46 2.499999999997681 4.999999999998097 0
47 2.499999999998839 7.499999999999047 0
48 4.999999999994299 2.499999999997681 0
49 4.999999999996198 4.999999999996198 0
50 4.999999999998097 7.499999999998098 0
51 7.49999999999715 2.499999999996523 0
52 7.499999999998098 4.999999999994299 0
53 7.499999999999047 7.49999999999715 0
54 2.499999999995364 0 2.5
55 2.499999999995364 0 5
56 2.499999999995364 0 7.5
57 4.999999999992399 0 2.5
58 4.999999999992399 0 5
59 4.999999999992399 0 7.5
60 7.499999999996199 0 2.5
61 7.499999999996199 0 5
62 7.499999999996199 0 7.5
63 10 2.499999999995364 2.5
64 10 2.499999999995364 5
65 10 2.499999999995364 7.5
66 10 4.999999999992399 2.5
67 10 4.999999999992399 5
68 10 4.999999999992399 7.5
69 10 7.499999999996199 2.5
70 10 7.499999999996199 5
71 10 7.499999999996199 7.5
72 7.499999999999995 10 2.5
73 7.499999999999995 10 5
74 7.499999999999995 10 7.5
75 4.999999999999996 10 2.5
76 4.999999999999996 10 5
77 4.999999999999996 10 7.5
78 2.499999999999998 10 2.5
79 2.499999999999998 10 5
80 2.499999999999998 10 7.5
81 0 7.499999999999995 2.5
82 0 7.499999999999995 5
83 0 7.499999999999995 7.5
84 0 4.999999999999996 2.5
85 0 4.999999999999996 5
86 0 4.999999999999996 7.5
87 0 2.499999999999998 2.5
88 0 2.499999999999998 5
89 0 2.499999999999998 7.5
90 2.499999999996523 2.499999999998839 10
91 2.499999999997681 4.999999999998097 10
92 2.499999999998839 7.499999999999047 10
93 4.999999999994299 2.499999999997681 10
94 4.999999999996198 4.999999999996198 10
95 4.999999999998097 7.499999999998098 10
96 7.49999999999715 2.499999999996523 10
97 7.499999999998098 4.999999999994299 10
98 7.499999999999047 7.49999999999715 10
99 2.499999999996523 2.499999999998839 2.5
100 2.499999999996523 2.499999999998839 5
101 2.499999999996523 2.499999999998839 7.5
102 2.499999999997681 4.999999999998097 2.5
103 2.499999999997681 4.999999999998097 5
104 2.499999999997681 4.999999999998097 7.5
105 2.499999999998839 7.499999999999047 2.5
106 2.499999999998839 7.499999999999047 5
107 2.499999999998839 7.499999999999047 7.5
108 4.999999999994299 2.499999999997681 2.5
109 4.999999999994299 2.499999999997681 5
110 4.999999999994299 2.499999999997681 7.5
111 4.999999999996198 4.999999999996198 2.5
112 4.999999999996198 4.999999999996198 5
113 4.999999999996198 4.999999999996198 7.5
114 4.999999999998097 7.499999999998098 2.5
115 4.999999999998097 7.499999999998098 5
116 4.999999999998097 7.499999999998098 7.5
117 7.49999999999715 2.499999999996523 2.5
118 7.49999999999715 2.499999999996523 5
119 7.49999999999715 2.499999999996523 7.5
120 7.499999999998098 4.999999999994299 2.5
121 7.499999999998098 4.999999999994299 5
122 7.499999999998098 4.999999999994299 7.5
123 7.499999999999047 7.49999999999715 2.5
124 7.499999999999047 7.49999999999715 5
125 7.499999999999047 7.49999999999715 7.5
$EndNodes
$Elements
160
1 3 2 1 1 1 9 45 20
2 3 2 1 1 20 45 46 19
3 3 2 1 1 19 46 47 18
4 3 2 1 1 18 47 17 4
5 3 2 1 1 9 10 48 45
6 3 2 1 1 45 48 49 46
7 3 2 1 1 46 49 50 47
8 3 2 1 1 47 50 16 17
9 3 2 1 1 10 11 51 48
10 3 2 1 1 48 51 52 49
11 3 2 1 1 49 52 53 50
12 3 2 1 1 50 53 15 16
13 3 2 1 1 11 2 12 51
14 3 2 1 1 51 12 13 52
15 3 2 1 1 52 13 14 53
16 3 2 1 1 53 14 3 15
17 3 2 2 13 1 9 54 33
18 3 2 2 13 33 54 55 34
19 3 2 2 13 34 55 56 35
20 3 2 2 13 35 56 21 5
21 3 2 2 13 9 10 57 54
22 3 2 2 13 54 57 58 55
23 3 2 2 13 55 58 59 56
24 3 2 2 13 56 59 22 21
25 3 2 2 13 10 11 60 57
26 3 2 2 13 57 60 61 58
27 3 2 2 13 58 61 62 59
28 3 2 2 13 59 62 23 22
29 3 2 2 13 11 2 36 60
30 3 2 2 13 60 36 37 61
31 3 2 2 13 61 37 38 62
32 3 2 2 13 62 38 6 23
33 3 2 3 17 2 12 63 36
34 3 2 3 17 36 63 64 37
35 3 2 3 17 37 64 65 38
36 3 2 3 17 38 65 24 6
37 3 2 3 17 12 13 66 63
38 3 2 3 17 63 66 67 64
39 3 2 3 17 64 67 68 65
40 3 2 3 17 65 68 25 24
41 3 2 3 17 13 14 69 66
42 3 2 3 17 66 69 70 67
43 3 2 3 17 67 70 71 68
44 3 2 3 17 68 71 26 25
45 3 2 3 17 14 3 39 69
46 3 2 3 17 69 39 40 70
47 3 2 3 17 70 40 41 71
48 3 2 3 17 71 41 7 26
49 3 2 4 21 3 15 72 39
50 3 2 4 21 39 72 73 40
51 3 2 4 21 40 73 74 41
52 3 2 4 21 41 74 27 7
53 3 2 4 21 15 16 75 72
54 3 2 4 21 72 75 76 73
55 3 2 4 21 73 76 77 74
56 3 2 4 21 74 77 28 27
57 3 2 4 21 16 17 78 75
58 3 2 4 21 75 78 79 76
59 3 2 4 21 76 79 80 77
60 3 2 4 21 77 80 29 28
61 3 2 4 21 17 4 42 78
62 3 2 4 21 78 42 43 79
63 3 2 4 21 79 43 44 80
64 3 2 4 21 80 44 8 29
65 3 2 5 25 4 18 81 42
66 3 2 5 25 42 81 82 43
67 3 2 5 25 43 82 83 44
68 3 2 5 25 44 83 30 8
69 3 2 5 25 18 19 84 81
70 3 2 5 25 81 84 85 82
71 3 2 5 25 82 85 86 83
72 3 2 5 25 83 86 31 30
73 3 2 5 25 19 20 87 84
74 3 2 5 25 84 87 88 85
75 3 2 5 25 85 88 89 86
76 3 2 5 25 86 89 32 31
77 3 2 5 25 20 1 33 87
78 3 2 5 25 87 33 34 88
79 3 2 5 25 88 34 35 89
80 3 2 5 25 89 35 5 32
81 3 2 6 26 5 21 90 32
82 3 2 6 26 32 90 91 31
83 3 2 6 26 31 91 92 30
84 3 2 6 26 30 92 29 8
85 3 2 6 26 21 22 93 90
86 3 2 6 26 90 93 94 91
87 3 2 6 26 91 94 95 92
88 3 2 6 26 92 95 28 29
89 3 2 6 26 22 23 96 93
90 3 2 6 26 93 96 97 94
91 3 2 6 26 94 97 98 95
92 3 2 6 26 95 98 27 28
93 3 2 6 26 23 6 24 96
94 3 2 6 26 96 24 25 97
95 3 2 6 26 97 25 26 98
96 3 2 6 26 98 26 7 27
97 5 2 1 1 1 9 45 20 33 54 99 87
98 5 2 1 1 33 54 99 87 34 55 100 88
99 5 2 1 1 34 55 100 88 35 56 101 89
100 5 2 1 1 35 56 101 89 5 21 90 32
101 5 2 1 1 20 45 46 19 87 99 102 84
102 5 2 1 1 87 99 102 84 88 100 103 85
103 5 2 1 1 88 100 103 85 89 101 104 86
104 5 2 1 1 89 101 104 86 32 90 91 31
105 5 2 1 1 19 46 47 18 84 102 105 81
106 5 2 1 1 84 102 105 81 85 103 106 82
107 5 2 1 1 85 103 106 82 86 104 107 83
108 5 2 1 1 86 104 107 83 31 91 92 30
109 5 2 1 1 18 47 17 4 81 105 78 42
110 5 2 1 1 81 105 78 42 82 106 79 43
111 5 2 1 1 82 106 79 43 83 107 80 44
112 5 2 1 1 83 107 80 44 30 92 29 8
113 5 2 1 1 9 10 48 45 54 57 108 99
114 5 2 1 1 54 57 108 99 55 58 109 100
115 5 2 1 1 55 58 109 100 56 59 110 101
116 5 2 1 1 56 59 110 101 21 22 93 90
117 5 2 1 1 45 48 49 46 99 108 111 102
118 5 2 1 1 99 108 111 102 100 109 112 103
119 5 2 1 1 100 109 112 103 101 110 113 104
120 5 2 1 1 101 110 113 104 90 93 94 91
121 5 2 1 1 46 49 50 47 102 111 114 105
122 5 2 1 1 102 111 114 105 103 112 115 106
123 5 2 1 1 103 112 115 106 104 113 116 107
124 5 2 1 1 104 113 116 107 91 94 95 92
125 5 2 1 1 47 50 16 17 105 114 75 78
126 5 2 1 1 105 114 75 78 106 115 76 79
127 5 2 1 1 106 115 76 79 107 116 77 80
128 5 2 1 1 107 116 77 80 92 95 28 29
129 5 2 1 1 10 11 51 48 57 60 117 108
130 5 2 1 1 57 60 117 108 58 61 118 109
131 5 2 1 1 58 61 118 109 59 62 119 110
132 5 2 1 1 59 62 119 110 22 23 96 93
133 5 2 1 1 48 51 52 49 108 117 120 111
134 5 2 1 1 108 117 120 111 109 118 121 112
135 5 2 1 1 109 118 121 112 110 119 122 113
136 5 2 1 1 110 119 122 113 93 96 97 94
137 5 2 1 1 49 52 53 50 111 120 123 114
138 5 2 1 1 111 120 123 114 112 121 124 115
139 5 2 1 1 112 121 124 115 113 122 125 116
140 5 2 1 1 113 122 125 116 94 97 98 95
141 5 2 1 1 50 53 15 16 114 123 72 75
142 5 2 1 1 114 123 72 75 115 124 73 76
143 5 2 1 1 115 124 73 76 116 125 74 77
144 5 2 1 1 116 125 74 77 95 98 27 28
145 5 2 1 1 11 2 12 51 60 36 63 117
146 5 2 1 1 60 36 63 117 61 37 64 118
147 5 2 1 1 61 37 64 118 62 38 65 119
148 5 2 1 1 62 38 65 119 23 6 24 96
149 5 2 1 1 51 12 13 52 117 63 66 120
150 5 2 1 1 117 63 66 120 118 64 67 121
151 5 2 1 1 118 64 67 121 119 65 68 122
152 5 2 1 1 119 65 68 122 96 24 25 97
153 5 2 1 1 52 13 14 53 120 66 69 123
154 5 2 1 1 120 66 69 123 121 67 70 124
155 5 2 1 1 121 67 70 124 122 68 71 125
156 5 2 1 1 122 68 71 125 97 25 26 98
157 5 2 1 1 53 14 3 15 123 69 39 72
158 5 2 1 1 123 69 39 72 124 70 40 73
159 5 2 1 1 124 70 40 73 125 71 41 74
160 5 2 1 1 125 71 41 74 98 26 7 27
$EndElements
