$MeshFormat
2.2 0 8
$EndMeshFormat
$PhysicalNames
7
2 1 "bottom"
2 2 "front"
2 3 "right"
2 4 "back"
2 5 "left"
2 6 "top"
3 1 "domain"
$EndPhysicalNames
$Nodes
27
1 0 0 0
2 5 0 0
3 5 5 0
4 0 5 0
5 0 0 5
6 5 0 5
7 5 5 5
8 0 5 5
9 2.499999999996199 0 0
10 5 2.499999999996199 0
11 2.499999999999998 5 0
12 0 2.499999999999998 0
13 2.499999999996199 0 5
14 5 2.499999999996199 5
15 2.499999999999998 5 5
16 0 2.499999999999998 5
17 0 0 2.5
18 5 0 2.5
19 5 5 2.5
20 0 5 2.5
21 2.499999999998099 2.499999999998099 0
22 2.499999999996199 0 2.5
23 5 2.499999999996199 2.5
24 2.499999999999998 5 2.5
25 0 2.499999999999998 2.5
26 2.499999999998099 2.499999999998099 5
27 2.499999999998099 2.499999999998099 2.5
$EndNodes
$Elements
32
1 3 2 1 1 1 9 21 12
2 3 2 1 1 12 21 11 4
3 3 2 1 1 9 2 10 21
4 3 2 1 1 21 10 3 11
5 3 2 2 13 1 9 22 17
6 3 2 2 13 17 22 13 5
7 3 2 2 13 9 2 18 22
8 3 2 2 13 22 18 6 13
9 3 2 3 17 2 10 23 18
10 3 2 3 17 18 23 14 6
11 3 2 3 17 10 3 19 23
12 3 2 3 17 23 19 7 14
13 3 2 4 21 3 11 24 19
14 3 2 4 21 19 24 15 7
15 3 2 4 21 11 4 20 24
16 3 2 4 21 24 20 8 15
17 3 2 5 25 4 12 25 20
18 3 2 5 25 20 25 16 8
19 3 2 5 25 12 1 17 25
20 3 2 5 25 25 17 5 16
21 3 2 6 26 5 13 26 16
22 3 2 6 26 16 26 15 8
23 3 2 6 26 13 6 14 26
24 3 2 6 26 26 14 7 15
25 5 2 1 1 1 9 21 12 17 22 27 25
26 5 2 1 1 17 22 27 25 5 13 26 16
27 5 2 1 1 12 21 11 4 25 27 24 20
28 5 2 1 1 25 27 24 20 16 26 15 8
29 5 2 1 1 9 2 10 21 22 18 23 27
30 5 2 1 1 22 18 23 27 13 6 14 26
31 5 2 1 1 21 10 3 11 27 23 19 24
32 5 2 1 1 27 23 19 24 26 14 7 15
$EndElements
