$MeshFormat
2.2 0 8
$EndMeshFormat
$PhysicalNames
8
2 1 "left"
2 2 "front"
2 3 "bottom"
2 4 "right"
2 5 "back"
2 6 "top"
3 1 "inclusion"
3 2 "matrix"
$EndPhysicalNames
$Nodes
375
1 3.399077683617228e-32 3.061616997868383e-16 5
2 0 0 10
3 0 10 10
4 0 10 0
5 5.551115123125783e-16 5 0
6 5 0 0
7 10 0 0
8 10 0 10
9 10 10 10
10 10 10 0
11 0 0 0
12 0 0 5.858111604418417
13 0 0 6.937129562727034
14 0 0 8.293922815988893
15 0 2.5 10
16 0 5 10
17 0 7.5 10
18 0 10 2.5
19 0 10 5
20 0 10 7.5
21 0 5.858111604418417 0
22 0 6.937129562727034 0
23 0 8.293922815988893 0
24 5.444452002585534e-16 4.903926402016152 0.9754516100806412
25 5.128561644869782e-16 4.619397662556434 1.91341716182545
26 4.615583539272191e-16 4.157348061512727 2.777851165098009
27 3.925231146709439e-16 3.535533905932739 3.535533905932737
28 3.084034322473629e-16 2.777851165098011 4.157348061512726
29 2.124319788771536e-16 1.913417161825452 4.619397662556432
30 1.082968836919211e-16 0.9754516100806438 4.903926402016151
31 5.858111604418417 0 0
32 6.937129562727034 0 0
33 8.293922815988893 0 0
34 10 0 2.5
35 10 0 5
36 10 0 7.5
37 2.5 0 10
38 5 0 10
39 7.5 0 10
40 4.903926402016152 0 0.9754516100806412
41 4.619397662556434 0 1.91341716182545
42 4.157348061512727 0 2.777851165098009
43 3.535533905932739 0 3.535533905932737
44 2.777851165098011 0 4.157348061512726
45 1.913417161825452 0 4.619397662556432
46 0.9754516100806438 0 4.903926402016151
47 2.5 10 10
48 5 10 10
49 7.5 10 10
50 10 2.5 10
51 10 5 10
52 10 7.5 10
53 2.5 10 0
54 5 10 0
55 7.5 10 0
56 10 10 2.5
57 10 10 5
58 10 10 7.5
59 10 2.5 0
60 10 5 0
61 10 7.5 0
62 4.903926402016153 0.9754516100806392 0
63 4.619397662556436 1.913417161825445 0
64 4.15734806151273 2.777851165098005 0
65 3.535533905932744 3.535533905932731 0
66 2.777851165098018 4.157348061512722 0
67 1.913417161825454 4.619397662556431 0
68 0.9754516100806437 4.903926402016151 0
69 0 1 0
70 0 2 0
71 0 3 0
72 0 4 0
73 1 0 0
74 2 0 0
75 3 0 0
76 4 0 0
77 0 0 1
78 0 0 2
79 0 0 3
80 0 0 4
81 0 3.771542408457983 4.604035923130205
82 0 5.17555437144946 2.729682597594974
83 0 1.668847779648783 5.718901609177275
84 0 1.054737194021492 7.615526189357963
85 0 7.622612605514215 6.416905094880982
86 0 6.418215896369537 0.8566095827552515
87 0 3.977607859111569 7.788704845763229
88 0 4.616970266425857 3.704076353816945
89 0 4.980415892133847 4.915034901528719
90 0 5.819489057094942 3.720369385851308
91 0 6.40150511970338 2.633816846119542
92 0 7.227968548350078 3.612658046736975
93 0 2.767647901668377 5.265307240727762
94 0 6.080073681638311 8.004582539036937
95 0 2.735477356460854 6.578840776810958
96 0 3.946185846466233 5.913773642643896
97 0 0.8630120246328463 6.439103081254157
98 0 7.615526189357963 1.029242293658528
99 0 6.352512443291694 5.050027211090248
100 0 5.493234721359311 6.348171372490668
101 0 5.678598237159014 1.659480745472072
102 0 7.855699952680987 2.335651363851717
103 0 8.753029791605568 1.172978731502049
104 0 1.191312043711042 8.728276444781976
105 0 8.240537257430505 8.384297526783584
106 0 2.254962354669857 7.873546524649414
107 0 8.671075075371565 3.593585516822925
108 0 5.635146696054547 0.7363131070858784
109 0 0.7363131070858784 5.635146696054544
110 0 7.974833734505509 4.734635173906226
111 0 6.889417297687282 1.683258593355178
112 0 1.718174067040924 6.869802825789709
113 3.695199390680413 0 4.502613485294625
114 5.148205540732808 0 2.770254417307654
115 1.653337253850906 0 5.694131673163898
116 1.048902038974413 0 7.590903982625423
117 7.899125970165922 0 6.212095466056365
118 6.387667230159229 0 0.8526624693001958
119 3.92123631166478 0 7.68969762061244
120 4.522858643530315 0 3.728330256885367
121 4.844296677392578 0 4.898677177773719
122 2.741863903301436 0 5.16091092695113
123 5.987938687887485 0 8.075372268241328
124 5.68890569862319 0 1.657402859923642
125 6.315260837938876 0 2.646509966628474
126 8.126531962146419 0 4.173948209207012
127 5.650179168729494 0 3.824995452390664
128 3.820007183078283 0 5.797080234779495
129 2.716181745463445 0 6.474476712644412
130 0.8650470984839531 0 6.429276091170621
131 7.504929009790609 0 1.047576459510546
132 6.417305806661862 0 5.084271050158619
133 5.105580670104418 0 6.224979526895727
134 8.731526057022963 0 1.210991979702193
135 7.77489308675888 0 2.419540862127007
136 1.192396137723539 0 8.787636895047703
137 7.939493013825141 0 8.109392742818301
138 2.188407737469783 0 7.90049137316073
139 5.617595543146605 0 0.726106495459217
140 6.811108958461096 0 1.74423625177507
141 0.7363131070858782 0 5.635146696054544
142 6.501251240994011 0 6.6850608537787
143 1.6943751748485 0 6.817855966553018
144 6.882010803001894 0 3.609504312490422
145 6.359641041884301 2.046118127312862 10
146 2.116930112639579 6.239406576797808 10
147 6.25 7.834936490538904 10
148 2.114006558410867 3.759949993707402 10
149 4.330127018922193 5 10
150 3.671197358413994 7.874036008069087 10
151 7.082726776397406 5.203442540690987 10
152 3.989630255083489 2.365667220822627 10
153 8.231510809247654 6.896861734925069 10
154 8.44709809713161 3.75 10
155 1.830127018922194 8.169872981077807 10
156 1.830127018922193 1.830127018922193 10
157 8.25040793325709 1.780977805306466 10
158 5.884011055039234 3.832210891220217 10
159 8.515195403519169 8.540734935786137 10
160 6.153312163512966 10 7.890759238962055
161 1.976765591958326 10 3.59190173416797
162 6.170917378885155 10 2.257047743274071
163 3.75472074119982 10 7.886460481895354
164 4.969317362224817 10 5.952411535454151
165 7.695402864874439 10 6.057631425839536
166 3.590233026287187 10 1.946445340993805
167 2.235284352683915 10 6.069708608369244
168 8.184954931035772 10 3.687936625999561
169 6.226311529282518 10 4.319339332990199
170 1.830127018922193 10 1.830127018922193
171 8.169872981077807 10 8.169872981077807
172 1.830127018922192 10 8.169872981077807
173 8.184920672741516 10 1.815079327258485
174 4.063588167957444 10 3.999595549598595
175 3.708844726603476 4.534182385544835 0
176 5.163285741190081 2.748696214837849 0
177 1.675639437558232 5.71236159632509 0
178 1.047820640800406 7.586982286912715 0
179 8.069862919702649 6.137400135117868 0
180 6.416293345902045 0.8689046770887372 0
181 3.958213925765969 7.781558275933614 0
182 2.7690931693373 5.19072330576884 0
183 3.847510227577827 5.889114749832446 0
184 4.882576535237373 4.925162002264324 0
185 5.017838677355719 6.399900132753492 0
186 5.698399326175996 1.656873863185443 0
187 6.560913822474655 2.755141442921348 0
188 7.992380925702744 4.022701761072755 0
189 2.738621073110965 6.529397159110553 0
190 0.8733650976339222 6.431416464517615 0
191 7.615526189357963 1.029242293658528 0
192 5.911149139219622 3.893819201597263 0
193 4.559789684949338 3.735874145879167 0
194 6.386380618607878 5.340643791223116 0
195 6.189328591394626 8.195700600299071 0
196 7.938593130229112 2.299345676090039 0
197 8.033944504254405 8.082996708324988 0
198 8.769608427115193 1.165717593949713 0
199 1.18973458377357 8.724952617807411 0
200 2.259149177520452 7.865109112756814 0
201 6.521265275943612 6.708207492201344 0
202 5.635146696054547 0.7363131070858784 0
203 0.7363131070858792 5.635146696054545 0
204 6.845945162827954 1.721901590588819 0
205 1.718919085324795 6.825053323924557 0
206 3.100090379154017 3.818135136674132 0.9007128949732632
207 3.126070861105996 0.8474798324704592 3.809128365505666
208 4.344587154772563 0.7882081564981294 2.345909281412023
209 1.430422568530632 0.847479832477969 4.71547126054028
210 0.8745992258906012 3.200061059093716 3.740947127686192
211 0.8474798324781149 4.345803202988819 2.322880206647554
212 4.340564361348201 2.325881373308473 0.8658965655842333
213 1.437795767387775 4.716911547151205 0.8267338069980114
214 4.761271813555234 1.079418991273651 1.079418991273651
215 3.840662438437948 0.7993762213544864 3.100049949711278
216 3.399281047702369 1.643251068129348 3.27789784554419
217 2.626122229221976 1.684092612449058 3.907341053693766
218 2.83089936368657 2.441641600321392 3.320300451504195
219 3.53284745229306 2.353531827154967 2.64194564996993
220 2.914029966683276 3.113022795880517 2.611037806237228
221 3.541306564903078 2.949352118297568 1.939193104275076
222 2.175519707682075 3.101565600792033 3.263036136096328
223 2.223147787073172 3.819819401537169 2.3380747756374
224 1.390417009097336 3.725137045329496 3.031516870203208
225 4.103552156952726 2.160713460987058 1.868736748361834
226 0.8474798324779621 2.322880206648021 4.345803202988599
227 1.656319500328531 2.678937568336916 3.883284591397409
228 1.821142396972666 1.871115969730782 4.26407849338718
229 2.291379358510395 4.366733370513091 0.8253607128037201
230 1.686088725230013 4.397586582254031 1.678790356843742
231 3.811043945798713 3.13030212829362 0.8228928416211984
232 2.451789311490609 0.8773029466768839 4.268380103951904
233 0.738373252815115 1.545353685865549 4.697519230946158
234 3.998277816689525 1.534569380051331 2.580478893224534
235 2.952035448537268 3.603311825287312 1.817038964998823
236 0.7934733503581634 4.722490546429353 1.438222194640586
237 0.9163788093597246 0.6568724604359213 4.871218374131601
238 1.556075571925 4.124950613187533 2.358688460399566
239 0.6219995008145035 3.83502916992787 3.147327101969044
240 0.7124705823221069 4.89742497019109 0.7124705823221055
241 4.427456494311877 1.398452399800604 1.855251971153114
242 4.508515930143441 1.739349483335837 1.283724067883042
243 4.652310680884407 0.697374767785137 1.694011145708753
244 2.46376250358782 4.07370410202755 1.528008250972023
245 3.949716958672016 2.733337956662098 1.388740278471447
246 1.519294850914358 3.218552095796853 3.511789510011499
247 2.293362466770765 2.358601031465354 3.765300754306045
248 4.92891134588767 0.5939445221914209 0.5941909196029519
249 3.430169686874532 3.375763596919756 1.355786139831229
250 4.705546964553003 1.56977769706981 0.6273960042654236
251 10 2.046118127312862 3.640358958115698
252 10 6.239406576797808 7.883069887360419
253 10 7.834936490538904 3.75
254 10 3.759949993707402 7.885993441589132
255 10 4.999999999999999 5.669872981077808
256 10 7.874036008069087 6.328802641586005
257 10 5.203442540690986 2.917273223602595
258 10 2.365667220822626 6.01036974491651
259 10 6.896861734925068 1.768489190752347
260 10 3.75 1.552901902868391
261 10 1.830127018922193 8.169872981077807
262 10 8.169872981077807 8.169872981077807
263 10 1.780977805306465 1.74959206674291
264 10 3.832210891220217 4.115988944960767
265 10 8.540734935786137 1.484804596480834
266 2.594527706806233 3.270296120348851 0
267 2.397170142885487 0.9481403614377317 0
268 0.8319026369486038 2.441902964129447 0
269 3.643915117732015 1.908635621183528 0
270 1.163531882177873 3.883271745365096 0
271 3.910465179683726 0.9895183625144145 0
272 0.8444947236939375 1.500708637753267 0
273 1.751009928131405 1.89619666535743 0
274 1.636231582454467 2.980334821590611 0
275 1.48124012570282 0.8437628867581949 0
276 2.767344051392011 1.865891991456547 0
277 1.989027105868078 3.778503547700106 0
278 3.169024824424446 2.641198141930698 0
279 0.7320508075688776 0.7320508075688774 0
280 3.143778898338648 1.142437267318444 0
281 2.315480103170943 2.488980047564524 0
282 0.7031512501592477 3.218689157519237 0
283 2.613647729659919 0 3.24933248693023
284 2.396955929274618 0 0.948277184430618
285 0.8399727579114284 0 2.456658040826044
286 3.643867453235385 0 1.90873275764979
287 1.198025269474168 0 3.949360036600603
288 3.910465179683721 0 0.9895183625144167
289 0.8442707147821028 0 1.502872483193904
290 1.751448751020398 0 1.898043021220537
291 1.658269354678254 0 2.997109409502507
292 1.481072320196997 0 0.8445294220587807
293 2.767271076020542 0 1.866319642747893
294 2.023239427710593 0 3.785214734790584
295 3.172093437985085 0 2.637821021747566
296 0.7392534764127703 0 3.280625497385831
297 0.7329876395346543 0 0.7329876395346542
298 3.143711927642853 0 1.142569589468543
299 2.335106288555567 0 2.499716601193535
300 0 2.594543832201358 3.27029073184198
301 0 2.397185817486733 0.9481292452163188
302 0 0.831917126346019 2.441902504069596
303 0 3.643922754018217 1.908620058473554
304 0 1.163532166955553 3.883271252356281
305 0 3.910465179683722 0.9895183625144165
306 0 0.844500818101776 1.500708609809885
307 0 1.75105212808773 1.896187854407026
308 0 1.636249114016667 2.980329469323919
309 0 1.481247741055844 0.8437605111492426
310 0 2.767371420114732 1.865873114298907
311 0 1.989032327453438 3.778501548326925
312 0 3.169049072864827 2.641186805573752
313 0 0.7320508075688776 0.7320508075688774
314 0 3.143789034260681 1.142428156100639
315 0 2.315574463409191 2.488951857797328
316 0 0.7031529320489442 3.218688829253132
317 2.048061952682987 1.745736389449148 1.8925446283377
318 1.384375795447073 2.969328936061784 1.511304263313868
319 1.243719599396047 2.219308041412054 2.764910410511787
320 3.262989617712037 1.363949200921583 1.276337337243991
321 2.766927310693536 2.426727847989259 1.095687348635487
322 2.416388527344055 1.110128169453687 2.896071839930669
323 1.175030317341602 1.174130189241905 1.185655363709856
324 1.259728809856539 1.121582768977485 3.336492935111244
325 3.204207786323566 0.9583428559557949 2.233057716259086
326 2.128997285090742 3.330456463796311 0.9093393887291437
327 1.002463885383929 1.26150586100488 2.272313964130792
328 2.314722789926301 1.51492578610742 0.8708503449285782
329 5.765687091179689 3.814090921231717 5.470816066838717
330 3.191167719044026 6.752326513316492 3.317880794918721
331 2.960159288847499 4.629042321192289 5.632062982293766
332 5.311457540198592 4.408920751095728 2.210662001667033
333 6.521110969790254 2.184167224472043 2.172251213948133
334 1.794285260049144 6.286882836750755 1.833270628587463
335 4.259342975369257 1.945965979554362 5.105579478708057
336 2.021429398587813 2.031775578006825 6.357238443047825
337 4.327106796508224 3.688359029277077 3.998532716867855
338 6.309872305486745 6.757267654866321 4.216006822211739
339 2.446375642603282 5.102686901201901 3.634487624320041
340 5.472702009603274 1.513920533093692 3.262640131071196
341 3.807646125930733 5.05918006739798 1.801291758426556
342 1.397078908382479 3.49868513617086 5.136540194586008
343 4.744358198656186 6.946855418654533 7.066903785826828
344 4.15701724230306 3.140162746022209 7.470173753750926
345 2.861915066322362 2.496234234107331 5.149248715117494
346 4.748714771601915 3.142382815925397 2.721392286642012
347 5.028235685883696 3.370428637104285 1.132211225589175
348 7.38659533856713 5.840547831468929 6.729819060341183
349 7.490699617134 4.128758855119151 3.571901648122418
350 7.378017169001469 2.041340889654033 4.163585872331007
351 2.333482590295636 7.064825935538766 5.661673147786561
352 5.952419042024014 1.082104605574326 1.094918103304034
353 1.102040305337674 1.102040305337674 5.98335877342028
354 7.44456467161581 2.507831005137081 7.170844811967974
355 5.210825160868644 7.554016242778435 2.164156683641013
356 3.338803009310636 4.366689051218375 2.856216452772641
357 1.354554698382989 4.285303992073833 4.156594098724642
358 1.593175285493245 7.988712804905227 1.592441528106566
359 7.04907373183839 5.965715251807082 2.148693272011912
360 2.521206931260773 5.31057869648772 1.596165003849083
361 1.523768026518806 6.509904820948052 3.485745424144874
362 2.284761865347388 3.572868327858477 4.347037260346031
363 3.456610520051604 6.798221588557658 1.581299093703574
364 1.529753143432292 5.300169904153681 2.417869647516878
365 4.654774801196897 5.543089539906755 3.61632913930723
366 8.054688349962365 1.563191506691507 1.606209389902798
367 4.414043879463352 2.25035665336585 3.440436274523449
368 4.202742386429263 4.224309639288066 1.058018830004275
369 5.612102735964807 2.27572115442529 1.096799521435668
370 4.165798487438009 1.31288082709725 4.10912268422788
371 1.051786015245032 5.92744777088892 1.051786015245032
372 3.554265240798987 2.306395510719711 4.216130582255173
373 1.574440338674522 1.564423753617952 7.908439225857132
374 5.795774299299168 2.958012239368426 3.970727170353923
375 2.706116369501462 4.99898184573066 8.008845729905863
$EndNodes
$Elements
1896
1 2 2 1 1 1 12 109
2 2 2 1 1 30 1 109
3 2 2 1 1 14 2 104
4 2 2 1 1 2 15 104
5 2 2 1 1 17 3 105
6 2 2 1 1 3 20 105
7 2 2 1 1 18 4 103
8 2 2 1 1 4 23 103
9 2 2 1 1 21 5 108
10 2 2 1 1 5 24 108
11 2 2 1 1 12 13 97
12 2 2 1 1 12 97 109
13 2 2 1 1 13 14 84
14 2 2 1 1 13 84 97
15 2 2 1 1 84 14 104
16 2 2 1 1 15 16 87
17 2 2 1 1 15 87 106
18 2 2 1 1 104 15 106
19 2 2 1 1 16 17 94
20 2 2 1 1 87 16 94
21 2 2 1 1 94 17 105
22 2 2 1 1 19 18 107
23 2 2 1 1 102 18 103
24 2 2 1 1 18 102 107
25 2 2 1 1 20 19 85
26 2 2 1 1 85 19 110
27 2 2 1 1 19 107 110
28 2 2 1 1 20 85 105
29 2 2 1 1 22 21 86
30 2 2 1 1 86 21 108
31 2 2 1 1 23 22 98
32 2 2 1 1 22 86 98
33 2 2 1 1 23 98 103
34 2 2 1 1 24 25 101
35 2 2 1 1 24 101 108
36 2 2 1 1 25 26 82
37 2 2 1 1 25 82 101
38 2 2 1 1 26 27 88
39 2 2 1 1 82 26 88
40 2 2 1 1 27 28 81
41 2 2 1 1 27 81 88
42 2 2 1 1 28 29 93
43 2 2 1 1 81 28 93
44 2 2 1 1 29 30 83
45 2 2 1 1 29 83 93
46 2 2 1 1 83 30 109
47 2 2 1 1 88 81 89
48 2 2 1 1 89 81 96
49 2 2 1 1 81 93 96
50 2 2 1 1 82 88 90
51 2 2 1 1 82 90 91
52 2 2 1 1 82 91 101
53 2 2 1 1 93 83 95
54 2 2 1 1 95 83 112
55 2 2 1 1 97 83 109
56 2 2 1 1 83 97 112
57 2 2 1 1 97 84 112
58 2 2 1 1 84 104 106
59 2 2 1 1 84 106 112
60 2 2 1 1 94 85 100
61 2 2 1 1 85 94 105
62 2 2 1 1 85 99 100
63 2 2 1 1 99 85 110
64 2 2 1 1 98 86 111
65 2 2 1 1 101 86 108
66 2 2 1 1 86 101 111
67 2 2 1 1 87 94 100
68 2 2 1 1 95 87 96
69 2 2 1 1 87 95 106
70 2 2 1 1 96 87 100
71 2 2 1 1 88 89 90
72 2 2 1 1 90 89 99
73 2 2 1 1 89 96 100
74 2 2 1 1 99 89 100
75 2 2 1 1 91 90 92
76 2 2 1 1 92 90 99
77 2 2 1 1 91 92 102
78 2 2 1 1 101 91 111
79 2 2 1 1 91 102 111
80 2 2 1 1 92 99 110
81 2 2 1 1 102 92 107
82 2 2 1 1 107 92 110
83 2 2 1 1 93 95 96
84 2 2 1 1 106 95 112
85 2 2 1 1 98 102 103
86 2 2 1 1 102 98 111
87 2 2 2 2 12 1 141
88 2 2 2 2 1 46 141
89 2 2 2 2 2 14 136
90 2 2 2 2 37 2 136
91 2 2 2 2 6 31 139
92 2 2 2 2 40 6 139
93 2 2 2 2 33 7 134
94 2 2 2 2 7 34 134
95 2 2 2 2 36 8 137
96 2 2 2 2 8 39 137
97 2 2 2 2 13 12 130
98 2 2 2 2 130 12 141
99 2 2 2 2 14 13 116
100 2 2 2 2 116 13 130
101 2 2 2 2 14 116 136
102 2 2 2 2 31 32 118
103 2 2 2 2 31 118 139
104 2 2 2 2 32 33 131
105 2 2 2 2 118 32 131
106 2 2 2 2 131 33 134
107 2 2 2 2 34 35 126
108 2 2 2 2 34 126 135
109 2 2 2 2 134 34 135
110 2 2 2 2 35 36 117
111 2 2 2 2 35 117 126
112 2 2 2 2 117 36 137
113 2 2 2 2 38 37 119
114 2 2 2 2 119 37 138
115 2 2 2 2 37 136 138
116 2 2 2 2 39 38 123
117 2 2 2 2 38 119 123
118 2 2 2 2 39 123 137
119 2 2 2 2 41 40 124
120 2 2 2 2 124 40 139
121 2 2 2 2 42 41 114
122 2 2 2 2 114 41 124
123 2 2 2 2 43 42 120
124 2 2 2 2 42 114 120
125 2 2 2 2 44 43 113
126 2 2 2 2 113 43 120
127 2 2 2 2 45 44 122
128 2 2 2 2 44 113 122
129 2 2 2 2 46 45 115
130 2 2 2 2 115 45 122
131 2 2 2 2 46 115 141
132 2 2 2 2 113 120 121
133 2 2 2 2 113 121 128
134 2 2 2 2 122 113 128
135 2 2 2 2 120 114 127
136 2 2 2 2 114 124 125
137 2 2 2 2 114 125 127
138 2 2 2 2 115 122 129
139 2 2 2 2 115 129 143
140 2 2 2 2 115 130 141
141 2 2 2 2 130 115 143
142 2 2 2 2 116 130 143
143 2 2 2 2 136 116 138
144 2 2 2 2 138 116 143
145 2 2 2 2 126 117 132
146 2 2 2 2 132 117 142
147 2 2 2 2 117 137 142
148 2 2 2 2 118 124 139
149 2 2 2 2 124 118 140
150 2 2 2 2 118 131 140
151 2 2 2 2 123 119 133
152 2 2 2 2 128 119 129
153 2 2 2 2 119 128 133
154 2 2 2 2 129 119 138
155 2 2 2 2 121 120 127
156 2 2 2 2 121 127 132
157 2 2 2 2 128 121 133
158 2 2 2 2 121 132 133
159 2 2 2 2 122 128 129
160 2 2 2 2 123 133 142
161 2 2 2 2 137 123 142
162 2 2 2 2 125 124 140
163 2 2 2 2 127 125 144
164 2 2 2 2 135 125 140
165 2 2 2 2 125 135 144
166 2 2 2 2 126 132 144
167 2 2 2 2 135 126 144
168 2 2 2 2 132 127 144
169 2 2 2 2 129 138 143
170 2 2 2 2 131 134 135
171 2 2 2 2 131 135 140
172 2 2 2 2 133 132 142
173 2 2 6 3 2 156 15
174 2 2 6 3 37 156 2
175 2 2 6 3 17 155 3
176 2 2 6 3 3 155 47
177 2 2 6 3 8 157 39
178 2 2 6 3 50 157 8
179 2 2 6 3 49 159 9
180 2 2 6 3 9 159 52
181 2 2 6 3 15 148 16
182 2 2 6 3 15 156 148
183 2 2 6 3 16 146 17
184 2 2 6 3 16 148 146
185 2 2 6 3 146 155 17
186 2 2 6 3 38 152 37
187 2 2 6 3 152 156 37
188 2 2 6 3 39 145 38
189 2 2 6 3 145 152 38
190 2 2 6 3 39 157 145
191 2 2 6 3 47 150 48
192 2 2 6 3 47 155 150
193 2 2 6 3 48 147 49
194 2 2 6 3 48 150 147
195 2 2 6 3 147 159 49
196 2 2 6 3 51 154 50
197 2 2 6 3 154 157 50
198 2 2 6 3 52 153 51
199 2 2 6 3 51 153 151
200 2 2 6 3 151 154 51
201 2 2 6 3 52 159 153
202 2 2 6 3 145 158 152
203 2 2 6 3 145 157 154
204 2 2 6 3 154 158 145
205 2 2 6 3 148 149 146
206 2 2 6 3 149 150 146
207 2 2 6 3 150 155 146
208 2 2 6 3 147 150 149
209 2 2 6 3 149 151 147
210 2 2 6 3 151 153 147
211 2 2 6 3 153 159 147
212 2 2 6 3 148 152 149
213 2 2 6 3 148 156 152
214 2 2 6 3 149 158 151
215 2 2 6 3 152 158 149
216 2 2 6 3 151 158 154
217 2 2 5 4 3 172 20
218 2 2 5 4 47 172 3
219 2 2 5 4 18 170 4
220 2 2 5 4 4 170 53
221 2 2 5 4 9 171 49
222 2 2 5 4 58 171 9
223 2 2 5 4 55 173 10
224 2 2 5 4 10 173 56
225 2 2 5 4 19 161 18
226 2 2 5 4 161 170 18
227 2 2 5 4 20 167 19
228 2 2 5 4 19 167 161
229 2 2 5 4 20 172 167
230 2 2 5 4 48 163 47
231 2 2 5 4 163 172 47
232 2 2 5 4 49 160 48
233 2 2 5 4 160 163 48
234 2 2 5 4 49 171 160
235 2 2 5 4 53 166 54
236 2 2 5 4 53 170 166
237 2 2 5 4 54 162 55
238 2 2 5 4 54 166 162
239 2 2 5 4 162 173 55
240 2 2 5 4 56 168 57
241 2 2 5 4 56 173 168
242 2 2 5 4 57 165 58
243 2 2 5 4 57 168 165
244 2 2 5 4 165 171 58
245 2 2 5 4 160 164 163
246 2 2 5 4 160 165 164
247 2 2 5 4 160 171 165
248 2 2 5 4 166 170 161
249 2 2 5 4 161 174 166
250 2 2 5 4 167 174 161
251 2 2 5 4 166 174 162
252 2 2 5 4 162 169 168
253 2 2 5 4 168 173 162
254 2 2 5 4 162 174 169
255 2 2 5 4 164 167 163
256 2 2 5 4 167 172 163
257 2 2 5 4 165 169 164
258 2 2 5 4 164 174 167
259 2 2 5 4 169 174 164
260 2 2 5 4 168 169 165
261 2 2 3 5 23 4 199
262 2 2 3 5 4 53 199
263 2 2 3 5 5 21 203
264 2 2 3 5 68 5 203
265 2 2 3 5 31 6 202
266 2 2 3 5 6 62 202
267 2 2 3 5 7 33 198
268 2 2 3 5 59 7 198
269 2 2 3 5 55 10 197
270 2 2 3 5 10 61 197
271 2 2 3 5 21 22 190
272 2 2 3 5 21 190 203
273 2 2 3 5 22 23 178
274 2 2 3 5 22 178 190
275 2 2 3 5 178 23 199
276 2 2 3 5 32 31 180
277 2 2 3 5 180 31 202
278 2 2 3 5 33 32 191
279 2 2 3 5 32 180 191
280 2 2 3 5 33 191 198
281 2 2 3 5 53 54 181
282 2 2 3 5 53 181 200
283 2 2 3 5 199 53 200
284 2 2 3 5 54 55 195
285 2 2 3 5 181 54 195
286 2 2 3 5 195 55 197
287 2 2 3 5 60 59 188
288 2 2 3 5 188 59 196
289 2 2 3 5 196 59 198
290 2 2 3 5 61 60 179
291 2 2 3 5 179 60 188
292 2 2 3 5 61 179 197
293 2 2 3 5 62 63 186
294 2 2 3 5 62 186 202
295 2 2 3 5 63 64 176
296 2 2 3 5 63 176 186
297 2 2 3 5 64 65 193
298 2 2 3 5 176 64 193
299 2 2 3 5 65 66 175
300 2 2 3 5 65 175 193
301 2 2 3 5 66 67 182
302 2 2 3 5 175 66 182
303 2 2 3 5 67 68 177
304 2 2 3 5 67 177 182
305 2 2 3 5 177 68 203
306 2 2 3 5 175 182 183
307 2 2 3 5 175 183 184
308 2 2 3 5 175 184 193
309 2 2 3 5 186 176 187
310 2 2 3 5 187 176 192
311 2 2 3 5 192 176 193
312 2 2 3 5 182 177 189
313 2 2 3 5 189 177 205
314 2 2 3 5 190 177 203
315 2 2 3 5 177 190 205
316 2 2 3 5 190 178 205
317 2 2 3 5 178 199 200
318 2 2 3 5 178 200 205
319 2 2 3 5 179 188 194
320 2 2 3 5 179 194 201
321 2 2 3 5 197 179 201
322 2 2 3 5 186 180 202
323 2 2 3 5 180 186 204
324 2 2 3 5 191 180 204
325 2 2 3 5 183 181 185
326 2 2 3 5 181 183 189
327 2 2 3 5 185 181 195
328 2 2 3 5 181 189 200
329 2 2 3 5 183 182 189
330 2 2 3 5 184 183 185
331 2 2 3 5 184 185 194
332 2 2 3 5 184 192 193
333 2 2 3 5 192 184 194
334 2 2 3 5 194 185 201
335 2 2 3 5 185 195 201
336 2 2 3 5 186 187 204
337 2 2 3 5 188 187 192
338 2 2 3 5 187 188 196
339 2 2 3 5 187 196 204
340 2 2 3 5 188 192 194
341 2 2 3 5 200 189 205
342 2 2 3 5 191 196 198
343 2 2 3 5 196 191 204
344 2 2 3 5 195 197 201
345 2 2 4 7 7 263 34
346 2 2 4 7 59 263 7
347 2 2 4 7 36 261 8
348 2 2 4 7 8 261 50
349 2 2 4 7 52 262 9
350 2 2 4 7 9 262 58
351 2 2 4 7 56 265 10
352 2 2 4 7 10 265 61
353 2 2 4 7 34 251 35
354 2 2 4 7 34 263 251
355 2 2 4 7 35 258 36
356 2 2 4 7 251 258 35
357 2 2 4 7 258 261 36
358 2 2 4 7 50 254 51
359 2 2 4 7 50 261 254
360 2 2 4 7 51 252 52
361 2 2 4 7 51 254 252
362 2 2 4 7 252 262 52
363 2 2 4 7 57 253 56
364 2 2 4 7 253 265 56
365 2 2 4 7 58 256 57
366 2 2 4 7 57 256 253
367 2 2 4 7 58 262 256
368 2 2 4 7 60 260 59
369 2 2 4 7 260 263 59
370 2 2 4 7 61 259 60
371 2 2 4 7 60 259 257
372 2 2 4 7 257 260 60
373 2 2 4 7 61 265 259
374 2 2 4 7 251 264 258
375 2 2 4 7 251 263 260
376 2 2 4 7 260 264 251
377 2 2 4 7 254 255 252
378 2 2 4 7 255 256 252
379 2 2 4 7 256 262 252
380 2 2 4 7 253 256 255
381 2 2 4 7 255 257 253
382 2 2 4 7 257 259 253
383 2 2 4 7 259 265 253
384 2 2 4 7 254 258 255
385 2 2 4 7 254 261 258
386 2 2 4 7 255 264 257
387 2 2 4 7 258 264 255
388 2 2 4 7 257 264 260
389 2 2 3 8 5 68 72
390 2 2 3 8 6 76 62
391 2 2 3 8 11 69 279
392 2 2 3 8 73 11 279
393 2 2 3 8 63 62 271
394 2 2 3 8 62 76 271
395 2 2 3 8 64 63 269
396 2 2 3 8 269 63 271
397 2 2 3 8 65 64 278
398 2 2 3 8 64 269 278
399 2 2 3 8 66 65 266
400 2 2 3 8 266 65 278
401 2 2 3 8 67 66 277
402 2 2 3 8 66 266 277
403 2 2 3 8 68 67 270
404 2 2 3 8 270 67 277
405 2 2 3 8 72 68 270
406 2 2 3 8 69 70 272
407 2 2 3 8 69 272 279
408 2 2 3 8 70 71 268
409 2 2 3 8 70 268 272
410 2 2 3 8 71 72 282
411 2 2 3 8 268 71 282
412 2 2 3 8 72 270 282
413 2 2 3 8 74 73 275
414 2 2 3 8 275 73 279
415 2 2 3 8 75 74 267
416 2 2 3 8 267 74 275
417 2 2 3 8 76 75 271
418 2 2 3 8 75 267 280
419 2 2 3 8 271 75 280
420 2 2 3 8 266 274 277
421 2 2 3 8 274 266 281
422 2 2 3 8 266 278 281
423 2 2 3 8 273 267 275
424 2 2 3 8 267 273 276
425 2 2 3 8 267 276 280
426 2 2 3 8 272 268 273
427 2 2 3 8 273 268 274
428 2 2 3 8 274 268 282
429 2 2 3 8 269 271 280
430 2 2 3 8 269 276 278
431 2 2 3 8 276 269 280
432 2 2 3 8 274 270 277
433 2 2 3 8 270 274 282
434 2 2 3 8 272 273 275
435 2 2 3 8 272 275 279
436 2 2 3 8 273 274 281
437 2 2 3 8 276 273 281
438 2 2 3 8 278 276 281
439 2 2 2 9 46 1 80
440 2 2 2 9 76 6 40
441 2 2 2 9 11 73 297
442 2 2 2 9 77 11 297
443 2 2 2 9 40 41 288
444 2 2 2 9 76 40 288
445 2 2 2 9 41 42 286
446 2 2 2 9 41 286 288
447 2 2 2 9 42 43 295
448 2 2 2 9 286 42 295
449 2 2 2 9 43 44 283
450 2 2 2 9 43 283 295
451 2 2 2 9 44 45 294
452 2 2 2 9 283 44 294
453 2 2 2 9 45 46 287
454 2 2 2 9 45 287 294
455 2 2 2 9 46 80 287
456 2 2 2 9 73 74 292
457 2 2 2 9 73 292 297
458 2 2 2 9 74 75 284
459 2 2 2 9 74 284 292
460 2 2 2 9 75 76 288
461 2 2 2 9 284 75 298
462 2 2 2 9 75 288 298
463 2 2 2 9 78 77 289
464 2 2 2 9 289 77 297
465 2 2 2 9 79 78 285
466 2 2 2 9 285 78 289
467 2 2 2 9 80 79 296
468 2 2 2 9 79 285 296
469 2 2 2 9 287 80 296
470 2 2 2 9 291 283 294
471 2 2 2 9 283 291 299
472 2 2 2 9 295 283 299
473 2 2 2 9 284 290 292
474 2 2 2 9 290 284 293
475 2 2 2 9 293 284 298
476 2 2 2 9 285 289 290
477 2 2 2 9 285 290 291
478 2 2 2 9 285 291 296
479 2 2 2 9 288 286 298
480 2 2 2 9 293 286 295
481 2 2 2 9 286 293 298
482 2 2 2 9 287 291 294
483 2 2 2 9 291 287 296
484 2 2 2 9 290 289 292
485 2 2 2 9 292 289 297
486 2 2 2 9 291 290 299
487 2 2 2 9 290 293 299
488 2 2 2 9 293 295 299
489 2 2 1 10 1 30 80
490 2 2 1 10 24 5 72
491 2 2 1 10 69 11 313
492 2 2 1 10 11 77 313
493 2 2 1 10 25 24 305
494 2 2 1 10 24 72 305
495 2 2 1 10 26 25 303
496 2 2 1 10 303 25 305
497 2 2 1 10 27 26 312
498 2 2 1 10 26 303 312
499 2 2 1 10 28 27 300
500 2 2 1 10 300 27 312
501 2 2 1 10 29 28 311
502 2 2 1 10 28 300 311
503 2 2 1 10 30 29 304
504 2 2 1 10 304 29 311
505 2 2 1 10 80 30 304
506 2 2 1 10 70 69 309
507 2 2 1 10 309 69 313
508 2 2 1 10 71 70 301
509 2 2 1 10 301 70 309
510 2 2 1 10 72 71 305
511 2 2 1 10 71 301 314
512 2 2 1 10 305 71 314
513 2 2 1 10 77 78 306
514 2 2 1 10 77 306 313
515 2 2 1 10 78 79 302
516 2 2 1 10 78 302 306
517 2 2 1 10 79 80 316
518 2 2 1 10 302 79 316
519 2 2 1 10 80 304 316
520 2 2 1 10 300 308 311
521 2 2 1 10 308 300 315
522 2 2 1 10 300 312 315
523 2 2 1 10 307 301 309
524 2 2 1 10 301 307 310
525 2 2 1 10 301 310 314
526 2 2 1 10 306 302 307
527 2 2 1 10 307 302 308
528 2 2 1 10 308 302 316
529 2 2 1 10 303 305 314
530 2 2 1 10 303 310 312
531 2 2 1 10 310 303 314
532 2 2 1 10 308 304 311
533 2 2 1 10 304 308 316
534 2 2 1 10 306 307 309
535 2 2 1 10 306 309 313
536 2 2 1 10 307 308 315
537 2 2 1 10 310 307 315
538 2 2 1 10 312 310 315
539 4 2 1 2 235 220 318 321
540 4 2 1 2 220 318 317 319
541 4 2 1 2 317 318 220 321
542 4 2 1 2 221 219 220 321
543 4 2 1 2 230 236 213 318
544 4 2 1 2 247 319 218 322
545 4 2 1 2 220 222 318 319
546 4 2 1 2 219 317 220 321
547 4 2 1 2 219 320 317 321
548 4 2 1 2 312 318 224 319
549 4 2 1 2 235 321 318 326
550 4 2 1 2 238 224 211 318
551 4 2 1 2 273 318 268 323
552 4 2 1 2 218 319 317 322
553 4 2 1 2 268 318 301 323
554 4 2 1 2 236 305 213 318
555 4 2 1 2 293 325 320 328
556 4 2 1 2 274 273 281 326
557 4 2 1 2 293 317 325 328
558 4 2 1 2 219 218 317 322
559 4 2 1 2 307 323 318 327
560 4 2 1 2 307 318 319 327
561 4 2 1 2 219 317 320 325
562 4 2 1 2 219 221 225 321
563 4 2 1 2 219 322 317 325
564 4 2 1 2 290 317 293 328
565 4 2 1 2 213 230 318 326
566 4 2 1 2 247 319 322 324
567 4 2 1 2 273 318 323 328
568 4 2 1 2 312 310 318 319
569 4 2 1 2 307 310 315 319
570 4 2 1 2 213 318 270 326
571 4 2 1 2 218 220 219 317
572 4 2 1 2 211 303 236 318
573 4 2 1 2 307 318 310 319
574 4 2 1 2 219 225 320 321
575 4 2 1 2 301 318 307 323
576 4 2 1 2 235 220 223 318
577 4 2 1 2 311 319 226 324
578 4 2 1 2 317 318 323 327
579 4 2 1 2 220 222 223 318
580 4 2 1 2 290 293 284 328
581 4 2 1 2 317 319 318 327
582 4 2 1 2 320 325 317 328
583 4 2 1 2 317 323 318 328
584 4 2 1 2 270 213 305 318
585 4 2 1 2 312 315 310 319
586 4 2 1 2 219 216 218 322
587 4 2 1 2 222 224 318 319
588 4 2 1 2 211 236 230 318
589 4 2 1 2 247 322 217 324
590 4 2 1 2 216 322 219 325
591 4 2 1 2 274 318 273 326
592 4 2 1 2 303 312 310 318
593 4 2 1 2 224 246 210 319
594 4 2 1 2 312 239 210 319
595 4 2 1 2 312 224 239 319
596 4 2 1 2 268 301 272 323
597 4 2 1 2 290 323 317 328
598 4 2 1 2 311 300 226 319
599 4 2 1 2 301 310 307 318
600 4 2 1 2 290 322 317 327
601 4 2 1 2 212 320 245 321
602 4 2 1 2 318 321 317 328
603 4 2 1 2 293 320 284 328
604 4 2 1 2 236 303 305 318
605 4 2 1 2 220 235 221 321
606 4 2 1 2 299 290 291 322
607 4 2 1 2 308 319 311 324
608 4 2 1 2 273 274 268 318
609 4 2 1 2 250 242 269 320
610 4 2 1 2 309 272 301 323
611 4 2 1 2 211 230 238 318
612 4 2 1 2 208 241 243 325
613 4 2 1 2 210 239 224 319
614 4 2 1 2 273 268 272 323
615 4 2 1 2 231 212 245 321
616 4 2 1 2 226 319 227 324
617 4 2 1 2 212 269 320 321
618 4 2 1 2 223 222 224 318
619 4 2 1 2 290 284 323 328
620 4 2 1 2 241 320 243 325
621 4 2 1 2 250 212 269 242
622 4 2 1 2 291 322 290 327
623 4 2 1 2 242 212 269 320
624 4 2 1 2 219 225 234 325
625 4 2 1 2 231 278 212 321
626 4 2 1 2 219 320 225 325
627 4 2 1 2 212 278 269 321
628 4 2 1 2 245 225 221 321
629 4 2 1 2 247 222 218 319
630 4 2 1 2 300 312 210 319
631 4 2 1 2 270 305 282 318
632 4 2 1 2 208 243 286 325
633 4 2 1 2 243 320 286 325
634 4 2 1 2 238 223 224 318
635 4 2 1 2 250 214 242 320
636 4 2 1 2 213 277 229 326
637 4 2 1 2 291 324 322 327
638 4 2 1 2 222 246 224 319
639 4 2 1 2 210 226 300 319
640 4 2 1 2 245 320 225 321
641 4 2 1 2 322 324 319 327
642 4 2 1 2 282 305 314 318
643 4 2 1 2 235 318 223 326
644 4 2 1 2 232 322 294 324
645 4 2 1 2 317 322 319 327
646 4 2 1 2 240 213 236 305
647 4 2 1 2 317 323 290 327
648 4 2 1 2 247 217 228 324
649 4 2 1 2 308 300 311 319
650 4 2 1 2 300 315 312 319
651 4 2 1 2 213 270 277 326
652 4 2 1 2 270 318 274 326
653 4 2 1 2 233 311 226 324
654 4 2 1 2 226 227 228 324
655 4 2 1 2 274 270 282 318
656 4 2 1 2 218 217 247 322
657 4 2 1 2 249 206 231 321
658 4 2 1 2 231 206 278 321
659 4 2 1 2 267 284 320 328
660 4 2 1 2 278 206 266 321
661 4 2 1 2 282 268 274 318
662 4 2 1 2 210 227 226 319
663 4 2 1 2 243 241 214 320
664 4 2 1 2 294 322 291 324
665 4 2 1 2 269 276 320 321
666 4 2 1 2 242 214 241 320
667 4 2 1 2 301 307 309 323
668 4 2 1 2 267 284 298 320
669 4 2 1 2 293 298 284 320
670 4 2 1 2 267 298 280 320
671 4 2 1 2 292 290 284 323
672 4 2 1 2 292 275 323 328
673 4 2 1 2 292 323 284 328
674 4 2 1 2 295 207 215 322
675 4 2 1 2 240 270 213 305
676 4 2 1 2 292 267 275 328
677 4 2 1 2 225 245 212 320
678 4 2 1 2 233 304 311 324
679 4 2 1 2 283 207 295 322
680 4 2 1 2 235 249 321 326
681 4 2 1 2 307 319 315 327
682 4 2 1 2 213 229 230 326
683 4 2 1 2 267 320 280 328
684 4 2 1 2 217 322 232 324
685 4 2 1 2 306 302 289 327
686 4 2 1 2 295 322 215 325
687 4 2 1 2 314 305 303 318
688 4 2 1 2 292 284 267 328
689 4 2 1 2 235 223 244 326
690 4 2 1 2 286 243 288 320
691 4 2 1 2 246 227 210 319
692 4 2 1 2 266 321 206 326
693 4 2 1 2 285 316 324 327
694 4 2 1 2 316 296 285 324
695 4 2 1 2 242 225 212 320
696 4 2 1 2 232 283 294 322
697 4 2 1 2 235 249 221 321
698 4 2 1 2 237 287 304 324
699 4 2 1 2 232 294 209 324
700 4 2 1 2 234 216 219 325
701 4 2 1 2 285 302 316 327
702 4 2 1 2 289 302 285 327
703 4 2 1 2 302 306 289 78
704 4 2 1 2 250 269 271 320
705 4 2 1 2 296 304 287 324
706 4 2 1 2 306 289 323 327
707 4 2 1 2 304 296 316 324
708 4 2 1 2 243 214 288 320
709 4 2 1 2 294 283 291 322
710 4 2 1 2 206 321 249 326
711 4 2 1 2 315 319 308 327
712 4 2 1 2 289 290 323 327
713 4 2 1 2 285 291 290 327
714 4 2 1 2 304 308 311 324
715 4 2 1 2 209 294 287 324
716 4 2 1 2 250 271 214 320
717 4 2 1 2 237 304 233 324
718 4 2 1 2 280 298 288 320
719 4 2 1 2 269 278 276 321
720 4 2 1 2 230 223 238 318
721 4 2 1 2 315 300 308 319
722 4 2 1 2 302 289 285 78
723 4 2 1 2 310 314 303 318
724 4 2 1 2 285 324 291 327
725 4 2 1 2 319 324 308 327
726 4 2 1 2 289 285 290 327
727 4 2 1 2 281 321 266 326
728 4 2 1 2 216 217 218 322
729 4 2 1 2 298 320 293 325
730 4 2 1 2 215 322 216 325
731 4 2 1 2 216 215 207 322
732 4 2 1 2 298 286 320 325
733 4 2 1 2 245 221 249 321
734 4 2 1 2 245 249 231 321
735 4 2 1 2 237 233 209 324
736 4 2 1 2 297 306 289 323
737 4 2 1 2 320 321 276 328
738 4 2 1 2 295 299 322 325
739 4 2 1 2 214 271 288 320
740 4 2 1 2 208 295 215 325
741 4 2 1 2 208 286 295 325
742 4 2 1 2 292 267 74 275
743 4 2 1 2 222 247 227 319
744 4 2 1 2 266 281 278 321
745 4 2 1 2 314 310 301 318
746 4 2 1 2 237 209 287 324
747 4 2 1 2 232 207 283 322
748 4 2 1 2 308 324 316 327
749 4 2 1 2 42 295 215 208
750 4 2 1 2 208 42 295 286
751 4 2 1 2 228 217 232 324
752 4 2 1 2 313 306 297 323
753 4 2 1 2 231 65 278 206
754 4 2 1 2 222 227 246 319
755 4 2 1 2 266 278 65 206
756 4 2 1 2 283 43 295 207
757 4 2 1 2 207 43 295 215
758 4 2 1 2 267 292 74 284
759 4 2 1 2 299 283 295 322
760 4 2 1 2 280 288 271 320
761 4 2 1 2 241 225 242 320
762 4 2 1 2 235 206 249 326
763 4 2 1 2 279 272 309 323
764 4 2 1 2 226 228 233 324
765 4 2 1 2 302 308 316 327
766 4 2 1 2 317 321 320 328
767 4 2 1 2 280 269 276 320
768 4 2 1 2 313 279 309 323
769 4 2 1 2 275 279 297 323
770 4 2 1 2 234 241 208 325
771 4 2 1 2 288 298 286 320
772 4 2 1 2 306 323 307 327
773 4 2 1 2 313 297 279 323
774 4 2 1 2 239 312 26 303
775 4 2 1 2 275 273 272 323
776 4 2 1 2 299 291 283 322
777 4 2 1 2 277 270 274 326
778 4 2 1 2 66 277 266 326
779 4 2 1 2 273 323 275 328
780 4 2 1 2 307 315 308 327
781 4 2 1 2 284 267 298 75
782 4 2 1 2 304 80 296 287
783 4 2 1 2 280 298 267 75
784 4 2 1 2 275 297 292 323
785 4 2 1 2 307 306 309 323
786 4 2 1 2 290 292 289 323
787 4 2 1 2 276 321 281 328
788 4 2 1 2 287 304 80 237
789 4 2 1 2 211 239 26 303
790 4 2 1 2 296 291 285 324
791 4 2 1 2 229 277 66 326
792 4 2 1 2 209 228 232 324
793 4 2 1 2 298 293 286 325
794 4 2 1 2 80 296 316 304
795 4 2 1 2 230 229 244 326
796 4 2 1 2 311 28 226 300
797 4 2 1 2 67 277 229 213
798 4 2 1 2 278 281 276 321
799 4 2 1 2 209 233 228 324
800 4 2 1 2 289 297 77 306
801 4 2 1 2 316 308 304 324
802 4 2 1 2 294 291 287 324
803 4 2 1 2 288 298 280 75
804 4 2 1 2 295 293 299 325
805 4 2 1 2 266 206 66 326
806 4 2 1 2 280 320 276 328
807 4 2 1 2 216 207 217 322
808 4 2 1 2 236 211 25 303
809 4 2 1 2 313 77 297 306
810 4 2 1 2 269 280 271 320
811 4 2 1 2 312 27 210 239
812 4 2 1 2 300 27 210 312
813 4 2 1 2 206 229 66 326
814 4 2 1 2 217 207 232 322
815 4 2 1 2 210 226 28 300
816 4 2 1 2 213 67 277 270
817 4 2 1 2 283 232 294 44
818 4 2 1 2 271 248 214 288
819 4 2 1 2 272 69 279 309
820 4 2 1 2 234 215 216 325
821 4 2 1 2 279 275 272 323
822 4 2 1 2 294 232 209 45
823 4 2 1 2 271 288 280 75
824 4 2 1 2 309 306 313 323
825 4 2 1 2 305 240 270 72
826 4 2 1 2 69 313 279 309
827 4 2 1 2 292 297 289 323
828 4 2 1 2 73 279 297 275
829 4 2 1 2 235 244 206 326
830 4 2 1 2 296 285 79 316
831 4 2 1 2 283 232 44 207
832 4 2 1 2 306 307 302 327
833 4 2 1 2 292 73 297 275
834 4 2 1 2 285 302 79 316
835 4 2 1 2 294 209 287 45
836 4 2 1 2 274 281 266 326
837 4 2 1 2 303 25 236 305
838 4 2 1 2 208 215 234 325
839 4 2 1 2 276 281 273 328
840 4 2 1 2 287 291 296 324
841 4 2 1 2 302 307 308 327
842 4 2 1 2 306 77 289 78
843 4 2 1 2 304 30 80 237
844 4 2 1 2 282 268 301 71
845 4 2 1 2 267 273 275 328
846 4 2 1 2 63 212 269 250
847 4 2 1 2 305 270 282 72
848 4 2 1 2 301 314 282 71
849 4 2 1 2 271 214 248 250
850 4 2 1 2 272 70 69 309
851 4 2 1 2 44 43 283 207
852 4 2 1 2 68 270 240 72
853 4 2 1 2 11 313 297 279
854 4 2 1 2 65 266 206 66
855 4 2 1 2 295 286 293 325
856 4 2 1 2 43 295 215 42
857 4 2 1 2 41 208 243 286
858 4 2 1 2 64 231 65 278
859 4 2 1 2 274 266 277 326
860 4 2 1 2 285 302 78 79
861 4 2 1 2 288 271 76 75
862 4 2 1 2 206 244 229 326
863 4 2 1 2 73 292 74 275
864 4 2 1 2 284 74 267 75
865 4 2 1 2 80 30 1 237
866 4 2 1 2 271 76 248 288
867 4 2 1 2 311 226 29 233
868 4 2 1 2 213 68 270 240
869 4 2 1 2 269 212 63 64
870 4 2 1 2 240 5 68 72
871 4 2 1 2 24 5 240 72
872 4 2 1 2 233 30 304 237
873 4 2 1 2 208 41 42 286
874 4 2 1 2 29 311 233 304
875 4 2 1 2 46 287 80 237
876 4 2 1 2 288 41 243 286
877 4 2 1 2 269 271 63 250
878 4 2 1 2 267 276 273 328
879 4 2 1 2 314 282 71 305
880 4 2 1 2 26 25 211 303
881 4 2 1 2 28 27 210 300
882 4 2 1 2 46 80 1 237
883 4 2 1 2 40 214 248 288
884 4 2 1 2 77 11 313 297
885 4 2 1 2 279 297 11 73
886 4 2 1 2 313 11 69 279
887 4 2 1 2 214 40 243 288
888 4 2 1 2 268 70 301 71
889 4 2 1 2 6 248 62 76
890 4 2 1 2 6 40 248 76
891 4 2 1 2 45 294 232 44
892 4 2 1 2 267 280 276 328
893 4 2 1 2 248 62 271 250
894 4 2 1 2 277 229 66 67
895 4 2 1 2 305 24 240 72
896 4 2 1 2 29 28 226 311
897 4 2 1 2 282 71 305 72
898 4 2 1 2 67 213 68 270
899 4 2 1 2 26 27 312 239
900 4 2 1 2 240 236 24 305
901 4 2 1 2 248 62 76 271
902 4 2 1 2 76 40 248 288
903 4 2 1 2 79 296 316 80
904 4 2 1 2 25 24 236 305
905 4 2 1 2 41 243 40 288
906 4 2 1 2 209 46 287 45
907 4 2 1 2 233 30 29 304
908 4 2 1 2 63 271 62 250
909 4 2 1 2 237 46 287 209
910 4 2 1 2 322 290 325 299
911 4 2 1 2 322 325 290 317
912 4 2 1 2 293 325 290 299
913 4 2 1 2 293 290 325 317
914 4 2 1 2 318 328 326 321
915 4 2 1 2 318 326 328 273
916 4 2 1 2 281 326 328 321
917 4 2 1 2 281 328 326 273
918 4 2 1 2 319 220 218 317
919 4 2 1 2 319 218 220 222
920 4 2 1 2 324 227 247 319
921 4 2 1 2 324 247 227 228
922 4 2 1 2 282 301 318 314
923 4 2 1 2 282 318 301 268
924 4 2 1 2 325 225 241 320
925 4 2 1 2 325 241 225 234
926 4 2 1 2 303 318 224 312
927 4 2 1 2 224 318 303 211
928 4 2 1 2 224 239 303 312
929 4 2 1 2 303 239 224 211
930 4 2 1 2 272 301 70 309
931 4 2 1 2 70 301 272 268
932 4 2 1 2 212 278 64 269
933 4 2 1 2 64 278 212 231
934 4 2 1 2 326 223 230 318
935 4 2 1 2 326 230 223 244
936 4 2 2 3 221 249 235 356
937 4 2 2 3 174 330 338 343
938 4 2 2 3 225 241 242 369
939 4 2 2 3 249 221 245 368
940 4 2 2 3 218 220 222 362
941 4 2 2 3 330 343 174 351
942 4 2 2 3 209 115 122 353
943 4 2 2 3 329 335 132 354
944 4 2 2 3 162 338 355 359
945 4 2 2 3 338 343 330 365
946 4 2 2 3 113 207 232 370
947 4 2 2 3 241 225 346 369
948 4 2 2 3 158 344 343 348
949 4 2 2 3 155 351 343 375
950 4 2 2 3 89 331 342 357
951 4 2 2 3 335 344 133 354
952 4 2 2 3 329 348 344 354
953 4 2 2 3 331 342 336 375
954 4 2 2 3 221 249 356 368
955 4 2 2 3 93 83 233 353
956 4 2 2 3 172 343 155 351
957 4 2 2 3 172 163 343 351
958 4 2 2 3 232 209 122 336
959 4 2 2 3 243 241 340 352
960 4 2 2 3 158 344 348 354
961 4 2 2 3 343 351 330 365
962 4 2 2 3 239 211 88 357
963 4 2 2 3 209 232 228 345
964 4 2 2 3 190 178 86 371
965 4 2 2 3 207 217 232 372
966 4 2 2 3 165 343 338 348
967 4 2 2 3 339 357 351 361
968 4 2 2 3 220 218 219 337
969 4 2 2 3 329 349 348 354
970 4 2 2 3 233 226 93 336
971 4 2 2 3 110 107 161 361
972 4 2 2 3 331 89 351 357
973 4 2 2 3 343 344 329 348
974 4 2 2 3 87 336 95 342
975 4 2 2 3 172 155 105 351
976 4 2 2 3 132 340 335 374
977 4 2 2 3 335 340 121 370
978 4 2 2 3 229 206 182 360
979 4 2 2 3 160 165 171 348
980 4 2 2 3 190 205 178 371
981 4 2 2 3 174 338 330 355
982 4 2 2 3 171 262 153 348
983 4 2 2 3 142 133 123 354
984 4 2 2 3 160 343 165 348
985 4 2 2 3 329 331 343 365
986 4 2 2 3 121 335 132 340
987 4 2 2 3 90 89 357 361
988 4 2 2 3 132 350 329 354
989 4 2 2 3 336 342 87 375
990 4 2 2 3 174 338 164 343
991 4 2 2 3 208 243 241 340
992 4 2 2 3 150 155 343 375
993 4 2 2 3 98 86 178 371
994 4 2 2 3 232 122 335 345
995 4 2 2 3 224 211 239 357
996 4 2 2 3 238 211 224 364
997 4 2 2 3 150 146 155 375
998 4 2 2 3 332 333 188 349
999 4 2 2 3 218 337 220 362
1000 4 2 2 3 192 333 332 347
1001 4 2 2 3 82 88 211 364
1002 4 2 2 3 161 330 351 361
1003 4 2 2 3 161 358 330 361
1004 4 2 2 3 98 111 86 371
1005 4 2 2 3 172 163 150 343
1006 4 2 2 3 329 344 335 354
1007 4 2 2 3 96 87 95 342
1008 4 2 2 3 331 337 335 345
1009 4 2 2 3 226 233 228 336
1010 4 2 2 3 121 132 127 340
1011 4 2 2 3 172 150 155 343
1012 4 2 2 3 164 338 165 343
1013 4 2 2 3 262 153 159 171
1014 4 2 2 3 124 243 340 352
1015 4 2 2 3 257 349 338 359
1016 4 2 2 3 114 124 243 340
1017 4 2 2 3 165 338 256 348
1018 4 2 2 3 82 90 88 364
1019 4 2 2 3 249 235 356 368
1020 4 2 2 3 188 332 192 333
1021 4 2 2 3 100 89 331 342
1022 4 2 2 3 232 336 122 345
1023 4 2 2 3 119 335 128 336
1024 4 2 2 3 258 349 350 354
1025 4 2 2 3 161 351 110 361
1026 4 2 2 3 164 174 343 351
1027 4 2 2 3 197 265 173 359
1028 4 2 2 3 329 343 338 365
1029 4 2 2 3 151 158 343 348
1030 4 2 2 3 209 122 336 353
1031 4 2 2 3 161 107 358 361
1032 4 2 2 3 129 119 128 336
1033 4 2 2 3 96 87 342 375
1034 4 2 2 3 165 164 169 338
1035 4 2 2 3 90 357 88 364
1036 4 2 2 3 188 349 333 366
1037 4 2 2 3 331 351 339 357
1038 4 2 2 3 253 338 168 359
1039 4 2 2 3 329 350 349 354
1040 4 2 2 3 133 344 123 354
1041 4 2 2 3 329 343 331 344
1042 4 2 2 3 122 336 128 345
1043 4 2 2 3 88 357 211 364
1044 4 2 2 3 222 220 356 362
1045 4 2 2 3 332 349 188 359
1046 4 2 2 3 160 171 147 348
1047 4 2 2 3 331 351 343 365
1048 4 2 2 3 130 97 116 353
1049 4 2 2 3 197 259 265 359
1050 4 2 2 3 100 89 99 351
1051 4 2 2 3 171 256 262 348
1052 4 2 2 3 194 332 192 359
1053 4 2 2 3 185 341 332 355
1054 4 2 2 3 241 346 340 369
1055 4 2 2 3 330 331 339 365
1056 4 2 2 3 207 232 370 372
1057 4 2 2 3 116 97 84 353
1058 4 2 2 3 208 114 243 340
1059 4 2 2 3 184 332 185 341
1060 4 2 2 3 169 168 165 338
1061 4 2 2 3 149 343 158 344
1062 4 2 2 3 122 129 128 336
1063 4 2 2 3 166 330 358 363
1064 4 2 2 3 243 214 241 352
1065 4 2 2 3 171 165 256 348
1066 4 2 2 3 226 93 336 342
1067 4 2 2 3 229 244 206 360
1068 4 2 2 3 93 233 336 353
1069 4 2 2 3 233 209 228 353
1070 4 2 2 3 147 171 153 348
1071 4 2 2 3 264 258 349 350
1072 4 2 2 3 90 99 89 361
1073 4 2 2 3 122 128 335 345
1074 4 2 2 3 112 84 97 353
1075 4 2 2 3 253 265 259 359
1076 4 2 2 3 100 331 89 351
1077 4 2 2 3 132 350 340 374
1078 4 2 2 3 133 132 121 335
1079 4 2 2 3 336 373 344 375
1080 4 2 2 3 238 223 230 364
1081 4 2 2 3 188 192 187 333
1082 4 2 2 3 160 147 343 348
1083 4 2 2 3 211 357 224 364
1084 4 2 2 3 165 168 253 338
1085 4 2 2 3 255 348 338 349
1086 4 2 2 3 180 191 204 352
1087 4 2 2 3 87 373 336 375
1088 4 2 2 3 221 347 245 368
1089 4 2 2 3 100 96 89 342
1090 4 2 2 3 257 255 338 349
1091 4 2 2 3 160 164 165 343
1092 4 2 2 3 197 355 195 359
1093 4 2 2 3 168 169 162 338
1094 4 2 2 3 217 345 232 372
1095 4 2 2 3 110 92 107 361
1096 4 2 2 3 331 335 344 345
1097 4 2 2 3 329 335 331 337
1098 4 2 2 3 209 336 232 345
1099 4 2 2 3 169 338 174 355
1100 4 2 2 3 121 340 127 370
1101 4 2 2 3 226 336 228 342
1102 4 2 2 3 331 344 343 375
1103 4 2 2 3 348 349 255 354
1104 4 2 2 3 221 356 346 368
1105 4 2 2 3 105 94 85 351
1106 4 2 2 3 197 162 195 355
1107 4 2 2 3 192 332 188 359
1108 4 2 2 3 166 355 330 363
1109 4 2 2 3 130 116 143 353
1110 4 2 2 3 335 336 119 344
1111 4 2 2 3 166 330 161 358
1112 4 2 2 3 158 348 151 354
1113 4 2 2 3 180 131 191 352
1114 4 2 2 3 174 169 164 338
1115 4 2 2 3 331 330 351 365
1116 4 2 2 3 238 224 339 364
1117 4 2 2 3 154 348 254 354
1118 4 2 2 3 332 355 341 365
1119 4 2 2 3 236 230 213 364
1120 4 2 2 3 220 219 221 346
1121 4 2 2 3 224 223 238 339
1122 4 2 2 3 161 330 174 351
1123 4 2 2 3 180 118 131 352
1124 4 2 2 3 329 337 331 365
1125 4 2 2 3 90 361 357 364
1126 4 2 2 3 205 358 178 371
1127 4 2 2 3 159 153 147 171
1128 4 2 2 3 124 340 125 352
1129 4 2 2 3 223 224 222 339
1130 4 2 2 3 221 346 245 347
1131 4 2 2 3 225 242 212 369
1132 4 2 2 3 245 225 212 347
1133 4 2 2 3 128 119 133 335
1134 4 2 2 3 128 336 335 345
1135 4 2 2 3 338 343 329 348
1136 4 2 2 3 252 254 154 348
1137 4 2 2 3 205 177 334 371
1138 4 2 2 3 188 260 349 366
1139 4 2 2 3 184 194 185 332
1140 4 2 2 3 341 356 339 360
1141 4 2 2 3 209 228 336 345
1142 4 2 2 3 111 102 91 334
1143 4 2 2 3 165 253 256 338
1144 4 2 2 3 85 172 105 351
1145 4 2 2 3 236 364 213 371
1146 4 2 2 3 178 358 98 371
1147 4 2 2 3 172 167 163 351
1148 4 2 2 3 205 334 189 363
1149 4 2 2 3 256 338 253 348
1150 4 2 2 3 98 358 111 371
1151 4 2 2 3 145 123 344 354
1152 4 2 2 3 111 91 101 371
1153 4 2 2 3 229 182 213 360
1154 4 2 2 3 336 344 335 345
1155 4 2 2 3 337 356 220 362
1156 4 2 2 3 162 338 169 355
1157 4 2 2 3 338 348 329 349
1158 4 2 2 3 220 337 219 346
1159 4 2 2 3 208 215 42 114
1160 4 2 2 3 114 125 124 340
1161 4 2 2 3 336 344 331 375
1162 4 2 2 3 262 252 153 348
1163 4 2 2 3 206 341 182 360
1164 4 2 2 3 114 208 215 340
1165 4 2 2 3 206 235 249 368
1166 4 2 2 3 102 107 92 361
1167 4 2 2 3 194 192 188 359
1168 4 2 2 3 182 206 175 341
1169 4 2 2 3 332 341 184 368
1170 4 2 2 3 185 355 332 359
1171 4 2 2 3 330 339 331 351
1172 4 2 2 3 336 342 331 345
1173 4 2 2 3 96 100 87 375
1174 4 2 2 3 332 349 365 374
1175 4 2 2 3 331 351 100 375
1176 4 2 2 3 119 133 335 344
1177 4 2 2 3 238 339 223 364
1178 4 2 2 3 253 257 338 359
1179 4 2 2 3 255 349 258 354
1180 4 2 2 3 102 358 107 361
1181 4 2 2 3 330 355 338 365
1182 4 2 2 3 149 151 158 343
1183 4 2 2 3 226 28 81 210
1184 4 2 2 3 127 144 340 350
1185 4 2 2 3 144 333 125 340
1186 4 2 2 3 151 348 154 354
1187 4 2 2 3 188 349 260 359
1188 4 2 2 3 195 355 201 359
1189 4 2 2 3 229 67 213 182
1190 4 2 2 3 87 95 336 373
1191 4 2 2 3 341 355 185 363
1192 4 2 2 3 344 373 148 375
1193 4 2 2 3 131 118 140 352
1194 4 2 2 3 241 234 208 340
1195 4 2 2 3 177 213 360 371
1196 4 2 2 3 245 231 249 368
1197 4 2 2 3 226 228 227 342
1198 4 2 2 3 253 338 255 348
1199 4 2 2 3 94 100 351 375
1200 4 2 2 3 338 349 329 365
1201 4 2 2 3 349 359 332 365
1202 4 2 2 3 234 215 208 340
1203 4 2 2 3 119 123 133 344
1204 4 2 2 3 252 154 151 348
1205 4 2 2 3 142 117 132 354
1206 4 2 2 3 220 346 221 356
1207 4 2 2 3 331 344 336 345
1208 4 2 2 3 233 228 336 353
1209 4 2 2 3 251 350 349 366
1210 4 2 2 3 218 337 362 372
1211 4 2 2 3 356 360 223 364
1212 4 2 2 3 334 358 205 371
1213 4 2 2 3 188 260 179 359
1214 4 2 2 3 331 335 329 344
1215 4 2 2 3 185 332 194 359
1216 4 2 2 3 255 264 258 349
1217 4 2 2 3 332 365 337 374
1218 4 2 2 3 174 330 166 355
1219 4 2 2 3 235 206 244 341
1220 4 2 2 3 329 365 349 374
1221 4 2 2 3 90 82 91 364
1222 4 2 2 3 335 370 232 372
1223 4 2 2 3 230 223 244 360
1224 4 2 2 3 246 222 224 362
1225 4 2 2 3 111 334 91 371
1226 4 2 2 3 209 336 228 353
1227 4 2 2 3 251 349 260 366
1228 4 2 2 3 205 358 334 363
1229 4 2 2 3 191 204 352 366
1230 4 2 2 3 230 360 213 364
1231 4 2 2 3 111 358 334 371
1232 4 2 2 3 357 361 339 364
1233 4 2 2 3 330 341 339 360
1234 4 2 2 3 177 360 334 371
1235 4 2 2 3 343 344 149 375
1236 4 2 2 3 87 148 373 375
1237 4 2 2 3 197 195 201 359
1238 4 2 2 3 349 350 333 366
1239 4 2 2 3 220 221 235 356
1240 4 2 2 3 217 228 232 345
1241 4 2 2 3 117 350 132 354
1242 4 2 2 3 119 344 336 373
1243 4 2 2 3 161 167 110 351
1244 4 2 2 3 236 101 364 371
1245 4 2 2 3 145 123 152 344
1246 4 2 2 3 145 344 158 354
1247 4 2 2 3 127 132 144 350
1248 4 2 2 3 213 364 360 371
1249 4 2 2 3 125 333 140 352
1250 4 2 2 3 339 356 337 362
1251 4 2 2 3 337 339 331 365
1252 4 2 2 3 124 125 140 352
1253 4 2 2 3 82 211 236 364
1254 4 2 2 3 174 161 166 330
1255 4 2 2 3 355 363 341 365
1256 4 2 2 3 329 337 365 374
1257 4 2 2 3 177 213 182 360
1258 4 2 2 3 332 359 355 365
1259 4 2 2 3 223 360 230 364
1260 4 2 2 3 223 356 244 360
1261 4 2 2 3 82 236 101 364
1262 4 2 2 3 88 90 89 357
1263 4 2 2 3 25 211 236 82
1264 4 2 2 3 83 95 112 353
1265 4 2 2 3 140 131 352 366
1266 4 2 2 3 114 215 120 340
1267 4 2 2 3 119 336 129 373
1268 4 2 2 3 337 356 339 365
1269 4 2 2 3 131 191 352 366
1270 4 2 2 3 255 253 257 338
1271 4 2 2 3 119 152 123 344
1272 4 2 2 3 144 135 125 333
1273 4 2 2 3 223 339 222 356
1274 4 2 2 3 244 341 206 360
1275 4 2 2 3 91 334 102 361
1276 4 2 2 3 330 358 334 361
1277 4 2 2 3 232 345 335 372
1278 4 2 2 3 222 339 224 362
1279 4 2 2 3 246 210 227 342
1280 4 2 2 3 120 42 215 114
1281 4 2 2 3 164 167 174 351
1282 4 2 2 3 163 160 147 343
1283 4 2 2 3 338 359 349 365
1284 4 2 2 3 172 85 167 351
1285 4 2 2 3 245 346 225 347
1286 4 2 2 3 95 336 93 342
1287 4 2 2 3 127 340 132 350
1288 4 2 2 3 177 189 205 334
1289 4 2 2 3 179 260 257 359
1290 4 2 2 3 335 345 337 372
1291 4 2 2 3 138 152 119 373
1292 4 2 2 3 81 28 226 93
1293 4 2 2 3 346 347 221 368
1294 4 2 2 3 101 25 236 82
1295 4 2 2 3 247 218 362 372
1296 4 2 2 3 189 334 177 360
1297 4 2 2 3 86 190 22 178
1298 4 2 2 3 331 339 337 362
1299 4 2 2 3 87 106 95 373
1300 4 2 2 3 339 341 330 356
1301 4 2 2 3 228 247 227 345
1302 4 2 2 3 257 260 349 359
1303 4 2 2 3 152 344 119 373
1304 4 2 2 3 147 163 48 160
1305 4 2 2 3 177 213 67 182
1306 4 2 2 3 143 129 115 353
1307 4 2 2 3 151 153 252 348
1308 4 2 2 3 148 344 152 373
1309 4 2 2 3 151 343 147 348
1310 4 2 2 3 335 367 340 370
1311 4 2 2 3 130 13 116 97
1312 4 2 2 3 332 184 347 368
1313 4 2 2 3 125 135 140 333
1314 4 2 2 3 116 353 84 373
1315 4 2 2 3 341 356 235 368
1316 4 2 2 3 161 174 167 351
1317 4 2 2 3 138 37 152 373
1318 4 2 2 3 112 84 353 373
1319 4 2 2 3 82 101 91 364
1320 4 2 2 3 181 358 200 363
1321 4 2 2 3 343 351 331 375
1322 4 2 2 3 228 227 342 345
1323 4 2 2 3 158 151 154 354
1324 4 2 2 3 102 334 111 358
1325 4 2 2 3 334 330 361 364
1326 4 2 2 3 332 346 333 374
1327 4 2 2 3 181 166 358 363
1328 4 2 2 3 224 357 339 364
1329 4 2 2 3 120 121 127 370
1330 4 2 2 3 206 175 341 368
1331 4 2 2 3 27 210 239 357
1332 4 2 2 3 339 356 223 364
1333 4 2 2 3 337 345 331 362
1334 4 2 2 3 87 148 106 373
1335 4 2 2 3 254 348 255 354
1336 4 2 2 3 258 350 117 354
1337 4 2 2 3 228 342 336 345
1338 4 2 2 3 339 351 330 361
1339 4 2 2 3 13 84 116 97
1340 4 2 2 3 262 256 252 348
1341 4 2 2 3 116 143 353 373
1342 4 2 2 3 135 350 126 366
1343 4 2 2 3 223 222 220 356
1344 4 2 2 3 45 232 209 122
1345 4 2 2 3 256 253 255 348
1346 4 2 2 3 225 347 346 369
1347 4 2 2 3 120 340 215 370
1348 4 2 2 3 204 352 333 369
1349 4 2 2 3 334 358 330 363
1350 4 2 2 3 221 225 245 346
1351 4 2 2 3 258 126 117 350
1352 4 2 2 3 125 340 333 352
1353 4 2 2 3 220 337 346 356
1354 4 2 2 3 332 333 349 374
1355 4 2 2 3 215 340 234 370
1356 4 2 2 3 179 257 259 359
1357 4 2 2 3 129 336 143 373
1358 4 2 2 3 333 340 144 350
1359 4 2 2 3 247 218 222 362
1360 4 2 2 3 333 346 332 347
1361 4 2 2 3 98 86 22 178
1362 4 2 2 3 163 147 150 343
1363 4 2 2 3 219 234 225 367
1364 4 2 2 3 95 336 112 353
1365 4 2 2 3 81 226 210 342
1366 4 2 2 3 232 44 207 113
1367 4 2 2 3 345 362 337 372
1368 4 2 2 3 225 212 347 369
1369 4 2 2 3 113 128 121 370
1370 4 2 2 3 339 360 356 364
1371 4 2 2 3 253 165 57 168
1372 4 2 2 3 148 152 156 373
1373 4 2 2 3 244 235 341 356
1374 4 2 2 3 182 189 177 360
1375 4 2 2 3 112 336 95 373
1376 4 2 2 3 183 184 185 341
1377 4 2 2 3 110 351 99 361
1378 4 2 2 3 197 179 259 359
1379 4 2 2 3 115 45 209 122
1380 4 2 2 3 143 336 129 353
1381 4 2 2 3 248 62 250 202
1382 4 2 2 3 219 346 337 367
1383 4 2 2 3 110 99 92 361
1384 4 2 2 3 138 119 129 373
1385 4 2 2 3 263 251 260 366
1386 4 2 2 3 204 187 333 366
1387 4 2 2 3 163 147 48 150
1388 4 2 2 3 135 333 144 350
1389 4 2 2 3 51 254 154 252
1390 4 2 2 3 246 224 357 362
1391 4 2 2 3 185 201 355 359
1392 4 2 2 3 215 234 216 370
1393 4 2 2 3 222 356 339 362
1394 4 2 2 3 244 223 235 356
1395 4 2 2 3 90 91 361 364
1396 4 2 2 3 330 356 341 365
1397 4 2 2 3 346 356 332 368
1398 4 2 2 3 120 127 340 370
1399 4 2 2 3 181 355 166 363
1400 4 2 2 3 330 341 360 363
1401 4 2 2 3 166 200 181 358
1402 4 2 2 3 239 88 27 357
1403 4 2 2 3 119 152 38 123
1404 4 2 2 3 339 361 330 364
1405 4 2 2 3 164 160 163 343
1406 4 2 2 3 330 341 363 365
1407 4 2 2 3 219 218 216 372
1408 4 2 2 3 204 196 187 366
1409 4 2 2 3 185 194 201 359
1410 4 2 2 3 330 360 334 363
1411 4 2 2 3 334 361 91 364
1412 4 2 2 3 162 169 174 355
1413 4 2 2 3 151 147 153 348
1414 4 2 2 3 140 352 333 366
1415 4 2 2 3 188 196 260 366
1416 4 2 2 3 183 182 341 360
1417 4 2 2 3 340 346 333 369
1418 4 2 2 3 32 131 180 118
1419 4 2 2 3 260 251 264 349
1420 4 2 2 3 252 154 51 151
1421 4 2 2 3 215 207 43 370
1422 4 2 2 3 156 152 37 373
1423 4 2 2 3 145 38 152 123
1424 4 2 2 3 183 341 185 363
1425 4 2 2 3 251 135 126 366
1426 4 2 2 3 85 94 100 351
1427 4 2 2 3 334 358 102 361
1428 4 2 2 3 333 352 204 366
1429 4 2 2 3 251 126 350 366
1430 4 2 2 3 183 189 182 360
1431 4 2 2 3 346 347 333 369
1432 4 2 2 3 192 332 184 347
1433 4 2 2 3 216 217 207 372
1434 4 2 2 3 152 37 138 119
1435 4 2 2 3 110 167 85 351
1436 4 2 2 3 126 258 251 350
1437 4 2 2 3 341 332 356 368
1438 4 2 2 3 145 158 154 354
1439 4 2 2 3 253 259 257 359
1440 4 2 2 3 247 227 345 362
1441 4 2 2 3 188 60 179 260
1442 4 2 2 3 117 258 35 126
1443 4 2 2 3 184 192 194 332
1444 4 2 2 3 17 105 146 94
1445 4 2 2 3 170 166 161 358
1446 4 2 2 3 204 333 187 369
1447 4 2 2 3 330 363 355 365
1448 4 2 2 3 332 337 346 374
1449 4 2 2 3 339 356 330 365
1450 4 2 2 3 94 146 16 375
1451 4 2 2 3 110 161 19 167
1452 4 2 2 3 339 357 224 362
1453 4 2 2 3 355 359 338 365
1454 4 2 2 3 113 232 44 122
1455 4 2 2 3 81 89 342 357
1456 4 2 2 3 227 210 226 342
1457 4 2 2 3 206 341 235 368
1458 4 2 2 3 138 129 143 373
1459 4 2 2 3 87 94 16 375
1460 4 2 2 3 107 161 19 110
1461 4 2 2 3 258 117 261 354
1462 4 2 2 3 153 252 51 151
1463 4 2 2 3 335 340 367 374
1464 4 2 2 3 57 256 165 253
1465 4 2 2 3 56 168 173 265
1466 4 2 2 3 334 360 189 363
1467 4 2 2 3 182 175 183 341
1468 4 2 2 3 180 131 32 191
1469 4 2 2 3 60 257 179 260
1470 4 2 2 3 150 343 149 375
1471 4 2 2 3 261 157 154 354
1472 4 2 2 3 226 81 93 342
1473 4 2 2 3 27 81 210 357
1474 4 2 2 3 258 254 255 354
1475 4 2 2 3 87 16 148 375
1476 4 2 2 3 215 43 120 370
1477 4 2 2 3 244 356 341 360
1478 4 2 2 3 261 154 254 354
1479 4 2 2 3 135 251 34 366
1480 4 2 2 3 337 332 346 356
1481 4 2 2 3 219 225 221 346
1482 4 2 2 3 181 54 166 355
1483 4 2 2 3 17 105 155 146
1484 4 2 2 3 100 94 87 375
1485 4 2 2 3 162 54 195 355
1486 4 2 2 3 210 342 246 357
1487 4 2 2 3 151 149 147 343
1488 4 2 2 3 181 195 54 355
1489 4 2 2 3 139 248 40 124
1490 4 2 2 3 236 240 101 371
1491 4 2 2 3 112 95 106 373
1492 4 2 2 3 246 342 227 362
1493 4 2 2 3 342 345 227 362
1494 4 2 2 3 126 258 35 251
1495 4 2 2 3 117 137 261 354
1496 4 2 2 3 127 144 125 340
1497 4 2 2 3 162 166 54 355
1498 4 2 2 3 360 364 334 371
1499 4 2 2 3 108 101 240 371
1500 4 2 2 3 20 85 172 105
1501 4 2 2 3 18 107 102 358
1502 4 2 2 3 161 107 170 358
1503 4 2 2 3 200 166 53 358
1504 4 2 2 3 248 124 139 352
1505 4 2 2 3 146 148 16 375
1506 4 2 2 3 349 350 329 374
1507 4 2 2 3 113 43 207 370
1508 4 2 2 3 245 347 231 368
1509 4 2 2 3 231 212 64 347
1510 4 2 2 3 233 226 29 93
1511 4 2 2 3 257 179 259 60
1512 4 2 2 3 197 201 179 359
1513 4 2 2 3 145 152 158 344
1514 4 2 2 3 331 357 339 362
1515 4 2 2 3 112 353 336 373
1516 4 2 2 3 237 233 30 109
1517 4 2 2 3 145 137 123 354
1518 4 2 2 3 148 15 87 106
1519 4 2 2 3 331 345 342 362
1520 4 2 2 3 248 214 40 124
1521 4 2 2 3 154 157 145 354
1522 4 2 2 3 213 177 240 371
1523 4 2 2 3 333 350 135 366
1524 4 2 2 3 140 333 135 366
1525 4 2 2 3 336 353 143 373
1526 4 2 2 3 332 356 337 365
1527 4 2 2 3 214 248 250 352
1528 4 2 2 3 109 130 12 141
1529 4 2 2 3 183 360 341 363
1530 4 2 2 3 214 124 248 352
1531 4 2 2 3 264 349 251 350
1532 4 2 2 3 128 335 121 370
1533 4 2 2 3 264 251 258 350
1534 4 2 2 3 184 341 183 368
1535 4 2 2 3 240 177 203 371
1536 4 2 2 3 230 229 213 360
1537 4 2 2 3 114 120 127 340
1538 4 2 2 3 85 167 20 172
1539 4 2 2 3 27 88 81 357
1540 4 2 2 3 92 91 102 361
1541 4 2 2 3 236 213 240 371
1542 4 2 2 3 203 86 108 371
1543 4 2 2 3 217 247 228 345
1544 4 2 2 3 237 233 109 353
1545 4 2 2 3 137 145 157 354
1546 4 2 2 3 124 243 41 114
1547 4 2 2 3 150 149 146 375
1548 4 2 2 3 194 188 179 359
1549 4 2 2 3 139 118 31 202
1550 4 2 2 3 193 347 184 368
1551 4 2 2 3 36 258 117 261
1552 4 2 2 3 243 124 214 352
1553 4 2 2 3 84 104 14 116
1554 4 2 2 3 214 250 242 369
1555 4 2 2 3 86 111 101 371
1556 4 2 2 3 340 367 234 370
1557 4 2 2 3 243 40 214 124
1558 4 2 2 3 331 342 357 362
1559 4 2 2 3 174 166 162 355
1560 4 2 2 3 19 110 167 85
1561 4 2 2 3 18 170 107 358
1562 4 2 2 3 335 337 367 372
1563 4 2 2 3 21 108 203 86
1564 4 2 2 3 260 196 59 366
1565 4 2 2 3 128 133 121 335
1566 4 2 2 3 183 189 360 363
1567 4 2 2 3 257 264 255 349
1568 4 2 2 3 96 95 93 342
1569 4 2 2 3 81 89 96 342
1570 4 2 2 3 255 254 252 348
1571 4 2 2 3 92 99 90 361
1572 4 2 2 3 186 250 62 202
1573 4 2 2 3 113 120 43 370
1574 4 2 2 3 251 34 126 135
1575 4 2 2 3 335 337 329 374
1576 4 2 2 3 335 367 337 374
1577 4 2 2 3 219 225 346 367
1578 4 2 2 3 183 341 175 368
1579 4 2 2 3 118 202 139 352
1580 4 2 2 3 149 344 148 375
1581 4 2 2 3 199 98 178 358
1582 4 2 2 3 130 141 109 353
1583 4 2 2 3 116 84 104 373
1584 4 2 2 3 250 63 212 176
1585 4 2 2 3 332 341 356 365
1586 4 2 2 3 163 47 172 150
1587 4 2 2 3 137 157 261 354
1588 4 2 2 3 184 183 175 368
1589 4 2 2 3 83 233 29 93
1590 4 2 2 3 261 117 36 137
1591 4 2 2 3 186 352 204 369
1592 4 2 2 3 247 362 345 372
1593 4 2 2 3 102 103 18 358
1594 4 2 2 3 150 147 149 343
1595 4 2 2 3 234 367 216 370
1596 4 2 2 3 127 125 114 340
1597 4 2 2 3 243 208 41 114
1598 4 2 2 3 99 85 100 351
1599 4 2 2 3 108 24 240 101
1600 4 2 2 3 203 108 240 371
1601 4 2 2 3 24 236 240 101
1602 4 2 2 3 15 104 106 373
1603 4 2 2 3 47 155 172 150
1604 4 2 2 3 216 207 370 372
1605 4 2 2 3 213 68 240 177
1606 4 2 2 3 23 199 98 178
1607 4 2 2 3 109 233 30 83
1608 4 2 2 3 132 117 126 350
1609 4 2 2 3 251 263 34 366
1610 4 2 2 3 181 166 53 200
1611 4 2 2 3 203 240 68 177
1612 4 2 2 3 205 190 177 371
1613 4 2 2 3 126 135 144 350
1614 4 2 2 3 332 347 346 368
1615 4 2 2 3 196 198 59 366
1616 4 2 2 3 219 216 367 372
1617 4 2 2 3 190 86 203 371
1618 4 2 2 3 159 147 49 171
1619 4 2 2 3 231 65 206 368
1620 4 2 2 3 168 56 253 265
1621 4 2 2 3 233 83 109 353
1622 4 2 2 3 166 170 53 358
1623 4 2 2 3 231 64 193 347
1624 4 2 2 3 97 130 12 109
1625 4 2 2 3 195 185 201 355
1626 4 2 2 3 131 134 191 366
1627 4 2 2 3 333 350 349 374
1628 4 2 2 3 131 33 191 134
1629 4 2 2 3 38 37 152 119
1630 4 2 2 3 53 199 200 358
1631 4 2 2 3 136 37 138 373
1632 4 2 2 3 81 88 89 357
1633 4 2 2 3 257 260 264 349
1634 4 2 2 3 223 220 235 356
1635 4 2 2 3 147 160 49 171
1636 4 2 2 3 171 58 256 165
1637 4 2 2 3 123 137 142 354
1638 4 2 2 3 210 81 342 357
1639 4 2 2 3 237 109 141 353
1640 4 2 2 3 248 139 202 352
1641 4 2 2 3 224 210 246 357
1642 4 2 2 3 212 231 245 347
1643 4 2 2 3 230 236 211 364
1644 4 2 2 3 190 21 203 86
1645 4 2 2 3 152 148 149 344
1646 4 2 2 3 140 118 124 352
1647 4 2 2 3 262 171 58 256
1648 4 2 2 3 34 134 135 366
1649 4 2 2 3 263 260 59 366
1650 4 2 2 3 252 256 255 348
1651 4 2 2 3 176 250 63 186
1652 4 2 2 3 333 346 340 374
1653 4 2 2 3 118 180 31 202
1654 4 2 2 3 212 176 64 347
1655 4 2 2 3 230 244 229 360
1656 4 2 2 3 258 35 36 117
1657 4 2 2 3 121 120 113 370
1658 4 2 2 3 217 247 345 372
1659 4 2 2 3 16 15 87 148
1660 4 2 2 3 130 109 97 353
1661 4 2 2 3 167 20 19 85
1662 4 2 2 3 246 357 342 362
1663 4 2 2 3 108 240 5 203
1664 4 2 2 3 146 16 17 94
1665 4 2 2 3 123 145 39 137
1666 4 2 2 3 1 237 109 141
1667 4 2 2 3 118 180 202 352
1668 4 2 2 3 161 18 170 107
1669 4 2 2 3 144 132 126 350
1670 4 2 2 3 261 157 50 154
1671 4 2 2 3 250 176 212 369
1672 4 2 2 3 137 145 39 157
1673 4 2 2 3 242 250 212 369
1674 4 2 2 3 238 230 211 364
1675 4 2 2 3 103 170 18 358
1676 4 2 2 3 112 97 83 353
1677 4 2 2 3 217 218 247 372
1678 4 2 2 3 214 352 250 369
1679 4 2 2 3 261 254 258 354
1680 4 2 2 3 110 85 99 351
1681 4 2 2 3 15 156 104 373
1682 4 2 2 3 104 136 14 116
1683 4 2 2 3 154 50 261 254
1684 4 2 2 3 193 192 184 347
1685 4 2 2 3 105 172 3 155
1686 4 2 2 3 195 181 185 355
1687 4 2 2 3 150 163 47 48
1688 4 2 2 3 192 347 176 369
1689 4 2 2 3 54 55 162 195
1690 4 2 2 3 207 215 216 370
1691 4 2 2 3 199 170 103 358
1692 4 2 2 3 59 198 263 366
1693 4 2 2 3 234 219 216 367
1694 4 2 2 3 196 204 191 366
1695 4 2 2 3 2 156 136 104
1696 4 2 2 3 188 59 260 196
1697 4 2 2 3 8 261 137 157
1698 4 2 2 3 65 231 193 368
1699 4 2 2 3 116 104 136 373
1700 4 2 2 3 156 136 104 373
1701 4 2 2 3 239 210 224 357
1702 4 2 2 3 28 27 81 210
1703 4 2 2 3 103 199 4 170
1704 4 2 2 3 186 180 204 352
1705 4 2 2 3 117 142 137 354
1706 4 2 2 3 58 256 165 57
1707 4 2 2 3 199 103 98 358
1708 4 2 2 3 130 143 115 353
1709 4 2 2 3 136 156 37 373
1710 4 2 2 3 166 54 181 53
1711 4 2 2 3 65 175 206 368
1712 4 2 2 3 53 170 199 358
1713 4 2 2 3 333 340 350 374
1714 4 2 2 3 185 355 181 363
1715 4 2 2 3 198 7 263 134
1716 4 2 2 3 191 134 198 366
1717 4 2 2 3 178 205 200 358
1718 4 2 2 3 206 249 231 368
1719 4 2 2 3 152 149 158 344
1720 4 2 2 3 42 215 43 120
1721 4 2 2 3 233 237 209 353
1722 4 2 2 3 191 33 198 134
1723 4 2 2 3 141 115 237 353
1724 4 2 2 3 263 134 34 366
1725 4 2 2 3 90 91 92 361
1726 4 2 2 3 66 206 65 175
1727 4 2 2 3 209 237 115 353
1728 4 2 2 3 262 159 9 171
1729 4 2 2 3 263 198 134 366
1730 4 2 2 3 145 39 38 123
1731 4 2 2 3 247 222 227 362
1732 4 2 2 3 217 216 218 372
1733 4 2 2 3 139 6 248 202
1734 4 2 2 3 52 252 153 262
1735 4 2 2 3 207 44 43 113
1736 4 2 2 3 265 173 10 197
1737 4 2 2 3 86 101 108 371
1738 4 2 2 3 346 367 340 374
1739 4 2 2 3 259 179 197 61
1740 4 2 2 3 103 23 199 98
1741 4 2 2 3 193 64 231 65
1742 4 2 2 3 194 179 201 359
1743 4 2 2 3 64 176 193 347
1744 4 2 2 3 126 35 34 251
1745 4 2 2 3 186 250 352 369
1746 4 2 2 3 81 96 93 342
1747 4 2 2 3 140 135 131 366
1748 4 2 2 3 98 102 111 358
1749 4 2 2 3 28 29 226 93
1750 4 2 2 3 250 186 176 369
1751 4 2 2 3 160 48 147 49
1752 4 2 2 3 155 172 3 47
1753 4 2 2 3 222 246 227 362
1754 4 2 2 3 7 34 263 134
1755 4 2 2 3 203 177 190 371
1756 4 2 2 3 51 52 252 153
1757 4 2 2 3 103 4 18 170
1758 4 2 2 3 139 124 118 352
1759 4 2 2 3 186 204 187 369
1760 4 2 2 3 263 59 7 198
1761 4 2 2 3 84 14 13 116
1762 4 2 2 3 137 39 8 157
1763 4 2 2 3 232 45 44 122
1764 4 2 2 3 208 42 41 114
1765 4 2 2 3 192 176 187 369
1766 4 2 2 3 67 229 66 182
1767 4 2 2 3 25 26 211 82
1768 4 2 2 3 197 173 10 55
1769 4 2 2 3 138 143 116 373
1770 4 2 2 3 106 84 112 373
1771 4 2 2 3 161 19 18 107
1772 4 2 2 3 259 197 265 61
1773 4 2 2 3 36 8 261 137
1774 4 2 2 3 108 5 21 203
1775 4 2 2 3 61 259 179 60
1776 4 2 2 3 105 3 17 155
1777 4 2 2 3 199 53 4 170
1778 4 2 2 3 159 52 153 262
1779 4 2 2 3 156 2 15 104
1780 4 2 2 3 9 262 171 58
1781 4 2 2 3 3 20 172 105
1782 4 2 2 3 31 6 139 202
1783 4 2 2 3 68 213 67 177
1784 4 2 2 3 176 347 212 369
1785 4 2 2 3 193 231 347 368
1786 4 2 2 3 141 130 115 353
1787 4 2 2 3 8 261 157 50
1788 4 2 2 3 156 37 2 136
1789 4 2 2 3 22 23 98 178
1790 4 2 2 3 65 193 175 368
1791 4 2 2 3 64 212 63 176
1792 4 2 2 3 146 149 148 375
1793 4 2 2 3 237 30 1 109
1794 4 2 2 3 109 83 97 353
1795 4 2 2 3 10 265 197 61
1796 4 2 2 3 26 27 239 88
1797 4 2 2 3 24 25 236 101
1798 4 2 2 3 56 253 57 168
1799 4 2 2 3 159 9 52 262
1800 4 2 2 3 337 367 346 374
1801 4 2 2 3 159 49 9 171
1802 4 2 2 3 131 33 32 191
1803 4 2 2 3 180 186 202 352
1804 4 2 2 3 12 1 109 141
1805 4 2 2 3 141 46 237 115
1806 4 2 2 3 367 370 335 372
1807 4 2 2 3 45 209 46 115
1808 4 2 2 3 31 32 180 118
1809 4 2 2 3 181 200 189 363
1810 4 2 2 3 12 13 130 97
1811 4 2 2 3 40 243 41 124
1812 4 2 2 3 190 22 21 86
1813 4 2 2 3 173 10 56 265
1814 4 2 2 3 254 154 50 51
1815 4 2 2 3 183 185 181 363
1816 4 2 2 3 191 198 196 366
1817 4 2 2 3 103 102 98 358
1818 4 2 2 3 193 184 175 368
1819 4 2 2 3 209 237 46 115
1820 4 2 2 3 5 24 240 108
1821 4 2 2 3 240 68 5 203
1822 4 2 2 3 176 186 187 369
1823 4 2 2 3 60 188 59 260
1824 4 2 2 3 181 189 183 363
1825 4 2 2 3 237 1 46 141
1826 4 2 2 3 199 178 200 358
1827 4 2 2 3 216 370 367 372
1828 4 2 2 3 135 134 131 366
1829 4 2 2 3 116 136 138 373
1830 4 2 2 3 193 176 192 347
1831 4 2 2 3 84 106 104 373
1832 4 2 2 3 233 29 30 83
1833 4 2 2 3 62 63 250 186
1834 4 2 2 3 198 33 7 134
1835 4 2 2 3 62 248 6 202
1836 4 2 2 3 14 2 136 104
1837 4 2 2 3 248 40 6 139
1838 4 2 2 3 4 23 199 103
1839 4 2 2 3 354 133 132 142
1840 4 2 2 3 354 132 133 335
1841 4 2 2 3 359 168 162 338
1842 4 2 2 3 359 162 168 173
1843 4 2 2 3 361 89 351 99
1844 4 2 2 3 361 351 89 357
1845 4 2 2 3 94 375 105 146
1846 4 2 2 3 94 105 375 351
1847 4 2 2 3 155 105 375 146
1848 4 2 2 3 155 375 105 351
1849 4 2 2 3 359 162 197 355
1850 4 2 2 3 359 197 162 173
1851 4 2 2 3 374 132 329 335
1852 4 2 2 3 374 329 132 350
1853 4 2 2 3 346 241 367 225
1854 4 2 2 3 346 367 241 340
1855 4 2 2 3 234 367 241 225
1856 4 2 2 3 234 241 367 340
1857 4 2 2 3 342 100 375 331
1858 4 2 2 3 342 375 100 96
1859 4 2 2 3 353 122 129 115
1860 4 2 2 3 353 129 122 336
1861 4 2 2 3 353 93 95 336
1862 4 2 2 3 353 95 93 83
1863 4 2 2 3 211 88 26 239
1864 4 2 2 3 211 26 88 82
1865 4 2 2 3 351 163 164 167
1866 4 2 2 3 351 164 163 343
1867 4 2 2 3 162 197 55 173
1868 4 2 2 3 55 197 162 195
1869 4 2 2 3 371 91 364 334
1870 4 2 2 3 371 364 91 101
1871 4 2 2 3 364 330 360 334
1872 4 2 2 3 364 360 330 339
1873 4 2 2 3 206 182 66 229
1874 4 2 2 3 66 182 206 175
1875 4 2 2 3 340 369 352 241
1876 4 2 2 3 352 369 340 333
1877 4 2 2 3 369 214 241 242
1878 4 2 2 3 369 241 214 352
1879 4 2 2 3 363 205 200 189
1880 4 2 2 3 363 200 205 358
1881 4 2 2 3 202 250 352 186
1882 4 2 2 3 202 352 250 248
1883 4 2 2 3 372 219 337 367
1884 4 2 2 3 372 337 219 218
1885 4 2 2 3 232 370 122 113
1886 4 2 2 3 232 122 370 335
1887 4 2 2 3 128 122 370 113
1888 4 2 2 3 128 370 122 335
1889 4 2 2 3 373 15 148 106
1890 4 2 2 3 373 148 15 156
1891 4 2 2 3 168 265 359 173
1892 4 2 2 3 359 265 168 253
1893 4 2 2 3 366 187 188 196
1894 4 2 2 3 366 188 187 333
1895 4 2 2 3 369 192 333 187
1896 4 2 2 3 369 333 192 347
$EndElements
