$MeshFormat
2.2 0 8
$EndMeshFormat
$PhysicalNames
7
2 1 "bottom"
2 2 "top"
2 3 "front"
2 4 "back"
2 5 "left"
2 6 "right"
3 7 "domain"
$EndPhysicalNames
$Nodes
363
1 0 90 0.5
2 0 100 0.5
3 0 100 1
4 10 100 1
5 0 90 1
6 10 100 0.5
7 10 90 1
8 0 90 0
9 10 90 0.5
10 0 80 0.5
11 0 100 0
12 20 100 1
13 0 80 1
14 10 100 0
15 0 80 0
16 10 90 0
17 20 100 0.5
18 10 80 1
19 10 80 0.5
20 20 90 1
21 20 90 0.5
22 0 70 0.5
23 10 80 0
24 30 100 1
25 0 70 1
26 0 70 0
27 20 100 0
28 20 90 0
29 30 100 0.5
30 10 70 1
31 10 70 0.5
32 20 80 1
33 20 80 0.5
34 30 90 1
35 30 90 0.5
36 0 60 0.5
37 10 70 0
38 20 80 0
39 40 100 1
40 0 60 1
41 0 60 0
42 30 100 0
43 30 90 0
44 40 100 0.5
45 10 60 1
46 10 60 0.5
47 20 70 1
48 20 70 0.5
49 30 80 1
50 30 80 0.5
51 40 90 1
52 40 90 0.5
53 0 50 0.5
54 10 60 0
55 20 70 0
56 30 80 0
57 50 100 1
58 0 50 1
59 0 50 0
60 40 100 0
61 40 90 0
62 50 100 0.5
63 10 50 1
64 10 50 0.5
65 20 60 1
66 20 60 0.5
67 30 70 1
68 30 70 0.5
69 40 80 1
70 40 80 0.5
71 50 90 1
72 50 90 0.5
73 0 40 0.5
74 10 50 0
75 20 60 0
76 30 70 0
77 40 80 0
78 60 100 1
79 0 40 1
80 0 40 0
81 50 100 0
82 50 90 0
83 60 100 0.5
84 10 40 1
85 10 40 0.5
86 20 50 1
87 20 50 0.5
88 30 60 1
89 30 60 0.5
90 40 70 1
91 40 70 0.5
92 50 80 1
93 50 80 0.5
94 60 90 1
95 60 90 0.5
96 0 30 0.5
97 10 40 0
98 20 50 0
99 30 60 0
100 40 70 0
101 50 80 0
102 70 100 1
103 0 30 1
104 0 30 0
105 60 100 0
106 60 90 0
107 70 100 0.5
108 10 30 1
109 10 30 0.5
110 20 40 1
111 20 40 0.5
112 30 50 1
113 30 50 0.5
114 40 60 1
115 40 60 0.5
116 50 70 1
117 50 70 0.5
118 60 80 1
119 60 80 0.5
120 70 90 1
121 70 90 0.5
122 0 20 0.5
123 10 30 0
124 20 40 0
125 30 50 0
126 40 60 0
127 50 70 0
128 60 80 0
129 80 100 1
130 0 20 1
131 0 20 0
132 70 100 0
133 70 90 0
134 80 100 0.5
135 10 20 1
136 10 20 0.5
137 20 30 1
138 20 30 0.5
139 30 40 1
140 30 40 0.5
141 40 50 1
142 40 50 0.5
143 50 60 1
144 50 60 0.5
145 60 70 1
146 60 70 0.5
147 70 80 1
148 70 80 0.5
149 80 90 1
150 80 90 0.5
151 0 10 0.5
152 10 20 0
153 20 30 0
154 30 40 0
155 40 50 0
156 50 60 0
157 60 70 0
158 70 80 0
159 90 100 1
160 0 10 1
161 0 10 0
162 80 100 0
163 80 90 0
164 90 100 0.5
165 10 10 1
166 10 10 0.5
167 20 20 1
168 20 20 0.5
169 30 30 1
170 30 30 0.5
171 40 40 1
172 40 40 0.5
173 50 50 1
174 50 50 0.5
175 60 60 1
176 60 60 0.5
177 70 70 1
178 70 70 0.5
179 80 80 1
180 80 80 0.5
181 90 90 1
182 90 90 0.5
183 0 0 0.5
184 10 10 0
185 20 20 0
186 30 30 0
187 40 40 0
188 50 50 0
189 60 60 0
190 70 70 0
191 80 80 0
192 100 100 1
193 0 0 1
194 0 0 0
195 90 100 0
196 90 90 0
197 100 100 0.5
198 10 0 1
199 10 0 0.5
200 20 10 1
201 20 10 0.5
202 30 20 1
203 30 20 0.5
204 40 30 1
205 40 30 0.5
206 50 40 1
207 50 40 0.5
208 60 50 1
209 60 50 0.5
210 70 60 1
211 70 60 0.5
212 80 70 1
213 80 70 0.5
214 90 80 1
215 90 80 0.5
216 100 90 1
217 100 90 0.5
218 10 0 0
219 20 10 0
220 30 20 0
221 40 30 0
222 50 40 0
223 60 50 0
224 70 60 0
225 80 70 0
226 90 80 0
227 100 100 0
228 100 90 0
229 20 0 1
230 20 0 0.5
231 30 10 1
232 30 10 0.5
233 40 20 1
234 40 20 0.5
235 50 30 1
236 50 30 0.5
237 60 40 1
238 60 40 0.5
239 70 50 1
240 70 50 0.5
241 80 60 1
242 80 60 0.5
243 90 70 1
244 90 70 0.5
245 100 80 1
246 100 80 0.5
247 20 0 0
248 30 10 0
249 40 20 0
250 50 30 0
251 60 40 0
252 70 50 0
253 80 60 0
254 90 70 0
255 100 80 0
256 30 0 1
257 30 0 0.5
258 40 10 1
259 40 10 0.5
260 50 20 1
261 50 20 0.5
262 60 30 1
263 60 30 0.5
264 70 40 1
265 70 40 0.5
266 80 50 1
267 80 50 0.5
268 90 60 1
269 90 60 0.5
270 100 70 1
271 100 70 0.5
272 30 0 0
273 40 10 0
274 50 20 0
275 60 30 0
276 70 40 0
277 80 50 0
278 90 60 0
279 100 70 0
280 40 0 1
281 40 0 0.5
282 50 10 1
283 50 10 0.5
284 60 20 1
285 60 20 0.5
286 70 30 1
287 70 30 0.5
288 80 40 1
289 80 40 0.5
290 90 50 1
291 90 50 0.5
292 100 60 1
293 100 60 0.5
294 40 0 0
295 50 10 0
296 60 20 0
297 70 30 0
298 80 40 0
299 90 50 0
300 100 60 0
301 50 0 1
302 50 0 0.5
303 60 10 1
304 60 10 0.5
305 70 20 1
306 70 20 0.5
307 80 30 1
308 80 30 0.5
309 90 40 1
310 90 40 0.5
311 100 50 1
312 100 50 0.5
313 50 0 0
314 60 10 0
315 70 20 0
316 80 30 0
317 90 40 0
318 100 50 0
319 60 0 1
320 60 0 0.5
321 70 10 1
322 70 10 0.5
323 80 20 1
324 80 20 0.5
325 90 30 1
326 90 30 0.5
327 100 40 1
328 100 40 0.5
329 60 0 0
330 70 10 0
331 80 20 0
332 90 30 0
333 100 40 0
334 70 0 1
335 70 0 0.5
336 80 10 1
337 80 10 0.5
338 90 20 1
339 90 20 0.5
340 100 30 1
341 100 30 0.5
342 70 0 0
343 80 10 0
344 90 20 0
345 100 30 0
346 80 0 1
347 80 0 0.5
348 90 10 1
349 90 10 0.5
350 100 20 1
351 100 20 0.5
352 80 0 0
353 90 10 0
354 100 20 0
355 90 0 1
356 90 0 0.5
357 100 10 1
358 100 10 0.5
359 90 0 0
360 100 10 0
361 100 0 1
362 100 0 0.5
363 100 0 0
$EndNodes
$Elements
1760
1 2 2 1 1 8 14 11
2 2 2 1 1 8 16 14
3 2 2 1 1 15 16 8
4 2 2 1 1 15 23 16
5 2 2 1 1 16 27 14
6 2 2 1 1 26 23 15
7 2 2 1 1 16 28 27
8 2 2 1 1 23 28 16
9 2 2 1 1 26 37 23
10 2 2 1 1 23 38 28
11 2 2 1 1 28 42 27
12 2 2 1 1 41 37 26
13 2 2 1 1 37 38 23
14 2 2 1 1 28 43 42
15 2 2 1 1 38 43 28
16 2 2 1 1 41 54 37
17 2 2 1 1 37 55 38
18 2 2 1 1 38 56 43
19 2 2 1 1 43 60 42
20 2 2 1 1 59 54 41
21 2 2 1 1 54 55 37
22 2 2 1 1 55 56 38
23 2 2 1 1 43 61 60
24 2 2 1 1 56 61 43
25 2 2 1 1 59 74 54
26 2 2 1 1 54 75 55
27 2 2 1 1 55 76 56
28 2 2 1 1 56 77 61
29 2 2 1 1 61 81 60
30 2 2 1 1 80 74 59
31 2 2 1 1 74 75 54
32 2 2 1 1 75 76 55
33 2 2 1 1 76 77 56
34 2 2 1 1 61 82 81
35 2 2 1 1 77 82 61
36 2 2 1 1 80 97 74
37 2 2 1 1 74 98 75
38 2 2 1 1 75 99 76
39 2 2 1 1 76 100 77
40 2 2 1 1 77 101 82
41 2 2 1 1 82 105 81
42 2 2 1 1 104 97 80
43 2 2 1 1 97 98 74
44 2 2 1 1 98 99 75
45 2 2 1 1 99 100 76
46 2 2 1 1 100 101 77
47 2 2 1 1 82 106 105
48 2 2 1 1 101 106 82
49 2 2 1 1 104 123 97
50 2 2 1 1 97 124 98
51 2 2 1 1 98 125 99
52 2 2 1 1 99 126 100
53 2 2 1 1 100 127 101
54 2 2 1 1 101 128 106
55 2 2 1 1 106 132 105
56 2 2 1 1 131 123 104
57 2 2 1 1 123 124 97
58 2 2 1 1 124 125 98
59 2 2 1 1 125 126 99
60 2 2 1 1 126 127 100
61 2 2 1 1 127 128 101
62 2 2 1 1 106 133 132
63 2 2 1 1 128 133 106
64 2 2 1 1 131 152 123
65 2 2 1 1 123 153 124
66 2 2 1 1 124 154 125
67 2 2 1 1 125 155 126
68 2 2 1 1 126 156 127
69 2 2 1 1 127 157 128
70 2 2 1 1 128 158 133
71 2 2 1 1 133 162 132
72 2 2 1 1 161 152 131
73 2 2 1 1 152 153 123
74 2 2 1 1 153 154 124
75 2 2 1 1 154 155 125
76 2 2 1 1 155 156 126
77 2 2 1 1 156 157 127
78 2 2 1 1 157 158 128
79 2 2 1 1 133 163 162
80 2 2 1 1 158 163 133
81 2 2 1 1 161 184 152
82 2 2 1 1 152 185 153
83 2 2 1 1 153 186 154
84 2 2 1 1 154 187 155
85 2 2 1 1 155 188 156
86 2 2 1 1 156 189 157
87 2 2 1 1 157 190 158
88 2 2 1 1 158 191 163
89 2 2 1 1 163 195 162
90 2 2 1 1 194 184 161
91 2 2 1 1 184 185 152
92 2 2 1 1 185 186 153
93 2 2 1 1 186 187 154
94 2 2 1 1 187 188 155
95 2 2 1 1 188 189 156
96 2 2 1 1 189 190 157
97 2 2 1 1 190 191 158
98 2 2 1 1 163 196 195
99 2 2 1 1 191 196 163
100 2 2 1 1 194 218 184
101 2 2 1 1 184 219 185
102 2 2 1 1 185 220 186
103 2 2 1 1 186 221 187
104 2 2 1 1 187 222 188
105 2 2 1 1 188 223 189
106 2 2 1 1 189 224 190
107 2 2 1 1 190 225 191
108 2 2 1 1 191 226 196
109 2 2 1 1 196 227 195
110 2 2 1 1 218 219 184
111 2 2 1 1 219 220 185
112 2 2 1 1 220 221 186
113 2 2 1 1 221 222 187
114 2 2 1 1 222 223 188
115 2 2 1 1 223 224 189
116 2 2 1 1 224 225 190
117 2 2 1 1 225 226 191
118 2 2 1 1 196 228 227
119 2 2 1 1 226 228 196
120 2 2 1 1 218 247 219
121 2 2 1 1 219 248 220
122 2 2 1 1 220 249 221
123 2 2 1 1 221 250 222
124 2 2 1 1 222 251 223
125 2 2 1 1 223 252 224
126 2 2 1 1 224 253 225
127 2 2 1 1 225 254 226
128 2 2 1 1 226 255 228
129 2 2 1 1 247 248 219
130 2 2 1 1 248 249 220
131 2 2 1 1 249 250 221
132 2 2 1 1 250 251 222
133 2 2 1 1 251 252 223
134 2 2 1 1 252 253 224
135 2 2 1 1 253 254 225
136 2 2 1 1 254 255 226
137 2 2 1 1 247 272 248
138 2 2 1 1 248 273 249
139 2 2 1 1 249 274 250
140 2 2 1 1 250 275 251
141 2 2 1 1 251 276 252
142 2 2 1 1 252 277 253
143 2 2 1 1 253 278 254
144 2 2 1 1 254 279 255
145 2 2 1 1 272 273 248
146 2 2 1 1 273 274 249
147 2 2 1 1 274 275 250
148 2 2 1 1 275 276 251
149 2 2 1 1 276 277 252
150 2 2 1 1 277 278 253
151 2 2 1 1 278 279 254
152 2 2 1 1 272 294 273
153 2 2 1 1 273 295 274
154 2 2 1 1 274 296 275
155 2 2 1 1 275 297 276
156 2 2 1 1 276 298 277
157 2 2 1 1 277 299 278
158 2 2 1 1 278 300 279
159 2 2 1 1 294 295 273
160 2 2 1 1 295 296 274
161 2 2 1 1 296 297 275
162 2 2 1 1 297 298 276
163 2 2 1 1 298 299 277
164 2 2 1 1 299 300 278
165 2 2 1 1 294 313 295
166 2 2 1 1 295 314 296
167 2 2 1 1 296 315 297
168 2 2 1 1 297 316 298
169 2 2 1 1 298 317 299
170 2 2 1 1 299 318 300
171 2 2 1 1 313 314 295
172 2 2 1 1 314 315 296
173 2 2 1 1 315 316 297
174 2 2 1 1 316 317 298
175 2 2 1 1 317 318 299
176 2 2 1 1 313 329 314
177 2 2 1 1 314 330 315
178 2 2 1 1 315 331 316
179 2 2 1 1 316 332 317
180 2 2 1 1 317 333 318
181 2 2 1 1 329 330 314
182 2 2 1 1 330 331 315
183 2 2 1 1 331 332 316
184 2 2 1 1 332 333 317
185 2 2 1 1 329 342 330
186 2 2 1 1 330 343 331
187 2 2 1 1 331 344 332
188 2 2 1 1 332 345 333
189 2 2 1 1 342 343 330
190 2 2 1 1 343 344 331
191 2 2 1 1 344 345 332
192 2 2 1 1 342 352 343
193 2 2 1 1 343 353 344
194 2 2 1 1 344 354 345
195 2 2 1 1 352 353 343
196 2 2 1 1 353 354 344
197 2 2 1 1 352 359 353
198 2 2 1 1 353 360 354
199 2 2 1 1 359 360 353
200 2 2 1 1 359 363 360
201 2 2 2 2 3 5 4
202 2 2 2 2 7 4 5
203 2 2 2 2 5 13 7
204 2 2 2 2 4 7 12
205 2 2 2 2 18 7 13
206 2 2 2 2 20 12 7
207 2 2 2 2 13 25 18
208 2 2 2 2 7 18 20
209 2 2 2 2 12 20 24
210 2 2 2 2 30 18 25
211 2 2 2 2 32 20 18
212 2 2 2 2 34 24 20
213 2 2 2 2 25 40 30
214 2 2 2 2 18 30 32
215 2 2 2 2 20 32 34
216 2 2 2 2 24 34 39
217 2 2 2 2 45 30 40
218 2 2 2 2 47 32 30
219 2 2 2 2 49 34 32
220 2 2 2 2 51 39 34
221 2 2 2 2 40 58 45
222 2 2 2 2 30 45 47
223 2 2 2 2 32 47 49
224 2 2 2 2 34 49 51
225 2 2 2 2 39 51 57
226 2 2 2 2 63 45 58
227 2 2 2 2 65 47 45
228 2 2 2 2 67 49 47
229 2 2 2 2 69 51 49
230 2 2 2 2 71 57 51
231 2 2 2 2 58 79 63
232 2 2 2 2 45 63 65
233 2 2 2 2 47 65 67
234 2 2 2 2 49 67 69
235 2 2 2 2 51 69 71
236 2 2 2 2 57 71 78
237 2 2 2 2 84 63 79
238 2 2 2 2 86 65 63
239 2 2 2 2 88 67 65
240 2 2 2 2 90 69 67
241 2 2 2 2 92 71 69
242 2 2 2 2 94 78 71
243 2 2 2 2 79 103 84
244 2 2 2 2 63 84 86
245 2 2 2 2 65 86 88
246 2 2 2 2 67 88 90
247 2 2 2 2 69 90 92
248 2 2 2 2 71 92 94
249 2 2 2 2 78 94 102
250 2 2 2 2 108 84 103
251 2 2 2 2 110 86 84
252 2 2 2 2 112 88 86
253 2 2 2 2 114 90 88
254 2 2 2 2 116 92 90
255 2 2 2 2 118 94 92
256 2 2 2 2 120 102 94
257 2 2 2 2 103 130 108
258 2 2 2 2 84 108 110
259 2 2 2 2 86 110 112
260 2 2 2 2 88 112 114
261 2 2 2 2 90 114 116
262 2 2 2 2 92 116 118
263 2 2 2 2 94 118 120
264 2 2 2 2 102 120 129
265 2 2 2 2 135 108 130
266 2 2 2 2 137 110 108
267 2 2 2 2 139 112 110
268 2 2 2 2 141 114 112
269 2 2 2 2 143 116 114
270 2 2 2 2 145 118 116
271 2 2 2 2 147 120 118
272 2 2 2 2 149 129 120
273 2 2 2 2 130 160 135
274 2 2 2 2 108 135 137
275 2 2 2 2 110 137 139
276 2 2 2 2 112 139 141
277 2 2 2 2 114 141 143
278 2 2 2 2 116 143 145
279 2 2 2 2 118 145 147
280 2 2 2 2 120 147 149
281 2 2 2 2 129 149 159
282 2 2 2 2 165 135 160
283 2 2 2 2 167 137 135
284 2 2 2 2 169 139 137
285 2 2 2 2 171 141 139
286 2 2 2 2 173 143 141
287 2 2 2 2 175 145 143
288 2 2 2 2 177 147 145
289 2 2 2 2 179 149 147
290 2 2 2 2 181 159 149
291 2 2 2 2 160 193 165
292 2 2 2 2 135 165 167
293 2 2 2 2 137 167 169
294 2 2 2 2 139 169 171
295 2 2 2 2 141 171 173
296 2 2 2 2 143 173 175
297 2 2 2 2 145 175 177
298 2 2 2 2 147 177 179
299 2 2 2 2 149 179 181
300 2 2 2 2 159 181 192
301 2 2 2 2 198 165 193
302 2 2 2 2 200 167 165
303 2 2 2 2 202 169 167
304 2 2 2 2 204 171 169
305 2 2 2 2 206 173 171
306 2 2 2 2 208 175 173
307 2 2 2 2 210 177 175
308 2 2 2 2 212 179 177
309 2 2 2 2 214 181 179
310 2 2 2 2 216 192 181
311 2 2 2 2 165 198 200
312 2 2 2 2 167 200 202
313 2 2 2 2 169 202 204
314 2 2 2 2 171 204 206
315 2 2 2 2 173 206 208
316 2 2 2 2 175 208 210
317 2 2 2 2 177 210 212
318 2 2 2 2 179 212 214
319 2 2 2 2 181 214 216
320 2 2 2 2 229 200 198
321 2 2 2 2 231 202 200
322 2 2 2 2 233 204 202
323 2 2 2 2 235 206 204
324 2 2 2 2 237 208 206
325 2 2 2 2 239 210 208
326 2 2 2 2 241 212 210
327 2 2 2 2 243 214 212
328 2 2 2 2 245 216 214
329 2 2 2 2 200 229 231
330 2 2 2 2 202 231 233
331 2 2 2 2 204 233 235
332 2 2 2 2 206 235 237
333 2 2 2 2 208 237 239
334 2 2 2 2 210 239 241
335 2 2 2 2 212 241 243
336 2 2 2 2 214 243 245
337 2 2 2 2 256 231 229
338 2 2 2 2 258 233 231
339 2 2 2 2 260 235 233
340 2 2 2 2 262 237 235
341 2 2 2 2 264 239 237
342 2 2 2 2 266 241 239
343 2 2 2 2 268 243 241
344 2 2 2 2 270 245 243
345 2 2 2 2 231 256 258
346 2 2 2 2 233 258 260
347 2 2 2 2 235 260 262
348 2 2 2 2 237 262 264
349 2 2 2 2 239 264 266
350 2 2 2 2 241 266 268
351 2 2 2 2 243 268 270
352 2 2 2 2 280 258 256
353 2 2 2 2 282 260 258
354 2 2 2 2 284 262 260
355 2 2 2 2 286 264 262
356 2 2 2 2 288 266 264
357 2 2 2 2 290 268 266
358 2 2 2 2 292 270 268
359 2 2 2 2 258 280 282
360 2 2 2 2 260 282 284
361 2 2 2 2 262 284 286
362 2 2 2 2 264 286 288
363 2 2 2 2 266 288 290
364 2 2 2 2 268 290 292
365 2 2 2 2 301 282 280
366 2 2 2 2 303 284 282
367 2 2 2 2 305 286 284
368 2 2 2 2 307 288 286
369 2 2 2 2 309 290 288
370 2 2 2 2 311 292 290
371 2 2 2 2 282 301 303
372 2 2 2 2 284 303 305
373 2 2 2 2 286 305 307
374 2 2 2 2 288 307 309
375 2 2 2 2 290 309 311
376 2 2 2 2 319 303 301
377 2 2 2 2 321 305 303
378 2 2 2 2 323 307 305
379 2 2 2 2 325 309 307
380 2 2 2 2 327 311 309
381 2 2 2 2 303 319 321
382 2 2 2 2 305 321 323
383 2 2 2 2 307 323 325
384 2 2 2 2 309 325 327
385 2 2 2 2 334 321 319
386 2 2 2 2 336 323 321
387 2 2 2 2 338 325 323
388 2 2 2 2 340 327 325
389 2 2 2 2 321 334 336
390 2 2 2 2 323 336 338
391 2 2 2 2 325 338 340
392 2 2 2 2 346 336 334
393 2 2 2 2 348 338 336
394 2 2 2 2 350 340 338
395 2 2 2 2 336 346 348
396 2 2 2 2 338 348 350
397 2 2 2 2 355 348 346
398 2 2 2 2 357 350 348
399 2 2 2 2 348 355 357
400 2 2 2 2 361 357 355
401 2 2 3 3 183 198 193
402 2 2 3 3 183 199 198
403 2 2 3 3 194 199 183
404 2 2 3 3 194 218 199
405 2 2 3 3 199 229 198
406 2 2 3 3 199 230 229
407 2 2 3 3 218 230 199
408 2 2 3 3 218 247 230
409 2 2 3 3 230 256 229
410 2 2 3 3 230 257 256
411 2 2 3 3 247 257 230
412 2 2 3 3 247 272 257
413 2 2 3 3 257 280 256
414 2 2 3 3 257 281 280
415 2 2 3 3 272 281 257
416 2 2 3 3 272 294 281
417 2 2 3 3 281 301 280
418 2 2 3 3 281 302 301
419 2 2 3 3 294 302 281
420 2 2 3 3 294 313 302
421 2 2 3 3 302 319 301
422 2 2 3 3 302 320 319
423 2 2 3 3 313 320 302
424 2 2 3 3 313 329 320
425 2 2 3 3 320 334 319
426 2 2 3 3 320 335 334
427 2 2 3 3 329 335 320
428 2 2 3 3 329 342 335
429 2 2 3 3 335 346 334
430 2 2 3 3 335 347 346
431 2 2 3 3 342 347 335
432 2 2 3 3 342 352 347
433 2 2 3 3 347 355 346
434 2 2 3 3 347 356 355
435 2 2 3 3 352 356 347
436 2 2 3 3 352 359 356
437 2 2 3 3 356 361 355
438 2 2 3 3 356 362 361
439 2 2 3 3 359 362 356
440 2 2 3 3 359 363 362
441 2 2 4 4 2 3 4
442 2 2 4 4 6 2 4
443 2 2 4 4 11 2 6
444 2 2 4 4 6 4 12
445 2 2 4 4 14 11 6
446 2 2 4 4 17 6 12
447 2 2 4 4 14 6 17
448 2 2 4 4 17 12 24
449 2 2 4 4 27 14 17
450 2 2 4 4 29 17 24
451 2 2 4 4 27 17 29
452 2 2 4 4 29 24 39
453 2 2 4 4 42 27 29
454 2 2 4 4 44 29 39
455 2 2 4 4 42 29 44
456 2 2 4 4 44 39 57
457 2 2 4 4 60 42 44
458 2 2 4 4 62 44 57
459 2 2 4 4 60 44 62
460 2 2 4 4 62 57 78
461 2 2 4 4 81 60 62
462 2 2 4 4 83 62 78
463 2 2 4 4 81 62 83
464 2 2 4 4 83 78 102
465 2 2 4 4 105 81 83
466 2 2 4 4 107 83 102
467 2 2 4 4 105 83 107
468 2 2 4 4 107 102 129
469 2 2 4 4 132 105 107
470 2 2 4 4 134 107 129
471 2 2 4 4 132 107 134
472 2 2 4 4 134 129 159
473 2 2 4 4 162 132 134
474 2 2 4 4 164 134 159
475 2 2 4 4 162 134 164
476 2 2 4 4 164 159 192
477 2 2 4 4 195 162 164
478 2 2 4 4 197 164 192
479 2 2 4 4 195 164 197
480 2 2 4 4 227 195 197
481 2 2 5 5 1 2 3
482 2 2 5 5 1 3 5
483 2 2 5 5 8 2 1
484 2 2 5 5 10 1 5
485 2 2 5 5 8 11 2
486 2 2 5 5 10 5 13
487 2 2 5 5 15 8 1
488 2 2 5 5 15 1 10
489 2 2 5 5 22 10 13
490 2 2 5 5 22 13 25
491 2 2 5 5 26 15 10
492 2 2 5 5 26 10 22
493 2 2 5 5 36 22 25
494 2 2 5 5 36 25 40
495 2 2 5 5 41 26 22
496 2 2 5 5 41 22 36
497 2 2 5 5 53 36 40
498 2 2 5 5 53 40 58
499 2 2 5 5 59 41 36
500 2 2 5 5 59 36 53
501 2 2 5 5 73 53 58
502 2 2 5 5 73 58 79
503 2 2 5 5 80 59 53
504 2 2 5 5 80 53 73
505 2 2 5 5 96 73 79
506 2 2 5 5 96 79 103
507 2 2 5 5 104 80 73
508 2 2 5 5 104 73 96
509 2 2 5 5 122 96 103
510 2 2 5 5 122 103 130
511 2 2 5 5 131 104 96
512 2 2 5 5 131 96 122
513 2 2 5 5 151 122 130
514 2 2 5 5 151 130 160
515 2 2 5 5 161 131 122
516 2 2 5 5 161 122 151
517 2 2 5 5 183 151 160
518 2 2 5 5 183 160 193
519 2 2 5 5 194 161 151
520 2 2 5 5 194 151 183
521 2 2 6 6 217 197 192
522 2 2 6 6 217 192 216
523 2 2 6 6 228 197 217
524 2 2 6 6 246 217 216
525 2 2 6 6 228 227 197
526 2 2 6 6 246 216 245
527 2 2 6 6 255 228 217
528 2 2 6 6 255 217 246
529 2 2 6 6 271 246 245
530 2 2 6 6 271 245 270
531 2 2 6 6 279 255 246
532 2 2 6 6 279 246 271
533 2 2 6 6 293 271 270
534 2 2 6 6 293 270 292
535 2 2 6 6 300 279 271
536 2 2 6 6 300 271 293
537 2 2 6 6 312 293 292
538 2 2 6 6 312 292 311
539 2 2 6 6 318 300 293
540 2 2 6 6 318 293 312
541 2 2 6 6 328 312 311
542 2 2 6 6 328 311 327
543 2 2 6 6 333 318 312
544 2 2 6 6 333 312 328
545 2 2 6 6 341 328 327
546 2 2 6 6 341 327 340
547 2 2 6 6 345 333 328
548 2 2 6 6 345 328 341
549 2 2 6 6 351 341 340
550 2 2 6 6 351 340 350
551 2 2 6 6 354 345 341
552 2 2 6 6 354 341 351
553 2 2 6 6 358 351 350
554 2 2 6 6 358 350 357
555 2 2 6 6 360 354 351
556 2 2 6 6 360 351 358
557 2 2 6 6 362 358 357
558 2 2 6 6 362 357 361
559 2 2 6 6 363 360 358
560 2 2 6 6 363 358 362
561 4 2 7 7 1 2 3 4
562 4 2 7 7 1 3 5 4
563 4 2 7 7 1 6 2 4
564 4 2 7 7 1 7 4 5
565 4 2 7 7 8 2 1 6
566 4 2 7 7 1 9 6 4
567 4 2 7 7 10 1 5 7
568 4 2 7 7 1 9 4 7
569 4 2 7 7 8 11 2 6
570 4 2 7 7 8 9 6 1
571 4 2 7 7 9 6 4 12
572 4 2 7 7 10 5 13 7
573 4 2 7 7 10 9 1 7
574 4 2 7 7 9 4 7 12
575 4 2 7 7 8 14 11 6
576 4 2 7 7 15 8 1 9
577 4 2 7 7 8 16 6 9
578 4 2 7 7 9 17 6 12
579 4 2 7 7 10 18 7 13
580 4 2 7 7 15 1 10 9
581 4 2 7 7 10 19 9 7
582 4 2 7 7 9 20 12 7
583 4 2 7 7 8 16 14 6
584 4 2 7 7 15 16 8 9
585 4 2 7 7 16 6 9 17
586 4 2 7 7 9 21 17 12
587 4 2 7 7 22 10 13 18
588 4 2 7 7 10 19 7 18
589 4 2 7 7 15 19 9 10
590 4 2 7 7 19 9 7 20
591 4 2 7 7 9 21 12 20
592 4 2 7 7 16 14 6 17
593 4 2 7 7 15 23 16 9
594 4 2 7 7 16 21 17 9
595 4 2 7 7 21 17 12 24
596 4 2 7 7 22 13 25 18
597 4 2 7 7 22 19 10 18
598 4 2 7 7 19 7 18 20
599 4 2 7 7 26 15 10 19
600 4 2 7 7 15 23 9 19
601 4 2 7 7 19 21 9 20
602 4 2 7 7 21 12 20 24
603 4 2 7 7 16 27 14 17
604 4 2 7 7 23 16 9 21
605 4 2 7 7 16 28 17 21
606 4 2 7 7 21 29 17 24
607 4 2 7 7 22 30 18 25
608 4 2 7 7 26 10 22 19
609 4 2 7 7 22 31 19 18
610 4 2 7 7 19 32 20 18
611 4 2 7 7 26 23 15 19
612 4 2 7 7 23 9 19 21
613 4 2 7 7 19 33 21 20
614 4 2 7 7 21 34 24 20
615 4 2 7 7 16 28 27 17
616 4 2 7 7 23 28 16 21
617 4 2 7 7 28 17 21 29
618 4 2 7 7 21 35 29 24
619 4 2 7 7 36 22 25 30
620 4 2 7 7 22 31 18 30
621 4 2 7 7 26 31 19 22
622 4 2 7 7 31 19 18 32
623 4 2 7 7 19 33 20 32
624 4 2 7 7 26 37 23 19
625 4 2 7 7 23 33 21 19
626 4 2 7 7 33 21 20 34
627 4 2 7 7 21 35 24 34
628 4 2 7 7 28 27 17 29
629 4 2 7 7 23 38 28 21
630 4 2 7 7 28 35 29 21
631 4 2 7 7 35 29 24 39
632 4 2 7 7 36 25 40 30
633 4 2 7 7 36 31 22 30
634 4 2 7 7 31 18 30 32
635 4 2 7 7 41 26 22 31
636 4 2 7 7 26 37 19 31
637 4 2 7 7 31 33 19 32
638 4 2 7 7 33 20 32 34
639 4 2 7 7 37 23 19 33
640 4 2 7 7 23 38 21 33
641 4 2 7 7 33 35 21 34
642 4 2 7 7 35 24 34 39
643 4 2 7 7 28 42 27 29
644 4 2 7 7 38 28 21 35
645 4 2 7 7 28 43 29 35
646 4 2 7 7 35 44 29 39
647 4 2 7 7 36 45 30 40
648 4 2 7 7 41 22 36 31
649 4 2 7 7 36 46 31 30
650 4 2 7 7 31 47 32 30
651 4 2 7 7 41 37 26 31
652 4 2 7 7 37 19 31 33
653 4 2 7 7 31 48 33 32
654 4 2 7 7 33 49 34 32
655 4 2 7 7 37 38 23 33
656 4 2 7 7 38 21 33 35
657 4 2 7 7 33 50 35 34
658 4 2 7 7 35 51 39 34
659 4 2 7 7 28 43 42 29
660 4 2 7 7 38 43 28 35
661 4 2 7 7 43 29 35 44
662 4 2 7 7 35 52 44 39
663 4 2 7 7 53 36 40 45
664 4 2 7 7 36 46 30 45
665 4 2 7 7 41 46 31 36
666 4 2 7 7 46 31 30 47
667 4 2 7 7 31 48 32 47
668 4 2 7 7 41 54 37 31
669 4 2 7 7 37 48 33 31
670 4 2 7 7 48 33 32 49
671 4 2 7 7 33 50 34 49
672 4 2 7 7 37 55 38 33
673 4 2 7 7 38 50 35 33
674 4 2 7 7 50 35 34 51
675 4 2 7 7 35 52 39 51
676 4 2 7 7 43 42 29 44
677 4 2 7 7 38 56 43 35
678 4 2 7 7 43 52 44 35
679 4 2 7 7 52 44 39 57
680 4 2 7 7 53 40 58 45
681 4 2 7 7 53 46 36 45
682 4 2 7 7 46 30 45 47
683 4 2 7 7 59 41 36 46
684 4 2 7 7 41 54 31 46
685 4 2 7 7 46 48 31 47
686 4 2 7 7 48 32 47 49
687 4 2 7 7 54 37 31 48
688 4 2 7 7 37 55 33 48
689 4 2 7 7 48 50 33 49
690 4 2 7 7 50 34 49 51
691 4 2 7 7 55 38 33 50
692 4 2 7 7 38 56 35 50
693 4 2 7 7 50 52 35 51
694 4 2 7 7 52 39 51 57
695 4 2 7 7 43 60 42 44
696 4 2 7 7 56 43 35 52
697 4 2 7 7 43 61 44 52
698 4 2 7 7 52 62 44 57
699 4 2 7 7 53 63 45 58
700 4 2 7 7 59 36 53 46
701 4 2 7 7 53 64 46 45
702 4 2 7 7 46 65 47 45
703 4 2 7 7 59 54 41 46
704 4 2 7 7 54 31 46 48
705 4 2 7 7 46 66 48 47
706 4 2 7 7 48 67 49 47
707 4 2 7 7 54 55 37 48
708 4 2 7 7 55 33 48 50
709 4 2 7 7 48 68 50 49
710 4 2 7 7 50 69 51 49
711 4 2 7 7 55 56 38 50
712 4 2 7 7 56 35 50 52
713 4 2 7 7 50 70 52 51
714 4 2 7 7 52 71 57 51
715 4 2 7 7 43 61 60 44
716 4 2 7 7 56 61 43 52
717 4 2 7 7 61 44 52 62
718 4 2 7 7 52 72 62 57
719 4 2 7 7 73 53 58 63
720 4 2 7 7 53 64 45 63
721 4 2 7 7 59 64 46 53
722 4 2 7 7 64 46 45 65
723 4 2 7 7 46 66 47 65
724 4 2 7 7 59 74 54 46
725 4 2 7 7 54 66 48 46
726 4 2 7 7 66 48 47 67
727 4 2 7 7 48 68 49 67
728 4 2 7 7 54 75 55 48
729 4 2 7 7 55 68 50 48
730 4 2 7 7 68 50 49 69
731 4 2 7 7 50 70 51 69
732 4 2 7 7 55 76 56 50
733 4 2 7 7 56 70 52 50
734 4 2 7 7 70 52 51 71
735 4 2 7 7 52 72 57 71
736 4 2 7 7 61 60 44 62
737 4 2 7 7 56 77 61 52
738 4 2 7 7 61 72 62 52
739 4 2 7 7 72 62 57 78
740 4 2 7 7 73 58 79 63
741 4 2 7 7 73 64 53 63
742 4 2 7 7 64 45 63 65
743 4 2 7 7 80 59 53 64
744 4 2 7 7 59 74 46 64
745 4 2 7 7 64 66 46 65
746 4 2 7 7 66 47 65 67
747 4 2 7 7 74 54 46 66
748 4 2 7 7 54 75 48 66
749 4 2 7 7 66 68 48 67
750 4 2 7 7 68 49 67 69
751 4 2 7 7 75 55 48 68
752 4 2 7 7 55 76 50 68
753 4 2 7 7 68 70 50 69
754 4 2 7 7 70 51 69 71
755 4 2 7 7 76 56 50 70
756 4 2 7 7 56 77 52 70
757 4 2 7 7 70 72 52 71
758 4 2 7 7 72 57 71 78
759 4 2 7 7 61 81 60 62
760 4 2 7 7 77 61 52 72
761 4 2 7 7 61 82 62 72
762 4 2 7 7 72 83 62 78
763 4 2 7 7 73 84 63 79
764 4 2 7 7 80 53 73 64
765 4 2 7 7 73 85 64 63
766 4 2 7 7 64 86 65 63
767 4 2 7 7 80 74 59 64
768 4 2 7 7 74 46 64 66
769 4 2 7 7 64 87 66 65
770 4 2 7 7 66 88 67 65
771 4 2 7 7 74 75 54 66
772 4 2 7 7 75 48 66 68
773 4 2 7 7 66 89 68 67
774 4 2 7 7 68 90 69 67
775 4 2 7 7 75 76 55 68
776 4 2 7 7 76 50 68 70
777 4 2 7 7 68 91 70 69
778 4 2 7 7 70 92 71 69
779 4 2 7 7 76 77 56 70
780 4 2 7 7 77 52 70 72
781 4 2 7 7 70 93 72 71
782 4 2 7 7 72 94 78 71
783 4 2 7 7 61 82 81 62
784 4 2 7 7 77 82 61 72
785 4 2 7 7 82 62 72 83
786 4 2 7 7 72 95 83 78
787 4 2 7 7 96 73 79 84
788 4 2 7 7 73 85 63 84
789 4 2 7 7 80 85 64 73
790 4 2 7 7 85 64 63 86
791 4 2 7 7 64 87 65 86
792 4 2 7 7 80 97 74 64
793 4 2 7 7 74 87 66 64
794 4 2 7 7 87 66 65 88
795 4 2 7 7 66 89 67 88
796 4 2 7 7 74 98 75 66
797 4 2 7 7 75 89 68 66
798 4 2 7 7 89 68 67 90
799 4 2 7 7 68 91 69 90
800 4 2 7 7 75 99 76 68
801 4 2 7 7 76 91 70 68
802 4 2 7 7 91 70 69 92
803 4 2 7 7 70 93 71 92
804 4 2 7 7 76 100 77 70
805 4 2 7 7 77 93 72 70
806 4 2 7 7 93 72 71 94
807 4 2 7 7 72 95 78 94
808 4 2 7 7 82 81 62 83
809 4 2 7 7 77 101 82 72
810 4 2 7 7 82 95 83 72
811 4 2 7 7 95 83 78 102
812 4 2 7 7 96 79 103 84
813 4 2 7 7 96 85 73 84
814 4 2 7 7 85 63 84 86
815 4 2 7 7 104 80 73 85
816 4 2 7 7 80 97 64 85
817 4 2 7 7 85 87 64 86
818 4 2 7 7 87 65 86 88
819 4 2 7 7 97 74 64 87
820 4 2 7 7 74 98 66 87
821 4 2 7 7 87 89 66 88
822 4 2 7 7 89 67 88 90
823 4 2 7 7 98 75 66 89
824 4 2 7 7 75 99 68 89
825 4 2 7 7 89 91 68 90
826 4 2 7 7 91 69 90 92
827 4 2 7 7 99 76 68 91
828 4 2 7 7 76 100 70 91
829 4 2 7 7 91 93 70 92
830 4 2 7 7 93 71 92 94
831 4 2 7 7 100 77 70 93
832 4 2 7 7 77 101 72 93
833 4 2 7 7 93 95 72 94
834 4 2 7 7 95 78 94 102
835 4 2 7 7 82 105 81 83
836 4 2 7 7 101 82 72 95
837 4 2 7 7 82 106 83 95
838 4 2 7 7 95 107 83 102
839 4 2 7 7 96 108 84 103
840 4 2 7 7 104 73 96 85
841 4 2 7 7 96 109 85 84
842 4 2 7 7 85 110 86 84
843 4 2 7 7 104 97 80 85
844 4 2 7 7 97 64 85 87
845 4 2 7 7 85 111 87 86
846 4 2 7 7 87 112 88 86
847 4 2 7 7 97 98 74 87
848 4 2 7 7 98 66 87 89
849 4 2 7 7 87 113 89 88
850 4 2 7 7 89 114 90 88
851 4 2 7 7 98 99 75 89
852 4 2 7 7 99 68 89 91
853 4 2 7 7 89 115 91 90
854 4 2 7 7 91 116 92 90
855 4 2 7 7 99 100 76 91
856 4 2 7 7 100 70 91 93
857 4 2 7 7 91 117 93 92
858 4 2 7 7 93 118 94 92
859 4 2 7 7 100 101 77 93
860 4 2 7 7 101 72 93 95
861 4 2 7 7 93 119 95 94
862 4 2 7 7 95 120 102 94
863 4 2 7 7 82 106 105 83
864 4 2 7 7 101 106 82 95
865 4 2 7 7 106 83 95 107
866 4 2 7 7 95 121 107 102
867 4 2 7 7 122 96 103 108
868 4 2 7 7 96 109 84 108
869 4 2 7 7 104 109 85 96
870 4 2 7 7 109 85 84 110
871 4 2 7 7 85 111 86 110
872 4 2 7 7 104 123 97 85
873 4 2 7 7 97 111 87 85
874 4 2 7 7 111 87 86 112
875 4 2 7 7 87 113 88 112
876 4 2 7 7 97 124 98 87
877 4 2 7 7 98 113 89 87
878 4 2 7 7 113 89 88 114
879 4 2 7 7 89 115 90 114
880 4 2 7 7 98 125 99 89
881 4 2 7 7 99 115 91 89
882 4 2 7 7 115 91 90 116
883 4 2 7 7 91 117 92 116
884 4 2 7 7 99 126 100 91
885 4 2 7 7 100 117 93 91
886 4 2 7 7 117 93 92 118
887 4 2 7 7 93 119 94 118
888 4 2 7 7 100 127 101 93
889 4 2 7 7 101 119 95 93
890 4 2 7 7 119 95 94 120
891 4 2 7 7 95 121 102 120
892 4 2 7 7 106 105 83 107
893 4 2 7 7 101 128 106 95
894 4 2 7 7 106 121 107 95
895 4 2 7 7 121 107 102 129
896 4 2 7 7 122 103 130 108
897 4 2 7 7 122 109 96 108
898 4 2 7 7 109 84 108 110
899 4 2 7 7 131 104 96 109
900 4 2 7 7 104 123 85 109
901 4 2 7 7 109 111 85 110
902 4 2 7 7 111 86 110 112
903 4 2 7 7 123 97 85 111
904 4 2 7 7 97 124 87 111
905 4 2 7 7 111 113 87 112
906 4 2 7 7 113 88 112 114
907 4 2 7 7 124 98 87 113
908 4 2 7 7 98 125 89 113
909 4 2 7 7 113 115 89 114
910 4 2 7 7 115 90 114 116
911 4 2 7 7 125 99 89 115
912 4 2 7 7 99 126 91 115
913 4 2 7 7 115 117 91 116
914 4 2 7 7 117 92 116 118
915 4 2 7 7 126 100 91 117
916 4 2 7 7 100 127 93 117
917 4 2 7 7 117 119 93 118
918 4 2 7 7 119 94 118 120
919 4 2 7 7 127 101 93 119
920 4 2 7 7 101 128 95 119
921 4 2 7 7 119 121 95 120
922 4 2 7 7 121 102 120 129
923 4 2 7 7 106 132 105 107
924 4 2 7 7 128 106 95 121
925 4 2 7 7 106 133 107 121
926 4 2 7 7 121 134 107 129
927 4 2 7 7 122 135 108 130
928 4 2 7 7 131 96 122 109
929 4 2 7 7 122 136 109 108
930 4 2 7 7 109 137 110 108
931 4 2 7 7 131 123 104 109
932 4 2 7 7 123 85 109 111
933 4 2 7 7 109 138 111 110
934 4 2 7 7 111 139 112 110
935 4 2 7 7 123 124 97 111
936 4 2 7 7 124 87 111 113
937 4 2 7 7 111 140 113 112
938 4 2 7 7 113 141 114 112
939 4 2 7 7 124 125 98 113
940 4 2 7 7 125 89 113 115
941 4 2 7 7 113 142 115 114
942 4 2 7 7 115 143 116 114
943 4 2 7 7 125 126 99 115
944 4 2 7 7 126 91 115 117
945 4 2 7 7 115 144 117 116
946 4 2 7 7 117 145 118 116
947 4 2 7 7 126 127 100 117
948 4 2 7 7 127 93 117 119
949 4 2 7 7 117 146 119 118
950 4 2 7 7 119 147 120 118
951 4 2 7 7 127 128 101 119
952 4 2 7 7 128 95 119 121
953 4 2 7 7 119 148 121 120
954 4 2 7 7 121 149 129 120
955 4 2 7 7 106 133 132 107
956 4 2 7 7 128 133 106 121
957 4 2 7 7 133 107 121 134
958 4 2 7 7 121 150 134 129
959 4 2 7 7 151 122 130 135
960 4 2 7 7 122 136 108 135
961 4 2 7 7 131 136 109 122
962 4 2 7 7 136 109 108 137
963 4 2 7 7 109 138 110 137
964 4 2 7 7 131 152 123 109
965 4 2 7 7 123 138 111 109
966 4 2 7 7 138 111 110 139
967 4 2 7 7 111 140 112 139
968 4 2 7 7 123 153 124 111
969 4 2 7 7 124 140 113 111
970 4 2 7 7 140 113 112 141
971 4 2 7 7 113 142 114 141
972 4 2 7 7 124 154 125 113
973 4 2 7 7 125 142 115 113
974 4 2 7 7 142 115 114 143
975 4 2 7 7 115 144 116 143
976 4 2 7 7 125 155 126 115
977 4 2 7 7 126 144 117 115
978 4 2 7 7 144 117 116 145
979 4 2 7 7 117 146 118 145
980 4 2 7 7 126 156 127 117
981 4 2 7 7 127 146 119 117
982 4 2 7 7 146 119 118 147
983 4 2 7 7 119 148 120 147
984 4 2 7 7 127 157 128 119
985 4 2 7 7 128 148 121 119
986 4 2 7 7 148 121 120 149
987 4 2 7 7 121 150 129 149
988 4 2 7 7 133 132 107 134
989 4 2 7 7 128 158 133 121
990 4 2 7 7 133 150 134 121
991 4 2 7 7 150 134 129 159
992 4 2 7 7 151 130 160 135
993 4 2 7 7 151 136 122 135
994 4 2 7 7 136 108 135 137
995 4 2 7 7 161 131 122 136
996 4 2 7 7 131 152 109 136
997 4 2 7 7 136 138 109 137
998 4 2 7 7 138 110 137 139
999 4 2 7 7 152 123 109 138
1000 4 2 7 7 123 153 111 138
1001 4 2 7 7 138 140 111 139
1002 4 2 7 7 140 112 139 141
1003 4 2 7 7 153 124 111 140
1004 4 2 7 7 124 154 113 140
1005 4 2 7 7 140 142 113 141
1006 4 2 7 7 142 114 141 143
1007 4 2 7 7 154 125 113 142
1008 4 2 7 7 125 155 115 142
1009 4 2 7 7 142 144 115 143
1010 4 2 7 7 144 116 143 145
1011 4 2 7 7 155 126 115 144
1012 4 2 7 7 126 156 117 144
1013 4 2 7 7 144 146 117 145
1014 4 2 7 7 146 118 145 147
1015 4 2 7 7 156 127 117 146
1016 4 2 7 7 127 157 119 146
1017 4 2 7 7 146 148 119 147
1018 4 2 7 7 148 120 147 149
1019 4 2 7 7 157 128 119 148
1020 4 2 7 7 128 158 121 148
1021 4 2 7 7 148 150 121 149
1022 4 2 7 7 150 129 149 159
1023 4 2 7 7 133 162 132 134
1024 4 2 7 7 158 133 121 150
1025 4 2 7 7 133 163 134 150
1026 4 2 7 7 150 164 134 159
1027 4 2 7 7 151 165 135 160
1028 4 2 7 7 161 122 151 136
1029 4 2 7 7 151 166 136 135
1030 4 2 7 7 136 167 137 135
1031 4 2 7 7 161 152 131 136
1032 4 2 7 7 152 109 136 138
1033 4 2 7 7 136 168 138 137
1034 4 2 7 7 138 169 139 137
1035 4 2 7 7 152 153 123 138
1036 4 2 7 7 153 111 138 140
1037 4 2 7 7 138 170 140 139
1038 4 2 7 7 140 171 141 139
1039 4 2 7 7 153 154 124 140
1040 4 2 7 7 154 113 140 142
1041 4 2 7 7 140 172 142 141
1042 4 2 7 7 142 173 143 141
1043 4 2 7 7 154 155 125 142
1044 4 2 7 7 155 115 142 144
1045 4 2 7 7 142 174 144 143
1046 4 2 7 7 144 175 145 143
1047 4 2 7 7 155 156 126 144
1048 4 2 7 7 156 117 144 146
1049 4 2 7 7 144 176 146 145
1050 4 2 7 7 146 177 147 145
1051 4 2 7 7 156 157 127 146
1052 4 2 7 7 157 119 146 148
1053 4 2 7 7 146 178 148 147
1054 4 2 7 7 148 179 149 147
1055 4 2 7 7 157 158 128 148
1056 4 2 7 7 158 121 148 150
1057 4 2 7 7 148 180 150 149
1058 4 2 7 7 150 181 159 149
1059 4 2 7 7 133 163 162 134
1060 4 2 7 7 158 163 133 150
1061 4 2 7 7 163 134 150 164
1062 4 2 7 7 150 182 164 159
1063 4 2 7 7 183 151 160 165
1064 4 2 7 7 151 166 135 165
1065 4 2 7 7 161 166 136 151
1066 4 2 7 7 166 136 135 167
1067 4 2 7 7 136 168 137 167
1068 4 2 7 7 161 184 152 136
1069 4 2 7 7 152 168 138 136
1070 4 2 7 7 168 138 137 169
1071 4 2 7 7 138 170 139 169
1072 4 2 7 7 152 185 153 138
1073 4 2 7 7 153 170 140 138
1074 4 2 7 7 170 140 139 171
1075 4 2 7 7 140 172 141 171
1076 4 2 7 7 153 186 154 140
1077 4 2 7 7 154 172 142 140
1078 4 2 7 7 172 142 141 173
1079 4 2 7 7 142 174 143 173
1080 4 2 7 7 154 187 155 142
1081 4 2 7 7 155 174 144 142
1082 4 2 7 7 174 144 143 175
1083 4 2 7 7 144 176 145 175
1084 4 2 7 7 155 188 156 144
1085 4 2 7 7 156 176 146 144
1086 4 2 7 7 176 146 145 177
1087 4 2 7 7 146 178 147 177
1088 4 2 7 7 156 189 157 146
1089 4 2 7 7 157 178 148 146
1090 4 2 7 7 178 148 147 179
1091 4 2 7 7 148 180 149 179
1092 4 2 7 7 157 190 158 148
1093 4 2 7 7 158 180 150 148
1094 4 2 7 7 180 150 149 181
1095 4 2 7 7 150 182 159 181
1096 4 2 7 7 163 162 134 164
1097 4 2 7 7 158 191 163 150
1098 4 2 7 7 163 182 164 150
1099 4 2 7 7 182 164 159 192
1100 4 2 7 7 183 160 193 165
1101 4 2 7 7 183 166 151 165
1102 4 2 7 7 166 135 165 167
1103 4 2 7 7 194 161 151 166
1104 4 2 7 7 161 184 136 166
1105 4 2 7 7 166 168 136 167
1106 4 2 7 7 168 137 167 169
1107 4 2 7 7 184 152 136 168
1108 4 2 7 7 152 185 138 168
1109 4 2 7 7 168 170 138 169
1110 4 2 7 7 170 139 169 171
1111 4 2 7 7 185 153 138 170
1112 4 2 7 7 153 186 140 170
1113 4 2 7 7 170 172 140 171
1114 4 2 7 7 172 141 171 173
1115 4 2 7 7 186 154 140 172
1116 4 2 7 7 154 187 142 172
1117 4 2 7 7 172 174 142 173
1118 4 2 7 7 174 143 173 175
1119 4 2 7 7 187 155 142 174
1120 4 2 7 7 155 188 144 174
1121 4 2 7 7 174 176 144 175
1122 4 2 7 7 176 145 175 177
1123 4 2 7 7 188 156 144 176
1124 4 2 7 7 156 189 146 176
1125 4 2 7 7 176 178 146 177
1126 4 2 7 7 178 147 177 179
1127 4 2 7 7 189 157 146 178
1128 4 2 7 7 157 190 148 178
1129 4 2 7 7 178 180 148 179
1130 4 2 7 7 180 149 179 181
1131 4 2 7 7 190 158 148 180
1132 4 2 7 7 158 191 150 180
1133 4 2 7 7 180 182 150 181
1134 4 2 7 7 182 159 181 192
1135 4 2 7 7 163 195 162 164
1136 4 2 7 7 191 163 150 182
1137 4 2 7 7 163 196 164 182
1138 4 2 7 7 182 197 164 192
1139 4 2 7 7 183 198 165 193
1140 4 2 7 7 194 151 183 166
1141 4 2 7 7 183 199 166 165
1142 4 2 7 7 166 200 167 165
1143 4 2 7 7 194 184 161 166
1144 4 2 7 7 184 136 166 168
1145 4 2 7 7 166 201 168 167
1146 4 2 7 7 168 202 169 167
1147 4 2 7 7 184 185 152 168
1148 4 2 7 7 185 138 168 170
1149 4 2 7 7 168 203 170 169
1150 4 2 7 7 170 204 171 169
1151 4 2 7 7 185 186 153 170
1152 4 2 7 7 186 140 170 172
1153 4 2 7 7 170 205 172 171
1154 4 2 7 7 172 206 173 171
1155 4 2 7 7 186 187 154 172
1156 4 2 7 7 187 142 172 174
1157 4 2 7 7 172 207 174 173
1158 4 2 7 7 174 208 175 173
1159 4 2 7 7 187 188 155 174
1160 4 2 7 7 188 144 174 176
1161 4 2 7 7 174 209 176 175
1162 4 2 7 7 176 210 177 175
1163 4 2 7 7 188 189 156 176
1164 4 2 7 7 189 146 176 178
1165 4 2 7 7 176 211 178 177
1166 4 2 7 7 178 212 179 177
1167 4 2 7 7 189 190 157 178
1168 4 2 7 7 190 148 178 180
1169 4 2 7 7 178 213 180 179
1170 4 2 7 7 180 214 181 179
1171 4 2 7 7 190 191 158 180
1172 4 2 7 7 191 150 180 182
1173 4 2 7 7 180 215 182 181
1174 4 2 7 7 182 216 192 181
1175 4 2 7 7 163 196 195 164
1176 4 2 7 7 191 196 163 182
1177 4 2 7 7 196 164 182 197
1178 4 2 7 7 182 217 197 192
1179 4 2 7 7 183 199 165 198
1180 4 2 7 7 194 199 166 183
1181 4 2 7 7 199 166 165 200
1182 4 2 7 7 166 201 167 200
1183 4 2 7 7 194 218 184 166
1184 4 2 7 7 184 201 168 166
1185 4 2 7 7 201 168 167 202
1186 4 2 7 7 168 203 169 202
1187 4 2 7 7 184 219 185 168
1188 4 2 7 7 185 203 170 168
1189 4 2 7 7 203 170 169 204
1190 4 2 7 7 170 205 171 204
1191 4 2 7 7 185 220 186 170
1192 4 2 7 7 186 205 172 170
1193 4 2 7 7 205 172 171 206
1194 4 2 7 7 172 207 173 206
1195 4 2 7 7 186 221 187 172
1196 4 2 7 7 187 207 174 172
1197 4 2 7 7 207 174 173 208
1198 4 2 7 7 174 209 175 208
1199 4 2 7 7 187 222 188 174
1200 4 2 7 7 188 209 176 174
1201 4 2 7 7 209 176 175 210
1202 4 2 7 7 176 211 177 210
1203 4 2 7 7 188 223 189 176
1204 4 2 7 7 189 211 178 176
1205 4 2 7 7 211 178 177 212
1206 4 2 7 7 178 213 179 212
1207 4 2 7 7 189 224 190 178
1208 4 2 7 7 190 213 180 178
1209 4 2 7 7 213 180 179 214
1210 4 2 7 7 180 215 181 214
1211 4 2 7 7 190 225 191 180
1212 4 2 7 7 191 215 182 180
1213 4 2 7 7 215 182 181 216
1214 4 2 7 7 182 217 192 216
1215 4 2 7 7 196 195 164 197
1216 4 2 7 7 191 226 196 182
1217 4 2 7 7 196 217 197 182
1218 4 2 7 7 199 165 198 200
1219 4 2 7 7 194 218 166 199
1220 4 2 7 7 199 201 166 200
1221 4 2 7 7 201 167 200 202
1222 4 2 7 7 218 184 166 201
1223 4 2 7 7 184 219 168 201
1224 4 2 7 7 201 203 168 202
1225 4 2 7 7 203 169 202 204
1226 4 2 7 7 219 185 168 203
1227 4 2 7 7 185 220 170 203
1228 4 2 7 7 203 205 170 204
1229 4 2 7 7 205 171 204 206
1230 4 2 7 7 220 186 170 205
1231 4 2 7 7 186 221 172 205
1232 4 2 7 7 205 207 172 206
1233 4 2 7 7 207 173 206 208
1234 4 2 7 7 221 187 172 207
1235 4 2 7 7 187 222 174 207
1236 4 2 7 7 207 209 174 208
1237 4 2 7 7 209 175 208 210
1238 4 2 7 7 222 188 174 209
1239 4 2 7 7 188 223 176 209
1240 4 2 7 7 209 211 176 210
1241 4 2 7 7 211 177 210 212
1242 4 2 7 7 223 189 176 211
1243 4 2 7 7 189 224 178 211
1244 4 2 7 7 211 213 178 212
1245 4 2 7 7 213 179 212 214
1246 4 2 7 7 224 190 178 213
1247 4 2 7 7 190 225 180 213
1248 4 2 7 7 213 215 180 214
1249 4 2 7 7 215 181 214 216
1250 4 2 7 7 225 191 180 215
1251 4 2 7 7 191 226 182 215
1252 4 2 7 7 215 217 182 216
1253 4 2 7 7 196 227 195 197
1254 4 2 7 7 226 196 182 217
1255 4 2 7 7 196 228 197 217
1256 4 2 7 7 199 229 200 198
1257 4 2 7 7 218 166 199 201
1258 4 2 7 7 199 230 201 200
1259 4 2 7 7 201 231 202 200
1260 4 2 7 7 218 219 184 201
1261 4 2 7 7 219 168 201 203
1262 4 2 7 7 201 232 203 202
1263 4 2 7 7 203 233 204 202
1264 4 2 7 7 219 220 185 203
1265 4 2 7 7 220 170 203 205
1266 4 2 7 7 203 234 205 204
1267 4 2 7 7 205 235 206 204
1268 4 2 7 7 220 221 186 205
1269 4 2 7 7 221 172 205 207
1270 4 2 7 7 205 236 207 206
1271 4 2 7 7 207 237 208 206
1272 4 2 7 7 221 222 187 207
1273 4 2 7 7 222 174 207 209
1274 4 2 7 7 207 238 209 208
1275 4 2 7 7 209 239 210 208
1276 4 2 7 7 222 223 188 209
1277 4 2 7 7 223 176 209 211
1278 4 2 7 7 209 240 211 210
1279 4 2 7 7 211 241 212 210
1280 4 2 7 7 223 224 189 211
1281 4 2 7 7 224 178 211 213
1282 4 2 7 7 211 242 213 212
1283 4 2 7 7 213 243 214 212
1284 4 2 7 7 224 225 190 213
1285 4 2 7 7 225 180 213 215
1286 4 2 7 7 213 244 215 214
1287 4 2 7 7 215 245 216 214
1288 4 2 7 7 225 226 191 215
1289 4 2 7 7 226 182 215 217
1290 4 2 7 7 215 246 217 216
1291 4 2 7 7 196 228 227 197
1292 4 2 7 7 226 228 196 217
1293 4 2 7 7 199 230 200 229
1294 4 2 7 7 218 230 201 199
1295 4 2 7 7 230 201 200 231
1296 4 2 7 7 201 232 202 231
1297 4 2 7 7 218 247 219 201
1298 4 2 7 7 219 232 203 201
1299 4 2 7 7 232 203 202 233
1300 4 2 7 7 203 234 204 233
1301 4 2 7 7 219 248 220 203
1302 4 2 7 7 220 234 205 203
1303 4 2 7 7 234 205 204 235
1304 4 2 7 7 205 236 206 235
1305 4 2 7 7 220 249 221 205
1306 4 2 7 7 221 236 207 205
1307 4 2 7 7 236 207 206 237
1308 4 2 7 7 207 238 208 237
1309 4 2 7 7 221 250 222 207
1310 4 2 7 7 222 238 209 207
1311 4 2 7 7 238 209 208 239
1312 4 2 7 7 209 240 210 239
1313 4 2 7 7 222 251 223 209
1314 4 2 7 7 223 240 211 209
1315 4 2 7 7 240 211 210 241
1316 4 2 7 7 211 242 212 241
1317 4 2 7 7 223 252 224 211
1318 4 2 7 7 224 242 213 211
1319 4 2 7 7 242 213 212 243
1320 4 2 7 7 213 244 214 243
1321 4 2 7 7 224 253 225 213
1322 4 2 7 7 225 244 215 213
1323 4 2 7 7 244 215 214 245
1324 4 2 7 7 215 246 216 245
1325 4 2 7 7 225 254 226 215
1326 4 2 7 7 226 246 217 215
1327 4 2 7 7 226 255 228 217
1328 4 2 7 7 230 200 229 231
1329 4 2 7 7 218 247 201 230
1330 4 2 7 7 230 232 201 231
1331 4 2 7 7 232 202 231 233
1332 4 2 7 7 247 219 201 232
1333 4 2 7 7 219 248 203 232
1334 4 2 7 7 232 234 203 233
1335 4 2 7 7 234 204 233 235
1336 4 2 7 7 248 220 203 234
1337 4 2 7 7 220 249 205 234
1338 4 2 7 7 234 236 205 235
1339 4 2 7 7 236 206 235 237
1340 4 2 7 7 249 221 205 236
1341 4 2 7 7 221 250 207 236
1342 4 2 7 7 236 238 207 237
1343 4 2 7 7 238 208 237 239
1344 4 2 7 7 250 222 207 238
1345 4 2 7 7 222 251 209 238
1346 4 2 7 7 238 240 209 239
1347 4 2 7 7 240 210 239 241
1348 4 2 7 7 251 223 209 240
1349 4 2 7 7 223 252 211 240
1350 4 2 7 7 240 242 211 241
1351 4 2 7 7 242 212 241 243
1352 4 2 7 7 252 224 211 242
1353 4 2 7 7 224 253 213 242
1354 4 2 7 7 242 244 213 243
1355 4 2 7 7 244 214 243 245
1356 4 2 7 7 253 225 213 244
1357 4 2 7 7 225 254 215 244
1358 4 2 7 7 244 246 215 245
1359 4 2 7 7 254 226 215 246
1360 4 2 7 7 226 255 217 246
1361 4 2 7 7 230 256 231 229
1362 4 2 7 7 247 201 230 232
1363 4 2 7 7 230 257 232 231
1364 4 2 7 7 232 258 233 231
1365 4 2 7 7 247 248 219 232
1366 4 2 7 7 248 203 232 234
1367 4 2 7 7 232 259 234 233
1368 4 2 7 7 234 260 235 233
1369 4 2 7 7 248 249 220 234
1370 4 2 7 7 249 205 234 236
1371 4 2 7 7 234 261 236 235
1372 4 2 7 7 236 262 237 235
1373 4 2 7 7 249 250 221 236
1374 4 2 7 7 250 207 236 238
1375 4 2 7 7 236 263 238 237
1376 4 2 7 7 238 264 239 237
1377 4 2 7 7 250 251 222 238
1378 4 2 7 7 251 209 238 240
1379 4 2 7 7 238 265 240 239
1380 4 2 7 7 240 266 241 239
1381 4 2 7 7 251 252 223 240
1382 4 2 7 7 252 211 240 242
1383 4 2 7 7 240 267 242 241
1384 4 2 7 7 242 268 243 241
1385 4 2 7 7 252 253 224 242
1386 4 2 7 7 253 213 242 244
1387 4 2 7 7 242 269 244 243
1388 4 2 7 7 244 270 245 243
1389 4 2 7 7 253 254 225 244
1390 4 2 7 7 254 215 244 246
1391 4 2 7 7 244 271 246 245
1392 4 2 7 7 254 255 226 246
1393 4 2 7 7 230 257 231 256
1394 4 2 7 7 247 257 232 230
1395 4 2 7 7 257 232 231 258
1396 4 2 7 7 232 259 233 258
1397 4 2 7 7 247 272 248 232
1398 4 2 7 7 248 259 234 232
1399 4 2 7 7 259 234 233 260
1400 4 2 7 7 234 261 235 260
1401 4 2 7 7 248 273 249 234
1402 4 2 7 7 249 261 236 234
1403 4 2 7 7 261 236 235 262
1404 4 2 7 7 236 263 237 262
1405 4 2 7 7 249 274 250 236
1406 4 2 7 7 250 263 238 236
1407 4 2 7 7 263 238 237 264
1408 4 2 7 7 238 265 239 264
1409 4 2 7 7 250 275 251 238
1410 4 2 7 7 251 265 240 238
1411 4 2 7 7 265 240 239 266
1412 4 2 7 7 240 267 241 266
1413 4 2 7 7 251 276 252 240
1414 4 2 7 7 252 267 242 240
1415 4 2 7 7 267 242 241 268
1416 4 2 7 7 242 269 243 268
1417 4 2 7 7 252 277 253 242
1418 4 2 7 7 253 269 244 242
1419 4 2 7 7 269 244 243 270
1420 4 2 7 7 244 271 245 270
1421 4 2 7 7 253 278 254 244
1422 4 2 7 7 254 271 246 244
1423 4 2 7 7 254 279 255 246
1424 4 2 7 7 257 231 256 258
1425 4 2 7 7 247 272 232 257
1426 4 2 7 7 257 259 232 258
1427 4 2 7 7 259 233 258 260
1428 4 2 7 7 272 248 232 259
1429 4 2 7 7 248 273 234 259
1430 4 2 7 7 259 261 234 260
1431 4 2 7 7 261 235 260 262
1432 4 2 7 7 273 249 234 261
1433 4 2 7 7 249 274 236 261
1434 4 2 7 7 261 263 236 262
1435 4 2 7 7 263 237 262 264
1436 4 2 7 7 274 250 236 263
1437 4 2 7 7 250 275 238 263
1438 4 2 7 7 263 265 238 264
1439 4 2 7 7 265 239 264 266
1440 4 2 7 7 275 251 238 265
1441 4 2 7 7 251 276 240 265
1442 4 2 7 7 265 267 240 266
1443 4 2 7 7 267 241 266 268
1444 4 2 7 7 276 252 240 267
1445 4 2 7 7 252 277 242 267
1446 4 2 7 7 267 269 242 268
1447 4 2 7 7 269 243 268 270
1448 4 2 7 7 277 253 242 269
1449 4 2 7 7 253 278 244 269
1450 4 2 7 7 269 271 244 270
1451 4 2 7 7 278 254 244 271
1452 4 2 7 7 254 279 246 271
1453 4 2 7 7 257 280 258 256
1454 4 2 7 7 272 232 257 259
1455 4 2 7 7 257 281 259 258
1456 4 2 7 7 259 282 260 258
1457 4 2 7 7 272 273 248 259
1458 4 2 7 7 273 234 259 261
1459 4 2 7 7 259 283 261 260
1460 4 2 7 7 261 284 262 260
1461 4 2 7 7 273 274 249 261
1462 4 2 7 7 274 236 261 263
1463 4 2 7 7 261 285 263 262
1464 4 2 7 7 263 286 264 262
1465 4 2 7 7 274 275 250 263
1466 4 2 7 7 275 238 263 265
1467 4 2 7 7 263 287 265 264
1468 4 2 7 7 265 288 266 264
1469 4 2 7 7 275 276 251 265
1470 4 2 7 7 276 240 265 267
1471 4 2 7 7 265 289 267 266
1472 4 2 7 7 267 290 268 266
1473 4 2 7 7 276 277 252 267
1474 4 2 7 7 277 242 267 269
1475 4 2 7 7 267 291 269 268
1476 4 2 7 7 269 292 270 268
1477 4 2 7 7 277 278 253 269
1478 4 2 7 7 278 244 269 271
1479 4 2 7 7 269 293 271 270
1480 4 2 7 7 278 279 254 271
1481 4 2 7 7 257 281 258 280
1482 4 2 7 7 272 281 259 257
1483 4 2 7 7 281 259 258 282
1484 4 2 7 7 259 283 260 282
1485 4 2 7 7 272 294 273 259
1486 4 2 7 7 273 283 261 259
1487 4 2 7 7 283 261 260 284
1488 4 2 7 7 261 285 262 284
1489 4 2 7 7 273 295 274 261
1490 4 2 7 7 274 285 263 261
1491 4 2 7 7 285 263 262 286
1492 4 2 7 7 263 287 264 286
1493 4 2 7 7 274 296 275 263
1494 4 2 7 7 275 287 265 263
1495 4 2 7 7 287 265 264 288
1496 4 2 7 7 265 289 266 288
1497 4 2 7 7 275 297 276 265
1498 4 2 7 7 276 289 267 265
1499 4 2 7 7 289 267 266 290
1500 4 2 7 7 267 291 268 290
1501 4 2 7 7 276 298 277 267
1502 4 2 7 7 277 291 269 267
1503 4 2 7 7 291 269 268 292
1504 4 2 7 7 269 293 270 292
1505 4 2 7 7 277 299 278 269
1506 4 2 7 7 278 293 271 269
1507 4 2 7 7 278 300 279 271
1508 4 2 7 7 281 258 280 282
1509 4 2 7 7 272 294 259 281
1510 4 2 7 7 281 283 259 282
1511 4 2 7 7 283 260 282 284
1512 4 2 7 7 294 273 259 283
1513 4 2 7 7 273 295 261 283
1514 4 2 7 7 283 285 261 284
1515 4 2 7 7 285 262 284 286
1516 4 2 7 7 295 274 261 285
1517 4 2 7 7 274 296 263 285
1518 4 2 7 7 285 287 263 286
1519 4 2 7 7 287 264 286 288
1520 4 2 7 7 296 275 263 287
1521 4 2 7 7 275 297 265 287
1522 4 2 7 7 287 289 265 288
1523 4 2 7 7 289 266 288 290
1524 4 2 7 7 297 276 265 289
1525 4 2 7 7 276 298 267 289
1526 4 2 7 7 289 291 267 290
1527 4 2 7 7 291 268 290 292
1528 4 2 7 7 298 277 267 291
1529 4 2 7 7 277 299 269 291
1530 4 2 7 7 291 293 269 292
1531 4 2 7 7 299 278 269 293
1532 4 2 7 7 278 300 271 293
1533 4 2 7 7 281 301 282 280
1534 4 2 7 7 294 259 281 283
1535 4 2 7 7 281 302 283 282
1536 4 2 7 7 283 303 284 282
1537 4 2 7 7 294 295 273 283
1538 4 2 7 7 295 261 283 285
1539 4 2 7 7 283 304 285 284
1540 4 2 7 7 285 305 286 284
1541 4 2 7 7 295 296 274 285
1542 4 2 7 7 296 263 285 287
1543 4 2 7 7 285 306 287 286
1544 4 2 7 7 287 307 288 286
1545 4 2 7 7 296 297 275 287
1546 4 2 7 7 297 265 287 289
1547 4 2 7 7 287 308 289 288
1548 4 2 7 7 289 309 290 288
1549 4 2 7 7 297 298 276 289
1550 4 2 7 7 298 267 289 291
1551 4 2 7 7 289 310 291 290
1552 4 2 7 7 291 311 292 290
1553 4 2 7 7 298 299 277 291
1554 4 2 7 7 299 269 291 293
1555 4 2 7 7 291 312 293 292
1556 4 2 7 7 299 300 278 293
1557 4 2 7 7 281 302 282 301
1558 4 2 7 7 294 302 283 281
1559 4 2 7 7 302 283 282 303
1560 4 2 7 7 283 304 284 303
1561 4 2 7 7 294 313 295 283
1562 4 2 7 7 295 304 285 283
1563 4 2 7 7 304 285 284 305
1564 4 2 7 7 285 306 286 305
1565 4 2 7 7 295 314 296 285
1566 4 2 7 7 296 306 287 285
1567 4 2 7 7 306 287 286 307
1568 4 2 7 7 287 308 288 307
1569 4 2 7 7 296 315 297 287
1570 4 2 7 7 297 308 289 287
1571 4 2 7 7 308 289 288 309
1572 4 2 7 7 289 310 290 309
1573 4 2 7 7 297 316 298 289
1574 4 2 7 7 298 310 291 289
1575 4 2 7 7 310 291 290 311
1576 4 2 7 7 291 312 292 311
1577 4 2 7 7 298 317 299 291
1578 4 2 7 7 299 312 293 291
1579 4 2 7 7 299 318 300 293
1580 4 2 7 7 302 282 301 303
1581 4 2 7 7 294 313 283 302
1582 4 2 7 7 302 304 283 303
1583 4 2 7 7 304 284 303 305
1584 4 2 7 7 313 295 283 304
1585 4 2 7 7 295 314 285 304
1586 4 2 7 7 304 306 285 305
1587 4 2 7 7 306 286 305 307
1588 4 2 7 7 314 296 285 306
1589 4 2 7 7 296 315 287 306
1590 4 2 7 7 306 308 287 307
1591 4 2 7 7 308 288 307 309
1592 4 2 7 7 315 297 287 308
1593 4 2 7 7 297 316 289 308
1594 4 2 7 7 308 310 289 309
1595 4 2 7 7 310 290 309 311
1596 4 2 7 7 316 298 289 310
1597 4 2 7 7 298 317 291 310
1598 4 2 7 7 310 312 291 311
1599 4 2 7 7 317 299 291 312
1600 4 2 7 7 299 318 293 312
1601 4 2 7 7 302 319 303 301
1602 4 2 7 7 313 283 302 304
1603 4 2 7 7 302 320 304 303
1604 4 2 7 7 304 321 305 303
1605 4 2 7 7 313 314 295 304
1606 4 2 7 7 314 285 304 306
1607 4 2 7 7 304 322 306 305
1608 4 2 7 7 306 323 307 305
1609 4 2 7 7 314 315 296 306
1610 4 2 7 7 315 287 306 308
1611 4 2 7 7 306 324 308 307
1612 4 2 7 7 308 325 309 307
1613 4 2 7 7 315 316 297 308
1614 4 2 7 7 316 289 308 310
1615 4 2 7 7 308 326 310 309
1616 4 2 7 7 310 327 311 309
1617 4 2 7 7 316 317 298 310
1618 4 2 7 7 317 291 310 312
1619 4 2 7 7 310 328 312 311
1620 4 2 7 7 317 318 299 312
1621 4 2 7 7 302 320 303 319
1622 4 2 7 7 313 320 304 302
1623 4 2 7 7 320 304 303 321
1624 4 2 7 7 304 322 305 321
1625 4 2 7 7 313 329 314 304
1626 4 2 7 7 314 322 306 304
1627 4 2 7 7 322 306 305 323
1628 4 2 7 7 306 324 307 323
1629 4 2 7 7 314 330 315 306
1630 4 2 7 7 315 324 308 306
1631 4 2 7 7 324 308 307 325
1632 4 2 7 7 308 326 309 325
1633 4 2 7 7 315 331 316 308
1634 4 2 7 7 316 326 310 308
1635 4 2 7 7 326 310 309 327
1636 4 2 7 7 310 328 311 327
1637 4 2 7 7 316 332 317 310
1638 4 2 7 7 317 328 312 310
1639 4 2 7 7 317 333 318 312
1640 4 2 7 7 320 303 319 321
1641 4 2 7 7 313 329 304 320
1642 4 2 7 7 320 322 304 321
1643 4 2 7 7 322 305 321 323
1644 4 2 7 7 329 314 304 322
1645 4 2 7 7 314 330 306 322
1646 4 2 7 7 322 324 306 323
1647 4 2 7 7 324 307 323 325
1648 4 2 7 7 330 315 306 324
1649 4 2 7 7 315 331 308 324
1650 4 2 7 7 324 326 308 325
1651 4 2 7 7 326 309 325 327
1652 4 2 7 7 331 316 308 326
1653 4 2 7 7 316 332 310 326
1654 4 2 7 7 326 328 310 327
1655 4 2 7 7 332 317 310 328
1656 4 2 7 7 317 333 312 328
1657 4 2 7 7 320 334 321 319
1658 4 2 7 7 329 304 320 322
1659 4 2 7 7 320 335 322 321
1660 4 2 7 7 322 336 323 321
1661 4 2 7 7 329 330 314 322
1662 4 2 7 7 330 306 322 324
1663 4 2 7 7 322 337 324 323
1664 4 2 7 7 324 338 325 323
1665 4 2 7 7 330 331 315 324
1666 4 2 7 7 331 308 324 326
1667 4 2 7 7 324 339 326 325
1668 4 2 7 7 326 340 327 325
1669 4 2 7 7 331 332 316 326
1670 4 2 7 7 332 310 326 328
1671 4 2 7 7 326 341 328 327
1672 4 2 7 7 332 333 317 328
1673 4 2 7 7 320 335 321 334
1674 4 2 7 7 329 335 322 320
1675 4 2 7 7 335 322 321 336
1676 4 2 7 7 322 337 323 336
1677 4 2 7 7 329 342 330 322
1678 4 2 7 7 330 337 324 322
1679 4 2 7 7 337 324 323 338
1680 4 2 7 7 324 339 325 338
1681 4 2 7 7 330 343 331 324
1682 4 2 7 7 331 339 326 324
1683 4 2 7 7 339 326 325 340
1684 4 2 7 7 326 341 327 340
1685 4 2 7 7 331 344 332 326
1686 4 2 7 7 332 341 328 326
1687 4 2 7 7 332 345 333 328
1688 4 2 7 7 335 321 334 336
1689 4 2 7 7 329 342 322 335
1690 4 2 7 7 335 337 322 336
1691 4 2 7 7 337 323 336 338
1692 4 2 7 7 342 330 322 337
1693 4 2 7 7 330 343 324 337
1694 4 2 7 7 337 339 324 338
1695 4 2 7 7 339 325 338 340
1696 4 2 7 7 343 331 324 339
1697 4 2 7 7 331 344 326 339
1698 4 2 7 7 339 341 326 340
1699 4 2 7 7 344 332 326 341
1700 4 2 7 7 332 345 328 341
1701 4 2 7 7 335 346 336 334
1702 4 2 7 7 342 322 335 337
1703 4 2 7 7 335 347 337 336
1704 4 2 7 7 337 348 338 336
1705 4 2 7 7 342 343 330 337
1706 4 2 7 7 343 324 337 339
1707 4 2 7 7 337 349 339 338
1708 4 2 7 7 339 350 340 338
1709 4 2 7 7 343 344 331 339
1710 4 2 7 7 344 326 339 341
1711 4 2 7 7 339 351 341 340
1712 4 2 7 7 344 345 332 341
1713 4 2 7 7 335 347 336 346
1714 4 2 7 7 342 347 337 335
1715 4 2 7 7 347 337 336 348
1716 4 2 7 7 337 349 338 348
1717 4 2 7 7 342 352 343 337
1718 4 2 7 7 343 349 339 337
1719 4 2 7 7 349 339 338 350
1720 4 2 7 7 339 351 340 350
1721 4 2 7 7 343 353 344 339
1722 4 2 7 7 344 351 341 339
1723 4 2 7 7 344 354 345 341
1724 4 2 7 7 347 336 346 348
1725 4 2 7 7 342 352 337 347
1726 4 2 7 7 347 349 337 348
1727 4 2 7 7 349 338 348 350
1728 4 2 7 7 352 343 337 349
1729 4 2 7 7 343 353 339 349
1730 4 2 7 7 349 351 339 350
1731 4 2 7 7 353 344 339 351
1732 4 2 7 7 344 354 341 351
1733 4 2 7 7 347 355 348 346
1734 4 2 7 7 352 337 347 349
1735 4 2 7 7 347 356 349 348
1736 4 2 7 7 349 357 350 348
1737 4 2 7 7 352 353 343 349
1738 4 2 7 7 353 339 349 351
1739 4 2 7 7 349 358 351 350
1740 4 2 7 7 353 354 344 351
1741 4 2 7 7 347 356 348 355
1742 4 2 7 7 352 356 349 347
1743 4 2 7 7 356 349 348 357
1744 4 2 7 7 349 358 350 357
1745 4 2 7 7 352 359 353 349
1746 4 2 7 7 353 358 351 349
1747 4 2 7 7 353 360 354 351
1748 4 2 7 7 356 348 355 357
1749 4 2 7 7 352 359 349 356
1750 4 2 7 7 356 358 349 357
1751 4 2 7 7 359 353 349 358
1752 4 2 7 7 353 360 351 358
1753 4 2 7 7 356 361 357 355
1754 4 2 7 7 359 349 356 358
1755 4 2 7 7 356 362 358 357
1756 4 2 7 7 359 360 353 358
1757 4 2 7 7 356 362 357 361
1758 4 2 7 7 359 362 358 356
1759 4 2 7 7 359 363 360 358
1760 4 2 7 7 359 363 358 362
$EndElements
