$MeshFormat
2.2 0 8
$EndMeshFormat
$PhysicalNames
7
2 1 "bottom"
2 2 "front"
2 3 "right"
2 4 "back"
2 5 "left"
2 6 "top"
3 1 "domain"
$EndPhysicalNames
$Nodes
363
1 0 0 0
2 100 0 0
3 100 100 0
4 0 100 0
5 0 0 1
6 100 0 1
7 100 100 1
8 0 100 1
9 9.99999999996156 0 0
10 19.99999999991408 0 0
11 29.99999999986219 0 0
12 39.99999999984 0 0
13 49.99999999982364 0 0
14 59.99999999980729 0 0
15 69.99999999983591 0 0
16 79.9999999998906 0 0
17 89.9999999999453 0 0
18 100 9.99999999996156 0
19 100 19.99999999991408 0
20 100 29.99999999986219 0
21 100 39.99999999984 0
22 100 49.99999999982364 0
23 100 59.99999999980729 0
24 100 69.99999999983591 0
25 100 79.9999999998906 0
26 100 89.9999999999453 0
27 90.00000000007105 100 0
28 80.00000000014211 100 0
29 70.00000000021316 100 0
30 60.00000000025813 100 0
31 50.00000000025813 100 0
32 40.00000000025813 100 0
33 30.00000000021316 100 0
34 20.00000000014211 100 0
35 10.00000000007105 100 0
36 0 90.00000000007105 0
37 0 80.00000000014211 0
38 0 70.00000000021316 0
39 0 60.00000000025813 0
40 0 50.00000000025813 0
41 0 40.00000000025813 0
42 0 30.00000000021316 0
43 0 20.00000000014211 0
44 0 10.00000000007105 0
45 9.99999999996156 0 1
46 19.99999999991408 0 1
47 29.99999999986219 0 1
48 39.99999999984 0 1
49 49.99999999982364 0 1
50 59.99999999980729 0 1
51 69.99999999983591 0 1
52 79.9999999998906 0 1
53 89.9999999999453 0 1
54 100 9.99999999996156 1
55 100 19.99999999991408 1
56 100 29.99999999986219 1
57 100 39.99999999984 1
58 100 49.99999999982364 1
59 100 59.99999999980729 1
60 100 69.99999999983591 1
61 100 79.9999999998906 1
62 100 89.9999999999453 1
63 90.00000000007105 100 1
64 80.00000000014211 100 1
65 70.00000000021316 100 1
66 60.00000000025813 100 1
67 50.00000000025813 100 1
68 40.00000000025813 100 1
69 30.00000000021316 100 1
70 20.00000000014211 100 1
71 10.00000000007105 100 1
72 0 90.00000000007105 1
73 0 80.00000000014211 1
74 0 70.00000000021316 1
75 0 60.00000000025813 1
76 0 50.00000000025813 1
77 0 40.00000000025813 1
78 0 30.00000000021316 1
79 0 20.00000000014211 1
80 0 10.00000000007105 1
81 0 0 0.5
82 100 0 0.5
83 100 100 0.5
84 0 100 0.5
85 9.999999999972509 10.0000000000601 0
86 9.999999999983459 20.00000000011931 0
87 9.999999999994408 30.00000000017805 0
88 10.00000000000536 40.0000000002163 0
89 10.00000000001631 50.00000000021468 0
90 10.00000000002726 60.00000000021303 0
91 10.00000000003821 70.00000000017543 0
92 10.00000000004916 80.00000000011696 0
93 10.00000000006011 90.00000000005849 0
94 19.99999999993688 10.00000000004916 0
95 19.99999999995969 20.00000000009651 0
96 19.99999999998249 30.00000000014297 0
97 20.00000000000529 40.0000000001745 0
98 20.00000000002809 50.00000000017122 0
99 20.0000000000509 60.00000000016796 0
100 20.0000000000737 70.00000000013769 0
101 20.00000000009651 80.0000000000918 0
102 20.00000000011931 90.0000000000459 0
103 29.99999999989728 10.00000000003821 0
104 29.99999999993238 20.0000000000737 0
105 29.99999999996747 30.00000000010787 0
106 30.00000000000257 40.00000000013269 0
107 30.00000000003767 50.00000000012779 0
108 30.00000000007277 60.00000000012286 0
109 30.00000000010786 70.0000000001 0
110 30.00000000014297 80.00000000006665 0
111 30.00000000017806 90.00000000003331 0
112 39.99999999988179 10.00000000002726 0
113 39.99999999992362 20.0000000000509 0
114 39.99999999996545 30.00000000007277 0
115 40.00000000000724 40.00000000009089 0
116 40.00000000004906 50.00000000008433 0
117 40.00000000009087 60.00000000007779 0
118 40.00000000013269 70.00000000006226 0
119 40.00000000017451 80.0000000000415 0
120 40.0000000002163 90.00000000002075 0
121 49.9999999998671 10.00000000001631 0
122 49.99999999991054 20.00000000002809 0
123 49.99999999995399 30.00000000003767 0
124 49.99999999999743 40.00000000004906 0
125 50.0000000000409 50.00000000004088 0
126 50.00000000008433 60.00000000003271 0
127 50.0000000001278 70.00000000002451 0
128 50.00000000017122 80.00000000001637 0
129 50.00000000021468 90.00000000000819 0
130 59.99999999985236 10.00000000000536 0
131 59.99999999989747 20.00000000000529 0
132 59.99999999994254 30.00000000000258 0
133 59.99999999998762 40.00000000000724 0
134 60.00000000003271 49.99999999999743 0
135 60.00000000007778 59.99999999998762 0
136 60.00000000012287 69.99999999998683 0
137 60.00000000016797 79.99999999999119 0
138 60.00000000021303 89.99999999999559 0
139 69.99999999987365 9.999999999994408 0
140 69.99999999991137 19.99999999998249 0
141 69.99999999994908 29.99999999996747 0
142 69.9999999999868 39.99999999996543 0
143 70.00000000002454 49.999999999954 0
144 70.00000000006226 59.99999999994254 0
145 70.0000000001 69.99999999994908 0
146 70.00000000013772 79.99999999996606 0
147 70.00000000017542 89.99999999998303 0
148 79.99999999991576 9.999999999983459 0
149 79.99999999994091 19.99999999995969 0
150 79.99999999996606 29.99999999993238 0
151 79.99999999999119 39.99999999992363 0
152 80.00000000001637 49.99999999991054 0
153 80.0000000000415 59.99999999989745 0
154 80.00000000006665 69.99999999991134 0
155 80.0000000000918 79.99999999994091 0
156 80.00000000011697 89.99999999997044 0
157 89.99999999995788 9.999999999972511 0
158 89.99999999997044 19.99999999993689 0
159 89.99999999998303 29.99999999989728 0
160 89.99999999999562 39.99999999988181 0
161 90.00000000000819 49.9999999998671 0
162 90.00000000002075 59.99999999985238 0
163 90.00000000003334 69.99999999987364 0
164 90.00000000004593 79.99999999991577 0
165 90.00000000005851 89.99999999995789 0
166 9.99999999996156 0 0.5
167 19.99999999991408 0 0.5
168 29.99999999986219 0 0.5
169 39.99999999984 0 0.5
170 49.99999999982364 0 0.5
171 59.99999999980729 0 0.5
172 69.99999999983591 0 0.5
173 79.9999999998906 0 0.5
174 89.9999999999453 0 0.5
175 100 9.99999999996156 0.5
176 100 19.99999999991408 0.5
177 100 29.99999999986219 0.5
178 100 39.99999999984 0.5
179 100 49.99999999982364 0.5
180 100 59.99999999980729 0.5
181 100 69.99999999983591 0.5
182 100 79.9999999998906 0.5
183 100 89.9999999999453 0.5
184 90.00000000007105 100 0.5
185 80.00000000014211 100 0.5
186 70.00000000021316 100 0.5
187 60.00000000025813 100 0.5
188 50.00000000025813 100 0.5
189 40.00000000025813 100 0.5
190 30.00000000021316 100 0.5
191 20.00000000014211 100 0.5
192 10.00000000007105 100 0.5
193 0 90.00000000007105 0.5
194 0 80.00000000014211 0.5
195 0 70.00000000021316 0.5
196 0 60.00000000025813 0.5
197 0 50.00000000025813 0.5
198 0 40.00000000025813 0.5
199 0 30.00000000021316 0.5
200 0 20.00000000014211 0.5
201 0 10.00000000007105 0.5
202 9.999999999972509 10.0000000000601 1
203 9.999999999983459 20.00000000011931 1
204 9.999999999994408 30.00000000017805 1
205 10.00000000000536 40.0000000002163 1
206 10.00000000001631 50.00000000021468 1
207 10.00000000002726 60.00000000021303 1
208 10.00000000003821 70.00000000017543 1
209 10.00000000004916 80.00000000011696 1
210 10.00000000006011 90.00000000005849 1
211 19.99999999993688 10.00000000004916 1
212 19.99999999995969 20.00000000009651 1
213 19.99999999998249 30.00000000014297 1
214 20.00000000000529 40.0000000001745 1
215 20.00000000002809 50.00000000017122 1
216 20.0000000000509 60.00000000016796 1
217 20.0000000000737 70.00000000013769 1
218 20.00000000009651 80.0000000000918 1
219 20.00000000011931 90.0000000000459 1
220 29.99999999989728 10.00000000003821 1
221 29.99999999993238 20.0000000000737 1
222 29.99999999996747 30.00000000010787 1
223 30.00000000000257 40.00000000013269 1
224 30.00000000003767 50.00000000012779 1
225 30.00000000007277 60.00000000012286 1
226 30.00000000010786 70.0000000001 1
227 30.00000000014297 80.00000000006665 1
228 30.00000000017806 90.00000000003331 1
229 39.99999999988179 10.00000000002726 1
230 39.99999999992362 20.0000000000509 1
231 39.99999999996545 30.00000000007277 1
232 40.00000000000724 40.00000000009089 1
233 40.00000000004906 50.00000000008433 1
234 40.00000000009087 60.00000000007779 1
235 40.00000000013269 70.00000000006226 1
236 40.00000000017451 80.0000000000415 1
237 40.0000000002163 90.00000000002075 1
238 49.9999999998671 10.00000000001631 1
239 49.99999999991054 20.00000000002809 1
240 49.99999999995399 30.00000000003767 1
241 49.99999999999743 40.00000000004906 1
242 50.0000000000409 50.00000000004088 1
243 50.00000000008433 60.00000000003271 1
244 50.0000000001278 70.00000000002451 1
245 50.00000000017122 80.00000000001637 1
246 50.00000000021468 90.00000000000819 1
247 59.99999999985236 10.00000000000536 1
248 59.99999999989747 20.00000000000529 1
249 59.99999999994254 30.00000000000258 1
250 59.99999999998762 40.00000000000724 1
251 60.00000000003271 49.99999999999743 1
252 60.00000000007778 59.99999999998762 1
253 60.00000000012287 69.99999999998683 1
254 60.00000000016797 79.99999999999119 1
255 60.00000000021303 89.99999999999559 1
256 69.99999999987365 9.999999999994408 1
257 69.99999999991137 19.99999999998249 1
258 69.99999999994908 29.99999999996747 1
259 69.9999999999868 39.99999999996543 1
260 70.00000000002454 49.999999999954 1
261 70.00000000006226 59.99999999994254 1
262 70.0000000001 69.99999999994908 1
263 70.00000000013772 79.99999999996606 1
264 70.00000000017542 89.99999999998303 1
265 79.99999999991576 9.999999999983459 1
266 79.99999999994091 19.99999999995969 1
267 79.99999999996606 29.99999999993238 1
268 79.99999999999119 39.99999999992363 1
269 80.00000000001637 49.99999999991054 1
270 80.0000000000415 59.99999999989745 1
271 80.00000000006665 69.99999999991134 1
272 80.0000000000918 79.99999999994091 1
273 80.00000000011697 89.99999999997044 1
274 89.99999999995788 9.999999999972511 1
275 89.99999999997044 19.99999999993689 1
276 89.99999999998303 29.99999999989728 1
277 89.99999999999562 39.99999999988181 1
278 90.00000000000819 49.9999999998671 1
279 90.00000000002075 59.99999999985238 1
280 90.00000000003334 69.99999999987364 1
281 90.00000000004593 79.99999999991577 1
282 90.00000000005851 89.99999999995789 1
283 9.999999999972509 10.0000000000601 0.5
284 9.999999999983459 20.00000000011931 0.5
285 9.999999999994408 30.00000000017805 0.5
286 10.00000000000536 40.0000000002163 0.5
287 10.00000000001631 50.00000000021468 0.5
288 10.00000000002726 60.00000000021303 0.5
289 10.00000000003821 70.00000000017543 0.5
290 10.00000000004916 80.00000000011696 0.5
291 10.00000000006011 90.00000000005849 0.5
292 19.99999999993688 10.00000000004916 0.5
293 19.99999999995969 20.00000000009651 0.5
294 19.99999999998249 30.00000000014297 0.5
295 20.00000000000529 40.0000000001745 0.5
296 20.00000000002809 50.00000000017122 0.5
297 20.0000000000509 60.00000000016796 0.5
298 20.0000000000737 70.00000000013769 0.5
299 20.00000000009651 80.0000000000918 0.5
300 20.00000000011931 90.0000000000459 0.5
301 29.99999999989728 10.00000000003821 0.5
302 29.99999999993238 20.0000000000737 0.5
303 29.99999999996747 30.00000000010787 0.5
304 30.00000000000257 40.00000000013269 0.5
305 30.00000000003767 50.00000000012779 0.5
306 30.00000000007277 60.00000000012286 0.5
307 30.00000000010786 70.0000000001 0.5
308 30.00000000014297 80.00000000006665 0.5
309 30.00000000017806 90.00000000003331 0.5
310 39.99999999988179 10.00000000002726 0.5
311 39.99999999992362 20.0000000000509 0.5
312 39.99999999996545 30.00000000007277 0.5
313 40.00000000000724 40.00000000009089 0.5
314 40.00000000004906 50.00000000008433 0.5
315 40.00000000009087 60.00000000007779 0.5
316 40.00000000013269 70.00000000006226 0.5
317 40.00000000017451 80.0000000000415 0.5
318 40.0000000002163 90.00000000002075 0.5
319 49.9999999998671 10.00000000001631 0.5
320 49.99999999991054 20.00000000002809 0.5
321 49.99999999995399 30.00000000003767 0.5
322 49.99999999999743 40.00000000004906 0.5
323 50.0000000000409 50.00000000004088 0.5
324 50.00000000008433 60.00000000003271 0.5
325 50.0000000001278 70.00000000002451 0.5
326 50.00000000017122 80.00000000001637 0.5
327 50.00000000021468 90.00000000000819 0.5
328 59.99999999985236 10.00000000000536 0.5
329 59.99999999989747 20.00000000000529 0.5
330 59.99999999994254 30.00000000000258 0.5
331 59.99999999998762 40.00000000000724 0.5
332 60.00000000003271 49.99999999999743 0.5
333 60.00000000007778 59.99999999998762 0.5
334 60.00000000012287 69.99999999998683 0.5
335 60.00000000016797 79.99999999999119 0.5
336 60.00000000021303 89.99999999999559 0.5
337 69.99999999987365 9.999999999994408 0.5
338 69.99999999991137 19.99999999998249 0.5
339 69.99999999994908 29.99999999996747 0.5
340 69.9999999999868 39.99999999996543 0.5
341 70.00000000002454 49.999999999954 0.5
342 70.00000000006226 59.99999999994254 0.5
343 70.0000000001 69.99999999994908 0.5
344 70.00000000013772 79.99999999996606 0.5
345 70.00000000017542 89.99999999998303 0.5
346 79.99999999991576 9.999999999983459 0.5
347 79.99999999994091 19.99999999995969 0.5
348 79.99999999996606 29.99999999993238 0.5
349 79.99999999999119 39.99999999992363 0.5
350 80.00000000001637 49.99999999991054 0.5
351 80.0000000000415 59.99999999989745 0.5
352 80.00000000006665 69.99999999991134 0.5
353 80.0000000000918 79.99999999994091 0.5
354 80.00000000011697 89.99999999997044 0.5
355 89.99999999995788 9.999999999972511 0.5
356 89.99999999997044 19.99999999993689 0.5
357 89.99999999998303 29.99999999989728 0.5
358 89.99999999999562 39.99999999988181 0.5
359 90.00000000000819 49.9999999998671 0.5
360 90.00000000002075 59.99999999985238 0.5
361 90.00000000003334 69.99999999987364 0.5
362 90.00000000004593 79.99999999991577 0.5
363 90.00000000005851 89.99999999995789 0.5
$EndNodes
$Elements
480
1 3 2 1 1 1 9 85 44
2 3 2 1 1 44 85 86 43
3 3 2 1 1 43 86 87 42
4 3 2 1 1 42 87 88 41
5 3 2 1 1 41 88 89 40
6 3 2 1 1 40 89 90 39
7 3 2 1 1 39 90 91 38
8 3 2 1 1 38 91 92 37
9 3 2 1 1 37 92 93 36
10 3 2 1 1 36 93 35 4
11 3 2 1 1 9 10 94 85
12 3 2 1 1 85 94 95 86
13 3 2 1 1 86 95 96 87
14 3 2 1 1 87 96 97 88
15 3 2 1 1 88 97 98 89
16 3 2 1 1 89 98 99 90
17 3 2 1 1 90 99 100 91
18 3 2 1 1 91 100 101 92
19 3 2 1 1 92 101 102 93
20 3 2 1 1 93 102 34 35
21 3 2 1 1 10 11 103 94
22 3 2 1 1 94 103 104 95
23 3 2 1 1 95 104 105 96
24 3 2 1 1 96 105 106 97
25 3 2 1 1 97 106 107 98
26 3 2 1 1 98 107 108 99
27 3 2 1 1 99 108 109 100
28 3 2 1 1 100 109 110 101
29 3 2 1 1 101 110 111 102
30 3 2 1 1 102 111 33 34
31 3 2 1 1 11 12 112 103
32 3 2 1 1 103 112 113 104
33 3 2 1 1 104 113 114 105
34 3 2 1 1 105 114 115 106
35 3 2 1 1 106 115 116 107
36 3 2 1 1 107 116 117 108
37 3 2 1 1 108 117 118 109
38 3 2 1 1 109 118 119 110
39 3 2 1 1 110 119 120 111
40 3 2 1 1 111 120 32 33
41 3 2 1 1 12 13 121 112
42 3 2 1 1 112 121 122 113
43 3 2 1 1 113 122 123 114
44 3 2 1 1 114 123 124 115
45 3 2 1 1 115 124 125 116
46 3 2 1 1 116 125 126 117
47 3 2 1 1 117 126 127 118
48 3 2 1 1 118 127 128 119
49 3 2 1 1 119 128 129 120
50 3 2 1 1 120 129 31 32
51 3 2 1 1 13 14 130 121
52 3 2 1 1 121 130 131 122
53 3 2 1 1 122 131 132 123
54 3 2 1 1 123 132 133 124
55 3 2 1 1 124 133 134 125
56 3 2 1 1 125 134 135 126
57 3 2 1 1 126 135 136 127
58 3 2 1 1 127 136 137 128
59 3 2 1 1 128 137 138 129
60 3 2 1 1 129 138 30 31
61 3 2 1 1 14 15 139 130
62 3 2 1 1 130 139 140 131
63 3 2 1 1 131 140 141 132
64 3 2 1 1 132 141 142 133
65 3 2 1 1 133 142 143 134
66 3 2 1 1 134 143 144 135
67 3 2 1 1 135 144 145 136
68 3 2 1 1 136 145 146 137
69 3 2 1 1 137 146 147 138
70 3 2 1 1 138 147 29 30
71 3 2 1 1 15 16 148 139
72 3 2 1 1 139 148 149 140
73 3 2 1 1 140 149 150 141
74 3 2 1 1 141 150 151 142
75 3 2 1 1 142 151 152 143
76 3 2 1 1 143 152 153 144
77 3 2 1 1 144 153 154 145
78 3 2 1 1 145 154 155 146
79 3 2 1 1 146 155 156 147
80 3 2 1 1 147 156 28 29
81 3 2 1 1 16 17 157 148
82 3 2 1 1 148 157 158 149
83 3 2 1 1 149 158 159 150
84 3 2 1 1 150 159 160 151
85 3 2 1 1 151 160 161 152
86 3 2 1 1 152 161 162 153
87 3 2 1 1 153 162 163 154
88 3 2 1 1 154 163 164 155
89 3 2 1 1 155 164 165 156
90 3 2 1 1 156 165 27 28
91 3 2 1 1 17 2 18 157
92 3 2 1 1 157 18 19 158
93 3 2 1 1 158 19 20 159
94 3 2 1 1 159 20 21 160
95 3 2 1 1 160 21 22 161
96 3 2 1 1 161 22 23 162
97 3 2 1 1 162 23 24 163
98 3 2 1 1 163 24 25 164
99 3 2 1 1 164 25 26 165
100 3 2 1 1 165 26 3 27
101 3 2 2 13 1 9 166 81
102 3 2 2 13 81 166 45 5
103 3 2 2 13 9 10 167 166
104 3 2 2 13 166 167 46 45
105 3 2 2 13 10 11 168 167
106 3 2 2 13 167 168 47 46
107 3 2 2 13 11 12 169 168
108 3 2 2 13 168 169 48 47
109 3 2 2 13 12 13 170 169
110 3 2 2 13 169 170 49 48
111 3 2 2 13 13 14 171 170
112 3 2 2 13 170 171 50 49
113 3 2 2 13 14 15 172 171
114 3 2 2 13 171 172 51 50
115 3 2 2 13 15 16 173 172
116 3 2 2 13 172 173 52 51
117 3 2 2 13 16 17 174 173
118 3 2 2 13 173 174 53 52
119 3 2 2 13 17 2 82 174
120 3 2 2 13 174 82 6 53
121 3 2 3 17 2 18 175 82
122 3 2 3 17 82 175 54 6
123 3 2 3 17 18 19 176 175
124 3 2 3 17 175 176 55 54
125 3 2 3 17 19 20 177 176
126 3 2 3 17 176 177 56 55
127 3 2 3 17 20 21 178 177
128 3 2 3 17 177 178 57 56
129 3 2 3 17 21 22 179 178
130 3 2 3 17 178 179 58 57
131 3 2 3 17 22 23 180 179
132 3 2 3 17 179 180 59 58
133 3 2 3 17 23 24 181 180
134 3 2 3 17 180 181 60 59
135 3 2 3 17 24 25 182 181
136 3 2 3 17 181 182 61 60
137 3 2 3 17 25 26 183 182
138 3 2 3 17 182 183 62 61
139 3 2 3 17 26 3 83 183
140 3 2 3 17 183 83 7 62
141 3 2 4 21 3 27 184 83
142 3 2 4 21 83 184 63 7
143 3 2 4 21 27 28 185 184
144 3 2 4 21 184 185 64 63
145 3 2 4 21 28 29 186 185
146 3 2 4 21 185 186 65 64
147 3 2 4 21 29 30 187 186
148 3 2 4 21 186 187 66 65
149 3 2 4 21 30 31 188 187
150 3 2 4 21 187 188 67 66
151 3 2 4 21 31 32 189 188
152 3 2 4 21 188 189 68 67
153 3 2 4 21 32 33 190 189
154 3 2 4 21 189 190 69 68
155 3 2 4 21 33 34 191 190
156 3 2 4 21 190 191 70 69
157 3 2 4 21 34 35 192 191
158 3 2 4 21 191 192 71 70
159 3 2 4 21 35 4 84 192
160 3 2 4 21 192 84 8 71
161 3 2 5 25 4 36 193 84
162 3 2 5 25 84 193 72 8
163 3 2 5 25 36 37 194 193
164 3 2 5 25 193 194 73 72
165 3 2 5 25 37 38 195 194
166 3 2 5 25 194 195 74 73
167 3 2 5 25 38 39 196 195
168 3 2 5 25 195 196 75 74
169 3 2 5 25 39 40 197 196
170 3 2 5 25 196 197 76 75
171 3 2 5 25 40 41 198 197
172 3 2 5 25 197 198 77 76
173 3 2 5 25 41 42 199 198
174 3 2 5 25 198 199 78 77
175 3 2 5 25 42 43 200 199
176 3 2 5 25 199 200 79 78
177 3 2 5 25 43 44 201 200
178 3 2 5 25 200 201 80 79
179 3 2 5 25 44 1 81 201
180 3 2 5 25 201 81 5 80
181 3 2 6 26 5 45 202 80
182 3 2 6 26 80 202 203 79
183 3 2 6 26 79 203 204 78
184 3 2 6 26 78 204 205 77
185 3 2 6 26 77 205 206 76
186 3 2 6 26 76 206 207 75
187 3 2 6 26 75 207 208 74
188 3 2 6 26 74 208 209 73
189 3 2 6 26 73 209 210 72
190 3 2 6 26 72 210 71 8
191 3 2 6 26 45 46 211 202
192 3 2 6 26 202 211 212 203
193 3 2 6 26 203 212 213 204
194 3 2 6 26 204 213 214 205
195 3 2 6 26 205 214 215 206
196 3 2 6 26 206 215 216 207
197 3 2 6 26 207 216 217 208
198 3 2 6 26 208 217 218 209
199 3 2 6 26 209 218 219 210
200 3 2 6 26 210 219 70 71
201 3 2 6 26 46 47 220 211
202 3 2 6 26 211 220 221 212
203 3 2 6 26 212 221 222 213
204 3 2 6 26 213 222 223 214
205 3 2 6 26 214 223 224 215
206 3 2 6 26 215 224 225 216
207 3 2 6 26 216 225 226 217
208 3 2 6 26 217 226 227 218
209 3 2 6 26 218 227 228 219
210 3 2 6 26 219 228 69 70
211 3 2 6 26 47 48 229 220
212 3 2 6 26 220 229 230 221
213 3 2 6 26 221 230 231 222
214 3 2 6 26 222 231 232 223
215 3 2 6 26 223 232 233 224
216 3 2 6 26 224 233 234 225
217 3 2 6 26 225 234 235 226
218 3 2 6 26 226 235 236 227
219 3 2 6 26 227 236 237 228
220 3 2 6 26 228 237 68 69
221 3 2 6 26 48 49 238 229
222 3 2 6 26 229 238 239 230
223 3 2 6 26 230 239 240 231
224 3 2 6 26 231 240 241 232
225 3 2 6 26 232 241 242 233
226 3 2 6 26 233 242 243 234
227 3 2 6 26 234 243 244 235
228 3 2 6 26 235 244 245 236
229 3 2 6 26 236 245 246 237
230 3 2 6 26 237 246 67 68
231 3 2 6 26 49 50 247 238
232 3 2 6 26 238 247 248 239
233 3 2 6 26 239 248 249 240
234 3 2 6 26 240 249 250 241
235 3 2 6 26 241 250 251 242
236 3 2 6 26 242 251 252 243
237 3 2 6 26 243 252 253 244
238 3 2 6 26 244 253 254 245
239 3 2 6 26 245 254 255 246
240 3 2 6 26 246 255 66 67
241 3 2 6 26 50 51 256 247
242 3 2 6 26 247 256 257 248
243 3 2 6 26 248 257 258 249
244 3 2 6 26 249 258 259 250
245 3 2 6 26 250 259 260 251
246 3 2 6 26 251 260 261 252
247 3 2 6 26 252 261 262 253
248 3 2 6 26 253 262 263 254
249 3 2 6 26 254 263 264 255
250 3 2 6 26 255 264 65 66
251 3 2 6 26 51 52 265 256
252 3 2 6 26 256 265 266 257
253 3 2 6 26 257 266 267 258
254 3 2 6 26 258 267 268 259
255 3 2 6 26 259 268 269 260
256 3 2 6 26 260 269 270 261
257 3 2 6 26 261 270 271 262
258 3 2 6 26 262 271 272 263
259 3 2 6 26 263 272 273 264
260 3 2 6 26 264 273 64 65
261 3 2 6 26 52 53 274 265
262 3 2 6 26 265 274 275 266
263 3 2 6 26 266 275 276 267
264 3 2 6 26 267 276 277 268
265 3 2 6 26 268 277 278 269
266 3 2 6 26 269 278 279 270
267 3 2 6 26 270 279 280 271
268 3 2 6 26 271 280 281 272
269 3 2 6 26 272 281 282 273
270 3 2 6 26 273 282 63 64
271 3 2 6 26 53 6 54 274
272 3 2 6 26 274 54 55 275
273 3 2 6 26 275 55 56 276
274 3 2 6 26 276 56 57 277
275 3 2 6 26 277 57 58 278
276 3 2 6 26 278 58 59 279
277 3 2 6 26 279 59 60 280
278 3 2 6 26 280 60 61 281
279 3 2 6 26 281 61 62 282
280 3 2 6 26 282 62 7 63
281 5 2 1 1 1 9 85 44 81 166 283 201
282 5 2 1 1 81 166 283 201 5 45 202 80
283 5 2 1 1 44 85 86 43 201 283 284 200
284 5 2 1 1 201 283 284 200 80 202 203 79
285 5 2 1 1 43 86 87 42 200 284 285 199
286 5 2 1 1 200 284 285 199 79 203 204 78
287 5 2 1 1 42 87 88 41 199 285 286 198
288 5 2 1 1 199 285 286 198 78 204 205 77
289 5 2 1 1 41 88 89 40 198 286 287 197
290 5 2 1 1 198 286 287 197 77 205 206 76
291 5 2 1 1 40 89 90 39 197 287 288 196
292 5 2 1 1 197 287 288 196 76 206 207 75
293 5 2 1 1 39 90 91 38 196 288 289 195
294 5 2 1 1 196 288 289 195 75 207 208 74
295 5 2 1 1 38 91 92 37 195 289 290 194
296 5 2 1 1 195 289 290 194 74 208 209 73
297 5 2 1 1 37 92 93 36 194 290 291 193
298 5 2 1 1 194 290 291 193 73 209 210 72
299 5 2 1 1 36 93 35 4 193 291 192 84
300 5 2 1 1 193 291 192 84 72 210 71 8
301 5 2 1 1 9 10 94 85 166 167 292 283
302 5 2 1 1 166 167 292 283 45 46 211 202
303 5 2 1 1 85 94 95 86 283 292 293 284
304 5 2 1 1 283 292 293 284 202 211 212 203
305 5 2 1 1 86 95 96 87 284 293 294 285
306 5 2 1 1 284 293 294 285 203 212 213 204
307 5 2 1 1 87 96 97 88 285 294 295 286
308 5 2 1 1 285 294 295 286 204 213 214 205
309 5 2 1 1 88 97 98 89 286 295 296 287
310 5 2 1 1 286 295 296 287 205 214 215 206
311 5 2 1 1 89 98 99 90 287 296 297 288
312 5 2 1 1 287 296 297 288 206 215 216 207
313 5 2 1 1 90 99 100 91 288 297 298 289
314 5 2 1 1 288 297 298 289 207 216 217 208
315 5 2 1 1 91 100 101 92 289 298 299 290
316 5 2 1 1 289 298 299 290 208 217 218 209
317 5 2 1 1 92 101 102 93 290 299 300 291
318 5 2 1 1 290 299 300 291 209 218 219 210
319 5 2 1 1 93 102 34 35 291 300 191 192
320 5 2 1 1 291 300 191 192 210 219 70 71
321 5 2 1 1 10 11 103 94 167 168 301 292
322 5 2 1 1 167 168 301 292 46 47 220 211
323 5 2 1 1 94 103 104 95 292 301 302 293
324 5 2 1 1 292 301 302 293 211 220 221 212
325 5 2 1 1 95 104 105 96 293 302 303 294
326 5 2 1 1 293 302 303 294 212 221 222 213
327 5 2 1 1 96 105 106 97 294 303 304 295
328 5 2 1 1 294 303 304 295 213 222 223 214
329 5 2 1 1 97 106 107 98 295 304 305 296
330 5 2 1 1 295 304 305 296 214 223 224 215
331 5 2 1 1 98 107 108 99 296 305 306 297
332 5 2 1 1 296 305 306 297 215 224 225 216
333 5 2 1 1 99 108 109 100 297 306 307 298
334 5 2 1 1 297 306 307 298 216 225 226 217
335 5 2 1 1 100 109 110 101 298 307 308 299
336 5 2 1 1 298 307 308 299 217 226 227 218
337 5 2 1 1 101 110 111 102 299 308 309 300
338 5 2 1 1 299 308 309 300 218 227 228 219
339 5 2 1 1 102 111 33 34 300 309 190 191
340 5 2 1 1 300 309 190 191 219 228 69 70
341 5 2 1 1 11 12 112 103 168 169 310 301
342 5 2 1 1 168 169 310 301 47 48 229 220
343 5 2 1 1 103 112 113 104 301 310 311 302
344 5 2 1 1 301 310 311 302 220 229 230 221
345 5 2 1 1 104 113 114 105 302 311 312 303
346 5 2 1 1 302 311 312 303 221 230 231 222
347 5 2 1 1 105 114 115 106 303 312 313 304
348 5 2 1 1 303 312 313 304 222 231 232 223
349 5 2 1 1 106 115 116 107 304 313 314 305
350 5 2 1 1 304 313 314 305 223 232 233 224
351 5 2 1 1 107 116 117 108 305 314 315 306
352 5 2 1 1 305 314 315 306 224 233 234 225
353 5 2 1 1 108 117 118 109 306 315 316 307
354 5 2 1 1 306 315 316 307 225 234 235 226
355 5 2 1 1 109 118 119 110 307 316 317 308
356 5 2 1 1 307 316 317 308 226 235 236 227
357 5 2 1 1 110 119 120 111 308 317 318 309
358 5 2 1 1 308 317 318 309 227 236 237 228
359 5 2 1 1 111 120 32 33 309 318 189 190
360 5 2 1 1 309 318 189 190 228 237 68 69
361 5 2 1 1 12 13 121 112 169 170 319 310
362 5 2 1 1 169 170 319 310 48 49 238 229
363 5 2 1 1 112 121 122 113 310 319 320 311
364 5 2 1 1 310 319 320 311 229 238 239 230
365 5 2 1 1 113 122 123 114 311 320 321 312
366 5 2 1 1 311 320 321 312 230 239 240 231
367 5 2 1 1 114 123 124 115 312 321 322 313
368 5 2 1 1 312 321 322 313 231 240 241 232
369 5 2 1 1 115 124 125 116 313 322 323 314
370 5 2 1 1 313 322 323 314 232 241 242 233
371 5 2 1 1 116 125 126 117 314 323 324 315
372 5 2 1 1 314 323 324 315 233 242 243 234
373 5 2 1 1 117 126 127 118 315 324 325 316
374 5 2 1 1 315 324 325 316 234 243 244 235
375 5 2 1 1 118 127 128 119 316 325 326 317
376 5 2 1 1 316 325 326 317 235 244 245 236
377 5 2 1 1 119 128 129 120 317 326 327 318
378 5 2 1 1 317 326 327 318 236 245 246 237
379 5 2 1 1 120 129 31 32 318 327 188 189
380 5 2 1 1 318 327 188 189 237 246 67 68
381 5 2 1 1 13 14 130 121 170 171 328 319
382 5 2 1 1 170 171 328 319 49 50 247 238
383 5 2 1 1 121 130 131 122 319 328 329 320
384 5 2 1 1 319 328 329 320 238 247 248 239
385 5 2 1 1 122 131 132 123 320 329 330 321
386 5 2 1 1 320 329 330 321 239 248 249 240
387 5 2 1 1 123 132 133 124 321 330 331 322
388 5 2 1 1 321 330 331 322 240 249 250 241
389 5 2 1 1 124 133 134 125 322 331 332 323
390 5 2 1 1 322 331 332 323 241 250 251 242
391 5 2 1 1 125 134 135 126 323 332 333 324
392 5 2 1 1 323 332 333 324 242 251 252 243
393 5 2 1 1 126 135 136 127 324 333 334 325
394 5 2 1 1 324 333 334 325 243 252 253 244
395 5 2 1 1 127 136 137 128 325 334 335 326
396 5 2 1 1 325 334 335 326 244 253 254 245
397 5 2 1 1 128 137 138 129 326 335 336 327
398 5 2 1 1 326 335 336 327 245 254 255 246
399 5 2 1 1 129 138 30 31 327 336 187 188
400 5 2 1 1 327 336 187 188 246 255 66 67
401 5 2 1 1 14 15 139 130 171 172 337 328
402 5 2 1 1 171 172 337 328 50 51 256 247
403 5 2 1 1 130 139 140 131 328 337 338 329
404 5 2 1 1 328 337 338 329 247 256 257 248
405 5 2 1 1 131 140 141 132 329 338 339 330
406 5 2 1 1 329 338 339 330 248 257 258 249
407 5 2 1 1 132 141 142 133 330 339 340 331
408 5 2 1 1 330 339 340 331 249 258 259 250
409 5 2 1 1 133 142 143 134 331 340 341 332
410 5 2 1 1 331 340 341 332 250 259 260 251
411 5 2 1 1 134 143 144 135 332 341 342 333
412 5 2 1 1 332 341 342 333 251 260 261 252
413 5 2 1 1 135 144 145 136 333 342 343 334
414 5 2 1 1 333 342 343 334 252 261 262 253
415 5 2 1 1 136 145 146 137 334 343 344 335
416 5 2 1 1 334 343 344 335 253 262 263 254
417 5 2 1 1 137 146 147 138 335 344 345 336
418 5 2 1 1 335 344 345 336 254 263 264 255
419 5 2 1 1 138 147 29 30 336 345 186 187
420 5 2 1 1 336 345 186 187 255 264 65 66
421 5 2 1 1 15 16 148 139 172 173 346 337
422 5 2 1 1 172 173 346 337 51 52 265 256
423 5 2 1 1 139 148 149 140 337 346 347 338
424 5 2 1 1 337 346 347 338 256 265 266 257
425 5 2 1 1 140 149 150 141 338 347 348 339
426 5 2 1 1 338 347 348 339 257 266 267 258
427 5 2 1 1 141 150 151 142 339 348 349 340
428 5 2 1 1 339 348 349 340 258 267 268 259
429 5 2 1 1 142 151 152 143 340 349 350 341
430 5 2 1 1 340 349 350 341 259 268 269 260
431 5 2 1 1 143 152 153 144 341 350 351 342
432 5 2 1 1 341 350 351 342 260 269 270 261
433 5 2 1 1 144 153 154 145 342 351 352 343
434 5 2 1 1 342 351 352 343 261 270 271 262
435 5 2 1 1 145 154 155 146 343 352 353 344
436 5 2 1 1 343 352 353 344 262 271 272 263
437 5 2 1 1 146 155 156 147 344 353 354 345
438 5 2 1 1 344 353 354 345 263 272 273 264
439 5 2 1 1 147 156 28 29 345 354 185 186
440 5 2 1 1 345 354 185 186 264 273 64 65
441 5 2 1 1 16 17 157 148 173 174 355 346
442 5 2 1 1 173 174 355 346 52 53 274 265
443 5 2 1 1 148 157 158 149 346 355 356 347
444 5 2 1 1 346 355 356 347 265 274 275 266
445 5 2 1 1 149 158 159 150 347 356 357 348
446 5 2 1 1 347 356 357 348 266 275 276 267
447 5 2 1 1 150 159 160 151 348 357 358 349
448 5 2 1 1 348 357 358 349 267 276 277 268
449 5 2 1 1 151 160 161 152 349 358 359 350
450 5 2 1 1 349 358 359 350 268 277 278 269
451 5 2 1 1 152 161 162 153 350 359 360 351
452 5 2 1 1 350 359 360 351 269 278 279 270
453 5 2 1 1 153 162 163 154 351 360 361 352
454 5 2 1 1 351 360 361 352 270 279 280 271
455 5 2 1 1 154 163 164 155 352 361 362 353
456 5 2 1 1 352 361 362 353 271 280 281 272
457 5 2 1 1 155 164 165 156 353 362 363 354
458 5 2 1 1 353 362 363 354 272 281 282 273
459 5 2 1 1 156 165 27 28 354 363 184 185
460 5 2 1 1 354 363 184 185 273 282 63 64
461 5 2 1 1 17 2 18 157 174 82 175 355
462 5 2 1 1 174 82 175 355 53 6 54 274
463 5 2 1 1 157 18 19 158 355 175 176 356
464 5 2 1 1 355 175 176 356 274 54 55 275
465 5 2 1 1 158 19 20 159 356 176 177 357
466 5 2 1 1 356 176 177 357 275 55 56 276
467 5 2 1 1 159 20 21 160 357 177 178 358
468 5 2 1 1 357 177 178 358 276 56 57 277
469 5 2 1 1 160 21 22 161 358 178 179 359
470 5 2 1 1 358 178 179 359 277 57 58 278
471 5 2 1 1 161 22 23 162 359 179 180 360
472 5 2 1 1 359 179 180 360 278 58 59 279
473 5 2 1 1 162 23 24 163 360 180 181 361
474 5 2 1 1 360 180 181 361 279 59 60 280
475 5 2 1 1 163 24 25 164 361 181 182 362
476 5 2 1 1 361 181 182 362 280 60 61 281
477 5 2 1 1 164 25 26 165 362 182 183 363
478 5 2 1 1 362 182 183 363 281 61 62 282
479 5 2 1 1 165 26 3 27 363 183 83 184
480 5 2 1 1 363 183 83 184 282 62 7 63
$EndElements
