$MeshFormat
2.2 0 8
$EndMeshFormat
$PhysicalNames
7
2 1 "bottom"
2 2 "top"
2 3 "front"
2 4 "back"
2 5 "left"
2 6 "right"
3 7 "domain"
$EndPhysicalNames
$Nodes
245
1 0 0.83333333333333326 0.75
2 0 1 0.75
3 0 1 1
4 0.16666666666666666 1 1
5 0 0.83333333333333326 1
6 0.16666666666666666 1 0.75
7 0.16666666666666666 0.83333333333333326 1
8 0 0.83333333333333326 0.5
9 0.16666666666666666 0.83333333333333326 0.75
10 0 0.66666666666666663 0.75
11 0 1 0.5
12 0.33333333333333331 1 1
13 0 0.66666666666666663 1
14 0.16666666666666666 1 0.5
15 0 0.66666666666666663 0.5
16 0.16666666666666666 0.83333333333333326 0.5
17 0.33333333333333331 1 0.75
18 0.16666666666666666 0.66666666666666663 1
19 0.16666666666666666 0.66666666666666663 0.75
20 0.33333333333333331 0.83333333333333326 1
21 0 0.83333333333333326 0.25
22 0.33333333333333331 0.83333333333333326 0.75
23 0 0.5 0.75
24 0 1 0.25
25 0 0.66666666666666663 0.25
26 0.16666666666666666 0.66666666666666663 0.5
27 0.5 1 1
28 0 0.5 1
29 0 0.5 0.5
30 0.16666666666666666 1 0.25
31 0.16666666666666666 0.83333333333333326 0.25
32 0.33333333333333331 1 0.5
33 0.33333333333333331 0.83333333333333326 0.5
34 0.5 1 0.75
35 0.16666666666666666 0.5 1
36 0.16666666666666666 0.5 0.75
37 0.33333333333333331 0.66666666666666663 1
38 0.33333333333333331 0.66666666666666663 0.75
39 0.5 0.83333333333333326 1
40 0 0.83333333333333326 0
41 0 0.5 0.25
42 0.16666666666666666 0.66666666666666663 0.25
43 0.5 0.83333333333333326 0.75
44 0 0.33333333333333331 0.75
45 0.16666666666666666 0.5 0.5
46 0 1 0
47 0 0.66666666666666663 0
48 0.33333333333333331 0.66666666666666663 0.5
49 0.66666666666666663 1 1
50 0 0.33333333333333331 1
51 0 0.33333333333333331 0.5
52 0.16666666666666666 1 0
53 0.16666666666666666 0.83333333333333326 0
54 0.33333333333333331 1 0.25
55 0.33333333333333331 0.83333333333333326 0.25
56 0.5 1 0.5
57 0 0.5 0
58 0.16666666666666666 0.5 0.25
59 0.5 0.83333333333333326 0.5
60 0.66666666666666663 1 0.75
61 0.16666666666666666 0.33333333333333331 1
62 0.16666666666666666 0.33333333333333331 0.75
63 0.33333333333333331 0.5 1
64 0.33333333333333331 0.5 0.75
65 0.5 0.66666666666666663 1
66 0 0.33333333333333331 0.25
67 0.5 0.66666666666666663 0.75
68 0.66666666666666663 0.83333333333333326 1
69 0.16666666666666666 0.66666666666666663 0
70 0.33333333333333331 0.66666666666666663 0.25
71 0.66666666666666663 0.83333333333333326 0.75
72 0 0.16666666666666666 0.75
73 0.16666666666666666 0.33333333333333331 0.5
74 0.33333333333333331 0.5 0.5
75 0 0.33333333333333331 0
76 0.16666666666666666 0.5 0
77 0.5 0.66666666666666663 0.5
78 0.83333333333333326 1 1
79 0 0.16666666666666666 1
80 0 0.16666666666666666 0.5
81 0.16666666666666666 0.33333333333333331 0.25
82 0.33333333333333331 1 0
83 0.33333333333333331 0.83333333333333326 0
84 0.5 1 0.25
85 0.5 0.83333333333333326 0.25
86 0.66666666666666663 1 0.5
87 0.33333333333333331 0.5 0.25
88 0.66666666666666663 0.83333333333333326 0.5
89 0.83333333333333326 1 0.75
90 0.16666666666666666 0.16666666666666666 1
91 0.16666666666666666 0.16666666666666666 0.75
92 0.33333333333333331 0.33333333333333331 1
93 0.33333333333333331 0.33333333333333331 0.75
94 0.5 0.5 1
95 0 0.16666666666666666 0.25
96 0.5 0.5 0.75
97 0.66666666666666663 0.66666666666666663 1
98 0.66666666666666663 0.66666666666666663 0.75
99 0.83333333333333326 0.83333333333333326 1
100 0.33333333333333331 0.66666666666666663 0
101 0.16666666666666666 0.33333333333333331 0
102 0.5 0.66666666666666663 0.25
103 0.83333333333333326 0.83333333333333326 0.75
104 0 0 0.75
105 0.16666666666666666 0.16666666666666666 0.5
106 0.33333333333333331 0.33333333333333331 0.5
107 0 0.16666666666666666 0
108 0.5 0.5 0.5
109 0.33333333333333331 0.5 0
110 0.66666666666666663 0.66666666666666663 0.5
111 1 1 1
112 0 0 1
113 0 0 0.5
114 0.16666666666666666 0.16666666666666666 0.25
115 0.33333333333333331 0.33333333333333331 0.25
116 0.5 1 0
117 0.5 0.83333333333333326 0
118 0.66666666666666663 1 0.25
119 0.66666666666666663 0.83333333333333326 0.25
120 0.83333333333333326 1 0.5
121 0.5 0.5 0.25
122 0.83333333333333326 0.83333333333333326 0.5
123 1 1 0.75
124 0.16666666666666666 0 1
125 0.16666666666666666 0 0.75
126 0.33333333333333331 0.16666666666666666 1
127 0.33333333333333331 0.16666666666666666 0.75
128 0.5 0.33333333333333331 1
129 0 0 0.25
130 0.5 0.33333333333333331 0.75
131 0.66666666666666663 0.5 1
132 0.66666666666666663 0.5 0.75
133 0.83333333333333326 0.66666666666666663 1
134 0.16666666666666666 0.16666666666666666 0
135 0.83333333333333326 0.66666666666666663 0.75
136 1 0.83333333333333326 1
137 0.5 0.66666666666666663 0
138 0.33333333333333331 0.33333333333333331 0
139 0.66666666666666663 0.66666666666666663 0.25
140 1 0.83333333333333326 0.75
141 0.16666666666666666 0 0.5
142 0.33333333333333331 0.16666666666666666 0.5
143 0 0 0
144 0.5 0.33333333333333331 0.5
145 0.66666666666666663 0.5 0.5
146 0.5 0.5 0
147 0.83333333333333326 0.66666666666666663 0.5
148 0.16666666666666666 0 0.25
149 0.33333333333333331 0.16666666666666666 0.25
150 0.5 0.33333333333333331 0.25
151 0.66666666666666663 1 0
152 0.66666666666666663 0.83333333333333326 0
153 0.83333333333333326 1 0.25
154 0.83333333333333326 0.83333333333333326 0.25
155 1 1 0.5
156 0.66666666666666663 0.5 0.25
157 1 0.83333333333333326 0.5
158 0.33333333333333331 0 1
159 0.33333333333333331 0 0.75
160 0.5 0.16666666666666666 1
161 0.5 0.16666666666666666 0.75
162 0.66666666666666663 0.33333333333333331 1
163 0.66666666666666663 0.33333333333333331 0.75
164 0.83333333333333326 0.5 1
165 0.16666666666666666 0 0
166 0.83333333333333326 0.5 0.75
167 1 0.66666666666666663 1
168 0.33333333333333331 0.16666666666666666 0
169 1 0.66666666666666663 0.75
170 0.66666666666666663 0.66666666666666663 0
171 0.5 0.33333333333333331 0
172 0.83333333333333326 0.66666666666666663 0.25
173 0.33333333333333331 0 0.5
174 0.5 0.16666666666666666 0.5
175 0.66666666666666663 0.33333333333333331 0.5
176 0.83333333333333326 0.5 0.5
177 0.66666666666666663 0.5 0
178 1 0.66666666666666663 0.5
179 0.33333333333333331 0 0.25
180 0.5 0.16666666666666666 0.25
181 0.66666666666666663 0.33333333333333331 0.25
182 0.83333333333333326 1 0
183 0.83333333333333326 0.83333333333333326 0
184 1 1 0.25
185 1 0.83333333333333326 0.25
186 0.83333333333333326 0.5 0.25
187 0.5 0 1
188 0.5 0 0.75
189 0.66666666666666663 0.16666666666666666 1
190 0.66666666666666663 0.16666666666666666 0.75
191 0.83333333333333326 0.33333333333333331 1
192 0.83333333333333326 0.33333333333333331 0.75
193 1 0.5 1
194 0.33333333333333331 0 0
195 1 0.5 0.75
196 0.5 0.16666666666666666 0
197 0.83333333333333326 0.66666666666666663 0
198 0.66666666666666663 0.33333333333333331 0
199 1 0.66666666666666663 0.25
200 0.5 0 0.5
201 0.66666666666666663 0.16666666666666666 0.5
202 0.83333333333333326 0.33333333333333331 0.5
203 1 0.5 0.5
204 0.83333333333333326 0.5 0
205 0.5 0 0.25
206 0.66666666666666663 0.16666666666666666 0.25
207 0.83333333333333326 0.33333333333333331 0.25
208 1 1 0
209 1 0.83333333333333326 0
210 1 0.5 0.25
211 0.66666666666666663 0 1
212 0.66666666666666663 0 0.75
213 0.83333333333333326 0.16666666666666666 1
214 0.83333333333333326 0.16666666666666666 0.75
215 1 0.33333333333333331 1
216 1 0.33333333333333331 0.75
217 0.5 0 0
218 0.66666666666666663 0.16666666666666666 0
219 1 0.66666666666666663 0
220 0.83333333333333326 0.33333333333333331 0
221 0.66666666666666663 0 0.5
222 0.83333333333333326 0.16666666666666666 0.5
223 1 0.33333333333333331 0.5
224 1 0.5 0
225 0.66666666666666663 0 0.25
226 0.83333333333333326 0.16666666666666666 0.25
227 1 0.33333333333333331 0.25
228 0.83333333333333326 0 1
229 0.83333333333333326 0 0.75
230 1 0.16666666666666666 1
231 1 0.16666666666666666 0.75
232 0.66666666666666663 0 0
233 0.83333333333333326 0.16666666666666666 0
234 1 0.33333333333333331 0
235 0.83333333333333326 0 0.5
236 1 0.16666666666666666 0.5
237 0.83333333333333326 0 0.25
238 1 0.16666666666666666 0.25
239 1 0 1
240 1 0 0.75
241 0.83333333333333326 0 0
242 1 0.16666666666666666 0
243 1 0 0.5
244 1 0 0.25
245 1 0 0
$EndNodes
$Elements
1200
1 2 2 1 1 40 52 46
2 2 2 1 1 40 53 52
3 2 2 1 1 47 53 40
4 2 2 1 1 47 69 53
5 2 2 1 1 57 69 47
6 2 2 1 1 53 82 52
7 2 2 1 1 57 76 69
8 2 2 1 1 75 76 57
9 2 2 1 1 53 83 82
10 2 2 1 1 69 83 53
11 2 2 1 1 75 101 76
12 2 2 1 1 69 100 83
13 2 2 1 1 76 100 69
14 2 2 1 1 107 101 75
15 2 2 1 1 83 116 82
16 2 2 1 1 76 109 100
17 2 2 1 1 101 109 76
18 2 2 1 1 107 134 101
19 2 2 1 1 83 117 116
20 2 2 1 1 100 117 83
21 2 2 1 1 101 138 109
22 2 2 1 1 100 137 117
23 2 2 1 1 109 137 100
24 2 2 1 1 143 134 107
25 2 2 1 1 134 138 101
26 2 2 1 1 117 151 116
27 2 2 1 1 109 146 137
28 2 2 1 1 138 146 109
29 2 2 1 1 143 165 134
30 2 2 1 1 134 168 138
31 2 2 1 1 117 152 151
32 2 2 1 1 137 152 117
33 2 2 1 1 138 171 146
34 2 2 1 1 137 170 152
35 2 2 1 1 146 170 137
36 2 2 1 1 165 168 134
37 2 2 1 1 168 171 138
38 2 2 1 1 152 182 151
39 2 2 1 1 146 177 170
40 2 2 1 1 171 177 146
41 2 2 1 1 165 194 168
42 2 2 1 1 168 196 171
43 2 2 1 1 152 183 182
44 2 2 1 1 170 183 152
45 2 2 1 1 171 198 177
46 2 2 1 1 170 197 183
47 2 2 1 1 177 197 170
48 2 2 1 1 194 196 168
49 2 2 1 1 196 198 171
50 2 2 1 1 183 208 182
51 2 2 1 1 177 204 197
52 2 2 1 1 198 204 177
53 2 2 1 1 194 217 196
54 2 2 1 1 196 218 198
55 2 2 1 1 183 209 208
56 2 2 1 1 197 209 183
57 2 2 1 1 198 220 204
58 2 2 1 1 197 219 209
59 2 2 1 1 204 219 197
60 2 2 1 1 217 218 196
61 2 2 1 1 218 220 198
62 2 2 1 1 204 224 219
63 2 2 1 1 220 224 204
64 2 2 1 1 217 232 218
65 2 2 1 1 218 233 220
66 2 2 1 1 220 234 224
67 2 2 1 1 232 233 218
68 2 2 1 1 233 234 220
69 2 2 1 1 232 241 233
70 2 2 1 1 233 242 234
71 2 2 1 1 241 242 233
72 2 2 1 1 241 245 242
73 2 2 2 2 3 5 4
74 2 2 2 2 7 4 5
75 2 2 2 2 5 13 7
76 2 2 2 2 4 7 12
77 2 2 2 2 18 7 13
78 2 2 2 2 20 12 7
79 2 2 2 2 13 28 18
80 2 2 2 2 7 18 20
81 2 2 2 2 12 20 27
82 2 2 2 2 35 18 28
83 2 2 2 2 37 20 18
84 2 2 2 2 39 27 20
85 2 2 2 2 28 50 35
86 2 2 2 2 18 35 37
87 2 2 2 2 20 37 39
88 2 2 2 2 27 39 49
89 2 2 2 2 61 35 50
90 2 2 2 2 63 37 35
91 2 2 2 2 65 39 37
92 2 2 2 2 68 49 39
93 2 2 2 2 50 79 61
94 2 2 2 2 35 61 63
95 2 2 2 2 37 63 65
96 2 2 2 2 39 65 68
97 2 2 2 2 49 68 78
98 2 2 2 2 90 61 79
99 2 2 2 2 92 63 61
100 2 2 2 2 94 65 63
101 2 2 2 2 97 68 65
102 2 2 2 2 99 78 68
103 2 2 2 2 79 112 90
104 2 2 2 2 61 90 92
105 2 2 2 2 63 92 94
106 2 2 2 2 65 94 97
107 2 2 2 2 68 97 99
108 2 2 2 2 78 99 111
109 2 2 2 2 124 90 112
110 2 2 2 2 126 92 90
111 2 2 2 2 128 94 92
112 2 2 2 2 131 97 94
113 2 2 2 2 133 99 97
114 2 2 2 2 136 111 99
115 2 2 2 2 90 124 126
116 2 2 2 2 92 126 128
117 2 2 2 2 94 128 131
118 2 2 2 2 97 131 133
119 2 2 2 2 99 133 136
120 2 2 2 2 158 126 124
121 2 2 2 2 160 128 126
122 2 2 2 2 162 131 128
123 2 2 2 2 164 133 131
124 2 2 2 2 167 136 133
125 2 2 2 2 126 158 160
126 2 2 2 2 128 160 162
127 2 2 2 2 131 162 164
128 2 2 2 2 133 164 167
129 2 2 2 2 187 160 158
130 2 2 2 2 189 162 160
131 2 2 2 2 191 164 162
132 2 2 2 2 193 167 164
133 2 2 2 2 160 187 189
134 2 2 2 2 162 189 191
135 2 2 2 2 164 191 193
136 2 2 2 2 211 189 187
137 2 2 2 2 213 191 189
138 2 2 2 2 215 193 191
139 2 2 2 2 189 211 213
140 2 2 2 2 191 213 215
141 2 2 2 2 228 213 211
142 2 2 2 2 230 215 213
143 2 2 2 2 213 228 230
144 2 2 2 2 239 230 228
145 2 2 3 3 104 124 112
146 2 2 3 3 104 125 124
147 2 2 3 3 113 125 104
148 2 2 3 3 113 141 125
149 2 2 3 3 129 141 113
150 2 2 3 3 125 158 124
151 2 2 3 3 129 148 141
152 2 2 3 3 143 148 129
153 2 2 3 3 125 159 158
154 2 2 3 3 141 159 125
155 2 2 3 3 143 165 148
156 2 2 3 3 141 173 159
157 2 2 3 3 148 173 141
158 2 2 3 3 159 187 158
159 2 2 3 3 148 179 173
160 2 2 3 3 165 179 148
161 2 2 3 3 159 188 187
162 2 2 3 3 173 188 159
163 2 2 3 3 165 194 179
164 2 2 3 3 173 200 188
165 2 2 3 3 179 200 173
166 2 2 3 3 188 211 187
167 2 2 3 3 179 205 200
168 2 2 3 3 194 205 179
169 2 2 3 3 188 212 211
170 2 2 3 3 200 212 188
171 2 2 3 3 194 217 205
172 2 2 3 3 200 221 212
173 2 2 3 3 205 221 200
174 2 2 3 3 212 228 211
175 2 2 3 3 205 225 221
176 2 2 3 3 217 225 205
177 2 2 3 3 212 229 228
178 2 2 3 3 221 229 212
179 2 2 3 3 217 232 225
180 2 2 3 3 221 235 229
181 2 2 3 3 225 235 221
182 2 2 3 3 229 239 228
183 2 2 3 3 225 237 235
184 2 2 3 3 232 237 225
185 2 2 3 3 229 240 239
186 2 2 3 3 235 240 229
187 2 2 3 3 232 241 237
188 2 2 3 3 235 243 240
189 2 2 3 3 237 243 235
190 2 2 3 3 237 244 243
191 2 2 3 3 241 244 237
192 2 2 3 3 241 245 244
193 2 2 4 4 2 3 4
194 2 2 4 4 6 2 4
195 2 2 4 4 11 2 6
196 2 2 4 4 6 4 12
197 2 2 4 4 14 11 6
198 2 2 4 4 17 6 12
199 2 2 4 4 24 11 14
200 2 2 4 4 14 6 17
201 2 2 4 4 17 12 27
202 2 2 4 4 30 24 14
203 2 2 4 4 32 14 17
204 2 2 4 4 34 17 27
205 2 2 4 4 46 24 30
206 2 2 4 4 30 14 32
207 2 2 4 4 32 17 34
208 2 2 4 4 34 27 49
209 2 2 4 4 52 46 30
210 2 2 4 4 54 30 32
211 2 2 4 4 56 32 34
212 2 2 4 4 60 34 49
213 2 2 4 4 52 30 54
214 2 2 4 4 54 32 56
215 2 2 4 4 56 34 60
216 2 2 4 4 60 49 78
217 2 2 4 4 82 52 54
218 2 2 4 4 84 54 56
219 2 2 4 4 86 56 60
220 2 2 4 4 89 60 78
221 2 2 4 4 82 54 84
222 2 2 4 4 84 56 86
223 2 2 4 4 86 60 89
224 2 2 4 4 89 78 111
225 2 2 4 4 116 82 84
226 2 2 4 4 118 84 86
227 2 2 4 4 120 86 89
228 2 2 4 4 123 89 111
229 2 2 4 4 116 84 118
230 2 2 4 4 118 86 120
231 2 2 4 4 120 89 123
232 2 2 4 4 151 116 118
233 2 2 4 4 153 118 120
234 2 2 4 4 155 120 123
235 2 2 4 4 151 118 153
236 2 2 4 4 153 120 155
237 2 2 4 4 182 151 153
238 2 2 4 4 184 153 155
239 2 2 4 4 182 153 184
240 2 2 4 4 208 182 184
241 2 2 5 5 1 2 3
242 2 2 5 5 1 3 5
243 2 2 5 5 8 2 1
244 2 2 5 5 10 1 5
245 2 2 5 5 8 11 2
246 2 2 5 5 10 5 13
247 2 2 5 5 15 8 1
248 2 2 5 5 15 1 10
249 2 2 5 5 21 11 8
250 2 2 5 5 23 10 13
251 2 2 5 5 21 24 11
252 2 2 5 5 25 8 15
253 2 2 5 5 23 13 28
254 2 2 5 5 29 15 10
255 2 2 5 5 25 21 8
256 2 2 5 5 29 10 23
257 2 2 5 5 40 24 21
258 2 2 5 5 41 25 15
259 2 2 5 5 44 23 28
260 2 2 5 5 41 15 29
261 2 2 5 5 40 46 24
262 2 2 5 5 47 21 25
263 2 2 5 5 44 28 50
264 2 2 5 5 51 29 23
265 2 2 5 5 47 40 21
266 2 2 5 5 57 25 41
267 2 2 5 5 51 23 44
268 2 2 5 5 66 41 29
269 2 2 5 5 57 47 25
270 2 2 5 5 72 44 50
271 2 2 5 5 66 29 51
272 2 2 5 5 75 57 41
273 2 2 5 5 72 50 79
274 2 2 5 5 80 51 44
275 2 2 5 5 75 41 66
276 2 2 5 5 80 44 72
277 2 2 5 5 95 66 51
278 2 2 5 5 104 72 79
279 2 2 5 5 95 51 80
280 2 2 5 5 107 75 66
281 2 2 5 5 104 79 112
282 2 2 5 5 113 80 72
283 2 2 5 5 107 66 95
284 2 2 5 5 113 72 104
285 2 2 5 5 129 95 80
286 2 2 5 5 129 80 113
287 2 2 5 5 143 107 95
288 2 2 5 5 143 95 129
289 2 2 6 6 140 123 111
290 2 2 6 6 140 111 136
291 2 2 6 6 157 123 140
292 2 2 6 6 169 140 136
293 2 2 6 6 157 155 123
294 2 2 6 6 169 136 167
295 2 2 6 6 178 157 140
296 2 2 6 6 178 140 169
297 2 2 6 6 185 155 157
298 2 2 6 6 195 169 167
299 2 2 6 6 185 184 155
300 2 2 6 6 199 157 178
301 2 2 6 6 195 167 193
302 2 2 6 6 203 178 169
303 2 2 6 6 199 185 157
304 2 2 6 6 203 169 195
305 2 2 6 6 209 184 185
306 2 2 6 6 210 199 178
307 2 2 6 6 216 195 193
308 2 2 6 6 210 178 203
309 2 2 6 6 209 208 184
310 2 2 6 6 219 185 199
311 2 2 6 6 216 193 215
312 2 2 6 6 223 203 195
313 2 2 6 6 219 209 185
314 2 2 6 6 224 199 210
315 2 2 6 6 223 195 216
316 2 2 6 6 227 210 203
317 2 2 6 6 224 219 199
318 2 2 6 6 231 216 215
319 2 2 6 6 227 203 223
320 2 2 6 6 234 224 210
321 2 2 6 6 231 215 230
322 2 2 6 6 236 223 216
323 2 2 6 6 234 210 227
324 2 2 6 6 236 216 231
325 2 2 6 6 238 227 223
326 2 2 6 6 240 231 230
327 2 2 6 6 238 223 236
328 2 2 6 6 242 234 227
329 2 2 6 6 240 230 239
330 2 2 6 6 243 236 231
331 2 2 6 6 242 227 238
332 2 2 6 6 243 231 240
333 2 2 6 6 244 238 236
334 2 2 6 6 244 236 243
335 2 2 6 6 245 242 238
336 2 2 6 6 245 238 244
337 4 2 7 7 1 2 3 4
338 4 2 7 7 1 3 5 4
339 4 2 7 7 1 6 2 4
340 4 2 7 7 1 7 4 5
341 4 2 7 7 8 2 1 6
342 4 2 7 7 1 9 6 4
343 4 2 7 7 10 1 5 7
344 4 2 7 7 1 9 4 7
345 4 2 7 7 8 11 2 6
346 4 2 7 7 8 9 6 1
347 4 2 7 7 9 6 4 12
348 4 2 7 7 10 5 13 7
349 4 2 7 7 10 9 1 7
350 4 2 7 7 9 4 7 12
351 4 2 7 7 8 14 11 6
352 4 2 7 7 15 8 1 9
353 4 2 7 7 8 16 6 9
354 4 2 7 7 9 17 6 12
355 4 2 7 7 10 18 7 13
356 4 2 7 7 15 1 10 9
357 4 2 7 7 10 19 9 7
358 4 2 7 7 9 20 12 7
359 4 2 7 7 21 11 8 14
360 4 2 7 7 8 16 14 6
361 4 2 7 7 15 16 8 9
362 4 2 7 7 16 6 9 17
363 4 2 7 7 9 22 17 12
364 4 2 7 7 23 10 13 18
365 4 2 7 7 10 19 7 18
366 4 2 7 7 15 19 9 10
367 4 2 7 7 19 9 7 20
368 4 2 7 7 9 22 12 20
369 4 2 7 7 21 24 11 14
370 4 2 7 7 21 16 14 8
371 4 2 7 7 16 14 6 17
372 4 2 7 7 25 8 15 16
373 4 2 7 7 15 26 16 9
374 4 2 7 7 16 22 17 9
375 4 2 7 7 22 17 12 27
376 4 2 7 7 23 13 28 18
377 4 2 7 7 23 19 10 18
378 4 2 7 7 19 7 18 20
379 4 2 7 7 29 15 10 19
380 4 2 7 7 15 26 9 19
381 4 2 7 7 19 22 9 20
382 4 2 7 7 22 12 20 27
383 4 2 7 7 21 30 24 14
384 4 2 7 7 25 21 8 16
385 4 2 7 7 21 31 14 16
386 4 2 7 7 16 32 14 17
387 4 2 7 7 25 26 16 15
388 4 2 7 7 26 16 9 22
389 4 2 7 7 16 33 17 22
390 4 2 7 7 22 34 17 27
391 4 2 7 7 23 35 18 28
392 4 2 7 7 29 10 23 19
393 4 2 7 7 23 36 19 18
394 4 2 7 7 19 37 20 18
395 4 2 7 7 29 26 15 19
396 4 2 7 7 26 9 19 22
397 4 2 7 7 19 38 22 20
398 4 2 7 7 22 39 27 20
399 4 2 7 7 40 24 21 30
400 4 2 7 7 21 31 30 14
401 4 2 7 7 25 31 21 16
402 4 2 7 7 31 14 16 32
403 4 2 7 7 16 33 32 17
404 4 2 7 7 41 25 15 26
405 4 2 7 7 25 42 16 26
406 4 2 7 7 26 33 16 22
407 4 2 7 7 33 17 22 34
408 4 2 7 7 22 43 34 27
409 4 2 7 7 44 23 28 35
410 4 2 7 7 23 36 18 35
411 4 2 7 7 29 36 19 23
412 4 2 7 7 36 19 18 37
413 4 2 7 7 19 38 20 37
414 4 2 7 7 41 15 29 26
415 4 2 7 7 29 45 26 19
416 4 2 7 7 26 38 22 19
417 4 2 7 7 38 22 20 39
418 4 2 7 7 22 43 27 39
419 4 2 7 7 40 46 24 30
420 4 2 7 7 40 31 30 21
421 4 2 7 7 31 30 14 32
422 4 2 7 7 47 21 25 31
423 4 2 7 7 25 42 31 16
424 4 2 7 7 31 33 32 16
425 4 2 7 7 33 32 17 34
426 4 2 7 7 41 42 25 26
427 4 2 7 7 42 16 26 33
428 4 2 7 7 26 48 33 22
429 4 2 7 7 33 43 34 22
430 4 2 7 7 43 34 27 49
431 4 2 7 7 44 28 50 35
432 4 2 7 7 44 36 23 35
433 4 2 7 7 36 18 35 37
434 4 2 7 7 51 29 23 36
435 4 2 7 7 29 45 19 36
436 4 2 7 7 36 38 19 37
437 4 2 7 7 38 20 37 39
438 4 2 7 7 41 45 26 29
439 4 2 7 7 45 26 19 38
440 4 2 7 7 26 48 22 38
441 4 2 7 7 38 43 22 39
442 4 2 7 7 43 27 39 49
443 4 2 7 7 40 52 46 30
444 4 2 7 7 47 40 21 31
445 4 2 7 7 40 53 30 31
446 4 2 7 7 31 54 30 32
447 4 2 7 7 47 42 31 25
448 4 2 7 7 42 31 16 33
449 4 2 7 7 31 55 32 33
450 4 2 7 7 33 56 32 34
451 4 2 7 7 57 25 41 42
452 4 2 7 7 41 58 42 26
453 4 2 7 7 42 48 33 26
454 4 2 7 7 48 33 22 43
455 4 2 7 7 33 59 34 43
456 4 2 7 7 43 60 34 49
457 4 2 7 7 44 61 35 50
458 4 2 7 7 51 23 44 36
459 4 2 7 7 44 62 36 35
460 4 2 7 7 36 63 37 35
461 4 2 7 7 51 45 29 36
462 4 2 7 7 45 19 36 38
463 4 2 7 7 36 64 38 37
464 4 2 7 7 38 65 39 37
465 4 2 7 7 66 41 29 45
466 4 2 7 7 41 58 26 45
467 4 2 7 7 45 48 26 38
468 4 2 7 7 48 22 38 43
469 4 2 7 7 38 67 43 39
470 4 2 7 7 43 68 49 39
471 4 2 7 7 40 53 52 30
472 4 2 7 7 47 53 40 31
473 4 2 7 7 53 30 31 54
474 4 2 7 7 31 55 54 32
475 4 2 7 7 57 47 25 42
476 4 2 7 7 47 69 31 42
477 4 2 7 7 42 55 31 33
478 4 2 7 7 55 32 33 56
479 4 2 7 7 33 59 56 34
480 4 2 7 7 57 58 42 41
481 4 2 7 7 58 42 26 48
482 4 2 7 7 42 70 33 48
483 4 2 7 7 48 59 33 43
484 4 2 7 7 59 34 43 60
485 4 2 7 7 43 71 60 49
486 4 2 7 7 72 44 50 61
487 4 2 7 7 44 62 35 61
488 4 2 7 7 51 62 36 44
489 4 2 7 7 62 36 35 63
490 4 2 7 7 36 64 37 63
491 4 2 7 7 66 29 51 45
492 4 2 7 7 51 73 45 36
493 4 2 7 7 45 64 38 36
494 4 2 7 7 64 38 37 65
495 4 2 7 7 38 67 39 65
496 4 2 7 7 66 58 41 45
497 4 2 7 7 58 26 45 48
498 4 2 7 7 45 74 48 38
499 4 2 7 7 48 67 43 38
500 4 2 7 7 67 43 39 68
501 4 2 7 7 43 71 49 68
502 4 2 7 7 53 52 30 54
503 4 2 7 7 47 69 53 31
504 4 2 7 7 53 55 54 31
505 4 2 7 7 55 54 32 56
506 4 2 7 7 57 69 47 42
507 4 2 7 7 69 31 42 55
508 4 2 7 7 42 70 55 33
509 4 2 7 7 55 59 56 33
510 4 2 7 7 59 56 34 60
511 4 2 7 7 75 57 41 58
512 4 2 7 7 57 76 42 58
513 4 2 7 7 58 70 42 48
514 4 2 7 7 70 33 48 59
515 4 2 7 7 48 77 59 43
516 4 2 7 7 59 71 60 43
517 4 2 7 7 71 60 49 78
518 4 2 7 7 72 50 79 61
519 4 2 7 7 72 62 44 61
520 4 2 7 7 62 35 61 63
521 4 2 7 7 80 51 44 62
522 4 2 7 7 51 73 36 62
523 4 2 7 7 62 64 36 63
524 4 2 7 7 64 37 63 65
525 4 2 7 7 66 73 45 51
526 4 2 7 7 73 45 36 64
527 4 2 7 7 45 74 38 64
528 4 2 7 7 64 67 38 65
529 4 2 7 7 67 39 65 68
530 4 2 7 7 75 41 66 58
531 4 2 7 7 66 81 58 45
532 4 2 7 7 58 74 48 45
533 4 2 7 7 74 48 38 67
534 4 2 7 7 48 77 43 67
535 4 2 7 7 67 71 43 68
536 4 2 7 7 71 49 68 78
537 4 2 7 7 53 82 52 54
538 4 2 7 7 69 53 31 55
539 4 2 7 7 53 83 54 55
540 4 2 7 7 55 84 54 56
541 4 2 7 7 57 76 69 42
542 4 2 7 7 69 70 55 42
543 4 2 7 7 70 55 33 59
544 4 2 7 7 55 85 56 59
545 4 2 7 7 59 86 56 60
546 4 2 7 7 75 76 57 58
547 4 2 7 7 76 42 58 70
548 4 2 7 7 58 87 70 48
549 4 2 7 7 70 77 59 48
550 4 2 7 7 77 59 43 71
551 4 2 7 7 59 88 60 71
552 4 2 7 7 71 89 60 78
553 4 2 7 7 72 90 61 79
554 4 2 7 7 80 44 72 62
555 4 2 7 7 72 91 62 61
556 4 2 7 7 62 92 63 61
557 4 2 7 7 80 73 51 62
558 4 2 7 7 73 36 62 64
559 4 2 7 7 62 93 64 63
560 4 2 7 7 64 94 65 63
561 4 2 7 7 95 66 51 73
562 4 2 7 7 66 81 45 73
563 4 2 7 7 73 74 45 64
564 4 2 7 7 74 38 64 67
565 4 2 7 7 64 96 67 65
566 4 2 7 7 67 97 68 65
567 4 2 7 7 75 81 58 66
568 4 2 7 7 81 58 45 74
569 4 2 7 7 58 87 48 74
570 4 2 7 7 74 77 48 67
571 4 2 7 7 77 43 67 71
572 4 2 7 7 67 98 71 68
573 4 2 7 7 71 99 78 68
574 4 2 7 7 53 83 82 54
575 4 2 7 7 69 83 53 55
576 4 2 7 7 83 54 55 84
577 4 2 7 7 55 85 84 56
578 4 2 7 7 76 69 42 70
579 4 2 7 7 69 100 55 70
580 4 2 7 7 70 85 55 59
581 4 2 7 7 85 56 59 86
582 4 2 7 7 59 88 86 60
583 4 2 7 7 75 101 76 58
584 4 2 7 7 76 87 70 58
585 4 2 7 7 87 70 48 77
586 4 2 7 7 70 102 59 77
587 4 2 7 7 77 88 59 71
588 4 2 7 7 88 60 71 89
589 4 2 7 7 71 103 89 78
590 4 2 7 7 104 72 79 90
591 4 2 7 7 72 91 61 90
592 4 2 7 7 80 91 62 72
593 4 2 7 7 91 62 61 92
594 4 2 7 7 62 93 63 92
595 4 2 7 7 95 51 80 73
596 4 2 7 7 80 105 73 62
597 4 2 7 7 73 93 64 62
598 4 2 7 7 93 64 63 94
599 4 2 7 7 64 96 65 94
600 4 2 7 7 95 81 66 73
601 4 2 7 7 81 45 73 74
602 4 2 7 7 73 106 74 64
603 4 2 7 7 74 96 67 64
604 4 2 7 7 96 67 65 97
605 4 2 7 7 67 98 68 97
606 4 2 7 7 107 75 66 81
607 4 2 7 7 75 101 58 81
608 4 2 7 7 81 87 58 74
609 4 2 7 7 87 48 74 77
610 4 2 7 7 74 108 77 67
611 4 2 7 7 77 98 71 67
612 4 2 7 7 98 71 68 99
613 4 2 7 7 71 103 78 99
614 4 2 7 7 83 82 54 84
615 4 2 7 7 69 100 83 55
616 4 2 7 7 83 85 84 55
617 4 2 7 7 85 84 56 86
618 4 2 7 7 76 100 69 70
619 4 2 7 7 100 55 70 85
620 4 2 7 7 70 102 85 59
621 4 2 7 7 85 88 86 59
622 4 2 7 7 88 86 60 89
623 4 2 7 7 101 76 58 87
624 4 2 7 7 76 109 70 87
625 4 2 7 7 87 102 70 77
626 4 2 7 7 102 59 77 88
627 4 2 7 7 77 110 88 71
628 4 2 7 7 88 103 89 71
629 4 2 7 7 103 89 78 111
630 4 2 7 7 104 79 112 90
631 4 2 7 7 104 91 72 90
632 4 2 7 7 91 61 90 92
633 4 2 7 7 113 80 72 91
634 4 2 7 7 80 105 62 91
635 4 2 7 7 91 93 62 92
636 4 2 7 7 93 63 92 94
637 4 2 7 7 95 105 73 80
638 4 2 7 7 105 73 62 93
639 4 2 7 7 73 106 64 93
640 4 2 7 7 93 96 64 94
641 4 2 7 7 96 65 94 97
642 4 2 7 7 107 66 95 81
643 4 2 7 7 95 114 81 73
644 4 2 7 7 81 106 74 73
645 4 2 7 7 106 74 64 96
646 4 2 7 7 74 108 67 96
647 4 2 7 7 96 98 67 97
648 4 2 7 7 98 68 97 99
649 4 2 7 7 107 101 75 81
650 4 2 7 7 101 58 81 87
651 4 2 7 7 81 115 87 74
652 4 2 7 7 87 108 77 74
653 4 2 7 7 108 77 67 98
654 4 2 7 7 77 110 71 98
655 4 2 7 7 98 103 71 99
656 4 2 7 7 103 78 99 111
657 4 2 7 7 83 116 82 84
658 4 2 7 7 100 83 55 85
659 4 2 7 7 83 117 84 85
660 4 2 7 7 85 118 84 86
661 4 2 7 7 76 109 100 70
662 4 2 7 7 100 102 85 70
663 4 2 7 7 102 85 59 88
664 4 2 7 7 85 119 86 88
665 4 2 7 7 88 120 86 89
666 4 2 7 7 101 109 76 87
667 4 2 7 7 109 70 87 102
668 4 2 7 7 87 121 102 77
669 4 2 7 7 102 110 88 77
670 4 2 7 7 110 88 71 103
671 4 2 7 7 88 122 89 103
672 4 2 7 7 103 123 89 111
673 4 2 7 7 104 124 90 112
674 4 2 7 7 113 72 104 91
675 4 2 7 7 104 125 91 90
676 4 2 7 7 91 126 92 90
677 4 2 7 7 113 105 80 91
678 4 2 7 7 105 62 91 93
679 4 2 7 7 91 127 93 92
680 4 2 7 7 93 128 94 92
681 4 2 7 7 129 95 80 105
682 4 2 7 7 95 114 73 105
683 4 2 7 7 105 106 73 93
684 4 2 7 7 106 64 93 96
685 4 2 7 7 93 130 96 94
686 4 2 7 7 96 131 97 94
687 4 2 7 7 107 114 81 95
688 4 2 7 7 114 81 73 106
689 4 2 7 7 81 115 74 106
690 4 2 7 7 106 108 74 96
691 4 2 7 7 108 67 96 98
692 4 2 7 7 96 132 98 97
693 4 2 7 7 98 133 99 97
694 4 2 7 7 107 134 101 81
695 4 2 7 7 101 115 87 81
696 4 2 7 7 115 87 74 108
697 4 2 7 7 87 121 77 108
698 4 2 7 7 108 110 77 98
699 4 2 7 7 110 71 98 103
700 4 2 7 7 98 135 103 99
701 4 2 7 7 103 136 111 99
702 4 2 7 7 83 117 116 84
703 4 2 7 7 100 117 83 85
704 4 2 7 7 117 84 85 118
705 4 2 7 7 85 119 118 86
706 4 2 7 7 109 100 70 102
707 4 2 7 7 100 137 85 102
708 4 2 7 7 102 119 85 88
709 4 2 7 7 119 86 88 120
710 4 2 7 7 88 122 120 89
711 4 2 7 7 101 138 109 87
712 4 2 7 7 109 121 102 87
713 4 2 7 7 121 102 77 110
714 4 2 7 7 102 139 88 110
715 4 2 7 7 110 122 88 103
716 4 2 7 7 122 89 103 123
717 4 2 7 7 103 140 123 111
718 4 2 7 7 104 125 90 124
719 4 2 7 7 113 125 91 104
720 4 2 7 7 125 91 90 126
721 4 2 7 7 91 127 92 126
722 4 2 7 7 129 80 113 105
723 4 2 7 7 113 141 105 91
724 4 2 7 7 105 127 93 91
725 4 2 7 7 127 93 92 128
726 4 2 7 7 93 130 94 128
727 4 2 7 7 129 114 95 105
728 4 2 7 7 114 73 105 106
729 4 2 7 7 105 142 106 93
730 4 2 7 7 106 130 96 93
731 4 2 7 7 130 96 94 131
732 4 2 7 7 96 132 97 131
733 4 2 7 7 143 107 95 114
734 4 2 7 7 107 134 81 114
735 4 2 7 7 114 115 81 106
736 4 2 7 7 115 74 106 108
737 4 2 7 7 106 144 108 96
738 4 2 7 7 108 132 98 96
739 4 2 7 7 132 98 97 133
740 4 2 7 7 98 135 99 133
741 4 2 7 7 134 101 81 115
742 4 2 7 7 101 138 87 115
743 4 2 7 7 115 121 87 108
744 4 2 7 7 121 77 108 110
745 4 2 7 7 108 145 110 98
746 4 2 7 7 110 135 103 98
747 4 2 7 7 135 103 99 136
748 4 2 7 7 103 140 111 136
749 4 2 7 7 117 116 84 118
750 4 2 7 7 100 137 117 85
751 4 2 7 7 117 119 118 85
752 4 2 7 7 119 118 86 120
753 4 2 7 7 109 137 100 102
754 4 2 7 7 137 85 102 119
755 4 2 7 7 102 139 119 88
756 4 2 7 7 119 122 120 88
757 4 2 7 7 122 120 89 123
758 4 2 7 7 138 109 87 121
759 4 2 7 7 109 146 102 121
760 4 2 7 7 121 139 102 110
761 4 2 7 7 139 88 110 122
762 4 2 7 7 110 147 122 103
763 4 2 7 7 122 140 123 103
764 4 2 7 7 125 90 124 126
765 4 2 7 7 113 141 91 125
766 4 2 7 7 125 127 91 126
767 4 2 7 7 127 92 126 128
768 4 2 7 7 129 141 105 113
769 4 2 7 7 141 105 91 127
770 4 2 7 7 105 142 93 127
771 4 2 7 7 127 130 93 128
772 4 2 7 7 130 94 128 131
773 4 2 7 7 143 95 129 114
774 4 2 7 7 129 148 114 105
775 4 2 7 7 114 142 106 105
776 4 2 7 7 142 106 93 130
777 4 2 7 7 106 144 96 130
778 4 2 7 7 130 132 96 131
779 4 2 7 7 132 97 131 133
780 4 2 7 7 143 134 107 114
781 4 2 7 7 134 81 114 115
782 4 2 7 7 114 149 115 106
783 4 2 7 7 115 144 108 106
784 4 2 7 7 144 108 96 132
785 4 2 7 7 108 145 98 132
786 4 2 7 7 132 135 98 133
787 4 2 7 7 135 99 133 136
788 4 2 7 7 134 138 101 115
789 4 2 7 7 138 87 115 121
790 4 2 7 7 115 150 121 108
791 4 2 7 7 121 145 110 108
792 4 2 7 7 145 110 98 135
793 4 2 7 7 110 147 103 135
794 4 2 7 7 135 140 103 136
795 4 2 7 7 117 151 116 118
796 4 2 7 7 137 117 85 119
797 4 2 7 7 117 152 118 119
798 4 2 7 7 119 153 118 120
799 4 2 7 7 109 146 137 102
800 4 2 7 7 137 139 119 102
801 4 2 7 7 139 119 88 122
802 4 2 7 7 119 154 120 122
803 4 2 7 7 122 155 120 123
804 4 2 7 7 138 146 109 121
805 4 2 7 7 146 102 121 139
806 4 2 7 7 121 156 139 110
807 4 2 7 7 139 147 122 110
808 4 2 7 7 147 122 103 140
809 4 2 7 7 122 157 123 140
810 4 2 7 7 125 158 126 124
811 4 2 7 7 141 91 125 127
812 4 2 7 7 125 159 127 126
813 4 2 7 7 127 160 128 126
814 4 2 7 7 129 148 105 141
815 4 2 7 7 141 142 105 127
816 4 2 7 7 142 93 127 130
817 4 2 7 7 127 161 130 128
818 4 2 7 7 130 162 131 128
819 4 2 7 7 143 148 114 129
820 4 2 7 7 148 114 105 142
821 4 2 7 7 114 149 106 142
822 4 2 7 7 142 144 106 130
823 4 2 7 7 144 96 130 132
824 4 2 7 7 130 163 132 131
825 4 2 7 7 132 164 133 131
826 4 2 7 7 143 165 134 114
827 4 2 7 7 134 149 115 114
828 4 2 7 7 149 115 106 144
829 4 2 7 7 115 150 108 144
830 4 2 7 7 144 145 108 132
831 4 2 7 7 145 98 132 135
832 4 2 7 7 132 166 135 133
833 4 2 7 7 135 167 136 133
834 4 2 7 7 134 168 138 115
835 4 2 7 7 138 150 121 115
836 4 2 7 7 150 121 108 145
837 4 2 7 7 121 156 110 145
838 4 2 7 7 145 147 110 135
839 4 2 7 7 147 103 135 140
840 4 2 7 7 135 169 140 136
841 4 2 7 7 117 152 151 118
842 4 2 7 7 137 152 117 119
843 4 2 7 7 152 118 119 153
844 4 2 7 7 119 154 153 120
845 4 2 7 7 146 137 102 139
846 4 2 7 7 137 170 119 139
847 4 2 7 7 139 154 119 122
848 4 2 7 7 154 120 122 155
849 4 2 7 7 122 157 155 123
850 4 2 7 7 138 171 146 121
851 4 2 7 7 146 156 139 121
852 4 2 7 7 156 139 110 147
853 4 2 7 7 139 172 122 147
854 4 2 7 7 147 157 122 140
855 4 2 7 7 125 159 126 158
856 4 2 7 7 141 159 127 125
857 4 2 7 7 159 127 126 160
858 4 2 7 7 127 161 128 160
859 4 2 7 7 148 105 141 142
860 4 2 7 7 141 173 142 127
861 4 2 7 7 142 161 130 127
862 4 2 7 7 161 130 128 162
863 4 2 7 7 130 163 131 162
864 4 2 7 7 143 165 114 148
865 4 2 7 7 148 149 114 142
866 4 2 7 7 149 106 142 144
867 4 2 7 7 142 174 144 130
868 4 2 7 7 144 163 132 130
869 4 2 7 7 163 132 131 164
870 4 2 7 7 132 166 133 164
871 4 2 7 7 165 134 114 149
872 4 2 7 7 134 168 115 149
873 4 2 7 7 149 150 115 144
874 4 2 7 7 150 108 144 145
875 4 2 7 7 144 175 145 132
876 4 2 7 7 145 166 135 132
877 4 2 7 7 166 135 133 167
878 4 2 7 7 135 169 136 167
879 4 2 7 7 168 138 115 150
880 4 2 7 7 138 171 121 150
881 4 2 7 7 150 156 121 145
882 4 2 7 7 156 110 145 147
883 4 2 7 7 145 176 147 135
884 4 2 7 7 147 169 140 135
885 4 2 7 7 152 151 118 153
886 4 2 7 7 137 170 152 119
887 4 2 7 7 152 154 153 119
888 4 2 7 7 154 153 120 155
889 4 2 7 7 146 170 137 139
890 4 2 7 7 170 119 139 154
891 4 2 7 7 139 172 154 122
892 4 2 7 7 154 157 155 122
893 4 2 7 7 171 146 121 156
894 4 2 7 7 146 177 139 156
895 4 2 7 7 156 172 139 147
896 4 2 7 7 172 122 147 157
897 4 2 7 7 147 178 157 140
898 4 2 7 7 159 126 158 160
899 4 2 7 7 141 173 127 159
900 4 2 7 7 159 161 127 160
901 4 2 7 7 161 128 160 162
902 4 2 7 7 148 173 142 141
903 4 2 7 7 173 142 127 161
904 4 2 7 7 142 174 130 161
905 4 2 7 7 161 163 130 162
906 4 2 7 7 163 131 162 164
907 4 2 7 7 165 114 148 149
908 4 2 7 7 148 179 149 142
909 4 2 7 7 149 174 144 142
910 4 2 7 7 174 144 130 163
911 4 2 7 7 144 175 132 163
912 4 2 7 7 163 166 132 164
913 4 2 7 7 166 133 164 167
914 4 2 7 7 165 168 134 149
915 4 2 7 7 168 115 149 150
916 4 2 7 7 149 180 150 144
917 4 2 7 7 150 175 145 144
918 4 2 7 7 175 145 132 166
919 4 2 7 7 145 176 135 166
920 4 2 7 7 166 169 135 167
921 4 2 7 7 168 171 138 150
922 4 2 7 7 171 121 150 156
923 4 2 7 7 150 181 156 145
924 4 2 7 7 156 176 147 145
925 4 2 7 7 176 147 135 169
926 4 2 7 7 147 178 140 169
927 4 2 7 7 152 182 151 153
928 4 2 7 7 170 152 119 154
929 4 2 7 7 152 183 153 154
930 4 2 7 7 154 184 153 155
931 4 2 7 7 146 177 170 139
932 4 2 7 7 170 172 154 139
933 4 2 7 7 172 154 122 157
934 4 2 7 7 154 185 155 157
935 4 2 7 7 171 177 146 156
936 4 2 7 7 177 139 156 172
937 4 2 7 7 156 186 172 147
938 4 2 7 7 172 178 157 147
939 4 2 7 7 159 187 160 158
940 4 2 7 7 173 127 159 161
941 4 2 7 7 159 188 161 160
942 4 2 7 7 161 189 162 160
943 4 2 7 7 148 179 142 173
944 4 2 7 7 173 174 142 161
945 4 2 7 7 174 130 161 163
946 4 2 7 7 161 190 163 162
947 4 2 7 7 163 191 164 162
948 4 2 7 7 165 179 149 148
949 4 2 7 7 179 149 142 174
950 4 2 7 7 149 180 144 174
951 4 2 7 7 174 175 144 163
952 4 2 7 7 175 132 163 166
953 4 2 7 7 163 192 166 164
954 4 2 7 7 166 193 167 164
955 4 2 7 7 165 194 168 149
956 4 2 7 7 168 180 150 149
957 4 2 7 7 180 150 144 175
958 4 2 7 7 150 181 145 175
959 4 2 7 7 175 176 145 166
960 4 2 7 7 176 135 166 169
961 4 2 7 7 166 195 169 167
962 4 2 7 7 168 196 171 150
963 4 2 7 7 171 181 156 150
964 4 2 7 7 181 156 145 176
965 4 2 7 7 156 186 147 176
966 4 2 7 7 176 178 147 169
967 4 2 7 7 152 183 182 153
968 4 2 7 7 170 183 152 154
969 4 2 7 7 183 153 154 184
970 4 2 7 7 154 185 184 155
971 4 2 7 7 177 170 139 172
972 4 2 7 7 170 197 154 172
973 4 2 7 7 172 185 154 157
974 4 2 7 7 171 198 177 156
975 4 2 7 7 177 186 172 156
976 4 2 7 7 186 172 147 178
977 4 2 7 7 172 199 157 178
978 4 2 7 7 159 188 160 187
979 4 2 7 7 173 188 161 159
980 4 2 7 7 188 161 160 189
981 4 2 7 7 161 190 162 189
982 4 2 7 7 179 142 173 174
983 4 2 7 7 173 200 174 161
984 4 2 7 7 174 190 163 161
985 4 2 7 7 190 163 162 191
986 4 2 7 7 163 192 164 191
987 4 2 7 7 165 194 149 179
988 4 2 7 7 179 180 149 174
989 4 2 7 7 180 144 174 175
990 4 2 7 7 174 201 175 163
991 4 2 7 7 175 192 166 163
992 4 2 7 7 192 166 164 193
993 4 2 7 7 166 195 167 193
994 4 2 7 7 194 168 149 180
995 4 2 7 7 168 196 150 180
996 4 2 7 7 180 181 150 175
997 4 2 7 7 181 145 175 176
998 4 2 7 7 175 202 176 166
999 4 2 7 7 176 195 169 166
1000 4 2 7 7 196 171 150 181
1001 4 2 7 7 171 198 156 181
1002 4 2 7 7 181 186 156 176
1003 4 2 7 7 186 147 176 178
1004 4 2 7 7 176 203 178 169
1005 4 2 7 7 183 182 153 184
1006 4 2 7 7 170 197 183 154
1007 4 2 7 7 183 185 184 154
1008 4 2 7 7 177 197 170 172
1009 4 2 7 7 197 154 172 185
1010 4 2 7 7 172 199 185 157
1011 4 2 7 7 198 177 156 186
1012 4 2 7 7 177 204 172 186
1013 4 2 7 7 186 199 172 178
1014 4 2 7 7 188 160 187 189
1015 4 2 7 7 173 200 161 188
1016 4 2 7 7 188 190 161 189
1017 4 2 7 7 190 162 189 191
1018 4 2 7 7 179 200 174 173
1019 4 2 7 7 200 174 161 190
1020 4 2 7 7 174 201 163 190
1021 4 2 7 7 190 192 163 191
1022 4 2 7 7 192 164 191 193
1023 4 2 7 7 194 149 179 180
1024 4 2 7 7 179 205 180 174
1025 4 2 7 7 180 201 175 174
1026 4 2 7 7 201 175 163 192
1027 4 2 7 7 175 202 166 192
1028 4 2 7 7 192 195 166 193
1029 4 2 7 7 194 196 168 180
1030 4 2 7 7 196 150 180 181
1031 4 2 7 7 180 206 181 175
1032 4 2 7 7 181 202 176 175
1033 4 2 7 7 202 176 166 195
1034 4 2 7 7 176 203 169 195
1035 4 2 7 7 196 198 171 181
1036 4 2 7 7 198 156 181 186
1037 4 2 7 7 181 207 186 176
1038 4 2 7 7 186 203 178 176
1039 4 2 7 7 183 208 182 184
1040 4 2 7 7 197 183 154 185
1041 4 2 7 7 183 209 184 185
1042 4 2 7 7 177 204 197 172
1043 4 2 7 7 197 199 185 172
1044 4 2 7 7 198 204 177 186
1045 4 2 7 7 204 172 186 199
1046 4 2 7 7 186 210 199 178
1047 4 2 7 7 188 211 189 187
1048 4 2 7 7 200 161 188 190
1049 4 2 7 7 188 212 190 189
1050 4 2 7 7 190 213 191 189
1051 4 2 7 7 179 205 174 200
1052 4 2 7 7 200 201 174 190
1053 4 2 7 7 201 163 190 192
1054 4 2 7 7 190 214 192 191
1055 4 2 7 7 192 215 193 191
1056 4 2 7 7 194 205 180 179
1057 4 2 7 7 205 180 174 201
1058 4 2 7 7 180 206 175 201
1059 4 2 7 7 201 202 175 192
1060 4 2 7 7 202 166 192 195
1061 4 2 7 7 192 216 195 193
1062 4 2 7 7 194 217 196 180
1063 4 2 7 7 196 206 181 180
1064 4 2 7 7 206 181 175 202
1065 4 2 7 7 181 207 176 202
1066 4 2 7 7 202 203 176 195
1067 4 2 7 7 196 218 198 181
1068 4 2 7 7 198 207 186 181
1069 4 2 7 7 207 186 176 203
1070 4 2 7 7 186 210 178 203
1071 4 2 7 7 183 209 208 184
1072 4 2 7 7 197 209 183 185
1073 4 2 7 7 204 197 172 199
1074 4 2 7 7 197 219 185 199
1075 4 2 7 7 198 220 204 186
1076 4 2 7 7 204 210 199 186
1077 4 2 7 7 188 212 189 211
1078 4 2 7 7 200 212 190 188
1079 4 2 7 7 212 190 189 213
1080 4 2 7 7 190 214 191 213
1081 4 2 7 7 205 174 200 201
1082 4 2 7 7 200 221 201 190
1083 4 2 7 7 201 214 192 190
1084 4 2 7 7 214 192 191 215
1085 4 2 7 7 192 216 193 215
1086 4 2 7 7 194 217 180 205
1087 4 2 7 7 205 206 180 201
1088 4 2 7 7 206 175 201 202
1089 4 2 7 7 201 222 202 192
1090 4 2 7 7 202 216 195 192
1091 4 2 7 7 217 196 180 206
1092 4 2 7 7 196 218 181 206
1093 4 2 7 7 206 207 181 202
1094 4 2 7 7 207 176 202 203
1095 4 2 7 7 202 223 203 195
1096 4 2 7 7 218 198 181 207
1097 4 2 7 7 198 220 186 207
1098 4 2 7 7 207 210 186 203
1099 4 2 7 7 197 219 209 185
1100 4 2 7 7 204 219 197 199
1101 4 2 7 7 220 204 186 210
1102 4 2 7 7 204 224 199 210
1103 4 2 7 7 212 189 211 213
1104 4 2 7 7 200 221 190 212
1105 4 2 7 7 212 214 190 213
1106 4 2 7 7 214 191 213 215
1107 4 2 7 7 205 221 201 200
1108 4 2 7 7 221 201 190 214
1109 4 2 7 7 201 222 192 214
1110 4 2 7 7 214 216 192 215
1111 4 2 7 7 217 180 205 206
1112 4 2 7 7 205 225 206 201
1113 4 2 7 7 206 222 202 201
1114 4 2 7 7 222 202 192 216
1115 4 2 7 7 202 223 195 216
1116 4 2 7 7 217 218 196 206
1117 4 2 7 7 218 181 206 207
1118 4 2 7 7 206 226 207 202
1119 4 2 7 7 207 223 203 202
1120 4 2 7 7 218 220 198 207
1121 4 2 7 7 220 186 207 210
1122 4 2 7 7 207 227 210 203
1123 4 2 7 7 204 224 219 199
1124 4 2 7 7 220 224 204 210
1125 4 2 7 7 212 228 213 211
1126 4 2 7 7 221 190 212 214
1127 4 2 7 7 212 229 214 213
1128 4 2 7 7 214 230 215 213
1129 4 2 7 7 205 225 201 221
1130 4 2 7 7 221 222 201 214
1131 4 2 7 7 222 192 214 216
1132 4 2 7 7 214 231 216 215
1133 4 2 7 7 217 225 206 205
1134 4 2 7 7 225 206 201 222
1135 4 2 7 7 206 226 202 222
1136 4 2 7 7 222 223 202 216
1137 4 2 7 7 217 232 218 206
1138 4 2 7 7 218 226 207 206
1139 4 2 7 7 226 207 202 223
1140 4 2 7 7 207 227 203 223
1141 4 2 7 7 218 233 220 207
1142 4 2 7 7 220 227 210 207
1143 4 2 7 7 220 234 224 210
1144 4 2 7 7 212 229 213 228
1145 4 2 7 7 221 229 214 212
1146 4 2 7 7 229 214 213 230
1147 4 2 7 7 214 231 215 230
1148 4 2 7 7 225 201 221 222
1149 4 2 7 7 221 235 222 214
1150 4 2 7 7 222 231 216 214
1151 4 2 7 7 217 232 206 225
1152 4 2 7 7 225 226 206 222
1153 4 2 7 7 226 202 222 223
1154 4 2 7 7 222 236 223 216
1155 4 2 7 7 232 218 206 226
1156 4 2 7 7 218 233 207 226
1157 4 2 7 7 226 227 207 223
1158 4 2 7 7 233 220 207 227
1159 4 2 7 7 220 234 210 227
1160 4 2 7 7 229 213 228 230
1161 4 2 7 7 221 235 214 229
1162 4 2 7 7 229 231 214 230
1163 4 2 7 7 225 235 222 221
1164 4 2 7 7 235 222 214 231
1165 4 2 7 7 222 236 216 231
1166 4 2 7 7 232 206 225 226
1167 4 2 7 7 225 237 226 222
1168 4 2 7 7 226 236 223 222
1169 4 2 7 7 232 233 218 226
1170 4 2 7 7 233 207 226 227
1171 4 2 7 7 226 238 227 223
1172 4 2 7 7 233 234 220 227
1173 4 2 7 7 229 239 230 228
1174 4 2 7 7 235 214 229 231
1175 4 2 7 7 229 240 231 230
1176 4 2 7 7 225 237 222 235
1177 4 2 7 7 235 236 222 231
1178 4 2 7 7 232 237 226 225
1179 4 2 7 7 237 226 222 236
1180 4 2 7 7 226 238 223 236
1181 4 2 7 7 232 241 233 226
1182 4 2 7 7 233 238 227 226
1183 4 2 7 7 233 242 234 227
1184 4 2 7 7 229 240 230 239
1185 4 2 7 7 235 240 231 229
1186 4 2 7 7 237 222 235 236
1187 4 2 7 7 235 243 236 231
1188 4 2 7 7 232 241 226 237
1189 4 2 7 7 237 238 226 236
1190 4 2 7 7 241 233 226 238
1191 4 2 7 7 233 242 227 238
1192 4 2 7 7 235 243 231 240
1193 4 2 7 7 237 243 236 235
1194 4 2 7 7 241 226 237 238
1195 4 2 7 7 237 244 238 236
1196 4 2 7 7 241 242 233 238
1197 4 2 7 7 237 244 236 243
1198 4 2 7 7 241 244 238 237
1199 4 2 7 7 241 245 242 238
1200 4 2 7 7 241 245 238 244
$EndElements
