$MeshFormat
2.2 0 8
$EndMeshFormat
$PhysicalNames
7
2 1 "bottom"
2 2 "front"
2 3 "right"
2 4 "back"
2 5 "left"
2 6 "top"
3 1 "domain"
$EndPhysicalNames
$Nodes
405
1 0 0 0
2 1 0 0
3 1 1 0
4 0 1 0
5 0 0 1
6 1 0 1
7 1 1 1
8 0 1 1
9 0.1249999999997731 0 0
10 0.2499999999994109 0 0
11 0.3749999999990461 0 0
12 0.4999999999986921 0 0
13 0.6249999999990109 0 0
14 0.7499999999993406 0 0
15 0.8749999999996703 0 0
16 1 0.1249999999997731 0
17 1 0.2499999999994109 0
18 1 0.3749999999990461 0
19 1 0.4999999999986921 0
20 1 0.6249999999990109 0
21 1 0.7499999999993406 0
22 1 0.8749999999996703 0
23 0.8749999999995012 1 0
24 0.7500000000003471 1 0
25 0.625000000001214 1 0
26 0.5000000000020595 1 0
27 0.3750000000015609 1 0
28 0.2500000000010405 1 0
29 0.1250000000005203 1 0
30 0 0.8749999999995012 0
31 0 0.7500000000003471 0
32 0 0.625000000001214 0
33 0 0.5000000000020595 0
34 0 0.3750000000015609 0
35 0 0.2500000000010405 0
36 0 0.1250000000005203 0
37 0.1249999999997731 0 1
38 0.2499999999994109 0 1
39 0.3749999999990461 0 1
40 0.4999999999986921 0 1
41 0.6249999999990109 0 1
42 0.7499999999993406 0 1
43 0.8749999999996703 0 1
44 1 0.1249999999997731 1
45 1 0.2499999999994109 1
46 1 0.3749999999990461 1
47 1 0.4999999999986921 1
48 1 0.6249999999990109 1
49 1 0.7499999999993406 1
50 1 0.8749999999996703 1
51 0.8749999999995012 1 1
52 0.7500000000003471 1 1
53 0.625000000001214 1 1
54 0.5000000000020595 1 1
55 0.3750000000015609 1 1
56 0.2500000000010405 1 1
57 0.1250000000005203 1 1
58 0 0.8749999999995012 1
59 0 0.7500000000003471 1
60 0 0.625000000001214 1
61 0 0.5000000000020595 1
62 0 0.3750000000015609 1
63 0 0.2500000000010405 1
64 0 0.1250000000005203 1
65 0 0 0.25
66 0 0 0.5
67 0 0 0.75
68 1 0 0.25
69 1 0 0.5
70 1 0 0.75
71 1 1 0.25
72 1 1 0.5
73 1 1 0.75
74 0 1 0.25
75 0 1 0.5
76 0 1 0.75
77 0.1249999999998665 0.1250000000004269 0
78 0.1249999999999599 0.2500000000008368 0
79 0.1250000000000533 0.3750000000012465 0
80 0.1250000000001467 0.5000000000016386 0
81 0.1250000000002401 0.6250000000009387 0
82 0.1250000000003335 0.7500000000002212 0
83 0.1250000000004269 0.8749999999995224 0
84 0.2499999999996146 0.1250000000003335 0
85 0.2499999999998184 0.2500000000006332 0
86 0.250000000000022 0.3750000000009323 0
87 0.2500000000002257 0.5000000000012176 0
88 0.2500000000004294 0.6250000000006634 0
89 0.2500000000006332 0.7500000000000955 0
90 0.2500000000008368 0.8749999999995434 0
91 0.3749999999993605 0.1250000000002401 0
92 0.3749999999996748 0.2500000000004294 0
93 0.3749999999999891 0.3750000000006178 0
94 0.3750000000003035 0.5000000000007966 0
95 0.3750000000006179 0.6250000000003878 0
96 0.3750000000009322 0.7499999999999696 0
97 0.3750000000012465 0.8749999999995648 0
98 0.4999999999991129 0.1250000000001467 0
99 0.4999999999995339 0.2500000000002257 0
100 0.4999999999999548 0.3750000000003034 0
101 0.5000000000003758 0.5000000000003758 0
102 0.5000000000007968 0.6250000000001125 0
103 0.5000000000012176 0.7499999999998439 0
104 0.5000000000016386 0.8749999999995856 0
105 0.6249999999992862 0.1250000000000533 0
106 0.6249999999995616 0.2500000000000221 0
107 0.6249999999998369 0.3749999999999892 0
108 0.6250000000001125 0.4999999999999548 0
109 0.6250000000003878 0.6249999999998369 0
110 0.6250000000006631 0.749999999999718 0
111 0.6250000000009388 0.874999999999607 0
112 0.7499999999994666 0.1249999999999599 0
113 0.7499999999995923 0.2499999999998184 0
114 0.749999999999718 0.3749999999996748 0
115 0.7499999999998439 0.4999999999995339 0
116 0.7499999999999698 0.6249999999995616 0
117 0.7500000000000955 0.7499999999995921 0
118 0.7500000000002214 0.8749999999996279 0
119 0.8749999999996489 0.1249999999998665 0
120 0.8749999999996282 0.2499999999996146 0
121 0.874999999999607 0.3749999999993605 0
122 0.8749999999995858 0.499999999999113 0
123 0.8749999999995646 0.6249999999992863 0
124 0.8749999999995433 0.7499999999994664 0
125 0.8749999999995223 0.8749999999996491 0
126 0.1249999999997731 0 0.25
127 0.1249999999997731 0 0.5
128 0.1249999999997731 0 0.75
129 0.2499999999994109 0 0.25
130 0.2499999999994109 0 0.5
131 0.2499999999994109 0 0.75
132 0.3749999999990461 0 0.25
133 0.3749999999990461 0 0.5
134 0.3749999999990461 0 0.75
135 0.4999999999986921 0 0.25
136 0.4999999999986921 0 0.5
137 0.4999999999986921 0 0.75
138 0.6249999999990109 0 0.25
139 0.6249999999990109 0 0.5
140 0.6249999999990109 0 0.75
141 0.7499999999993406 0 0.25
142 0.7499999999993406 0 0.5
143 0.7499999999993406 0 0.75
144 0.8749999999996703 0 0.25
145 0.8749999999996703 0 0.5
146 0.8749999999996703 0 0.75
147 1 0.1249999999997731 0.25
148 1 0.1249999999997731 0.5
149 1 0.1249999999997731 0.75
150 1 0.2499999999994109 0.25
151 1 0.2499999999994109 0.5
152 1 0.2499999999994109 0.75
153 1 0.3749999999990461 0.25
154 1 0.3749999999990461 0.5
155 1 0.3749999999990461 0.75
156 1 0.4999999999986921 0.25
157 1 0.4999999999986921 0.5
158 1 0.4999999999986921 0.75
159 1 0.6249999999990109 0.25
160 1 0.6249999999990109 0.5
161 1 0.6249999999990109 0.75
162 1 0.7499999999993406 0.25
163 1 0.7499999999993406 0.5
164 1 0.7499999999993406 0.75
165 1 0.8749999999996703 0.25
166 1 0.8749999999996703 0.5
167 1 0.8749999999996703 0.75
168 0.8749999999995012 1 0.25
169 0.8749999999995012 1 0.5
170 0.8749999999995012 1 0.75
171 0.7500000000003471 1 0.25
172 0.7500000000003471 1 0.5
173 0.7500000000003471 1 0.75
174 0.625000000001214 1 0.25
175 0.625000000001214 1 0.5
176 0.625000000001214 1 0.75
177 0.5000000000020595 1 0.25
178 0.5000000000020595 1 0.5
179 0.5000000000020595 1 0.75
180 0.3750000000015609 1 0.25
181 0.3750000000015609 1 0.5
182 0.3750000000015609 1 0.75
183 0.2500000000010405 1 0.25
184 0.2500000000010405 1 0.5
185 0.2500000000010405 1 0.75
186 0.1250000000005203 1 0.25
187 0.1250000000005203 1 0.5
188 0.1250000000005203 1 0.75
189 0 0.8749999999995012 0.25
190 0 0.8749999999995012 0.5
191 0 0.8749999999995012 0.75
192 0 0.7500000000003471 0.25
193 0 0.7500000000003471 0.5
194 0 0.7500000000003471 0.75
195 0 0.625000000001214 0.25
196 0 0.625000000001214 0.5
197 0 0.625000000001214 0.75
198 0 0.5000000000020595 0.25
199 0 0.5000000000020595 0.5
200 0 0.5000000000020595 0.75
201 0 0.3750000000015609 0.25
202 0 0.3750000000015609 0.5
203 0 0.3750000000015609 0.75
204 0 0.2500000000010405 0.25
205 0 0.2500000000010405 0.5
206 0 0.2500000000010405 0.75
207 0 0.1250000000005203 0.25
208 0 0.1250000000005203 0.5
209 0 0.1250000000005203 0.75
210 0.1249999999998665 0.1250000000004269 1
211 0.1249999999999599 0.2500000000008368 1
212 0.1250000000000533 0.3750000000012465 1
213 0.1250000000001467 0.5000000000016386 1
214 0.1250000000002401 0.6250000000009387 1
215 0.1250000000003335 0.7500000000002212 1
216 0.1250000000004269 0.8749999999995224 1
217 0.2499999999996146 0.1250000000003335 1
218 0.2499999999998184 0.2500000000006332 1
219 0.250000000000022 0.3750000000009323 1
220 0.2500000000002257 0.5000000000012176 1
221 0.2500000000004294 0.6250000000006634 1
222 0.2500000000006332 0.7500000000000955 1
223 0.2500000000008368 0.8749999999995434 1
224 0.3749999999993605 0.1250000000002401 1
225 0.3749999999996748 0.2500000000004294 1
226 0.3749999999999891 0.3750000000006178 1
227 0.3750000000003035 0.5000000000007966 1
228 0.3750000000006179 0.6250000000003878 1
229 0.3750000000009322 0.7499999999999696 1
230 0.3750000000012465 0.8749999999995648 1
231 0.4999999999991129 0.1250000000001467 1
232 0.4999999999995339 0.2500000000002257 1
233 0.4999999999999548 0.3750000000003034 1
234 0.5000000000003758 0.5000000000003758 1
235 0.5000000000007968 0.6250000000001125 1
236 0.5000000000012176 0.7499999999998439 1
237 0.5000000000016386 0.8749999999995856 1
238 0.6249999999992862 0.1250000000000533 1
239 0.6249999999995616 0.2500000000000221 1
240 0.6249999999998369 0.3749999999999892 1
241 0.6250000000001125 0.4999999999999548 1
242 0.6250000000003878 0.6249999999998369 1
243 0.6250000000006631 0.749999999999718 1
244 0.6250000000009388 0.874999999999607 1
245 0.7499999999994666 0.1249999999999599 1
246 0.7499999999995923 0.2499999999998184 1
247 0.749999999999718 0.3749999999996748 1
248 0.7499999999998439 0.4999999999995339 1
249 0.7499999999999698 0.6249999999995616 1
250 0.7500000000000955 0.7499999999995921 1
251 0.7500000000002214 0.8749999999996279 1
252 0.8749999999996489 0.1249999999998665 1
253 0.8749999999996282 0.2499999999996146 1
254 0.874999999999607 0.3749999999993605 1
255 0.8749999999995858 0.499999999999113 1
256 0.8749999999995646 0.6249999999992863 1
257 0.8749999999995433 0.7499999999994664 1
258 0.8749999999995223 0.8749999999996491 1
259 0.1249999999998665 0.1250000000004269 0.25
260 0.1249999999998665 0.1250000000004269 0.5
261 0.1249999999998665 0.1250000000004269 0.75
262 0.1249999999999599 0.2500000000008368 0.25
263 0.1249999999999599 0.2500000000008368 0.5
264 0.1249999999999599 0.2500000000008368 0.75
265 0.1250000000000533 0.3750000000012465 0.25
266 0.1250000000000533 0.3750000000012465 0.5
267 0.1250000000000533 0.3750000000012465 0.75
268 0.1250000000001467 0.5000000000016386 0.25
269 0.1250000000001467 0.5000000000016386 0.5
270 0.1250000000001467 0.5000000000016386 0.75
271 0.1250000000002401 0.6250000000009387 0.25
272 0.1250000000002401 0.6250000000009387 0.5
273 0.1250000000002401 0.6250000000009387 0.75
274 0.1250000000003335 0.7500000000002212 0.25
275 0.1250000000003335 0.7500000000002212 0.5
276 0.1250000000003335 0.7500000000002212 0.75
277 0.1250000000004269 0.8749999999995224 0.25
278 0.1250000000004269 0.8749999999995224 0.5
279 0.1250000000004269 0.8749999999995224 0.75
280 0.2499999999996146 0.1250000000003335 0.25
281 0.2499999999996146 0.1250000000003335 0.5
282 0.2499999999996146 0.1250000000003335 0.75
283 0.2499999999998184 0.2500000000006332 0.25
284 0.2499999999998184 0.2500000000006332 0.5
285 0.2499999999998184 0.2500000000006332 0.75
286 0.250000000000022 0.3750000000009323 0.25
287 0.250000000000022 0.3750000000009323 0.5
288 0.250000000000022 0.3750000000009323 0.75
289 0.2500000000002257 0.5000000000012176 0.25
290 0.2500000000002257 0.5000000000012176 0.5
291 0.2500000000002257 0.5000000000012176 0.75
292 0.2500000000004294 0.6250000000006634 0.25
293 0.2500000000004294 0.6250000000006634 0.5
294 0.2500000000004294 0.6250000000006634 0.75
295 0.2500000000006332 0.7500000000000955 0.25
296 0.2500000000006332 0.7500000000000955 0.5
297 0.2500000000006332 0.7500000000000955 0.75
298 0.2500000000008368 0.8749999999995434 0.25
299 0.2500000000008368 0.8749999999995434 0.5
300 0.2500000000008368 0.8749999999995434 0.75
301 0.3749999999993605 0.1250000000002401 0.25
302 0.3749999999993605 0.1250000000002401 0.5
303 0.3749999999993605 0.1250000000002401 0.75
304 0.3749999999996748 0.2500000000004294 0.25
305 0.3749999999996748 0.2500000000004294 0.5
306 0.3749999999996748 0.2500000000004294 0.75
307 0.3749999999999891 0.3750000000006178 0.25
308 0.3749999999999891 0.3750000000006178 0.5
309 0.3749999999999891 0.3750000000006178 0.75
310 0.3750000000003035 0.5000000000007966 0.25
311 0.3750000000003035 0.5000000000007966 0.5
312 0.3750000000003035 0.5000000000007966 0.75
313 0.3750000000006179 0.6250000000003878 0.25
314 0.3750000000006179 0.6250000000003878 0.5
315 0.3750000000006179 0.6250000000003878 0.75
316 0.3750000000009322 0.7499999999999696 0.25
317 0.3750000000009322 0.7499999999999696 0.5
318 0.3750000000009322 0.7499999999999696 0.75
319 0.3750000000012465 0.8749999999995648 0.25
320 0.3750000000012465 0.8749999999995648 0.5
321 0.3750000000012465 0.8749999999995648 0.75
322 0.4999999999991129 0.1250000000001467 0.25
323 0.4999999999991129 0.1250000000001467 0.5
324 0.4999999999991129 0.1250000000001467 0.75
325 0.4999999999995339 0.2500000000002257 0.25
326 0.4999999999995339 0.2500000000002257 0.5
327 0.4999999999995339 0.2500000000002257 0.75
328 0.4999999999999548 0.3750000000003034 0.25
329 0.4999999999999548 0.3750000000003034 0.5
330 0.4999999999999548 0.3750000000003034 0.75
331 0.5000000000003758 0.5000000000003758 0.25
332 0.5000000000003758 0.5000000000003758 0.5
333 0.5000000000003758 0.5000000000003758 0.75
334 0.5000000000007968 0.6250000000001125 0.25
335 0.5000000000007968 0.6250000000001125 0.5
336 0.5000000000007968 0.6250000000001125 0.75
337 0.5000000000012176 0.7499999999998439 0.25
338 0.5000000000012176 0.7499999999998439 0.5
339 0.5000000000012176 0.7499999999998439 0.75
340 0.5000000000016386 0.8749999999995856 0.25
341 0.5000000000016386 0.8749999999995856 0.5
342 0.5000000000016386 0.8749999999995856 0.75
343 0.6249999999992862 0.1250000000000533 0.25
344 0.6249999999992862 0.1250000000000533 0.5
345 0.6249999999992862 0.1250000000000533 0.75
346 0.6249999999995616 0.2500000000000221 0.25
347 0.6249999999995616 0.2500000000000221 0.5
348 0.6249999999995616 0.2500000000000221 0.75
349 0.6249999999998369 0.3749999999999892 0.25
350 0.6249999999998369 0.3749999999999892 0.5
351 0.6249999999998369 0.3749999999999892 0.75
352 0.6250000000001125 0.4999999999999548 0.25
353 0.6250000000001125 0.4999999999999548 0.5
354 0.6250000000001125 0.4999999999999548 0.75
355 0.6250000000003878 0.6249999999998369 0.25
356 0.6250000000003878 0.6249999999998369 0.5
357 0.6250000000003878 0.6249999999998369 0.75
358 0.6250000000006631 0.749999999999718 0.25
359 0.6250000000006631 0.749999999999718 0.5
360 0.6250000000006631 0.749999999999718 0.75
361 0.6250000000009388 0.874999999999607 0.25
362 0.6250000000009388 0.874999999999607 0.5
363 0.6250000000009388 0.874999999999607 0.75
364 0.7499999999994666 0.1249999999999599 0.25
365 0.7499999999994666 0.1249999999999599 0.5
366 0.7499999999994666 0.1249999999999599 0.75
367 0.7499999999995923 0.2499999999998184 0.25
368 0.7499999999995923 0.2499999999998184 0.5
369 0.7499999999995923 0.2499999999998184 0.75
370 0.749999999999718 0.3749999999996748 0.25
371 0.749999999999718 0.3749999999996748 0.5
372 0.749999999999718 0.3749999999996748 0.75
373 0.7499999999998439 0.4999999999995339 0.25
374 0.7499999999998439 0.4999999999995339 0.5
375 0.7499999999998439 0.4999999999995339 0.75
376 0.7499999999999698 0.6249999999995616 0.25
377 0.7499999999999698 0.6249999999995616 0.5
378 0.7499999999999698 0.6249999999995616 0.75
379 0.7500000000000955 0.7499999999995921 0.25
380 0.7500000000000955 0.7499999999995921 0.5
381 0.7500000000000955 0.7499999999995921 0.75
382 0.7500000000002214 0.8749999999996279 0.25
383 0.7500000000002214 0.8749999999996279 0.5
384 0.7500000000002214 0.8749999999996279 0.75
385 0.8749999999996489 0.1249999999998665 0.25
386 0.8749999999996489 0.1249999999998665 0.5
387 0.8749999999996489 0.1249999999998665 0.75
388 0.8749999999996282 0.2499999999996146 0.25
389 0.8749999999996282 0.2499999999996146 0.5
390 0.8749999999996282 0.2499999999996146 0.75
391 0.874999999999607 0.3749999999993605 0.25
392 0.874999999999607 0.3749999999993605 0.5
393 0.874999999999607 0.3749999999993605 0.75
394 0.8749999999995858 0.499999999999113 0.25
395 0.8749999999995858 0.499999999999113 0.5
396 0.8749999999995858 0.499999999999113 0.75
397 0.8749999999995646 0.6249999999992863 0.25
398 0.8749999999995646 0.6249999999992863 0.5
399 0.8749999999995646 0.6249999999992863 0.75
400 0.8749999999995433 0.7499999999994664 0.25
401 0.8749999999995433 0.7499999999994664 0.5
402 0.8749999999995433 0.7499999999994664 0.75
403 0.8749999999995223 0.8749999999996491 0.25
404 0.8749999999995223 0.8749999999996491 0.5
405 0.8749999999995223 0.8749999999996491 0.75
$EndNodes
$Elements
512
1 3 2 1 1 1 9 77 36
2 3 2 1 1 36 77 78 35
3 3 2 1 1 35 78 79 34
4 3 2 1 1 34 79 80 33
5 3 2 1 1 33 80 81 32
6 3 2 1 1 32 81 82 31
7 3 2 1 1 31 82 83 30
8 3 2 1 1 30 83 29 4
9 3 2 1 1 9 10 84 77
10 3 2 1 1 77 84 85 78
11 3 2 1 1 78 85 86 79
12 3 2 1 1 79 86 87 80
13 3 2 1 1 80 87 88 81
14 3 2 1 1 81 88 89 82
15 3 2 1 1 82 89 90 83
16 3 2 1 1 83 90 28 29
17 3 2 1 1 10 11 91 84
18 3 2 1 1 84 91 92 85
19 3 2 1 1 85 92 93 86
20 3 2 1 1 86 93 94 87
21 3 2 1 1 87 94 95 88
22 3 2 1 1 88 95 96 89
23 3 2 1 1 89 96 97 90
24 3 2 1 1 90 97 27 28
25 3 2 1 1 11 12 98 91
26 3 2 1 1 91 98 99 92
27 3 2 1 1 92 99 100 93
28 3 2 1 1 93 100 101 94
29 3 2 1 1 94 101 102 95
30 3 2 1 1 95 102 103 96
31 3 2 1 1 96 103 104 97
32 3 2 1 1 97 104 26 27
33 3 2 1 1 12 13 105 98
34 3 2 1 1 98 105 106 99
35 3 2 1 1 99 106 107 100
36 3 2 1 1 100 107 108 101
37 3 2 1 1 101 108 109 102
38 3 2 1 1 102 109 110 103
39 3 2 1 1 103 110 111 104
40 3 2 1 1 104 111 25 26
41 3 2 1 1 13 14 112 105
42 3 2 1 1 105 112 113 106
43 3 2 1 1 106 113 114 107
44 3 2 1 1 107 114 115 108
45 3 2 1 1 108 115 116 109
46 3 2 1 1 109 116 117 110
47 3 2 1 1 110 117 118 111
48 3 2 1 1 111 118 24 25
49 3 2 1 1 14 15 119 112
50 3 2 1 1 112 119 120 113
51 3 2 1 1 113 120 121 114
52 3 2 1 1 114 121 122 115
53 3 2 1 1 115 122 123 116
54 3 2 1 1 116 123 124 117
55 3 2 1 1 117 124 125 118
56 3 2 1 1 118 125 23 24
57 3 2 1 1 15 2 16 119
58 3 2 1 1 119 16 17 120
59 3 2 1 1 120 17 18 121
60 3 2 1 1 121 18 19 122
61 3 2 1 1 122 19 20 123
62 3 2 1 1 123 20 21 124
63 3 2 1 1 124 21 22 125
64 3 2 1 1 125 22 3 23
65 3 2 2 13 1 9 126 65
66 3 2 2 13 65 126 127 66
67 3 2 2 13 66 127 128 67
68 3 2 2 13 67 128 37 5
69 3 2 2 13 9 10 129 126
70 3 2 2 13 126 129 130 127
71 3 2 2 13 127 130 131 128
72 3 2 2 13 128 131 38 37
73 3 2 2 13 10 11 132 129
74 3 2 2 13 129 132 133 130
75 3 2 2 13 130 133 134 131
76 3 2 2 13 131 134 39 38
77 3 2 2 13 11 12 135 132
78 3 2 2 13 132 135 136 133
79 3 2 2 13 133 136 137 134
80 3 2 2 13 134 137 40 39
81 3 2 2 13 12 13 138 135
82 3 2 2 13 135 138 139 136
83 3 2 2 13 136 139 140 137
84 3 2 2 13 137 140 41 40
85 3 2 2 13 13 14 141 138
86 3 2 2 13 138 141 142 139
87 3 2 2 13 139 142 143 140
88 3 2 2 13 140 143 42 41
89 3 2 2 13 14 15 144 141
90 3 2 2 13 141 144 145 142
91 3 2 2 13 142 145 146 143
92 3 2 2 13 143 146 43 42
93 3 2 2 13 15 2 68 144
94 3 2 2 13 144 68 69 145
95 3 2 2 13 145 69 70 146
96 3 2 2 13 146 70 6 43
97 3 2 3 17 2 16 147 68
98 3 2 3 17 68 147 148 69
99 3 2 3 17 69 148 149 70
100 3 2 3 17 70 149 44 6
101 3 2 3 17 16 17 150 147
102 3 2 3 17 147 150 151 148
103 3 2 3 17 148 151 152 149
104 3 2 3 17 149 152 45 44
105 3 2 3 17 17 18 153 150
106 3 2 3 17 150 153 154 151
107 3 2 3 17 151 154 155 152
108 3 2 3 17 152 155 46 45
109 3 2 3 17 18 19 156 153
110 3 2 3 17 153 156 157 154
111 3 2 3 17 154 157 158 155
112 3 2 3 17 155 158 47 46
113 3 2 3 17 19 20 159 156
114 3 2 3 17 156 159 160 157
115 3 2 3 17 157 160 161 158
116 3 2 3 17 158 161 48 47
117 3 2 3 17 20 21 162 159
118 3 2 3 17 159 162 163 160
119 3 2 3 17 160 163 164 161
120 3 2 3 17 161 164 49 48
121 3 2 3 17 21 22 165 162
122 3 2 3 17 162 165 166 163
123 3 2 3 17 163 166 167 164
124 3 2 3 17 164 167 50 49
125 3 2 3 17 22 3 71 165
126 3 2 3 17 165 71 72 166
127 3 2 3 17 166 72 73 167
128 3 2 3 17 167 73 7 50
129 3 2 4 21 3 23 168 71
130 3 2 4 21 71 168 169 72
131 3 2 4 21 72 169 170 73
132 3 2 4 21 73 170 51 7
133 3 2 4 21 23 24 171 168
134 3 2 4 21 168 171 172 169
135 3 2 4 21 169 172 173 170
136 3 2 4 21 170 173 52 51
137 3 2 4 21 24 25 174 171
138 3 2 4 21 171 174 175 172
139 3 2 4 21 172 175 176 173
140 3 2 4 21 173 176 53 52
141 3 2 4 21 25 26 177 174
142 3 2 4 21 174 177 178 175
143 3 2 4 21 175 178 179 176
144 3 2 4 21 176 179 54 53
145 3 2 4 21 26 27 180 177
146 3 2 4 21 177 180 181 178
147 3 2 4 21 178 181 182 179
148 3 2 4 21 179 182 55 54
149 3 2 4 21 27 28 183 180
150 3 2 4 21 180 183 184 181
151 3 2 4 21 181 184 185 182
152 3 2 4 21 182 185 56 55
153 3 2 4 21 28 29 186 183
154 3 2 4 21 183 186 187 184
155 3 2 4 21 184 187 188 185
156 3 2 4 21 185 188 57 56
157 3 2 4 21 29 4 74 186
158 3 2 4 21 186 74 75 187
159 3 2 4 21 187 75 76 188
160 3 2 4 21 188 76 8 57
161 3 2 5 25 4 30 189 74
162 3 2 5 25 74 189 190 75
163 3 2 5 25 75 190 191 76
164 3 2 5 25 76 191 58 8
165 3 2 5 25 30 31 192 189
166 3 2 5 25 189 192 193 190
167 3 2 5 25 190 193 194 191
168 3 2 5 25 191 194 59 58
169 3 2 5 25 31 32 195 192
170 3 2 5 25 192 195 196 193
171 3 2 5 25 193 196 197 194
172 3 2 5 25 194 197 60 59
173 3 2 5 25 32 33 198 195
174 3 2 5 25 195 198 199 196
175 3 2 5 25 196 199 200 197
176 3 2 5 25 197 200 61 60
177 3 2 5 25 33 34 201 198
178 3 2 5 25 198 201 202 199
179 3 2 5 25 199 202 203 200
180 3 2 5 25 200 203 62 61
181 3 2 5 25 34 35 204 201
182 3 2 5 25 201 204 205 202
183 3 2 5 25 202 205 206 203
184 3 2 5 25 203 206 63 62
185 3 2 5 25 35 36 207 204
186 3 2 5 25 204 207 208 205
187 3 2 5 25 205 208 209 206
188 3 2 5 25 206 209 64 63
189 3 2 5 25 36 1 65 207
190 3 2 5 25 207 65 66 208
191 3 2 5 25 208 66 67 209
192 3 2 5 25 209 67 5 64
193 3 2 6 26 5 37 210 64
194 3 2 6 26 64 210 211 63
195 3 2 6 26 63 211 212 62
196 3 2 6 26 62 212 213 61
197 3 2 6 26 61 213 214 60
198 3 2 6 26 60 214 215 59
199 3 2 6 26 59 215 216 58
200 3 2 6 26 58 216 57 8
201 3 2 6 26 37 38 217 210
202 3 2 6 26 210 217 218 211
203 3 2 6 26 211 218 219 212
204 3 2 6 26 212 219 220 213
205 3 2 6 26 213 220 221 214
206 3 2 6 26 214 221 222 215
207 3 2 6 26 215 222 223 216
208 3 2 6 26 216 223 56 57
209 3 2 6 26 38 39 224 217
210 3 2 6 26 217 224 225 218
211 3 2 6 26 218 225 226 219
212 3 2 6 26 219 226 227 220
213 3 2 6 26 220 227 228 221
214 3 2 6 26 221 228 229 222
215 3 2 6 26 222 229 230 223
216 3 2 6 26 223 230 55 56
217 3 2 6 26 39 40 231 224
218 3 2 6 26 224 231 232 225
219 3 2 6 26 225 232 233 226
220 3 2 6 26 226 233 234 227
221 3 2 6 26 227 234 235 228
222 3 2 6 26 228 235 236 229
223 3 2 6 26 229 236 237 230
224 3 2 6 26 230 237 54 55
225 3 2 6 26 40 41 238 231
226 3 2 6 26 231 238 239 232
227 3 2 6 26 232 239 240 233
228 3 2 6 26 233 240 241 234
229 3 2 6 26 234 241 242 235
230 3 2 6 26 235 242 243 236
231 3 2 6 26 236 243 244 237
232 3 2 6 26 237 244 53 54
233 3 2 6 26 41 42 245 238
234 3 2 6 26 238 245 246 239
235 3 2 6 26 239 246 247 240
236 3 2 6 26 240 247 248 241
237 3 2 6 26 241 248 249 242
238 3 2 6 26 242 249 250 243
239 3 2 6 26 243 250 251 244
240 3 2 6 26 244 251 52 53
241 3 2 6 26 42 43 252 245
242 3 2 6 26 245 252 253 246
243 3 2 6 26 246 253 254 247
244 3 2 6 26 247 254 255 248
245 3 2 6 26 248 255 256 249
246 3 2 6 26 249 256 257 250
247 3 2 6 26 250 257 258 251
248 3 2 6 26 251 258 51 52
249 3 2 6 26 43 6 44 252
250 3 2 6 26 252 44 45 253
251 3 2 6 26 253 45 46 254
252 3 2 6 26 254 46 47 255
253 3 2 6 26 255 47 48 256
254 3 2 6 26 256 48 49 257
255 3 2 6 26 257 49 50 258
256 3 2 6 26 258 50 7 51
257 5 2 1 1 1 9 77 36 65 126 259 207
258 5 2 1 1 65 126 259 207 66 127 260 208
259 5 2 1 1 66 127 260 208 67 128 261 209
260 5 2 1 1 67 128 261 209 5 37 210 64
261 5 2 1 1 36 77 78 35 207 259 262 204
262 5 2 1 1 207 259 262 204 208 260 263 205
263 5 2 1 1 208 260 263 205 209 261 264 206
264 5 2 1 1 209 261 264 206 64 210 211 63
265 5 2 1 1 35 78 79 34 204 262 265 201
266 5 2 1 1 204 262 265 201 205 263 266 202
267 5 2 1 1 205 263 266 202 206 264 267 203
268 5 2 1 1 206 264 267 203 63 211 212 62
269 5 2 1 1 34 79 80 33 201 265 268 198
270 5 2 1 1 201 265 268 198 202 266 269 199
271 5 2 1 1 202 266 269 199 203 267 270 200
272 5 2 1 1 203 267 270 200 62 212 213 61
273 5 2 1 1 33 80 81 32 198 268 271 195
274 5 2 1 1 198 268 271 195 199 269 272 196
275 5 2 1 1 199 269 272 196 200 270 273 197
276 5 2 1 1 200 270 273 197 61 213 214 60
277 5 2 1 1 32 81 82 31 195 271 274 192
278 5 2 1 1 195 271 274 192 196 272 275 193
279 5 2 1 1 196 272 275 193 197 273 276 194
280 5 2 1 1 197 273 276 194 60 214 215 59
281 5 2 1 1 31 82 83 30 192 274 277 189
282 5 2 1 1 192 274 277 189 193 275 278 190
283 5 2 1 1 193 275 278 190 194 276 279 191
284 5 2 1 1 194 276 279 191 59 215 216 58
285 5 2 1 1 30 83 29 4 189 277 186 74
286 5 2 1 1 189 277 186 74 190 278 187 75
287 5 2 1 1 190 278 187 75 191 279 188 76
288 5 2 1 1 191 279 188 76 58 216 57 8
289 5 2 1 1 9 10 84 77 126 129 280 259
290 5 2 1 1 126 129 280 259 127 130 281 260
291 5 2 1 1 127 130 281 260 128 131 282 261
292 5 2 1 1 128 131 282 261 37 38 217 210
293 5 2 1 1 77 84 85 78 259 280 283 262
294 5 2 1 1 259 280 283 262 260 281 284 263
295 5 2 1 1 260 281 284 263 261 282 285 264
296 5 2 1 1 261 282 285 264 210 217 218 211
297 5 2 1 1 78 85 86 79 262 283 286 265
298 5 2 1 1 262 283 286 265 263 284 287 266
299 5 2 1 1 263 284 287 266 264 285 288 267
300 5 2 1 1 264 285 288 267 211 218 219 212
301 5 2 1 1 79 86 87 80 265 286 289 268
302 5 2 1 1 265 286 289 268 266 287 290 269
303 5 2 1 1 266 287 290 269 267 288 291 270
304 5 2 1 1 267 288 291 270 212 219 220 213
305 5 2 1 1 80 87 88 81 268 289 292 271
306 5 2 1 1 268 289 292 271 269 290 293 272
307 5 2 1 1 269 290 293 272 270 291 294 273
308 5 2 1 1 270 291 294 273 213 220 221 214
309 5 2 1 1 81 88 89 82 271 292 295 274
310 5 2 1 1 271 292 295 274 272 293 296 275
311 5 2 1 1 272 293 296 275 273 294 297 276
312 5 2 1 1 273 294 297 276 214 221 222 215
313 5 2 1 1 82 89 90 83 274 295 298 277
314 5 2 1 1 274 295 298 277 275 296 299 278
315 5 2 1 1 275 296 299 278 276 297 300 279
316 5 2 1 1 276 297 300 279 215 222 223 216
317 5 2 1 1 83 90 28 29 277 298 183 186
318 5 2 1 1 277 298 183 186 278 299 184 187
319 5 2 1 1 278 299 184 187 279 300 185 188
320 5 2 1 1 279 300 185 188 216 223 56 57
321 5 2 1 1 10 11 91 84 129 132 301 280
322 5 2 1 1 129 132 301 280 130 133 302 281
323 5 2 1 1 130 133 302 281 131 134 303 282
324 5 2 1 1 131 134 303 282 38 39 224 217
325 5 2 1 1 84 91 92 85 280 301 304 283
326 5 2 1 1 280 301 304 283 281 302 305 284
327 5 2 1 1 281 302 305 284 282 303 306 285
328 5 2 1 1 282 303 306 285 217 224 225 218
329 5 2 1 1 85 92 93 86 283 304 307 286
330 5 2 1 1 283 304 307 286 284 305 308 287
331 5 2 1 1 284 305 308 287 285 306 309 288
332 5 2 1 1 285 306 309 288 218 225 226 219
333 5 2 1 1 86 93 94 87 286 307 310 289
334 5 2 1 1 286 307 310 289 287 308 311 290
335 5 2 1 1 287 308 311 290 288 309 312 291
336 5 2 1 1 288 309 312 291 219 226 227 220
337 5 2 1 1 87 94 95 88 289 310 313 292
338 5 2 1 1 289 310 313 292 290 311 314 293
339 5 2 1 1 290 311 314 293 291 312 315 294
340 5 2 1 1 291 312 315 294 220 227 228 221
341 5 2 1 1 88 95 96 89 292 313 316 295
342 5 2 1 1 292 313 316 295 293 314 317 296
343 5 2 1 1 293 314 317 296 294 315 318 297
344 5 2 1 1 294 315 318 297 221 228 229 222
345 5 2 1 1 89 96 97 90 295 316 319 298
346 5 2 1 1 295 316 319 298 296 317 320 299
347 5 2 1 1 296 317 320 299 297 318 321 300
348 5 2 1 1 297 318 321 300 222 229 230 223
349 5 2 1 1 90 97 27 28 298 319 180 183
350 5 2 1 1 298 319 180 183 299 320 181 184
351 5 2 1 1 299 320 181 184 300 321 182 185
352 5 2 1 1 300 321 182 185 223 230 55 56
353 5 2 1 1 11 12 98 91 132 135 322 301
354 5 2 1 1 132 135 322 301 133 136 323 302
355 5 2 1 1 133 136 323 302 134 137 324 303
356 5 2 1 1 134 137 324 303 39 40 231 224
357 5 2 1 1 91 98 99 92 301 322 325 304
358 5 2 1 1 301 322 325 304 302 323 326 305
359 5 2 1 1 302 323 326 305 303 324 327 306
360 5 2 1 1 303 324 327 306 224 231 232 225
361 5 2 1 1 92 99 100 93 304 325 328 307
362 5 2 1 1 304 325 328 307 305 326 329 308
363 5 2 1 1 305 326 329 308 306 327 330 309
364 5 2 1 1 306 327 330 309 225 232 233 226
365 5 2 1 1 93 100 101 94 307 328 331 310
366 5 2 1 1 307 328 331 310 308 329 332 311
367 5 2 1 1 308 329 332 311 309 330 333 312
368 5 2 1 1 309 330 333 312 226 233 234 227
369 5 2 1 1 94 101 102 95 310 331 334 313
370 5 2 1 1 310 331 334 313 311 332 335 314
371 5 2 1 1 311 332 335 314 312 333 336 315
372 5 2 1 1 312 333 336 315 227 234 235 228
373 5 2 1 1 95 102 103 96 313 334 337 316
374 5 2 1 1 313 334 337 316 314 335 338 317
375 5 2 1 1 314 335 338 317 315 336 339 318
376 5 2 1 1 315 336 339 318 228 235 236 229
377 5 2 1 1 96 103 104 97 316 337 340 319
378 5 2 1 1 316 337 340 319 317 338 341 320
379 5 2 1 1 317 338 341 320 318 339 342 321
380 5 2 1 1 318 339 342 321 229 236 237 230
381 5 2 1 1 97 104 26 27 319 340 177 180
382 5 2 1 1 319 340 177 180 320 341 178 181
383 5 2 1 1 320 341 178 181 321 342 179 182
384 5 2 1 1 321 342 179 182 230 237 54 55
385 5 2 1 1 12 13 105 98 135 138 343 322
386 5 2 1 1 135 138 343 322 136 139 344 323
387 5 2 1 1 136 139 344 323 137 140 345 324
388 5 2 1 1 137 140 345 324 40 41 238 231
389 5 2 1 1 98 105 106 99 322 343 346 325
390 5 2 1 1 322 343 346 325 323 344 347 326
391 5 2 1 1 323 344 347 326 324 345 348 327
392 5 2 1 1 324 345 348 327 231 238 239 232
393 5 2 1 1 99 106 107 100 325 346 349 328
394 5 2 1 1 325 346 349 328 326 347 350 329
395 5 2 1 1 326 347 350 329 327 348 351 330
396 5 2 1 1 327 348 351 330 232 239 240 233
397 5 2 1 1 100 107 108 101 328 349 352 331
398 5 2 1 1 328 349 352 331 329 350 353 332
399 5 2 1 1 329 350 353 332 330 351 354 333
400 5 2 1 1 330 351 354 333 233 240 241 234
401 5 2 1 1 101 108 109 102 331 352 355 334
402 5 2 1 1 331 352 355 334 332 353 356 335
403 5 2 1 1 332 353 356 335 333 354 357 336
404 5 2 1 1 333 354 357 336 234 241 242 235
405 5 2 1 1 102 109 110 103 334 355 358 337
406 5 2 1 1 334 355 358 337 335 356 359 338
407 5 2 1 1 335 356 359 338 336 357 360 339
408 5 2 1 1 336 357 360 339 235 242 243 236
409 5 2 1 1 103 110 111 104 337 358 361 340
410 5 2 1 1 337 358 361 340 338 359 362 341
411 5 2 1 1 338 359 362 341 339 360 363 342
412 5 2 1 1 339 360 363 342 236 243 244 237
413 5 2 1 1 104 111 25 26 340 361 174 177
414 5 2 1 1 340 361 174 177 341 362 175 178
415 5 2 1 1 341 362 175 178 342 363 176 179
416 5 2 1 1 342 363 176 179 237 244 53 54
417 5 2 1 1 13 14 112 105 138 141 364 343
418 5 2 1 1 138 141 364 343 139 142 365 344
419 5 2 1 1 139 142 365 344 140 143 366 345
420 5 2 1 1 140 143 366 345 41 42 245 238
421 5 2 1 1 105 112 113 106 343 364 367 346
422 5 2 1 1 343 364 367 346 344 365 368 347
423 5 2 1 1 344 365 368 347 345 366 369 348
424 5 2 1 1 345 366 369 348 238 245 246 239
425 5 2 1 1 106 113 114 107 346 367 370 349
426 5 2 1 1 346 367 370 349 347 368 371 350
427 5 2 1 1 347 368 371 350 348 369 372 351
428 5 2 1 1 348 369 372 351 239 246 247 240
429 5 2 1 1 107 114 115 108 349 370 373 352
430 5 2 1 1 349 370 373 352 350 371 374 353
431 5 2 1 1 350 371 374 353 351 372 375 354
432 5 2 1 1 351 372 375 354 240 247 248 241
433 5 2 1 1 108 115 116 109 352 373 376 355
434 5 2 1 1 352 373 376 355 353 374 377 356
435 5 2 1 1 353 374 377 356 354 375 378 357
436 5 2 1 1 354 375 378 357 241 248 249 242
437 5 2 1 1 109 116 117 110 355 376 379 358
438 5 2 1 1 355 376 379 358 356 377 380 359
439 5 2 1 1 356 377 380 359 357 378 381 360
440 5 2 1 1 357 378 381 360 242 249 250 243
441 5 2 1 1 110 117 118 111 358 379 382 361
442 5 2 1 1 358 379 382 361 359 380 383 362
443 5 2 1 1 359 380 383 362 360 381 384 363
444 5 2 1 1 360 381 384 363 243 250 251 244
445 5 2 1 1 111 118 24 25 361 382 171 174
446 5 2 1 1 361 382 171 174 362 383 172 175
447 5 2 1 1 362 383 172 175 363 384 173 176
448 5 2 1 1 363 384 173 176 244 251 52 53
449 5 2 1 1 14 15 119 112 141 144 385 364
450 5 2 1 1 141 144 385 364 142 145 386 365
451 5 2 1 1 142 145 386 365 143 146 387 366
452 5 2 1 1 143 146 387 366 42 43 252 245
453 5 2 1 1 112 119 120 113 364 385 388 367
454 5 2 1 1 364 385 388 367 365 386 389 368
455 5 2 1 1 365 386 389 368 366 387 390 369
456 5 2 1 1 366 387 390 369 245 252 253 246
457 5 2 1 1 113 120 121 114 367 388 391 370
458 5 2 1 1 367 388 391 370 368 389 392 371
459 5 2 1 1 368 389 392 371 369 390 393 372
460 5 2 1 1 369 390 393 372 246 253 254 247
461 5 2 1 1 114 121 122 115 370 391 394 373
462 5 2 1 1 370 391 394 373 371 392 395 374
463 5 2 1 1 371 392 395 374 372 393 396 375
464 5 2 1 1 372 393 396 375 247 254 255 248
465 5 2 1 1 115 122 123 116 373 394 397 376
466 5 2 1 1 373 394 397 376 374 395 398 377
467 5 2 1 1 374 395 398 377 375 396 399 378
468 5 2 1 1 375 396 399 378 248 255 256 249
469 5 2 1 1 116 123 124 117 376 397 400 379
470 5 2 1 1 376 397 400 379 377 398 401 380
471 5 2 1 1 377 398 401 380 378 399 402 381
472 5 2 1 1 378 399 402 381 249 256 257 250
473 5 2 1 1 117 124 125 118 379 400 403 382
474 5 2 1 1 379 400 403 382 380 401 404 383
475 5 2 1 1 380 401 404 383 381 402 405 384
476 5 2 1 1 381 402 405 384 250 257 258 251
477 5 2 1 1 118 125 23 24 382 403 168 171
478 5 2 1 1 382 403 168 171 383 404 169 172
479 5 2 1 1 383 404 169 172 384 405 170 173
480 5 2 1 1 384 405 170 173 251 258 51 52
481 5 2 1 1 15 2 16 119 144 68 147 385
482 5 2 1 1 144 68 147 385 145 69 148 386
483 5 2 1 1 145 69 148 386 146 70 149 387
484 5 2 1 1 146 70 149 387 43 6 44 252
485 5 2 1 1 119 16 17 120 385 147 150 388
486 5 2 1 1 385 147 150 388 386 148 151 389
487 5 2 1 1 386 148 151 389 387 149 152 390
488 5 2 1 1 387 149 152 390 252 44 45 253
489 5 2 1 1 120 17 18 121 388 150 153 391
490 5 2 1 1 388 150 153 391 389 151 154 392
491 5 2 1 1 389 151 154 392 390 152 155 393
492 5 2 1 1 390 152 155 393 253 45 46 254
493 5 2 1 1 121 18 19 122 391 153 156 394
494 5 2 1 1 391 153 156 394 392 154 157 395
495 5 2 1 1 392 154 157 395 393 155 158 396
496 5 2 1 1 393 155 158 396 254 46 47 255
497 5 2 1 1 122 19 20 123 394 156 159 397
498 5 2 1 1 394 156 159 397 395 157 160 398
499 5 2 1 1 395 157 160 398 396 158 161 399
500 5 2 1 1 396 158 161 399 255 47 48 256
501 5 2 1 1 123 20 21 124 397 159 162 400
502 5 2 1 1 397 159 162 400 398 160 163 401
503 5 2 1 1 398 160 163 401 399 161 164 402
504 5 2 1 1 399 161 164 402 256 48 49 257
505 5 2 1 1 124 21 22 125 400 162 165 403
506 5 2 1 1 400 162 165 403 401 163 166 404
507 5 2 1 1 401 163 166 404 402 164 167 405
508 5 2 1 1 402 164 167 405 257 49 50 258
509 5 2 1 1 125 22 3 23 403 165 71 168
510 5 2 1 1 403 165 71 168 404 166 72 169
511 5 2 1 1 404 166 72 169 405 167 73 170
512 5 2 1 1 405 167 73 170 258 50 7 51
$EndElements
