$MeshFormat
2.2 0 8
$EndMeshFormat
$PhysicalNames
5
1 1 "bottom"
1 2 "outer"
1 3 "top"
1 4 "inner"
2 1 "domain"
$EndPhysicalNames
$Nodes
51
1 1 0 0
2 2 0 0
3 2 0.5 0
4 1 0.5 0
5 1.0625 0 0
6 1.125 0 0
7 1.1875 0 0
8 1.25 0 0
9 1.3125 0 0
10 1.375 0 0
11 1.4375 0 0
12 1.5 0 0
13 1.5625 0 0
14 1.625 0 0
15 1.6875 0 0
16 1.75 0 0
17 1.8125 0 0
18 1.875 0 0
19 1.9375 0 0
20 2 0.2499999999993461 0
21 1.9375 0.5 0
22 1.875 0.5 0
23 1.8125 0.5 0
24 1.75 0.5 0
25 1.6875 0.5 0
26 1.625 0.5 0
27 1.5625 0.5 0
28 1.5 0.5 0
29 1.4375 0.5 0
30 1.375 0.5 0
31 1.3125 0.5 0
32 1.25 0.5 0
33 1.1875 0.5 0
34 1.125 0.5 0
35 1.0625 0.5 0
36 1 0.2500000000010297 0
37 1.0625 0.2500000000009245 0
38 1.125 0.2500000000008193 0
39 1.1875 0.250000000000714 0
40 1.25 0.2500000000006088 0
41 1.3125 0.2500000000005035 0
42 1.375 0.2500000000003983 0
43 1.4375 0.250000000000293 0
44 1.5 0.2500000000001879 0
45 1.5625 0.2500000000000827 0
46 1.625 0.2499999999999774 0
47 1.6875 0.2499999999998723 0
48 1.75 0.249999999999767 0
49 1.8125 0.2499999999996618 0
50 1.875 0.2499999999995565 0
51 1.9375 0.2499999999994513 0
$EndNodes
$Elements
68
1 1 2 1 1 1 5
2 1 2 1 1 5 6
3 1 2 1 1 6 7
4 1 2 1 1 7 8
5 1 2 1 1 8 9
6 1 2 1 1 9 10
7 1 2 1 1 10 11
8 1 2 1 1 11 12
9 1 2 1 1 12 13
10 1 2 1 1 13 14
11 1 2 1 1 14 15
12 1 2 1 1 15 16
13 1 2 1 1 16 17
14 1 2 1 1 17 18
15 1 2 1 1 18 19
16 1 2 1 1 19 2
17 1 2 2 2 2 20
18 1 2 2 2 20 3
19 1 2 3 3 3 21
20 1 2 3 3 21 22
21 1 2 3 3 22 23
22 1 2 3 3 23 24
23 1 2 3 3 24 25
24 1 2 3 3 25 26
25 1 2 3 3 26 27
26 1 2 3 3 27 28
27 1 2 3 3 28 29
28 1 2 3 3 29 30
29 1 2 3 3 30 31
30 1 2 3 3 31 32
31 1 2 3 3 32 33
32 1 2 3 3 33 34
33 1 2 3 3 34 35
34 1 2 3 3 35 4
35 1 2 4 4 4 36
36 1 2 4 4 36 1
37 3 2 1 1 1 5 37 36
38 3 2 1 1 36 37 35 4
39 3 2 1 1 5 6 38 37
40 3 2 1 1 37 38 34 35
41 3 2 1 1 6 7 39 38
42 3 2 1 1 38 39 33 34
43 3 2 1 1 7 8 40 39
44 3 2 1 1 39 40 32 33
45 3 2 1 1 8 9 41 40
46 3 2 1 1 40 41 31 32
47 3 2 1 1 9 10 42 41
48 3 2 1 1 41 42 30 31
49 3 2 1 1 10 11 43 42
50 3 2 1 1 42 43 29 30
51 3 2 1 1 11 12 44 43
52 3 2 1 1 43 44 28 29
53 3 2 1 1 12 13 45 44
54 3 2 1 1 44 45 27 28
55 3 2 1 1 13 14 46 45
56 3 2 1 1 45 46 26 27
57 3 2 1 1 14 15 47 46
58 3 2 1 1 46 47 25 26
59 3 2 1 1 15 16 48 47
60 3 2 1 1 47 48 24 25
61 3 2 1 1 16 17 49 48
62 3 2 1 1 48 49 23 24
63 3 2 1 1 17 18 50 49
64 3 2 1 1 49 50 22 23
65 3 2 1 1 18 19 51 50
66 3 2 1 1 50 51 21 22
67 3 2 1 1 19 2 20 51
68 3 2 1 1 51 20 3 21
$EndElements
