$MeshFormat
2.2 0 8
$EndMeshFormat
$PhysicalNames
5
1 1 "bottom"
1 2 "right"
1 3 "top"
1 4 "left"
2 1 "domain"
$EndPhysicalNames
$Nodes
49
1 0 0 0
2 10 0 0
3 10 10 0
4 0 10 0
5 1.666666666664465 0 0
6 3.333333333326263 0 0
7 4.999999999992399 0 0
8 6.6666666666616 0 0
9 8.333333333330801 0 0
10 10 1.666666666664465 0
11 10 3.333333333326263 0
12 10 4.999999999992399 0
13 10 6.6666666666616 0
14 10 8.333333333330801 0
15 8.33333333333333 10 0
16 6.666666666666663 10 0
17 4.999999999999996 10 0
18 3.333333333333331 10 0
19 1.666666666666666 10 0
20 0 8.33333333333333 0
21 0 6.666666666666663 0
22 0 4.999999999999996 0
23 0 3.333333333333331 0
24 0 1.666666666666666 0
25 1.666666666664832 1.666666666666299 0
26 1.666666666665198 3.333333333332153 0
27 1.666666666665565 4.999999999998731 0
28 1.666666666665932 6.666666666665818 0
29 1.666666666666299 8.333333333332908 0
30 3.333333333327442 1.666666666665932 0
31 3.333333333328619 3.333333333330975 0
32 3.333333333329797 4.999999999997465 0
33 3.333333333330975 6.666666666664975 0
34 3.333333333332153 8.333333333332488 0
35 4.999999999993665 1.666666666665565 0
36 4.999999999994932 3.333333333329797 0
37 4.999999999996198 4.999999999996198 0
38 4.999999999997465 6.666666666664131 0
39 4.999999999998731 8.333333333332064 0
40 6.666666666662443 1.666666666665198 0
41 6.666666666663286 3.333333333328619 0
42 6.666666666664131 4.999999999994932 0
43 6.666666666664975 6.666666666663287 0
44 6.666666666665819 8.333333333331643 0
45 8.33333333333122 1.666666666664831 0
46 8.333333333331643 3.333333333327442 0
47 8.333333333332064 4.999999999993665 0
48 8.333333333332488 6.666666666662444 0
49 8.333333333332908 8.333333333331224 0
$EndNodes
$Elements
60
1 1 2 1 1 1 5
2 1 2 1 1 5 6
3 1 2 1 1 6 7
4 1 2 1 1 7 8
5 1 2 1 1 8 9
6 1 2 1 1 9 2
7 1 2 2 2 2 10
8 1 2 2 2 10 11
9 1 2 2 2 11 12
10 1 2 2 2 12 13
11 1 2 2 2 13 14
12 1 2 2 2 14 3
13 1 2 3 3 3 15
14 1 2 3 3 15 16
15 1 2 3 3 16 17
16 1 2 3 3 17 18
17 1 2 3 3 18 19
18 1 2 3 3 19 4
19 1 2 4 4 4 20
20 1 2 4 4 20 21
21 1 2 4 4 21 22
22 1 2 4 4 22 23
23 1 2 4 4 23 24
24 1 2 4 4 24 1
25 3 2 1 1 1 5 25 24
26 3 2 1 1 24 25 26 23
27 3 2 1 1 23 26 27 22
28 3 2 1 1 22 27 28 21
29 3 2 1 1 21 28 29 20
30 3 2 1 1 20 29 19 4
31 3 2 1 1 5 6 30 25
32 3 2 1 1 25 30 31 26
33 3 2 1 1 26 31 32 27
34 3 2 1 1 27 32 33 28
35 3 2 1 1 28 33 34 29
36 3 2 1 1 29 34 18 19
37 3 2 1 1 6 7 35 30
38 3 2 1 1 30 35 36 31
39 3 2 1 1 31 36 37 32
40 3 2 1 1 32 37 38 33
41 3 2 1 1 33 38 39 34
42 3 2 1 1 34 39 17 18
43 3 2 1 1 7 8 40 35
44 3 2 1 1 35 40 41 36
45 3 2 1 1 36 41 42 37
46 3 2 1 1 37 42 43 38
47 3 2 1 1 38 43 44 39
48 3 2 1 1 39 44 16 17
49 3 2 1 1 8 9 45 40
50 3 2 1 1 40 45 46 41
51 3 2 1 1 41 46 47 42
52 3 2 1 1 42 47 48 43
53 3 2 1 1 43 48 49 44
54 3 2 1 1 44 49 15 16
55 3 2 1 1 9 2 10 45
56 3 2 1 1 45 10 11 46
57 3 2 1 1 46 11 12 47
58 3 2 1 1 47 12 13 48
59 3 2 1 1 48 13 14 49
60 3 2 1 1 49 14 3 15
$EndElements
