$MeshFormat
2.2 0 8
$EndMeshFormat
$PhysicalNames
5
1 1 "bottom"
1 2 "right"
1 3 "top"
1 4 "left"
2 1 "domain"
$EndPhysicalNames
$Nodes
63
1 0 0 0
2 50 0 0
3 50 1 0
4 0 1 0
5 2.499999999989873 0 0
6 4.99999999998078 0 0
7 7.499999999970022 0 0
8 9.999999999957042 0 0
9 12.49999999994406 0 0
10 14.99999999993109 0 0
11 17.49999999992409 0 0
12 19.99999999992 0 0
13 22.49999999991591 0 0
14 24.99999999991182 0 0
15 27.49999999990774 0 0
16 29.99999999990365 0 0
17 32.49999999990428 0 0
18 34.99999999991795 0 0
19 37.49999999993162 0 0
20 39.9999999999453 0 0
21 42.49999999995897 0 0
22 44.99999999997265 0 0
23 47.49999999998632 0 0
24 50 0.4999999999986921 0
25 47.50000000001776 1 0
26 45.00000000003553 1 0
27 42.50000000005329 1 0
28 40.00000000007105 1 0
29 37.50000000008882 1 0
30 35.00000000010658 1 0
31 32.50000000012434 1 0
32 30.00000000012906 1 0
33 27.50000000012906 1 0
34 25.00000000012906 1 0
35 22.50000000012906 1 0
36 20.00000000012906 1 0
37 17.50000000012434 1 0
38 15.00000000010658 1 0
39 12.50000000008882 1 0
40 10.00000000007105 1 0
41 7.500000000053284 1 0
42 5.000000000035527 1 0
43 2.500000000017764 1 0
44 0 0.5000000000020595 0
45 2.500000000003818 0.500000000001891 0
46 5.000000000008153 0.5000000000017227 0
47 7.500000000011654 0.5000000000015544 0
48 10.00000000001405 0.5000000000013859 0
49 12.50000000001644 0.5000000000012176 0
50 15.00000000001884 0.5000000000010493 0
51 17.50000000002422 0.500000000000881 0
52 20.00000000002454 0.5000000000007127 0
53 22.50000000002249 0.5000000000005442 0
54 25.00000000002044 0.5000000000003758 0
55 27.50000000001839 0.5000000000002073 0
56 30.00000000001636 0.500000000000039 0
57 32.50000000001431 0.4999999999998707 0
58 35.00000000001226 0.4999999999997023 0
59 37.50000000001022 0.4999999999995339 0
60 40.00000000000819 0.4999999999993655 0
61 42.50000000000614 0.4999999999991972 0
62 45.00000000000409 0.4999999999990289 0
63 47.50000000000203 0.4999999999988605 0
$EndNodes
$Elements
84
1 1 2 1 1 1 5
2 1 2 1 1 5 6
3 1 2 1 1 6 7
4 1 2 1 1 7 8
5 1 2 1 1 8 9
6 1 2 1 1 9 10
7 1 2 1 1 10 11
8 1 2 1 1 11 12
9 1 2 1 1 12 13
10 1 2 1 1 13 14
11 1 2 1 1 14 15
12 1 2 1 1 15 16
13 1 2 1 1 16 17
14 1 2 1 1 17 18
15 1 2 1 1 18 19
16 1 2 1 1 19 20
17 1 2 1 1 20 21
18 1 2 1 1 21 22
19 1 2 1 1 22 23
20 1 2 1 1 23 2
21 1 2 2 2 2 24
22 1 2 2 2 24 3
23 1 2 3 3 3 25
24 1 2 3 3 25 26
25 1 2 3 3 26 27
26 1 2 3 3 27 28
27 1 2 3 3 28 29
28 1 2 3 3 29 30
29 1 2 3 3 30 31
30 1 2 3 3 31 32
31 1 2 3 3 32 33
32 1 2 3 3 33 34
33 1 2 3 3 34 35
34 1 2 3 3 35 36
35 1 2 3 3 36 37
36 1 2 3 3 37 38
37 1 2 3 3 38 39
38 1 2 3 3 39 40
39 1 2 3 3 40 41
40 1 2 3 3 41 42
41 1 2 3 3 42 43
42 1 2 3 3 43 4
43 1 2 4 4 4 44
44 1 2 4 4 44 1
45 3 2 1 1 1 5 45 44
46 3 2 1 1 44 45 43 4
47 3 2 1 1 5 6 46 45
48 3 2 1 1 45 46 42 43
49 3 2 1 1 6 7 47 46
50 3 2 1 1 46 47 41 42
51 3 2 1 1 7 8 48 47
52 3 2 1 1 47 48 40 41
53 3 2 1 1 8 9 49 48
54 3 2 1 1 48 49 39 40
55 3 2 1 1 9 10 50 49
56 3 2 1 1 49 50 38 39
57 3 2 1 1 10 11 51 50
58 3 2 1 1 50 51 37 38
59 3 2 1 1 11 12 52 51
60 3 2 1 1 51 52 36 37
61 3 2 1 1 12 13 53 52
62 3 2 1 1 52 53 35 36
63 3 2 1 1 13 14 54 53
64 3 2 1 1 53 54 34 35
65 3 2 1 1 14 15 55 54
66 3 2 1 1 54 55 33 34
67 3 2 1 1 15 16 56 55
68 3 2 1 1 55 56 32 33
69 3 2 1 1 16 17 57 56
70 3 2 1 1 56 57 31 32
71 3 2 1 1 17 18 58 57
72 3 2 1 1 57 58 30 31
73 3 2 1 1 18 19 59 58
74 3 2 1 1 58 59 29 30
75 3 2 1 1 19 20 60 59
76 3 2 1 1 59 60 28 29
77 3 2 1 1 20 21 61 60
78 3 2 1 1 60 61 27 28
79 3 2 1 1 21 22 62 61
80 3 2 1 1 61 62 26 27
81 3 2 1 1 22 23 63 62
82 3 2 1 1 62 63 25 26
83 3 2 1 1 23 2 24 63
84 3 2 1 1 63 24 3 25
$EndElements
