$MeshFormat
2.2 0 8
$EndMeshFormat
$PhysicalNames
5
1 1 "bottom"
1 2 "right"
1 3 "top"
1 4 "left"
2 1 "domain"
$EndPhysicalNames
$Nodes
441
1 0 0 0
2 10 0 0
3 10 10 0
4 0 10 0
5 0.499999999999551 0 0
6 0.9999999999991888 0 0
7 1.499999999998284 0 0
8 1.999999999996824 0 0
9 2.499999999995364 0 0
10 2.999999999993903 0 0
11 3.499999999992442 0 0
12 3.999999999991017 0 0
13 4.499999999991639 0 0
14 4.999999999992399 0 0
15 5.499999999993159 0 0
16 5.99999999999392 0 0
17 6.499999999994679 0 0
18 6.999999999995438 0 0
19 7.499999999996199 0 0
20 7.99999999999696 0 0
21 8.499999999997719 0 0
22 8.999999999998479 0 0
23 9.49999999999924 0 0
24 10 0.499999999999551 0
25 10 0.9999999999991888 0
26 10 1.499999999998284 0
27 10 1.999999999996824 0
28 10 2.499999999995364 0
29 10 2.999999999993903 0
30 10 3.499999999992442 0
31 10 3.999999999991017 0
32 10 4.499999999991639 0
33 10 4.999999999992399 0
34 10 5.499999999993159 0
35 10 5.99999999999392 0
36 10 6.499999999994679 0
37 10 6.999999999995438 0
38 10 7.499999999996199 0
39 10 7.99999999999696 0
40 10 8.499999999997719 0
41 10 8.999999999998479 0
42 10 9.49999999999924 0
43 9.5 10 0
44 8.999999999999998 10 0
45 8.499999999999998 10 0
46 7.999999999999996 10 0
47 7.499999999999995 10 0
48 6.999999999999995 10 0
49 6.499999999999996 10 0
50 5.999999999999996 10 0
51 5.499999999999996 10 0
52 4.999999999999996 10 0
53 4.499999999999997 10 0
54 3.999999999999996 10 0
55 3.499999999999997 10 0
56 2.999999999999998 10 0
57 2.499999999999998 10 0
58 1.999999999999998 10 0
59 1.5 10 0
60 0.9999999999999982 10 0
61 0.5 10 0
62 0 9.5 0
63 0 8.999999999999998 0
64 0 8.499999999999998 0
65 0 7.999999999999996 0
66 0 7.499999999999995 0
67 0 6.999999999999995 0
68 0 6.499999999999996 0
69 0 5.999999999999996 0
70 0 5.499999999999996 0
71 0 4.999999999999996 0
72 0 4.499999999999997 0
73 0 3.999999999999996 0
74 0 3.499999999999997 0
75 0 2.999999999999998 0
76 0 2.499999999999998 0
77 0 1.999999999999998 0
78 0 1.5 0
79 0 0.9999999999999982 0
80 0 0.5 0
81 0.4999999999995735 0.4999999999999775 0
82 0.4999999999995959 0.9999999999999578 0
83 0.4999999999996184 1.499999999999914 0
84 0.4999999999996407 1.999999999999839 0
85 0.4999999999996632 2.499999999999767 0
86 0.4999999999996856 2.999999999999693 0
87 0.4999999999997082 3.499999999999619 0
88 0.4999999999997305 3.999999999999547 0
89 0.4999999999997531 4.499999999999579 0
90 0.4999999999997755 4.999999999999618 0
91 0.499999999999798 5.499999999999654 0
92 0.4999999999998204 5.999999999999693 0
93 0.4999999999998429 6.499999999999731 0
94 0.4999999999998654 6.999999999999766 0
95 0.4999999999998876 7.499999999999805 0
96 0.4999999999999102 7.999999999999845 0
97 0.4999999999999327 8.499999999999885 0
98 0.4999999999999551 8.999999999999924 0
99 0.4999999999999775 9.499999999999961 0
100 0.9999999999992291 0.4999999999999551 0
101 0.9999999999992697 0.9999999999999172 0
102 0.9999999999993103 1.499999999999829 0
103 0.9999999999993505 1.999999999999681 0
104 0.999999999999391 2.499999999999534 0
105 0.9999999999994313 2.999999999999389 0
106 0.9999999999994719 3.499999999999241 0
107 0.9999999999995126 3.999999999999098 0
108 0.9999999999995529 4.49999999999916 0
109 0.9999999999995934 4.999999999999236 0
110 0.9999999999996338 5.499999999999313 0
111 0.9999999999996743 5.999999999999388 0
112 0.9999999999997148 6.499999999999464 0
113 0.9999999999997553 6.999999999999537 0
114 0.9999999999997959 7.499999999999615 0
115 0.9999999999998362 7.999999999999694 0
116 0.9999999999998768 8.499999999999771 0
117 0.9999999999999172 8.999999999999844 0
118 0.9999999999999575 9.499999999999927 0
119 1.499999999998371 0.4999999999999327 0
120 1.499999999998456 0.9999999999998768 0
121 1.499999999998542 1.499999999999743 0
122 1.499999999998628 1.999999999999522 0
123 1.499999999998713 2.499999999999304 0
124 1.499999999998799 2.999999999999084 0
125 1.499999999998885 3.499999999998864 0
126 1.499999999998971 3.999999999998648 0
127 1.499999999999057 4.499999999998744 0
128 1.499999999999142 4.999999999998858 0
129 1.499999999999228 5.499999999998972 0
130 1.499999999999314 5.999999999999085 0
131 1.4999999999994 6.499999999999201 0
132 1.499999999999486 6.999999999999312 0
133 1.499999999999571 7.499999999999425 0
134 1.499999999999657 7.99999999999954 0
135 1.499999999999743 8.499999999999655 0
136 1.499999999999829 8.999999999999767 0
137 1.499999999999914 9.499999999999883 0
138 1.999999999996982 0.4999999999999102 0
139 1.999999999997141 0.9999999999998361 0
140 1.9999999999973 1.499999999999657 0
141 1.999999999997458 1.999999999999363 0
142 1.999999999997618 2.499999999999071 0
143 1.999999999997776 2.999999999998779 0
144 1.999999999997935 3.499999999998487 0
145 1.999999999998094 3.999999999998201 0
146 1.999999999998253 4.499999999998324 0
147 1.999999999998411 4.999999999998478 0
148 1.99999999999857 5.499999999998629 0
149 1.999999999998728 5.99999999999878 0
150 1.999999999998887 6.499999999998932 0
151 1.999999999999046 6.999999999999083 0
152 1.999999999999205 7.499999999999237 0
153 1.999999999999363 7.99999999999939 0
154 1.999999999999522 8.499999999999542 0
155 1.99999999999968 8.999999999999694 0
156 1.999999999999839 9.499999999999847 0
157 2.499999999995596 0.4999999999998878 0
158 2.499999999995826 0.9999999999997958 0
159 2.499999999996058 1.499999999999571 0
160 2.499999999996291 1.999999999999205 0
161 2.499999999996522 2.49999999999884 0
162 2.499999999996754 2.999999999998474 0
163 2.499999999996986 3.499999999998109 0
164 2.499999999997217 3.999999999997751 0
165 2.499999999997449 4.499999999997908 0
166 2.499999999997681 4.999999999998098 0
167 2.499999999997913 5.499999999998288 0
168 2.499999999998145 5.999999999998478 0
169 2.499999999998376 6.499999999998666 0
170 2.499999999998608 6.999999999998856 0
171 2.49999999999884 7.499999999999046 0
172 2.499999999999071 7.999999999999238 0
173 2.499999999999304 8.499999999999428 0
174 2.499999999999535 8.999999999999616 0
175 2.499999999999766 9.499999999999812 0
176 2.999999999994207 0.4999999999998654 0
177 2.999999999994513 0.9999999999997555 0
178 2.999999999994818 1.499999999999486 0
179 2.999999999995122 1.999999999999046 0
180 2.999999999995427 2.499999999998607 0
181 2.999999999995732 2.99999999999817 0
182 2.999999999996036 3.499999999997731 0
183 2.999999999996341 3.999999999997302 0
184 2.999999999996646 4.49999999999749 0
185 2.99999999999695 4.999999999997717 0
186 2.999999999997255 5.499999999997945 0
187 2.999999999997559 5.999999999998172 0
188 2.999999999997865 6.4999999999984 0
189 2.999999999998169 6.999999999998629 0
190 2.999999999998474 7.499999999998856 0
191 2.999999999998779 7.999999999999087 0
192 2.999999999999084 8.499999999999316 0
193 2.999999999999389 8.999999999999538 0
194 2.999999999999693 9.499999999999773 0
195 3.49999999999282 0.4999999999998427 0
196 3.499999999993197 0.9999999999997148 0
197 3.499999999993576 1.4999999999994 0
198 3.499999999993954 1.999999999998887 0
199 3.499999999994332 2.499999999998376 0
200 3.499999999994709 2.999999999997866 0
201 3.499999999995087 3.499999999997354 0
202 3.499999999995465 3.999999999996853 0
203 3.499999999995842 4.499999999997071 0
204 3.49999999999622 4.999999999997337 0
205 3.499999999996597 5.499999999997605 0
206 3.499999999996976 5.999999999997869 0
207 3.499999999997353 6.499999999998136 0
208 3.499999999997731 6.9999999999984 0
209 3.49999999999811 7.499999999998667 0
210 3.499999999998486 7.999999999998934 0
211 3.499999999998864 8.499999999999202 0
212 3.499999999999242 8.999999999999469 0
213 3.499999999999619 9.499999999999734 0
214 3.999999999991466 0.4999999999998205 0
215 3.999999999991914 0.9999999999996745 0
216 3.999999999992363 1.499999999999313 0
217 3.999999999992813 1.999999999998728 0
218 3.999999999993261 2.499999999998145 0
219 3.99999999999371 2.999999999997559 0
220 3.999999999994159 3.499999999996976 0
221 3.999999999994609 3.999999999996405 0
222 3.999999999995058 4.499999999996655 0
223 3.999999999995507 4.999999999996957 0
224 3.999999999995955 5.499999999997263 0
225 3.999999999996405 5.999999999997565 0
226 3.999999999996852 6.49999999999787 0
227 3.999999999997302 6.999999999998171 0
228 3.999999999997751 7.499999999998478 0
229 3.999999999998201 7.999999999998783 0
230 3.99999999999865 8.499999999999089 0
231 3.999999999999098 8.999999999999389 0
232 3.999999999999547 9.499999999999698 0
233 4.499999999992056 0.4999999999997979 0
234 4.499999999992475 0.999999999999634 0
235 4.499999999992893 1.499999999999228 0
236 4.499999999993311 1.99999999999857 0
237 4.499999999993727 2.499999999997913 0
238 4.499999999994147 2.999999999997256 0
239 4.499999999994564 3.499999999996597 0
240 4.499999999994982 3.999999999995955 0
241 4.499999999995401 4.499999999996236 0
242 4.499999999995818 4.999999999996577 0
243 4.499999999996236 5.49999999999692 0
244 4.499999999996655 5.999999999997261 0
245 4.499999999997071 6.499999999997604 0
246 4.49999999999749 6.999999999997945 0
247 4.499999999997907 7.499999999998288 0
248 4.499999999998325 7.99999999999863 0
249 4.499999999998744 8.499999999998973 0
250 4.499999999999162 8.999999999999311 0
251 4.499999999999579 9.499999999999659 0
252 4.999999999992781 0.4999999999997754 0
253 4.999999999993157 0.9999999999995934 0
254 4.999999999993539 1.499999999999142 0
255 4.99999999999392 1.999999999998411 0
256 4.9999999999943 2.499999999997681 0
257 4.999999999994678 2.99999999999695 0
258 4.999999999995058 3.49999999999622 0
259 4.999999999995438 3.999999999995506 0
260 4.999999999995818 4.499999999995818 0
261 4.999999999996197 4.999999999996197 0
262 4.999999999996577 5.499999999996579 0
263 4.999999999996957 5.999999999996957 0
264 4.999999999997337 6.499999999997337 0
265 4.999999999997717 6.999999999997716 0
266 4.999999999998098 7.499999999998098 0
267 4.999999999998478 7.999999999998478 0
268 4.999999999998858 8.49999999999886 0
269 4.999999999999238 8.99999999999924 0
270 4.999999999999616 9.49999999999962 0
271 5.499999999993502 0.499999999999753 0
272 5.499999999993844 0.999999999999553 0
273 5.499999999994185 1.499999999999056 0
274 5.499999999994529 1.999999999998253 0
275 5.499999999994868 2.499999999997449 0
276 5.499999999995211 2.999999999996646 0
277 5.499999999995554 3.499999999995842 0
278 5.499999999995895 3.999999999995058 0
279 5.499999999996236 4.499999999995401 0
280 5.499999999996577 4.999999999995818 0
281 5.49999999999692 5.499999999996236 0
282 5.499999999997261 5.999999999996653 0
283 5.499999999997605 6.499999999997072 0
284 5.499999999997945 6.999999999997488 0
285 5.499999999998288 7.499999999997907 0
286 5.499999999998629 7.999999999998325 0
287 5.499999999998971 8.499999999998742 0
288 5.499999999999313 8.999999999999162 0
289 5.499999999999654 9.499999999999581 0
290 5.999999999994225 0.4999999999997305 0
291 5.999999999994528 0.9999999999995126 0
292 5.999999999994831 1.499999999998971 0
293 5.999999999995136 1.999999999998094 0
294 5.99999999999544 2.499999999997217 0
295 5.999999999995742 2.999999999996341 0
296 5.999999999996047 3.499999999995464 0
297 5.999999999996351 3.999999999994609 0
298 5.999999999996653 4.499999999994982 0
299 5.999999999996957 4.999999999995438 0
300 5.999999999997263 5.499999999995895 0
301 5.999999999997565 5.99999999999635 0
302 5.99999999999787 6.499999999996806 0
303 5.999999999998172 6.999999999997261 0
304 5.999999999998479 7.499999999997718 0
305 5.999999999998781 7.999999999998174 0
306 5.999999999999085 8.499999999998629 0
307 5.999999999999388 8.999999999999085 0
308 5.999999999999693 9.499999999999542 0
309 6.499999999994945 0.4999999999997082 0
310 6.499999999995212 0.9999999999994719 0
311 6.499999999995479 1.499999999998885 0
312 6.499999999995742 1.999999999997935 0
313 6.499999999996009 2.499999999996986 0
314 6.499999999996276 2.999999999996036 0
315 6.499999999996539 3.499999999995087 0
316 6.499999999996804 3.999999999994159 0
317 6.499999999997073 4.499999999994564 0
318 6.499999999997337 4.999999999995058 0
319 6.499999999997603 5.499999999995553 0
320 6.49999999999787 5.999999999996046 0
321 6.499999999998136 6.499999999996541 0
322 6.499999999998401 6.999999999997033 0
323 6.499999999998666 7.499999999997529 0
324 6.499999999998933 7.999999999998025 0
325 6.499999999999199 8.499999999998515 0
326 6.499999999999465 8.999999999999009 0
327 6.499999999999729 9.499999999999506 0
328 6.999999999995667 0.4999999999996858 0
329 6.999999999995892 0.9999999999994316 0
330 6.999999999996123 1.4999999999988 0
331 6.999999999996351 1.999999999997776 0
332 6.999999999996577 2.499999999996755 0
333 6.999999999996806 2.999999999995732 0
334 6.999999999997032 3.499999999994709 0
335 6.99999999999726 3.99999999999371 0
336 6.99999999999749 4.499999999994147 0
337 6.999999999997717 4.999999999994678 0
338 6.999999999997943 5.499999999995209 0
339 6.999999999998174 5.999999999995742 0
340 6.9999999999984 6.499999999996275 0
341 6.999999999998629 6.999999999996806 0
342 6.999999999998855 7.499999999997337 0
343 6.999999999999083 7.999999999997872 0
344 6.99999999999931 8.499999999998401 0
345 6.999999999999538 8.999999999998936 0
346 6.999999999999766 9.499999999999467 0
347 7.499999999996391 0.4999999999996633 0
348 7.499999999996579 0.9999999999993912 0
349 7.499999999996768 1.499999999998713 0
350 7.49999999999696 1.999999999997618 0
351 7.499999999997149 2.499999999996522 0
352 7.499999999997339 2.999999999995426 0
353 7.499999999997526 3.499999999994331 0
354 7.499999999997717 3.999999999993261 0
355 7.499999999997906 4.499999999993728 0
356 7.499999999998098 4.9999999999943 0
357 7.499999999998288 5.499999999994868 0
358 7.499999999998479 5.999999999995439 0
359 7.499999999998666 6.499999999996009 0
360 7.499999999998858 6.999999999996576 0
361 7.499999999999047 7.49999999999715 0
362 7.499999999999234 7.999999999997719 0
363 7.499999999999428 8.499999999998289 0
364 7.499999999999615 8.999999999998856 0
365 7.499999999999805 9.499999999999428 0
366 7.999999999997113 0.4999999999996408 0
367 7.999999999997264 0.9999999999993504 0
368 7.999999999997415 1.499999999998628 0
369 7.999999999997567 1.999999999997459 0
370 7.999999999997719 2.499999999996291 0
371 7.999999999997872 2.999999999995123 0
372 7.999999999998025 3.499999999993954 0
373 7.999999999998176 3.999999999992813 0
374 7.999999999998325 4.49999999999331 0
375 7.999999999998478 4.99999999999392 0
376 7.99999999999863 5.499999999994527 0
377 7.999999999998783 5.999999999995135 0
378 7.999999999998934 6.499999999995743 0
379 7.999999999999087 6.99999999999635 0
380 7.999999999999238 7.499999999996959 0
381 7.999999999999392 7.999999999997569 0
382 7.999999999999542 8.49999999999817 0
383 7.999999999999693 8.999999999998783 0
384 7.999999999999845 9.499999999999392 0
385 8.499999999997835 0.4999999999996184 0
386 8.499999999997945 0.9999999999993101 0
387 8.49999999999806 1.499999999998542 0
388 8.499999999998174 1.9999999999973 0
389 8.499999999998288 2.499999999996058 0
390 8.499999999998403 2.999999999994817 0
391 8.499999999998517 3.499999999993576 0
392 8.49999999999863 3.999999999992364 0
393 8.499999999998742 4.499999999992893 0
394 8.499999999998856 4.999999999993539 0
395 8.499999999998973 5.499999999994186 0
396 8.499999999999083 5.999999999994831 0
397 8.499999999999201 6.499999999995476 0
398 8.499999999999311 6.999999999996121 0
399 8.499999999999426 7.499999999996771 0
400 8.499999999999542 7.999999999997415 0
401 8.499999999999655 8.499999999998057 0
402 8.499999999999769 8.999999999998707 0
403 8.499999999999885 9.499999999999353 0
404 8.999999999998552 0.4999999999995959 0
405 8.999999999998629 0.9999999999992697 0
406 8.999999999998709 1.499999999998456 0
407 8.999999999998781 1.999999999997141 0
408 8.999999999998856 2.499999999995827 0
409 8.999999999998934 2.999999999994512 0
410 8.999999999999011 3.499999999993197 0
411 8.999999999999087 3.999999999991914 0
412 8.999999999999162 4.499999999992474 0
413 8.999999999999236 4.999999999993159 0
414 8.999999999999314 5.499999999993844 0
415 8.999999999999391 5.999999999994528 0
416 8.999999999999467 6.499999999995209 0
417 8.999999999999543 6.999999999995893 0
418 8.999999999999616 7.499999999996579 0
419 8.999999999999696 7.999999999997263 0
420 8.999999999999769 8.499999999997943 0
421 8.999999999999844 8.999999999998629 0
422 8.999999999999922 9.499999999999314 0
423 9.499999999999279 0.4999999999995734 0
424 9.499999999999316 0.9999999999992292 0
425 9.499999999999353 1.49999999999837 0
426 9.499999999999392 1.999999999996983 0
427 9.499999999999432 2.499999999995595 0
428 9.499999999999467 2.999999999994207 0
429 9.499999999999506 3.499999999992821 0
430 9.499999999999545 3.999999999991466 0
431 9.499999999999584 4.499999999992058 0
432 9.49999999999962 4.999999999992779 0
433 9.499999999999659 5.4999999999935 0
434 9.499999999999698 5.999999999994223 0
435 9.499999999999734 6.499999999994947 0
436 9.499999999999769 6.999999999995667 0
437 9.499999999999812 7.499999999996389 0
438 9.499999999999847 7.999999999997113 0
439 9.499999999999886 8.499999999997831 0
440 9.499999999999925 8.999999999998554 0
441 9.499999999999961 9.499999999999279 0
$EndNodes
$Elements
480
1 1 2 1 1 1 5
2 1 2 1 1 5 6
3 1 2 1 1 6 7
4 1 2 1 1 7 8
5 1 2 1 1 8 9
6 1 2 1 1 9 10
7 1 2 1 1 10 11
8 1 2 1 1 11 12
9 1 2 1 1 12 13
10 1 2 1 1 13 14
11 1 2 1 1 14 15
12 1 2 1 1 15 16
13 1 2 1 1 16 17
14 1 2 1 1 17 18
15 1 2 1 1 18 19
16 1 2 1 1 19 20
17 1 2 1 1 20 21
18 1 2 1 1 21 22
19 1 2 1 1 22 23
20 1 2 1 1 23 2
21 1 2 2 2 2 24
22 1 2 2 2 24 25
23 1 2 2 2 25 26
24 1 2 2 2 26 27
25 1 2 2 2 27 28
26 1 2 2 2 28 29
27 1 2 2 2 29 30
28 1 2 2 2 30 31
29 1 2 2 2 31 32
30 1 2 2 2 32 33
31 1 2 2 2 33 34
32 1 2 2 2 34 35
33 1 2 2 2 35 36
34 1 2 2 2 36 37
35 1 2 2 2 37 38
36 1 2 2 2 38 39
37 1 2 2 2 39 40
38 1 2 2 2 40 41
39 1 2 2 2 41 42
40 1 2 2 2 42 3
41 1 2 3 3 3 43
42 1 2 3 3 43 44
43 1 2 3 3 44 45
44 1 2 3 3 45 46
45 1 2 3 3 46 47
46 1 2 3 3 47 48
47 1 2 3 3 48 49
48 1 2 3 3 49 50
49 1 2 3 3 50 51
50 1 2 3 3 51 52
51 1 2 3 3 52 53
52 1 2 3 3 53 54
53 1 2 3 3 54 55
54 1 2 3 3 55 56
55 1 2 3 3 56 57
56 1 2 3 3 57 58
57 1 2 3 3 58 59
58 1 2 3 3 59 60
59 1 2 3 3 60 61
60 1 2 3 3 61 4
61 1 2 4 4 4 62
62 1 2 4 4 62 63
63 1 2 4 4 63 64
64 1 2 4 4 64 65
65 1 2 4 4 65 66
66 1 2 4 4 66 67
67 1 2 4 4 67 68
68 1 2 4 4 68 69
69 1 2 4 4 69 70
70 1 2 4 4 70 71
71 1 2 4 4 71 72
72 1 2 4 4 72 73
73 1 2 4 4 73 74
74 1 2 4 4 74 75
75 1 2 4 4 75 76
76 1 2 4 4 76 77
77 1 2 4 4 77 78
78 1 2 4 4 78 79
79 1 2 4 4 79 80
80 1 2 4 4 80 1
81 3 2 1 1 1 5 81 80
82 3 2 1 1 80 81 82 79
83 3 2 1 1 79 82 83 78
84 3 2 1 1 78 83 84 77
85 3 2 1 1 77 84 85 76
86 3 2 1 1 76 85 86 75
87 3 2 1 1 75 86 87 74
88 3 2 1 1 74 87 88 73
89 3 2 1 1 73 88 89 72
90 3 2 1 1 72 89 90 71
91 3 2 1 1 71 90 91 70
92 3 2 1 1 70 91 92 69
93 3 2 1 1 69 92 93 68
94 3 2 1 1 68 93 94 67
95 3 2 1 1 67 94 95 66
96 3 2 1 1 66 95 96 65
97 3 2 1 1 65 96 97 64
98 3 2 1 1 64 97 98 63
99 3 2 1 1 63 98 99 62
100 3 2 1 1 62 99 61 4
101 3 2 1 1 5 6 100 81
102 3 2 1 1 81 100 101 82
103 3 2 1 1 82 101 102 83
104 3 2 1 1 83 102 103 84
105 3 2 1 1 84 103 104 85
106 3 2 1 1 85 104 105 86
107 3 2 1 1 86 105 106 87
108 3 2 1 1 87 106 107 88
109 3 2 1 1 88 107 108 89
110 3 2 1 1 89 108 109 90
111 3 2 1 1 90 109 110 91
112 3 2 1 1 91 110 111 92
113 3 2 1 1 92 111 112 93
114 3 2 1 1 93 112 113 94
115 3 2 1 1 94 113 114 95
116 3 2 1 1 95 114 115 96
117 3 2 1 1 96 115 116 97
118 3 2 1 1 97 116 117 98
119 3 2 1 1 98 117 118 99
120 3 2 1 1 99 118 60 61
121 3 2 1 1 6 7 119 100
122 3 2 1 1 100 119 120 101
123 3 2 1 1 101 120 121 102
124 3 2 1 1 102 121 122 103
125 3 2 1 1 103 122 123 104
126 3 2 1 1 104 123 124 105
127 3 2 1 1 105 124 125 106
128 3 2 1 1 106 125 126 107
129 3 2 1 1 107 126 127 108
130 3 2 1 1 108 127 128 109
131 3 2 1 1 109 128 129 110
132 3 2 1 1 110 129 130 111
133 3 2 1 1 111 130 131 112
134 3 2 1 1 112 131 132 113
135 3 2 1 1 113 132 133 114
136 3 2 1 1 114 133 134 115
137 3 2 1 1 115 134 135 116
138 3 2 1 1 116 135 136 117
139 3 2 1 1 117 136 137 118
140 3 2 1 1 118 137 59 60
141 3 2 1 1 7 8 138 119
142 3 2 1 1 119 138 139 120
143 3 2 1 1 120 139 140 121
144 3 2 1 1 121 140 141 122
145 3 2 1 1 122 141 142 123
146 3 2 1 1 123 142 143 124
147 3 2 1 1 124 143 144 125
148 3 2 1 1 125 144 145 126
149 3 2 1 1 126 145 146 127
150 3 2 1 1 127 146 147 128
151 3 2 1 1 128 147 148 129
152 3 2 1 1 129 148 149 130
153 3 2 1 1 130 149 150 131
154 3 2 1 1 131 150 151 132
155 3 2 1 1 132 151 152 133
156 3 2 1 1 133 152 153 134
157 3 2 1 1 134 153 154 135
158 3 2 1 1 135 154 155 136
159 3 2 1 1 136 155 156 137
160 3 2 1 1 137 156 58 59
161 3 2 1 1 8 9 157 138
162 3 2 1 1 138 157 158 139
163 3 2 1 1 139 158 159 140
164 3 2 1 1 140 159 160 141
165 3 2 1 1 141 160 161 142
166 3 2 1 1 142 161 162 143
167 3 2 1 1 143 162 163 144
168 3 2 1 1 144 163 164 145
169 3 2 1 1 145 164 165 146
170 3 2 1 1 146 165 166 147
171 3 2 1 1 147 166 167 148
172 3 2 1 1 148 167 168 149
173 3 2 1 1 149 168 169 150
174 3 2 1 1 150 169 170 151
175 3 2 1 1 151 170 171 152
176 3 2 1 1 152 171 172 153
177 3 2 1 1 153 172 173 154
178 3 2 1 1 154 173 174 155
179 3 2 1 1 155 174 175 156
180 3 2 1 1 156 175 57 58
181 3 2 1 1 9 10 176 157
182 3 2 1 1 157 176 177 158
183 3 2 1 1 158 177 178 159
184 3 2 1 1 159 178 179 160
185 3 2 1 1 160 179 180 161
186 3 2 1 1 161 180 181 162
187 3 2 1 1 162 181 182 163
188 3 2 1 1 163 182 183 164
189 3 2 1 1 164 183 184 165
190 3 2 1 1 165 184 185 166
191 3 2 1 1 166 185 186 167
192 3 2 1 1 167 186 187 168
193 3 2 1 1 168 187 188 169
194 3 2 1 1 169 188 189 170
195 3 2 1 1 170 189 190 171
196 3 2 1 1 171 190 191 172
197 3 2 1 1 172 191 192 173
198 3 2 1 1 173 192 193 174
199 3 2 1 1 174 193 194 175
200 3 2 1 1 175 194 56 57
201 3 2 1 1 10 11 195 176
202 3 2 1 1 176 195 196 177
203 3 2 1 1 177 196 197 178
204 3 2 1 1 178 197 198 179
205 3 2 1 1 179 198 199 180
206 3 2 1 1 180 199 200 181
207 3 2 1 1 181 200 201 182
208 3 2 1 1 182 201 202 183
209 3 2 1 1 183 202 203 184
210 3 2 1 1 184 203 204 185
211 3 2 1 1 185 204 205 186
212 3 2 1 1 186 205 206 187
213 3 2 1 1 187 206 207 188
214 3 2 1 1 188 207 208 189
215 3 2 1 1 189 208 209 190
216 3 2 1 1 190 209 210 191
217 3 2 1 1 191 210 211 192
218 3 2 1 1 192 211 212 193
219 3 2 1 1 193 212 213 194
220 3 2 1 1 194 213 55 56
221 3 2 1 1 11 12 214 195
222 3 2 1 1 195 214 215 196
223 3 2 1 1 196 215 216 197
224 3 2 1 1 197 216 217 198
225 3 2 1 1 198 217 218 199
226 3 2 1 1 199 218 219 200
227 3 2 1 1 200 219 220 201
228 3 2 1 1 201 220 221 202
229 3 2 1 1 202 221 222 203
230 3 2 1 1 203 222 223 204
231 3 2 1 1 204 223 224 205
232 3 2 1 1 205 224 225 206
233 3 2 1 1 206 225 226 207
234 3 2 1 1 207 226 227 208
235 3 2 1 1 208 227 228 209
236 3 2 1 1 209 228 229 210
237 3 2 1 1 210 229 230 211
238 3 2 1 1 211 230 231 212
239 3 2 1 1 212 231 232 213
240 3 2 1 1 213 232 54 55
241 3 2 1 1 12 13 233 214
242 3 2 1 1 214 233 234 215
243 3 2 1 1 215 234 235 216
244 3 2 1 1 216 235 236 217
245 3 2 1 1 217 236 237 218
246 3 2 1 1 218 237 238 219
247 3 2 1 1 219 238 239 220
248 3 2 1 1 220 239 240 221
249 3 2 1 1 221 240 241 222
250 3 2 1 1 222 241 242 223
251 3 2 1 1 223 242 243 224
252 3 2 1 1 224 243 244 225
253 3 2 1 1 225 244 245 226
254 3 2 1 1 226 245 246 227
255 3 2 1 1 227 246 247 228
256 3 2 1 1 228 247 248 229
257 3 2 1 1 229 248 249 230
258 3 2 1 1 230 249 250 231
259 3 2 1 1 231 250 251 232
260 3 2 1 1 232 251 53 54
261 3 2 1 1 13 14 252 233
262 3 2 1 1 233 252 253 234
263 3 2 1 1 234 253 254 235
264 3 2 1 1 235 254 255 236
265 3 2 1 1 236 255 256 237
266 3 2 1 1 237 256 257 238
267 3 2 1 1 238 257 258 239
268 3 2 1 1 239 258 259 240
269 3 2 1 1 240 259 260 241
270 3 2 1 1 241 260 261 242
271 3 2 1 1 242 261 262 243
272 3 2 1 1 243 262 263 244
273 3 2 1 1 244 263 264 245
274 3 2 1 1 245 264 265 246
275 3 2 1 1 246 265 266 247
276 3 2 1 1 247 266 267 248
277 3 2 1 1 248 267 268 249
278 3 2 1 1 249 268 269 250
279 3 2 1 1 250 269 270 251
280 3 2 1 1 251 270 52 53
281 3 2 1 1 14 15 271 252
282 3 2 1 1 252 271 272 253
283 3 2 1 1 253 272 273 254
284 3 2 1 1 254 273 274 255
285 3 2 1 1 255 274 275 256
286 3 2 1 1 256 275 276 257
287 3 2 1 1 257 276 277 258
288 3 2 1 1 258 277 278 259
289 3 2 1 1 259 278 279 260
290 3 2 1 1 260 279 280 261
291 3 2 1 1 261 280 281 262
292 3 2 1 1 262 281 282 263
293 3 2 1 1 263 282 283 264
294 3 2 1 1 264 283 284 265
295 3 2 1 1 265 284 285 266
296 3 2 1 1 266 285 286 267
297 3 2 1 1 267 286 287 268
298 3 2 1 1 268 287 288 269
299 3 2 1 1 269 288 289 270
300 3 2 1 1 270 289 51 52
301 3 2 1 1 15 16 290 271
302 3 2 1 1 271 290 291 272
303 3 2 1 1 272 291 292 273
304 3 2 1 1 273 292 293 274
305 3 2 1 1 274 293 294 275
306 3 2 1 1 275 294 295 276
307 3 2 1 1 276 295 296 277
308 3 2 1 1 277 296 297 278
309 3 2 1 1 278 297 298 279
310 3 2 1 1 279 298 299 280
311 3 2 1 1 280 299 300 281
312 3 2 1 1 281 300 301 282
313 3 2 1 1 282 301 302 283
314 3 2 1 1 283 302 303 284
315 3 2 1 1 284 303 304 285
316 3 2 1 1 285 304 305 286
317 3 2 1 1 286 305 306 287
318 3 2 1 1 287 306 307 288
319 3 2 1 1 288 307 308 289
320 3 2 1 1 289 308 50 51
321 3 2 1 1 16 17 309 290
322 3 2 1 1 290 309 310 291
323 3 2 1 1 291 310 311 292
324 3 2 1 1 292 311 312 293
325 3 2 1 1 293 312 313 294
326 3 2 1 1 294 313 314 295
327 3 2 1 1 295 314 315 296
328 3 2 1 1 296 315 316 297
329 3 2 1 1 297 316 317 298
330 3 2 1 1 298 317 318 299
331 3 2 1 1 299 318 319 300
332 3 2 1 1 300 319 320 301
333 3 2 1 1 301 320 321 302
334 3 2 1 1 302 321 322 303
335 3 2 1 1 303 322 323 304
336 3 2 1 1 304 323 324 305
337 3 2 1 1 305 324 325 306
338 3 2 1 1 306 325 326 307
339 3 2 1 1 307 326 327 308
340 3 2 1 1 308 327 49 50
341 3 2 1 1 17 18 328 309
342 3 2 1 1 309 328 329 310
343 3 2 1 1 310 329 330 311
344 3 2 1 1 311 330 331 312
345 3 2 1 1 312 331 332 313
346 3 2 1 1 313 332 333 314
347 3 2 1 1 314 333 334 315
348 3 2 1 1 315 334 335 316
349 3 2 1 1 316 335 336 317
350 3 2 1 1 317 336 337 318
351 3 2 1 1 318 337 338 319
352 3 2 1 1 319 338 339 320
353 3 2 1 1 320 339 340 321
354 3 2 1 1 321 340 341 322
355 3 2 1 1 322 341 342 323
356 3 2 1 1 323 342 343 324
357 3 2 1 1 324 343 344 325
358 3 2 1 1 325 344 345 326
359 3 2 1 1 326 345 346 327
360 3 2 1 1 327 346 48 49
361 3 2 1 1 18 19 347 328
362 3 2 1 1 328 347 348 329
363 3 2 1 1 329 348 349 330
364 3 2 1 1 330 349 350 331
365 3 2 1 1 331 350 351 332
366 3 2 1 1 332 351 352 333
367 3 2 1 1 333 352 353 334
368 3 2 1 1 334 353 354 335
369 3 2 1 1 335 354 355 336
370 3 2 1 1 336 355 356 337
371 3 2 1 1 337 356 357 338
372 3 2 1 1 338 357 358 339
373 3 2 1 1 339 358 359 340
374 3 2 1 1 340 359 360 341
375 3 2 1 1 341 360 361 342
376 3 2 1 1 342 361 362 343
377 3 2 1 1 343 362 363 344
378 3 2 1 1 344 363 364 345
379 3 2 1 1 345 364 365 346
380 3 2 1 1 346 365 47 48
381 3 2 1 1 19 20 366 347
382 3 2 1 1 347 366 367 348
383 3 2 1 1 348 367 368 349
384 3 2 1 1 349 368 369 350
385 3 2 1 1 350 369 370 351
386 3 2 1 1 351 370 371 352
387 3 2 1 1 352 371 372 353
388 3 2 1 1 353 372 373 354
389 3 2 1 1 354 373 374 355
390 3 2 1 1 355 374 375 356
391 3 2 1 1 356 375 376 357
392 3 2 1 1 357 376 377 358
393 3 2 1 1 358 377 378 359
394 3 2 1 1 359 378 379 360
395 3 2 1 1 360 379 380 361
396 3 2 1 1 361 380 381 362
397 3 2 1 1 362 381 382 363
398 3 2 1 1 363 382 383 364
399 3 2 1 1 364 383 384 365
400 3 2 1 1 365 384 46 47
401 3 2 1 1 20 21 385 366
402 3 2 1 1 366 385 386 367
403 3 2 1 1 367 386 387 368
404 3 2 1 1 368 387 388 369
405 3 2 1 1 369 388 389 370
406 3 2 1 1 370 389 390 371
407 3 2 1 1 371 390 391 372
408 3 2 1 1 372 391 392 373
409 3 2 1 1 373 392 393 374
410 3 2 1 1 374 393 394 375
411 3 2 1 1 375 394 395 376
412 3 2 1 1 376 395 396 377
413 3 2 1 1 377 396 397 378
414 3 2 1 1 378 397 398 379
415 3 2 1 1 379 398 399 380
416 3 2 1 1 380 399 400 381
417 3 2 1 1 381 400 401 382
418 3 2 1 1 382 401 402 383
419 3 2 1 1 383 402 403 384
420 3 2 1 1 384 403 45 46
421 3 2 1 1 21 22 404 385
422 3 2 1 1 385 404 405 386
423 3 2 1 1 386 405 406 387
424 3 2 1 1 387 406 407 388
425 3 2 1 1 388 407 408 389
426 3 2 1 1 389 408 409 390
427 3 2 1 1 390 409 410 391
428 3 2 1 1 391 410 411 392
429 3 2 1 1 392 411 412 393
430 3 2 1 1 393 412 413 394
431 3 2 1 1 394 413 414 395
432 3 2 1 1 395 414 415 396
433 3 2 1 1 396 415 416 397
434 3 2 1 1 397 416 417 398
435 3 2 1 1 398 417 418 399
436 3 2 1 1 399 418 419 400
437 3 2 1 1 400 419 420 401
438 3 2 1 1 401 420 421 402
439 3 2 1 1 402 421 422 403
440 3 2 1 1 403 422 44 45
441 3 2 1 1 22 23 423 404
442 3 2 1 1 404 423 424 405
443 3 2 1 1 405 424 425 406
444 3 2 1 1 406 425 426 407
445 3 2 1 1 407 426 427 408
446 3 2 1 1 408 427 428 409
447 3 2 1 1 409 428 429 410
448 3 2 1 1 410 429 430 411
449 3 2 1 1 411 430 431 412
450 3 2 1 1 412 431 432 413
451 3 2 1 1 413 432 433 414
452 3 2 1 1 414 433 434 415
453 3 2 1 1 415 434 435 416
454 3 2 1 1 416 435 436 417
455 3 2 1 1 417 436 437 418
456 3 2 1 1 418 437 438 419
457 3 2 1 1 419 438 439 420
458 3 2 1 1 420 439 440 421
459 3 2 1 1 421 440 441 422
460 3 2 1 1 422 441 43 44
461 3 2 1 1 23 2 24 423
462 3 2 1 1 423 24 25 424
463 3 2 1 1 424 25 26 425
464 3 2 1 1 425 26 27 426
465 3 2 1 1 426 27 28 427
466 3 2 1 1 427 28 29 428
467 3 2 1 1 428 29 30 429
468 3 2 1 1 429 30 31 430
469 3 2 1 1 430 31 32 431
470 3 2 1 1 431 32 33 432
471 3 2 1 1 432 33 34 433
472 3 2 1 1 433 34 35 434
473 3 2 1 1 434 35 36 435
474 3 2 1 1 435 36 37 436
475 3 2 1 1 436 37 38 437
476 3 2 1 1 437 38 39 438
477 3 2 1 1 438 39 40 439
478 3 2 1 1 439 40 41 440
479 3 2 1 1 440 41 42 441
480 3 2 1 1 441 42 3 43
$EndElements
