$MeshFormat
2.2 0 8
$EndMeshFormat
$PhysicalNames
4
1 1 "top"
1 2 "bottom"
1 3 "sides"
2 1 "domain"
$EndPhysicalNames
$Nodes
600
1 0 0 0
2 0.0005 0 0
3 0.0005 0.05 0
4 0 0.05 0
5 0.00025 0 0
6 0.0005 0.001460383128880754 0
7 0.0005 0.002878230837267068 0
8 0.0005 0.004254782003135232 0
9 0.0005 0.005591239440346645 0
10 0.0005 0.006888770940853802 0
11 0.0005 0.008148510267292909 0
12 0.0005 0.009371558149304534 0
13 0.0005 0.01055898327637082 0
14 0.0005 0.01171182321014324 0
15 0.0005 0.01283108528521069 0
16 0.0005 0.01391774748930054 0
17 0.0005 0.01497275933534483 0
18 0.0005 0.01599704268362428 0
19 0.0005 0.01699149253817973 0
20 0.0005 0.0179569778366789 0
21 0.0005 0.01889434221414178 0
22 0.0005 0.01980440471280474 0
23 0.0005 0.02068796053370212 0
24 0.0005 0.02154578172860282 0
25 0.0005 0.02237861783353772 0
26 0.0005 0.02318719656585794 0
27 0.0005 0.02397222446566871 0
28 0.0005 0.02473438747990877 0
29 0.0005 0.02547435157397188 0
30 0.0005 0.02619276331626053 0
31 0.0005 0.02689025044460929 0
32 0.0005 0.02756742241017454 0
33 0.0005 0.02822487092285774 0
34 0.0005 0.02886317046154256 0
35 0.0005 0.02948287874909393 0
36 0.0005 0.03008453726857089 0
37 0.0005 0.03066867174908065 0
38 0.0005 0.03123579260670413 0
39 0.0005 0.03178639538593526 0
40 0.0005 0.03232096119951847 0
41 0.0005 0.03283995712984271 0
42 0.0005 0.0333438366696656 0
43 0.0005 0.03383304011024083 0
44 0.0005 0.03430799490949646 0
45 0.0005 0.03476911606885629 0
46 0.0005 0.03521680652616407 0
47 0.0005 0.03565145745482255 0
48 0.0005 0.0360734486375199 0
49 0.0005 0.03648314881235949 0
50 0.0005 0.0368809159745314 0
51 0.0005 0.03726709770145754 0
52 0.0005 0.0376420314065324 0
53 0.0005 0.03800604470908963 0
54 0.0005 0.03835945569247286 0
55 0.0005 0.03870257314445737 0
56 0.0005 0.03903569687741653 0
57 0.0005 0.03935911798140131 0
58 0.0005 0.03967311905988136 0
59 0.0005 0.03997797447397641 0
60 0.0005 0.04027395059952777 0
61 0.0005 0.04056130605707599 0
62 0.0005 0.0408402919434635 0
63 0.0005 0.04111115203087625 0
64 0.0005 0.04137412298889911 0
65 0.0005 0.04162943460093652 0
66 0.0005 0.0418773099497034 0
67 0.0005 0.04211796563242516 0
68 0.0005 0.04235161193214698 0
69 0.0005 0.04257845298826738 0
70 0.0005 0.0427986870231246 0
71 0.0005 0.04301250647705904 0
72 0.0005 0.04322009818486527 0
73 0.0005 0.04342164353078636 0
74 0.0005 0.04361731861976525 0
75 0.0005 0.04380729443567517 0
76 0.0005 0.04399173697640454 0
77 0.0005 0.04417080740872453 0
78 0.0005 0.04434466219415497 0
79 0.0005 0.04451345324979596 0
80 0.0005 0.04467732807086808 0
81 0.0005 0.04483642983322696 0
82 0.0005 0.0449908975513988 0
83 0.0005 0.04514086621439017 0
84 0.0005 0.04528646686365741 0
85 0.0005 0.04542782671979865 0
86 0.0005 0.04556506929922316 0
87 0.0005 0.04569831451972713 0
88 0.0005 0.04582767880386231 0
89 0.0005 0.0459532752016272 0
90 0.0005 0.04607521344959466 0
91 0.0005 0.04619360009083 0
92 0.0005 0.04630853858082149 0
93 0.0005 0.04642012935363236 0
94 0.0005 0.04652846991269045 0
95 0.0005 0.04663365491951267 0
96 0.0005 0.04673577628661445 0
97 0.0005 0.04683492324650718 0
98 0.0005 0.04693118243453 0
99 0.0005 0.04702463795216982 0
100 0.0005 0.04711537145903196 0
101 0.0005 0.04720346224339482 0
102 0.0005 0.04728898727472979 0
103 0.0005 0.04737202128440385 0
104 0.0005 0.04745263683106068 0
105 0.0005 0.0475309043595198 0
106 0.0005 0.0476068922517091 0
107 0.0005 0.04768066690314444 0
108 0.0005 0.04775229277942588 0
109 0.0005 0.04782183246130883 0
110 0.0005 0.04788934671913164 0
111 0.0005 0.04795489454276134 0
112 0.0005 0.04801853320657117 0
113 0.0005 0.04808031831569858 0
114 0.0005 0.0481403038638701 0
115 0.0005 0.04819854225366587 0
116 0.0005 0.0482550843810336 0
117 0.0005 0.04830997965538225 0
118 0.0005 0.04836327603335834 0
119 0.0005 0.04841502009091747 0
120 0.0005 0.04846525703413849 0
121 0.0005 0.04851403075584084 0
122 0.0005 0.04856138389147403 0
123 0.0005 0.04860735781538743 0
124 0.0005 0.04865199269237035 0
125 0.0005 0.04869532752512223 0
126 0.0005 0.04873740017859441 0
127 0.0005 0.04877824741301431 0
128 0.0005 0.04881790491531899 0
129 0.0005 0.04885640734964965 0
130 0.0005 0.0488937883548974 0
131 0.0005 0.04893008058651008 0
132 0.0005 0.04896531576852457 0
133 0.0005 0.04899952467993637 0
134 0.0005 0.04903273720950877 0
135 0.0005 0.04906498238541303 0
136 0.0005 0.04909628838187591 0
137 0.0005 0.04912668255793794 0
138 0.0005 0.04915619147139291 0
139 0.0005 0.0491848409040495 0
140 0.0005 0.04921265588486168 0
141 0.0005 0.04923966071069118 0
142 0.0005 0.04926587898987785 0
143 0.0005 0.04929133363822874 0
144 0.0005 0.04931604688671445 0
145 0.0005 0.04934004033189465 0
146 0.0005 0.0493633349393123 0
147 0.0005 0.04938595105950329 0
148 0.0005 0.04940790846246969 0
149 0.0005 0.04942922632852016 0
150 0.0005 0.0494499232822829 0
151 0.0005 0.04947001741359484 0
152 0.0005 0.04948952627625601 0
153 0.0005 0.04950846691907815 0
154 0.0005 0.04952685589292594 0
155 0.0005 0.04954470926941922 0
156 0.0005 0.04956204264606131 0
157 0.0005 0.04957887116374994 0
158 0.0005 0.04959520953215291 0
159 0.0005 0.04961107202285681 0
160 0.0005 0.04962647249441676 0
161 0.0005 0.04964142441630088 0
162 0.0005 0.04965594084785233 0
163 0.0005 0.04967003446259014 0
164 0.0005 0.04968371759057386 0
165 0.0005 0.04969700218801291 0
166 0.0005 0.0497098998524632 0
167 0.0005 0.04972242185942652 0
168 0.0005 0.04973457914963479 0
169 0.0005 0.04974638234120413 0
170 0.0005 0.04975784174481826 0
171 0.0005 0.04976896737823986 0
172 0.0005 0.04977976896158725 0
173 0.0005 0.04979025593565536 0
174 0.0005 0.04980043746588306 0
175 0.0005 0.04981032244885445 0
176 0.0005 0.04981991952650563 0
177 0.0005 0.04982923706922789 0
178 0.0005 0.04983828322370737 0
179 0.0005 0.04984706590378672 0
180 0.0005 0.04985559277230236 0
181 0.0005 0.04986387128771321 0
182 0.0005 0.04987190868279404 0
183 0.0005 0.04987971197903952 0
184 0.0005 0.04988728799726039 0
185 0.0005 0.04989464334888054 0
186 0.0005 0.04990178446879374 0
187 0.0005 0.04990871759332672 0
188 0.0005 0.04991544878304652 0
189 0.0005 0.04992198392112208 0
190 0.0005 0.04992832871382659 0
191 0.0005 0.04993448871065431 0
192 0.0005 0.04994046929227954 0
193 0.0005 0.04994627568010743 0
194 0.0005 0.04995191294541158 0
195 0.0005 0.04995738601807443 0
196 0.0005 0.04996269968393525 0
197 0.0005 0.04996785858241253 0
198 0.0005 0.04997286722577635 0
199 0.0005 0.04997772998439027 0
200 0.0005 0.04998245110658496 0
201 0.0005 0.04998703472458758 0
202 0.0005 0.04999148484071614 0
203 0.0005 0.04999580534498045 0
204 0.0002500000000000001 0.05 0
205 0 0.04999580533369657 0
206 0 0.0499914848291526 0
207 0 0.04998703471273777 0
208 0 0.0499824510944421 0
209 0 0.04997772997194744 0
210 0 0.04997286721291228 0
211 0 0.04996785856934842 0
212 0 0.0499626996705495 0
213 0 0.0499573860043595 0
214 0 0.04995191293135977 0
215 0 0.04994627566571087 0
216 0 0.04994046927753019 0
217 0 0.04993448869554395 0
218 0 0.04992832869834686 0
219 0 0.04992198390526439 0
220 0 0.04991544876680215 0
221 0 0.04990871757668672 0
222 0 0.04990178445174899 0
223 0 0.04989464333142175 0
224 0 0.04988728797937805 0
225 0 0.04987971196072392 0
226 0 0.04987190866403528 0
227 0 0.0498638712685012 0
228 0 0.04985559275262677 0
229 0 0.04984706588363704 0
230 0 0.04983828320307285 0
231 0 0.04982923704809759 0
232 0 0.04981991950486836 0
233 0 0.04981032242669881 0
234 0 0.04980043744319743 0
235 0 0.04979025591242788 0
236 0 0.04977976893780582 0
237 0 0.04976896735389215 0
238 0 0.0497578417198917 0
239 0 0.04974638231568589 0
240 0 0.04973457912351182 0
241 0 0.04972242183228438 0
242 0 0.04970989982509054 0
243 0 0.04969700215999479 0
244 0 0.04968371756146603 0
245 0 0.04967003443323857 0
246 0 0.04965594081781222 0
247 0 0.04964142438509619 0
248 0 0.04962647246295464 0
249 0 0.04961107199066064 0
250 0 0.04959520949920697 0
251 0 0.04957887113003823 0
252 0 0.04956204261156751 0
253 0 0.04954470923412677 0
254 0 0.04952685585681796 0
255 0 0.04950846688213746 0
256 0 0.04948952623846515 0
257 0 0.04947001737493605 0
258 0 0.04944992324273811 0
259 0 0.04942922628807101 0
260 0 0.0494079084210975 0
261 0 0.04938595101718909 0
262 0 0.04936333489603681 0
263 0 0.04934004028763826 0
264 0 0.04931604684145726 0
265 0 0.04929133359195053 0
266 0 0.04926587894255809 0
267 0 0.04923966066230904 0
268 0 0.049212655835396 0
269 0 0.04918484085272024 0
270 0 0.04915619141969542 0
271 0 0.04912668250509156 0
272 0 0.04909628832785824 0
273 0 0.04906498233020135 0
274 0 0.04903273715308006 0
275 0 0.0489995246222673 0
276 0 0.04896531570959149 0
277 0 0.04893008052628906 0
278 0 0.04889378829336421 0
279 0 0.04885640728583669 0
280 0 0.04881790485108756 0
281 0 0.04877824734739624 0
282 0 0.04873740011156431 0
283 0 0.04869532745665443 0
284 0 0.04865199262243892 0
285 0 0.04860735774396618 0
286 0 0.0485613838185365 0
287 0 0.04851403068136034 0
288 0 0.04846525695808807 0
289 0 0.04841502001210528 0
290 0 0.0483632759540864 0
291 0 0.04830997957425825 0
292 0 0.04825508429719077 0
293 0 0.04819854216935432 0
294 0 0.04814030377763146 0
295 0 0.0480803182265698 0
296 0 0.04801853311696699 0
297 0 0.04795489444996469 0
298 0 0.04788934662580378 0
299 0 0.04782183236492409 0
300 0 0.04775229268236528 0
301 0 0.04768066680266293 0
302 0 0.04760689215074776 0
303 0 0.04753090425502058 0
304 0 0.04745263672485239 0
305 0 0.04737202117737566 0
306 0 0.04728898716562203 0
307 0 0.04720346213217905 0
308 0 0.04711537134522095 0
309 0 0.04702463783665337 0
310 0 0.04693118231505568 0
311 0 0.04683492312477976 0
312 0 0.04673577616366861 0
313 0 0.04663365479449653 0
314 0 0.04652846978594054 0
315 0 0.04642012922261986 0
316 0 0.04630853844939319 0
317 0 0.0461935999570248 0
318 0 0.04607521331338824 0
319 0 0.04595327506091644 0
320 0 0.04582767866278323 0
321 0 0.04569831437617818 0
322 0 0.0455650691509925 0
323 0 0.04542782656901895 0
324 0 0.04528646671030913 0
325 0 0.04514086605881783 0
326 0 0.04499089739520228 0
327 0 0.04483642967444906 0
328 0 0.04467732790707388 0
329 0 0.0445134530833541 0
330 0 0.04434466202601815 0
331 0 0.04417080723855561 0
332 0 0.04399173680195792 0
333 0 0.04380729426116345 0
334 0 0.04361731844068634 0
335 0 0.04342164335097872 0
336 0 0.04322009799967244 0
337 0 0.04301250628918111 0
338 0 0.04279868683538329 0
339 0 0.04257845279747958 0
340 0 0.04235161173915329 0
341 0 0.04211796543389092 0
342 0 0.04187730974854107 0
343 0 0.04162943440017848 0
344 0 0.04137412278254726 0
345 0 0.04111115182432253 0
346 0 0.04084029173203605 0
347 0 0.04056130584632499 0
348 0 0.04027395038636929 0
349 0 0.03997797425566307 0
350 0 0.03967311883910397 0
351 0 0.03935911775801001 0
352 0 0.03903569665513027 0
353 0 0.03870257292004103 0
354 0 0.03835945546260165 0
355 0 0.03800604447720945 0
356 0 0.03764203117618488 0
357 0 0.03726709746582552 0
358 0 0.03688091573717076 0
359 0 0.0364831485769103 0
360 0 0.03607344839896329 0
361 0 0.03565145721513538 0
362 0 0.0352168062830551 0
363 0 0.03476911582464503 0
364 0 0.03430799466757523 0
365 0 0.03383303986429304 0
366 0 0.03334383642317205 0
367 0 0.03283995688650271 0
368 0 0.03232096095229565 0
369 0 0.03178639513868804 0
370 0 0.03123579236143621 0
371 0 0.03066867150610562 0
372 0 0.03008453702626496 0
373 0 0.02948287850416266 0
374 0 0.02886317021776363 0
375 0 0.0282248706805922 0
376 0 0.0275674221700355 0
377 0 0.0268902502085566 0
378 0 0.02619276308046629 0
379 0 0.02547435134103842 0
380 0 0.02473438725021995 0
381 0 0.02397222423995167 0
382 0 0.02318719634717311 0
383 0 0.02237861761930854 0
384 0 0.02154578151615396 0
385 0 0.02068796032674219 0
386 0 0.01980440451240697 0
387 0 0.01889434201974772 0
388 0 0.01795697764941541 0
389 0 0.01699149236130286 0
390 0 0.01599704251498973 0
391 0 0.01497275917560645 0
392 0 0.01391774733914367 0
393 0 0.01283108514490534 0
394 0 0.01171182307963185 0
395 0 0.01055898315941004 0
396 0 0.009371558045012746 0
397 0 0.008148510176535582 0
398 0 0.006888770863391944 0
399 0 0.005591239379417877 0
400 0 0.004254781958586758 0
401 0 0.002878230810136155 0
402 0 0.00146038312025347 0
403 0.00025 0.001460383124567106 0
404 0.00025 0.002878230823701609 0
405 0.00025 0.004254781980860996 0
406 0.00025 0.005591239409882265 0
407 0.00025 0.006888770902122872 0
408 0.00025 0.008148510221914242 0
409 0.00025 0.009371558097158637 0
410 0.00025 0.01055898321789043 0
411 0.00025 0.01171182314488754 0
412 0.00025 0.01283108521505801 0
413 0.00025 0.01391774741422211 0
414 0.00025 0.01497275925547564 0
415 0.00025 0.015997042599307 0
416 0.00025 0.0169914924497413 0
417 0.00025 0.01795697774304715 0
418 0.00025 0.01889434211694475 0
419 0.00025 0.01980440461260586 0
420 0.00025 0.02068796043022215 0
421 0.00025 0.02154578162237839 0
422 0.00025 0.02237861772642313 0
423 0.00025 0.02318719645651553 0
424 0.00025 0.02397222435281019 0
425 0.00025 0.02473438736506436 0
426 0.00025 0.02547435145750515 0
427 0.00025 0.02619276319836341 0
428 0.00025 0.02689025032658295 0
429 0.00025 0.02756742229010502 0
430 0.00025 0.02822487080172497 0
431 0.00025 0.02886317033965309 0
432 0.00025 0.02948287862662829 0
433 0.00025 0.03008453714741792 0
434 0.00025 0.03066867162759314 0
435 0.00025 0.03123579248407017 0
436 0.00025 0.03178639526231165 0
437 0.00025 0.03232096107590706 0
438 0.00025 0.03283995700817271 0
439 0.00025 0.03334383654641883 0
440 0.00025 0.03383303998726694 0
441 0.00025 0.03430799478853584 0
442 0.00025 0.03476911594675066 0
443 0.00025 0.03521680640460959 0
444 0.00025 0.03565145733497897 0
445 0.00025 0.0360734485182416 0
446 0.00025 0.0364831486946349 0
447 0.00025 0.03688091585585108 0
448 0.00025 0.03726709758364152 0
449 0.0002500000000000001 0.03764203129135864 0
450 0.0002500000000000001 0.03800604459314954 0
451 0.0002500000000000001 0.03835945557753725 0
452 0.0002500000000000001 0.0387025730322492 0
453 0.0002500000000000001 0.0390356967662734 0
454 0.0002500000000000001 0.03935911786970566 0
455 0.0002500000000000001 0.03967311894949267 0
456 0.0002500000000000001 0.03997797436481974 0
457 0.0002500000000000001 0.04027395049294853 0
458 0.0002500000000000001 0.04056130595170049 0
459 0.0002500000000000001 0.04084029183774977 0
460 0.0002500000000000001 0.04111115192759938 0
461 0.0002500000000000001 0.04137412288572319 0
462 0.0002500000000000001 0.0416294345005575 0
463 0.0002500000000000001 0.04187730984912224 0
464 0.0002500000000000001 0.04211796553315804 0
465 0.0002500000000000001 0.04235161183565014 0
466 0.0002500000000000001 0.04257845289287348 0
467 0.0002500000000000001 0.04279868692925395 0
468 0.0002500000000000001 0.04301250638312008 0
469 0.0002500000000000001 0.04322009809226886 0
470 0.0002500000000000001 0.04342164344088254 0
471 0.0002500000000000001 0.04361731853022579 0
472 0.0002500000000000001 0.04380729434841931 0
473 0.0002500000000000001 0.04399173688918123 0
474 0.0002500000000000001 0.04417080732364007 0
475 0.0002500000000000001 0.04434466211008656 0
476 0.0002500000000000001 0.04451345316657503 0
477 0.0002500000000000001 0.04467732798897098 0
478 0.0002500000000000001 0.04483642975383801 0
479 0.0002500000000000001 0.04499089747330055 0
480 0.0002500000000000001 0.045140866136604 0
481 0.0002500000000000001 0.04528646678698327 0
482 0.0002500000000000001 0.0454278266444088 0
483 0.0002500000000000001 0.04556506922510783 0
484 0.0002500000000000001 0.04569831444795266 0
485 0.0002500000000000001 0.04582767873332277 0
486 0.0002500000000000001 0.04595327513127182 0
487 0.0002500000000000001 0.04607521338149145 0
488 0.0002500000000000001 0.0461936000239274 0
489 0.0002500000000000001 0.04630853851510734 0
490 0.0002500000000000001 0.04642012928812611 0
491 0.0002500000000000001 0.0465284698493155 0
492 0.0002500000000000001 0.0466336548570046 0
493 0.0002500000000000001 0.04673577622514152 0
494 0.0002500000000000001 0.04683492318564347 0
495 0.0002500000000000001 0.04693118237479284 0
496 0.0002500000000000001 0.04702463789441159 0
497 0.0002500000000000001 0.04711537140212645 0
498 0.0002500000000000001 0.04720346218778693 0
499 0.0002500000000000001 0.04728898722017591 0
500 0.0002500000000000001 0.04737202123088976 0
501 0.0002500000000000001 0.04745263677795653 0
502 0.0002500000000000001 0.04753090430727019 0
503 0.0002500000000000001 0.04760689220122843 0
504 0.0002500000000000001 0.04768066685290368 0
505 0.0002500000000000001 0.04775229273089558 0
506 0.0002500000000000001 0.04782183241311646 0
507 0.0002500000000000001 0.04788934667246771 0
508 0.0002500000000000001 0.04795489449636301 0
509 0.0002500000000000001 0.04801853316176908 0
510 0.0002500000000000001 0.0480803182711342 0
511 0.0002500000000000001 0.04814030382075078 0
512 0.0002500000000000001 0.0481985422115101 0
513 0.0002500000000000001 0.04825508433911219 0
514 0.0002500000000000001 0.04830997961482025 0
515 0.0002500000000000001 0.04836327599372237 0
516 0.0002500000000000001 0.04841502005151137 0
517 0.0002500000000000001 0.04846525699611328 0
518 0.0002500000000000001 0.04851403071860059 0
519 0.0002500000000000001 0.04856138385500526 0
520 0.0002500000000000001 0.04860735777967681 0
521 0.0002500000000000001 0.04865199265740464 0
522 0.0002500000000000001 0.04869532749088833 0
523 0.0002500000000000001 0.04873740014507936 0
524 0.0002500000000000001 0.04877824738020528 0
525 0.0002500000000000001 0.04881790488320327 0
526 0.0002500000000000001 0.04885640731774317 0
527 0.0002500000000000001 0.04889378832413081 0
528 0.0002500000000000001 0.04893008055639957 0
529 0.0002500000000000001 0.04896531573905803 0
530 0.0002500000000000001 0.04899952465110183 0
531 0.0002500000000000001 0.04903273718129442 0
532 0.0002500000000000001 0.04906498235780719 0
533 0.0002500000000000001 0.04909628835486707 0
534 0.0002500000000000001 0.04912668253151475 0
535 0.0002500000000000001 0.04915619144554417 0
536 0.0002500000000000001 0.04918484087838487 0
537 0.0002500000000000001 0.04921265586012884 0
538 0.0002500000000000001 0.04923966068650011 0
539 0.0002500000000000001 0.04926587896621797 0
540 0.0002500000000000001 0.04929133361508964 0
541 0.0002500000000000001 0.04931604686408586 0
542 0.0002500000000000001 0.04934004030976645 0
543 0.0002500000000000001 0.04936333491767456 0
544 0.0002500000000000001 0.04938595103834618 0
545 0.0002500000000000001 0.0494079084417836 0
546 0.0002500000000000001 0.04942922630829558 0
547 0.0002500000000000001 0.04944992326251051 0
548 0.0002500000000000001 0.04947001739426544 0
549 0.0002500000000000001 0.04948952625736058 0
550 0.0002500000000000001 0.04950846690060781 0
551 0.0002500000000000001 0.04952685587487195 0
552 0.0002500000000000001 0.049544709251773 0
553 0.0002500000000000001 0.04956204262881441 0
554 0.0002500000000000001 0.04957887114689408 0
555 0.0002500000000000001 0.04959520951567994 0
556 0.0002500000000000001 0.04961107200675872 0
557 0.0002500000000000001 0.0496264724786857 0
558 0.0002500000000000001 0.04964142440069853 0
559 0.0002500000000000001 0.04965594083283227 0
560 0.0002500000000000001 0.04967003444791435 0
561 0.0002500000000000001 0.04968371757601994 0
562 0.0002500000000000001 0.04969700217400385 0
563 0.0002500000000000001 0.04970989983877687 0
564 0.0002500000000000001 0.04972242184585544 0
565 0.0002500000000000001 0.0497345791365733 0
566 0.0002500000000000001 0.04974638232844501 0
567 0.0002500000000000001 0.04975784173235498 0
568 0.0002500000000000001 0.04976896736606601 0
569 0.0002500000000000001 0.04977976894969653 0
570 0.0002500000000000001 0.04979025592404163 0
571 0.0002500000000000001 0.04980043745454024 0
572 0.0002500000000000001 0.04981032243777663 0
573 0.0002500000000000001 0.04981991951568699 0
574 0.0002500000000000001 0.04982923705866274 0
575 0.0002500000000000001 0.04983828321339011 0
576 0.0002500000000000001 0.04984706589371188 0
577 0.0002500000000000001 0.04985559276246457 0
578 0.0002500000000000001 0.0498638712781072 0
579 0.0002500000000000001 0.04987190867341466 0
580 0.0002500000000000001 0.04987971196988172 0
581 0.0002500000000000001 0.04988728798831922 0
582 0.0002500000000000001 0.04989464334015115 0
583 0.0002500000000000001 0.04990178446027137 0
584 0.0002500000000000001 0.04990871758500672 0
585 0.0002500000000000001 0.04991544877492433 0
586 0.0002500000000000001 0.04992198391319324 0
587 0.0002500000000000001 0.04992832870608672 0
588 0.0002500000000000001 0.04993448870309913 0
589 0.0002500000000000001 0.04994046928490486 0
590 0.0002500000000000001 0.04994627567290916 0
591 0.0002500000000000001 0.04995191293838568 0
592 0.0002500000000000001 0.04995738601121696 0
593 0.0002500000000000001 0.04996269967724238 0
594 0.0002500000000000001 0.04996785857588047 0
595 0.0002500000000000001 0.04997286721934431 0
596 0.0002500000000000001 0.04997772997816886 0
597 0.0002500000000000001 0.04998245110051353 0
598 0.0002500000000000001 0.04998703471866268 0
599 0.0002500000000000001 0.04999148483493437 0
600 0.0002500000000000001 0.04999580533933851 0
$EndNodes
$Elements
800
1 1 2 2 1 1 5
2 1 2 2 1 5 2
3 1 2 3 2 2 6
4 1 2 3 2 6 7
5 1 2 3 2 7 8
6 1 2 3 2 8 9
7 1 2 3 2 9 10
8 1 2 3 2 10 11
9 1 2 3 2 11 12
10 1 2 3 2 12 13
11 1 2 3 2 13 14
12 1 2 3 2 14 15
13 1 2 3 2 15 16
14 1 2 3 2 16 17
15 1 2 3 2 17 18
16 1 2 3 2 18 19
17 1 2 3 2 19 20
18 1 2 3 2 20 21
19 1 2 3 2 21 22
20 1 2 3 2 22 23
21 1 2 3 2 23 24
22 1 2 3 2 24 25
23 1 2 3 2 25 26
24 1 2 3 2 26 27
25 1 2 3 2 27 28
26 1 2 3 2 28 29
27 1 2 3 2 29 30
28 1 2 3 2 30 31
29 1 2 3 2 31 32
30 1 2 3 2 32 33
31 1 2 3 2 33 34
32 1 2 3 2 34 35
33 1 2 3 2 35 36
34 1 2 3 2 36 37
35 1 2 3 2 37 38
36 1 2 3 2 38 39
37 1 2 3 2 39 40
38 1 2 3 2 40 41
39 1 2 3 2 41 42
40 1 2 3 2 42 43
41 1 2 3 2 43 44
42 1 2 3 2 44 45
43 1 2 3 2 45 46
44 1 2 3 2 46 47
45 1 2 3 2 47 48
46 1 2 3 2 48 49
47 1 2 3 2 49 50
48 1 2 3 2 50 51
49 1 2 3 2 51 52
50 1 2 3 2 52 53
51 1 2 3 2 53 54
52 1 2 3 2 54 55
53 1 2 3 2 55 56
54 1 2 3 2 56 57
55 1 2 3 2 57 58
56 1 2 3 2 58 59
57 1 2 3 2 59 60
58 1 2 3 2 60 61
59 1 2 3 2 61 62
60 1 2 3 2 62 63
61 1 2 3 2 63 64
62 1 2 3 2 64 65
63 1 2 3 2 65 66
64 1 2 3 2 66 67
65 1 2 3 2 67 68
66 1 2 3 2 68 69
67 1 2 3 2 69 70
68 1 2 3 2 70 71
69 1 2 3 2 71 72
70 1 2 3 2 72 73
71 1 2 3 2 73 74
72 1 2 3 2 74 75
73 1 2 3 2 75 76
74 1 2 3 2 76 77
75 1 2 3 2 77 78
76 1 2 3 2 78 79
77 1 2 3 2 79 80
78 1 2 3 2 80 81
79 1 2 3 2 81 82
80 1 2 3 2 82 83
81 1 2 3 2 83 84
82 1 2 3 2 84 85
83 1 2 3 2 85 86
84 1 2 3 2 86 87
85 1 2 3 2 87 88
86 1 2 3 2 88 89
87 1 2 3 2 89 90
88 1 2 3 2 90 91
89 1 2 3 2 91 92
90 1 2 3 2 92 93
91 1 2 3 2 93 94
92 1 2 3 2 94 95
93 1 2 3 2 95 96
94 1 2 3 2 96 97
95 1 2 3 2 97 98
96 1 2 3 2 98 99
97 1 2 3 2 99 100
98 1 2 3 2 100 101
99 1 2 3 2 101 102
100 1 2 3 2 102 103
101 1 2 3 2 103 104
102 1 2 3 2 104 105
103 1 2 3 2 105 106
104 1 2 3 2 106 107
105 1 2 3 2 107 108
106 1 2 3 2 108 109
107 1 2 3 2 109 110
108 1 2 3 2 110 111
109 1 2 3 2 111 112
110 1 2 3 2 112 113
111 1 2 3 2 113 114
112 1 2 3 2 114 115
113 1 2 3 2 115 116
114 1 2 3 2 116 117
115 1 2 3 2 117 118
116 1 2 3 2 118 119
117 1 2 3 2 119 120
118 1 2 3 2 120 121
119 1 2 3 2 121 122
120 1 2 3 2 122 123
121 1 2 3 2 123 124
122 1 2 3 2 124 125
123 1 2 3 2 125 126
124 1 2 3 2 126 127
125 1 2 3 2 127 128
126 1 2 3 2 128 129
127 1 2 3 2 129 130
128 1 2 3 2 130 131
129 1 2 3 2 131 132
130 1 2 3 2 132 133
131 1 2 3 2 133 134
132 1 2 3 2 134 135
133 1 2 3 2 135 136
134 1 2 3 2 136 137
135 1 2 3 2 137 138
136 1 2 3 2 138 139
137 1 2 3 2 139 140
138 1 2 3 2 140 141
139 1 2 3 2 141 142
140 1 2 3 2 142 143
141 1 2 3 2 143 144
142 1 2 3 2 144 145
143 1 2 3 2 145 146
144 1 2 3 2 146 147
145 1 2 3 2 147 148
146 1 2 3 2 148 149
147 1 2 3 2 149 150
148 1 2 3 2 150 151
149 1 2 3 2 151 152
150 1 2 3 2 152 153
151 1 2 3 2 153 154
152 1 2 3 2 154 155
153 1 2 3 2 155 156
154 1 2 3 2 156 157
155 1 2 3 2 157 158
156 1 2 3 2 158 159
157 1 2 3 2 159 160
158 1 2 3 2 160 161
159 1 2 3 2 161 162
160 1 2 3 2 162 163
161 1 2 3 2 163 164
162 1 2 3 2 164 165
163 1 2 3 2 165 166
164 1 2 3 2 166 167
165 1 2 3 2 167 168
166 1 2 3 2 168 169
167 1 2 3 2 169 170
168 1 2 3 2 170 171
169 1 2 3 2 171 172
170 1 2 3 2 172 173
171 1 2 3 2 173 174
172 1 2 3 2 174 175
173 1 2 3 2 175 176
174 1 2 3 2 176 177
175 1 2 3 2 177 178
176 1 2 3 2 178 179
177 1 2 3 2 179 180
178 1 2 3 2 180 181
179 1 2 3 2 181 182
180 1 2 3 2 182 183
181 1 2 3 2 183 184
182 1 2 3 2 184 185
183 1 2 3 2 185 186
184 1 2 3 2 186 187
185 1 2 3 2 187 188
186 1 2 3 2 188 189
187 1 2 3 2 189 190
188 1 2 3 2 190 191
189 1 2 3 2 191 192
190 1 2 3 2 192 193
191 1 2 3 2 193 194
192 1 2 3 2 194 195
193 1 2 3 2 195 196
194 1 2 3 2 196 197
195 1 2 3 2 197 198
196 1 2 3 2 198 199
197 1 2 3 2 199 200
198 1 2 3 2 200 201
199 1 2 3 2 201 202
200 1 2 3 2 202 203
201 1 2 3 2 203 3
202 1 2 1 3 3 204
203 1 2 1 3 204 4
204 1 2 3 4 4 205
205 1 2 3 4 205 206
206 1 2 3 4 206 207
207 1 2 3 4 207 208
208 1 2 3 4 208 209
209 1 2 3 4 209 210
210 1 2 3 4 210 211
211 1 2 3 4 211 212
212 1 2 3 4 212 213
213 1 2 3 4 213 214
214 1 2 3 4 214 215
215 1 2 3 4 215 216
216 1 2 3 4 216 217
217 1 2 3 4 217 218
218 1 2 3 4 218 219
219 1 2 3 4 219 220
220 1 2 3 4 220 221
221 1 2 3 4 221 222
222 1 2 3 4 222 223
223 1 2 3 4 223 224
224 1 2 3 4 224 225
225 1 2 3 4 225 226
226 1 2 3 4 226 227
227 1 2 3 4 227 228
228 1 2 3 4 228 229
229 1 2 3 4 229 230
230 1 2 3 4 230 231
231 1 2 3 4 231 232
232 1 2 3 4 232 233
233 1 2 3 4 233 234
234 1 2 3 4 234 235
235 1 2 3 4 235 236
236 1 2 3 4 236 237
237 1 2 3 4 237 238
238 1 2 3 4 238 239
239 1 2 3 4 239 240
240 1 2 3 4 240 241
241 1 2 3 4 241 242
242 1 2 3 4 242 243
243 1 2 3 4 243 244
244 1 2 3 4 244 245
245 1 2 3 4 245 246
246 1 2 3 4 246 247
247 1 2 3 4 247 248
248 1 2 3 4 248 249
249 1 2 3 4 249 250
250 1 2 3 4 250 251
251 1 2 3 4 251 252
252 1 2 3 4 252 253
253 1 2 3 4 253 254
254 1 2 3 4 254 255
255 1 2 3 4 255 256
256 1 2 3 4 256 257
257 1 2 3 4 257 258
258 1 2 3 4 258 259
259 1 2 3 4 259 260
260 1 2 3 4 260 261
261 1 2 3 4 261 262
262 1 2 3 4 262 263
263 1 2 3 4 263 264
264 1 2 3 4 264 265
265 1 2 3 4 265 266
266 1 2 3 4 266 267
267 1 2 3 4 267 268
268 1 2 3 4 268 269
269 1 2 3 4 269 270
270 1 2 3 4 270 271
271 1 2 3 4 271 272
272 1 2 3 4 272 273
273 1 2 3 4 273 274
274 1 2 3 4 274 275
275 1 2 3 4 275 276
276 1 2 3 4 276 277
277 1 2 3 4 277 278
278 1 2 3 4 278 279
279 1 2 3 4 279 280
280 1 2 3 4 280 281
281 1 2 3 4 281 282
282 1 2 3 4 282 283
283 1 2 3 4 283 284
284 1 2 3 4 284 285
285 1 2 3 4 285 286
286 1 2 3 4 286 287
287 1 2 3 4 287 288
288 1 2 3 4 288 289
289 1 2 3 4 289 290
290 1 2 3 4 290 291
291 1 2 3 4 291 292
292 1 2 3 4 292 293
293 1 2 3 4 293 294
294 1 2 3 4 294 295
295 1 2 3 4 295 296
296 1 2 3 4 296 297
297 1 2 3 4 297 298
298 1 2 3 4 298 299
299 1 2 3 4 299 300
300 1 2 3 4 300 301
301 1 2 3 4 301 302
302 1 2 3 4 302 303
303 1 2 3 4 303 304
304 1 2 3 4 304 305
305 1 2 3 4 305 306
306 1 2 3 4 306 307
307 1 2 3 4 307 308
308 1 2 3 4 308 309
309 1 2 3 4 309 310
310 1 2 3 4 310 311
311 1 2 3 4 311 312
312 1 2 3 4 312 313
313 1 2 3 4 313 314
314 1 2 3 4 314 315
315 1 2 3 4 315 316
316 1 2 3 4 316 317
317 1 2 3 4 317 318
318 1 2 3 4 318 319
319 1 2 3 4 319 320
320 1 2 3 4 320 321
321 1 2 3 4 321 322
322 1 2 3 4 322 323
323 1 2 3 4 323 324
324 1 2 3 4 324 325
325 1 2 3 4 325 326
326 1 2 3 4 326 327
327 1 2 3 4 327 328
328 1 2 3 4 328 329
329 1 2 3 4 329 330
330 1 2 3 4 330 331
331 1 2 3 4 331 332
332 1 2 3 4 332 333
333 1 2 3 4 333 334
334 1 2 3 4 334 335
335 1 2 3 4 335 336
336 1 2 3 4 336 337
337 1 2 3 4 337 338
338 1 2 3 4 338 339
339 1 2 3 4 339 340
340 1 2 3 4 340 341
341 1 2 3 4 341 342
342 1 2 3 4 342 343
343 1 2 3 4 343 344
344 1 2 3 4 344 345
345 1 2 3 4 345 346
346 1 2 3 4 346 347
347 1 2 3 4 347 348
348 1 2 3 4 348 349
349 1 2 3 4 349 350
350 1 2 3 4 350 351
351 1 2 3 4 351 352
352 1 2 3 4 352 353
353 1 2 3 4 353 354
354 1 2 3 4 354 355
355 1 2 3 4 355 356
356 1 2 3 4 356 357
357 1 2 3 4 357 358
358 1 2 3 4 358 359
359 1 2 3 4 359 360
360 1 2 3 4 360 361
361 1 2 3 4 361 362
362 1 2 3 4 362 363
363 1 2 3 4 363 364
364 1 2 3 4 364 365
365 1 2 3 4 365 366
366 1 2 3 4 366 367
367 1 2 3 4 367 368
368 1 2 3 4 368 369
369 1 2 3 4 369 370
370 1 2 3 4 370 371
371 1 2 3 4 371 372
372 1 2 3 4 372 373
373 1 2 3 4 373 374
374 1 2 3 4 374 375
375 1 2 3 4 375 376
376 1 2 3 4 376 377
377 1 2 3 4 377 378
378 1 2 3 4 378 379
379 1 2 3 4 379 380
380 1 2 3 4 380 381
381 1 2 3 4 381 382
382 1 2 3 4 382 383
383 1 2 3 4 383 384
384 1 2 3 4 384 385
385 1 2 3 4 385 386
386 1 2 3 4 386 387
387 1 2 3 4 387 388
388 1 2 3 4 388 389
389 1 2 3 4 389 390
390 1 2 3 4 390 391
391 1 2 3 4 391 392
392 1 2 3 4 392 393
393 1 2 3 4 393 394
394 1 2 3 4 394 395
395 1 2 3 4 395 396
396 1 2 3 4 396 397
397 1 2 3 4 397 398
398 1 2 3 4 398 399
399 1 2 3 4 399 400
400 1 2 3 4 400 401
401 1 2 3 4 401 402
402 1 2 3 4 402 1
403 3 2 1 1 1 5 403 402
404 3 2 1 1 402 403 404 401
405 3 2 1 1 401 404 405 400
406 3 2 1 1 400 405 406 399
407 3 2 1 1 399 406 407 398
408 3 2 1 1 398 407 408 397
409 3 2 1 1 397 408 409 396
410 3 2 1 1 396 409 410 395
411 3 2 1 1 395 410 411 394
412 3 2 1 1 394 411 412 393
413 3 2 1 1 393 412 413 392
414 3 2 1 1 392 413 414 391
415 3 2 1 1 391 414 415 390
416 3 2 1 1 390 415 416 389
417 3 2 1 1 389 416 417 388
418 3 2 1 1 388 417 418 387
419 3 2 1 1 387 418 419 386
420 3 2 1 1 386 419 420 385
421 3 2 1 1 385 420 421 384
422 3 2 1 1 384 421 422 383
423 3 2 1 1 383 422 423 382
424 3 2 1 1 382 423 424 381
425 3 2 1 1 381 424 425 380
426 3 2 1 1 380 425 426 379
427 3 2 1 1 379 426 427 378
428 3 2 1 1 378 427 428 377
429 3 2 1 1 377 428 429 376
430 3 2 1 1 376 429 430 375
431 3 2 1 1 375 430 431 374
432 3 2 1 1 374 431 432 373
433 3 2 1 1 373 432 433 372
434 3 2 1 1 372 433 434 371
435 3 2 1 1 371 434 435 370
436 3 2 1 1 370 435 436 369
437 3 2 1 1 369 436 437 368
438 3 2 1 1 368 437 438 367
439 3 2 1 1 367 438 439 366
440 3 2 1 1 366 439 440 365
441 3 2 1 1 365 440 441 364
442 3 2 1 1 364 441 442 363
443 3 2 1 1 363 442 443 362
444 3 2 1 1 362 443 444 361
445 3 2 1 1 361 444 445 360
446 3 2 1 1 360 445 446 359
447 3 2 1 1 359 446 447 358
448 3 2 1 1 358 447 448 357
449 3 2 1 1 357 448 449 356
450 3 2 1 1 356 449 450 355
451 3 2 1 1 355 450 451 354
452 3 2 1 1 354 451 452 353
453 3 2 1 1 353 452 453 352
454 3 2 1 1 352 453 454 351
455 3 2 1 1 351 454 455 350
456 3 2 1 1 350 455 456 349
457 3 2 1 1 349 456 457 348
458 3 2 1 1 348 457 458 347
459 3 2 1 1 347 458 459 346
460 3 2 1 1 346 459 460 345
461 3 2 1 1 345 460 461 344
462 3 2 1 1 344 461 462 343
463 3 2 1 1 343 462 463 342
464 3 2 1 1 342 463 464 341
465 3 2 1 1 341 464 465 340
466 3 2 1 1 340 465 466 339
467 3 2 1 1 339 466 467 338
468 3 2 1 1 338 467 468 337
469 3 2 1 1 337 468 469 336
470 3 2 1 1 336 469 470 335
471 3 2 1 1 335 470 471 334
472 3 2 1 1 334 471 472 333
473 3 2 1 1 333 472 473 332
474 3 2 1 1 332 473 474 331
475 3 2 1 1 331 474 475 330
476 3 2 1 1 330 475 476 329
477 3 2 1 1 329 476 477 328
478 3 2 1 1 328 477 478 327
479 3 2 1 1 327 478 479 326
480 3 2 1 1 326 479 480 325
481 3 2 1 1 325 480 481 324
482 3 2 1 1 324 481 482 323
483 3 2 1 1 323 482 483 322
484 3 2 1 1 322 483 484 321
485 3 2 1 1 321 484 485 320
486 3 2 1 1 320 485 486 319
487 3 2 1 1 319 486 487 318
488 3 2 1 1 318 487 488 317
489 3 2 1 1 317 488 489 316
490 3 2 1 1 316 489 490 315
491 3 2 1 1 315 490 491 314
492 3 2 1 1 314 491 492 313
493 3 2 1 1 313 492 493 312
494 3 2 1 1 312 493 494 311
495 3 2 1 1 311 494 495 310
496 3 2 1 1 310 495 496 309
497 3 2 1 1 309 496 497 308
498 3 2 1 1 308 497 498 307
499 3 2 1 1 307 498 499 306
500 3 2 1 1 306 499 500 305
501 3 2 1 1 305 500 501 304
502 3 2 1 1 304 501 502 303
503 3 2 1 1 303 502 503 302
504 3 2 1 1 302 503 504 301
505 3 2 1 1 301 504 505 300
506 3 2 1 1 300 505 506 299
507 3 2 1 1 299 506 507 298
508 3 2 1 1 298 507 508 297
509 3 2 1 1 297 508 509 296
510 3 2 1 1 296 509 510 295
511 3 2 1 1 295 510 511 294
512 3 2 1 1 294 511 512 293
513 3 2 1 1 293 512 513 292
514 3 2 1 1 292 513 514 291
515 3 2 1 1 291 514 515 290
516 3 2 1 1 290 515 516 289
517 3 2 1 1 289 516 517 288
518 3 2 1 1 288 517 518 287
519 3 2 1 1 287 518 519 286
520 3 2 1 1 286 519 520 285
521 3 2 1 1 285 520 521 284
522 3 2 1 1 284 521 522 283
523 3 2 1 1 283 522 523 282
524 3 2 1 1 282 523 524 281
525 3 2 1 1 281 524 525 280
526 3 2 1 1 280 525 526 279
527 3 2 1 1 279 526 527 278
528 3 2 1 1 278 527 528 277
529 3 2 1 1 277 528 529 276
530 3 2 1 1 276 529 530 275
531 3 2 1 1 275 530 531 274
532 3 2 1 1 274 531 532 273
533 3 2 1 1 273 532 533 272
534 3 2 1 1 272 533 534 271
535 3 2 1 1 271 534 535 270
536 3 2 1 1 270 535 536 269
537 3 2 1 1 269 536 537 268
538 3 2 1 1 268 537 538 267
539 3 2 1 1 267 538 539 266
540 3 2 1 1 266 539 540 265
541 3 2 1 1 265 540 541 264
542 3 2 1 1 264 541 542 263
543 3 2 1 1 263 542 543 262
544 3 2 1 1 262 543 544 261
545 3 2 1 1 261 544 545 260
546 3 2 1 1 260 545 546 259
547 3 2 1 1 259 546 547 258
548 3 2 1 1 258 547 548 257
549 3 2 1 1 257 548 549 256
550 3 2 1 1 256 549 550 255
551 3 2 1 1 255 550 551 254
552 3 2 1 1 254 551 552 253
553 3 2 1 1 253 552 553 252
554 3 2 1 1 252 553 554 251
555 3 2 1 1 251 554 555 250
556 3 2 1 1 250 555 556 249
557 3 2 1 1 249 556 557 248
558 3 2 1 1 248 557 558 247
559 3 2 1 1 247 558 559 246
560 3 2 1 1 246 559 560 245
561 3 2 1 1 245 560 561 244
562 3 2 1 1 244 561 562 243
563 3 2 1 1 243 562 563 242
564 3 2 1 1 242 563 564 241
565 3 2 1 1 241 564 565 240
566 3 2 1 1 240 565 566 239
567 3 2 1 1 239 566 567 238
568 3 2 1 1 238 567 568 237
569 3 2 1 1 237 568 569 236
570 3 2 1 1 236 569 570 235
571 3 2 1 1 235 570 571 234
572 3 2 1 1 234 571 572 233
573 3 2 1 1 233 572 573 232
574 3 2 1 1 232 573 574 231
575 3 2 1 1 231 574 575 230
576 3 2 1 1 230 575 576 229
577 3 2 1 1 229 576 577 228
578 3 2 1 1 228 577 578 227
579 3 2 1 1 227 578 579 226
580 3 2 1 1 226 579 580 225
581 3 2 1 1 225 580 581 224
582 3 2 1 1 224 581 582 223
583 3 2 1 1 223 582 583 222
584 3 2 1 1 222 583 584 221
585 3 2 1 1 221 584 585 220
586 3 2 1 1 220 585 586 219
587 3 2 1 1 219 586 587 218
588 3 2 1 1 218 587 588 217
589 3 2 1 1 217 588 589 216
590 3 2 1 1 216 589 590 215
591 3 2 1 1 215 590 591 214
592 3 2 1 1 214 591 592 213
593 3 2 1 1 213 592 593 212
594 3 2 1 1 212 593 594 211
595 3 2 1 1 211 594 595 210
596 3 2 1 1 210 595 596 209
597 3 2 1 1 209 596 597 208
598 3 2 1 1 208 597 598 207
599 3 2 1 1 207 598 599 206
600 3 2 1 1 206 599 600 205
601 3 2 1 1 205 600 204 4
602 3 2 1 1 5 2 6 403
603 3 2 1 1 403 6 7 404
604 3 2 1 1 404 7 8 405
605 3 2 1 1 405 8 9 406
606 3 2 1 1 406 9 10 407
607 3 2 1 1 407 10 11 408
608 3 2 1 1 408 11 12 409
609 3 2 1 1 409 12 13 410
610 3 2 1 1 410 13 14 411
611 3 2 1 1 411 14 15 412
612 3 2 1 1 412 15 16 413
613 3 2 1 1 413 16 17 414
614 3 2 1 1 414 17 18 415
615 3 2 1 1 415 18 19 416
616 3 2 1 1 416 19 20 417
617 3 2 1 1 417 20 21 418
618 3 2 1 1 418 21 22 419
619 3 2 1 1 419 22 23 420
620 3 2 1 1 420 23 24 421
621 3 2 1 1 421 24 25 422
622 3 2 1 1 422 25 26 423
623 3 2 1 1 423 26 27 424
624 3 2 1 1 424 27 28 425
625 3 2 1 1 425 28 29 426
626 3 2 1 1 426 29 30 427
627 3 2 1 1 427 30 31 428
628 3 2 1 1 428 31 32 429
629 3 2 1 1 429 32 33 430
630 3 2 1 1 430 33 34 431
631 3 2 1 1 431 34 35 432
632 3 2 1 1 432 35 36 433
633 3 2 1 1 433 36 37 434
634 3 2 1 1 434 37 38 435
635 3 2 1 1 435 38 39 436
636 3 2 1 1 436 39 40 437
637 3 2 1 1 437 40 41 438
638 3 2 1 1 438 41 42 439
639 3 2 1 1 439 42 43 440
640 3 2 1 1 440 43 44 441
641 3 2 1 1 441 44 45 442
642 3 2 1 1 442 45 46 443
643 3 2 1 1 443 46 47 444
644 3 2 1 1 444 47 48 445
645 3 2 1 1 445 48 49 446
646 3 2 1 1 446 49 50 447
647 3 2 1 1 447 50 51 448
648 3 2 1 1 448 51 52 449
649 3 2 1 1 449 52 53 450
650 3 2 1 1 450 53 54 451
651 3 2 1 1 451 54 55 452
652 3 2 1 1 452 55 56 453
653 3 2 1 1 453 56 57 454
654 3 2 1 1 454 57 58 455
655 3 2 1 1 455 58 59 456
656 3 2 1 1 456 59 60 457
657 3 2 1 1 457 60 61 458
658 3 2 1 1 458 61 62 459
659 3 2 1 1 459 62 63 460
660 3 2 1 1 460 63 64 461
661 3 2 1 1 461 64 65 462
662 3 2 1 1 462 65 66 463
663 3 2 1 1 463 66 67 464
664 3 2 1 1 464 67 68 465
665 3 2 1 1 465 68 69 466
666 3 2 1 1 466 69 70 467
667 3 2 1 1 467 70 71 468
668 3 2 1 1 468 71 72 469
669 3 2 1 1 469 72 73 470
670 3 2 1 1 470 73 74 471
671 3 2 1 1 471 74 75 472
672 3 2 1 1 472 75 76 473
673 3 2 1 1 473 76 77 474
674 3 2 1 1 474 77 78 475
675 3 2 1 1 475 78 79 476
676 3 2 1 1 476 79 80 477
677 3 2 1 1 477 80 81 478
678 3 2 1 1 478 81 82 479
679 3 2 1 1 479 82 83 480
680 3 2 1 1 480 83 84 481
681 3 2 1 1 481 84 85 482
682 3 2 1 1 482 85 86 483
683 3 2 1 1 483 86 87 484
684 3 2 1 1 484 87 88 485
685 3 2 1 1 485 88 89 486
686 3 2 1 1 486 89 90 487
687 3 2 1 1 487 90 91 488
688 3 2 1 1 488 91 92 489
689 3 2 1 1 489 92 93 490
690 3 2 1 1 490 93 94 491
691 3 2 1 1 491 94 95 492
692 3 2 1 1 492 95 96 493
693 3 2 1 1 493 96 97 494
694 3 2 1 1 494 97 98 495
695 3 2 1 1 495 98 99 496
696 3 2 1 1 496 99 100 497
697 3 2 1 1 497 100 101 498
698 3 2 1 1 498 101 102 499
699 3 2 1 1 499 102 103 500
700 3 2 1 1 500 103 104 501
701 3 2 1 1 501 104 105 502
702 3 2 1 1 502 105 106 503
703 3 2 1 1 503 106 107 504
704 3 2 1 1 504 107 108 505
705 3 2 1 1 505 108 109 506
706 3 2 1 1 506 109 110 507
707 3 2 1 1 507 110 111 508
708 3 2 1 1 508 111 112 509
709 3 2 1 1 509 112 113 510
710 3 2 1 1 510 113 114 511
711 3 2 1 1 511 114 115 512
712 3 2 1 1 512 115 116 513
713 3 2 1 1 513 116 117 514
714 3 2 1 1 514 117 118 515
715 3 2 1 1 515 118 119 516
716 3 2 1 1 516 119 120 517
717 3 2 1 1 517 120 121 518
718 3 2 1 1 518 121 122 519
719 3 2 1 1 519 122 123 520
720 3 2 1 1 520 123 124 521
721 3 2 1 1 521 124 125 522
722 3 2 1 1 522 125 126 523
723 3 2 1 1 523 126 127 524
724 3 2 1 1 524 127 128 525
725 3 2 1 1 525 128 129 526
726 3 2 1 1 526 129 130 527
727 3 2 1 1 527 130 131 528
728 3 2 1 1 528 131 132 529
729 3 2 1 1 529 132 133 530
730 3 2 1 1 530 133 134 531
731 3 2 1 1 531 134 135 532
732 3 2 1 1 532 135 136 533
733 3 2 1 1 533 136 137 534
734 3 2 1 1 534 137 138 535
735 3 2 1 1 535 138 139 536
736 3 2 1 1 536 139 140 537
737 3 2 1 1 537 140 141 538
738 3 2 1 1 538 141 142 539
739 3 2 1 1 539 142 143 540
740 3 2 1 1 540 143 144 541
741 3 2 1 1 541 144 145 542
742 3 2 1 1 542 145 146 543
743 3 2 1 1 543 146 147 544
744 3 2 1 1 544 147 148 545
745 3 2 1 1 545 148 149 546
746 3 2 1 1 546 149 150 547
747 3 2 1 1 547 150 151 548
748 3 2 1 1 548 151 152 549
749 3 2 1 1 549 152 153 550
750 3 2 1 1 550 153 154 551
751 3 2 1 1 551 154 155 552
752 3 2 1 1 552 155 156 553
753 3 2 1 1 553 156 157 554
754 3 2 1 1 554 157 158 555
755 3 2 1 1 555 158 159 556
756 3 2 1 1 556 159 160 557
757 3 2 1 1 557 160 161 558
758 3 2 1 1 558 161 162 559
759 3 2 1 1 559 162 163 560
760 3 2 1 1 560 163 164 561
761 3 2 1 1 561 164 165 562
762 3 2 1 1 562 165 166 563
763 3 2 1 1 563 166 167 564
764 3 2 1 1 564 167 168 565
765 3 2 1 1 565 168 169 566
766 3 2 1 1 566 169 170 567
767 3 2 1 1 567 170 171 568
768 3 2 1 1 568 171 172 569
769 3 2 1 1 569 172 173 570
770 3 2 1 1 570 173 174 571
771 3 2 1 1 571 174 175 572
772 3 2 1 1 572 175 176 573
773 3 2 1 1 573 176 177 574
774 3 2 1 1 574 177 178 575
775 3 2 1 1 575 178 179 576
776 3 2 1 1 576 179 180 577
777 3 2 1 1 577 180 181 578
778 3 2 1 1 578 181 182 579
779 3 2 1 1 579 182 183 580
780 3 2 1 1 580 183 184 581
781 3 2 1 1 581 184 185 582
782 3 2 1 1 582 185 186 583
783 3 2 1 1 583 186 187 584
784 3 2 1 1 584 187 188 585
785 3 2 1 1 585 188 189 586
786 3 2 1 1 586 189 190 587
787 3 2 1 1 587 190 191 588
788 3 2 1 1 588 191 192 589
789 3 2 1 1 589 192 193 590
790 3 2 1 1 590 193 194 591
791 3 2 1 1 591 194 195 592
792 3 2 1 1 592 195 196 593
793 3 2 1 1 593 196 197 594
794 3 2 1 1 594 197 198 595
795 3 2 1 1 595 198 199 596
796 3 2 1 1 596 199 200 597
797 3 2 1 1 597 200 201 598
798 3 2 1 1 598 201 202 599
799 3 2 1 1 599 202 203 600
800 3 2 1 1 600 203 3 204
$EndElements
